<svg width="26" height="26" viewBox="0 0 26 26" fill="none" xmlns="http://www.w3.org/2000/svg">
<path d="M22.2216 12.4844L18.6104 3.09521L17.418 9.65356L19.2189 13.9308C19.2353 13.9691 19.2593 14.0036 19.2895 14.0322C19.3196 14.0609 19.3553 14.0831 19.3943 14.0976C19.4334 14.112 19.4749 14.1184 19.5165 14.1162C19.558 14.1141 19.5987 14.1035 19.636 14.0851L22.0735 12.8664C22.1413 12.8325 22.194 12.7746 22.2214 12.704C22.2487 12.6334 22.2488 12.5551 22.2216 12.4844Z" fill="url(#paint0_linear)"/>
<path d="M7.38939 3.09521L3.77814 12.4844C3.75094 12.5551 3.75104 12.6334 3.77842 12.704C3.80579 12.7746 3.85848 12.8325 3.92622 12.8663L6.36371 14.0851C6.40105 14.1035 6.44174 14.114 6.48329 14.1162C6.52484 14.1183 6.5664 14.112 6.60542 14.0975C6.64445 14.0831 6.68013 14.0609 6.71028 14.0322C6.74044 14.0035 6.76444 13.969 6.78083 13.9308L8.58204 9.65356L7.38939 3.09521Z" fill="url(#paint1_linear)"/>
<path d="M17.3674 14.2189C17.3674 13.2092 17.074 12.2135 16.8328 11.5654L14.4783 12.8212L14.4529 13.003L15.7243 13.6812C15.7955 13.7185 15.8585 13.7696 15.9098 13.8314C15.9611 13.8932 15.9997 13.9646 16.0234 14.0414C16.047 14.1182 16.0552 14.1989 16.0475 14.2789C16.0399 14.3589 16.0164 14.4365 15.9786 14.5074C15.9408 14.5783 15.8894 14.641 15.8272 14.692C15.7651 14.7429 15.6935 14.781 15.6165 14.8042C15.5396 14.8273 15.4589 14.835 15.3789 14.8269C15.299 14.8187 15.2215 14.7948 15.1508 14.7565L14.2743 14.2891L13.4067 20.5352L13.9157 25.6243C13.9233 25.6995 13.9585 25.7692 14.0145 25.8198C14.0705 25.8705 14.1434 25.8986 14.2189 25.8985H17.8752C17.9173 25.8985 17.959 25.8898 17.9976 25.8729C18.0362 25.8559 18.0709 25.8312 18.0994 25.8001C18.128 25.7691 18.1498 25.7325 18.1634 25.6926C18.1771 25.6528 18.1823 25.6105 18.1788 25.5685C18.1707 25.4712 17.3674 15.8127 17.3674 14.2189Z" fill="url(#paint2_linear)"/>
<path d="M14.7177 11.0945L14.6851 11.3293L16.3693 10.4311C16.4618 10.3818 16.5655 10.3573 16.6702 10.36L18.1744 2.08578C18.1862 2.02092 18.1767 1.95399 18.1472 1.89502C18.1177 1.83606 18.0699 1.78824 18.011 1.75875L14.761 0.133749C14.7197 0.113089 14.6742 0.102089 14.628 0.101581C14.5818 0.101073 14.5361 0.111071 14.4944 0.130819C14.4526 0.150567 14.4159 0.179547 14.387 0.21557C14.3581 0.251593 14.3378 0.293716 14.3276 0.338753L13.3203 4.7715L14.703 10.7633C14.7281 10.8719 14.7331 10.9841 14.7177 11.0945Z" fill="url(#paint3_linear)"/>
<path d="M9.32944 10.3599C9.43421 10.3572 9.5379 10.3817 9.63037 10.431L12.9999 12.2282L14.0206 11.6837L14.114 11.0107C14.1191 10.9739 14.1173 10.9365 14.1089 10.9003L11.6714 0.337796C11.6611 0.292871 11.6406 0.250882 11.6117 0.214993C11.5828 0.179104 11.5461 0.15025 11.5044 0.130606C11.4626 0.110961 11.417 0.101038 11.3709 0.101584C11.3248 0.10213 11.2794 0.113131 11.2382 0.133757L7.98821 1.75876C7.92925 1.78825 7.88145 1.83606 7.85197 1.89503C7.8225 1.954 7.81295 2.02093 7.82474 2.08579L9.32944 10.3599Z" fill="url(#paint4_linear)"/>
<path d="M13 13.6095L10.8493 14.7565C10.7786 14.7948 10.7011 14.8187 10.6212 14.8269C10.5412 14.835 10.4605 14.8273 10.3835 14.8042C10.3066 14.781 10.235 14.7429 10.1729 14.692C10.1107 14.641 10.0593 14.5783 10.0214 14.5074C9.98363 14.4365 9.96022 14.3589 9.95254 14.2789C9.94486 14.1989 9.95308 14.1182 9.97671 14.0414C10.0003 13.9646 10.0389 13.8932 10.0902 13.8314C10.1416 13.7696 10.2046 13.7185 10.2757 13.6812L11.7051 12.9189L9.16743 11.5654C8.92622 12.2135 8.63281 13.2092 8.63281 14.2189C8.63281 15.8127 7.8295 25.4712 7.82137 25.5685C7.81786 25.6105 7.8231 25.6528 7.83676 25.6926C7.85043 25.7325 7.87222 25.7691 7.90075 25.8001C7.92929 25.8312 7.96395 25.8559 8.00255 25.8729C8.04115 25.8898 8.08284 25.8985 8.12499 25.8985H11.7812C11.8548 25.8985 11.9259 25.8719 11.9813 25.8236C12.0368 25.7753 12.0729 25.7086 12.083 25.6358L13.7014 13.9836L13 13.6095Z" fill="url(#paint5_linear)"/>
<defs>
<linearGradient id="paint0_linear" x1="16.9282" y1="-8.91025" x2="24.016" y2="-8.55577" gradientUnits="userSpaceOnUse">
<stop stop-color="#C79081"/>
<stop offset="1" stop-color="#DFA579"/>
</linearGradient>
<linearGradient id="paint1_linear" x1="3.268" y1="-8.9102" x2="10.3562" y2="-8.55568" gradientUnits="userSpaceOnUse">
<stop stop-color="#C79081"/>
<stop offset="1" stop-color="#DFA579"/>
</linearGradient>
<linearGradient id="paint2_linear" x1="12.9221" y1="-4.04743" x2="19.9426" y2="-3.78029" gradientUnits="userSpaceOnUse">
<stop stop-color="#C79081"/>
<stop offset="1" stop-color="#DFA579"/>
</linearGradient>
<linearGradient id="paint3_linear" x1="12.827" y1="-12.1287" x2="19.9667" y2="-11.7756" gradientUnits="userSpaceOnUse">
<stop stop-color="#C79081"/>
<stop offset="1" stop-color="#DFA579"/>
</linearGradient>
<linearGradient id="paint4_linear" x1="7.18047" y1="-13.1078" x2="16.4232" y2="-12.5594" gradientUnits="userSpaceOnUse">
<stop stop-color="#C79081"/>
<stop offset="1" stop-color="#DFA579"/>
</linearGradient>
<linearGradient id="paint5_linear" x1="7.22319" y1="-4.04743" x2="15.8668" y2="-3.64217" gradientUnits="userSpaceOnUse">
<stop stop-color="#C79081"/>
<stop offset="1" stop-color="#DFA579"/>
</linearGradient>
</defs>
</svg>
