<svg width="26" height="26" viewBox="0 0 26 26" fill="none" xmlns="http://www.w3.org/2000/svg">
<path d="M22.4558 3.74212C22.4012 3.65376 22.3249 3.58083 22.2342 3.53025C22.1435 3.47967 22.0413 3.45312 21.9375 3.45313H20.3081C20.3382 3.63338 20.3548 3.8156 20.358 3.99831C20.3766 4.92026 20.0435 5.8147 19.4265 6.5H19.866C19.4675 7.15 19.005 7.8652 18.4949 8.58528C16.0479 12.0398 14.3661 12.9824 13.3863 13.1649L13 13.2368L12.6137 13.1649C11.6337 12.9824 9.95204 12.0398 7.50514 8.58523C6.99504 7.8651 6.53253 7.14995 6.13405 6.5H13.9783C13.3909 5.84765 13.0598 5.00442 13.0466 4.12664C13.0429 3.90106 13.0598 3.67562 13.0971 3.45313H4.06248C3.95861 3.45313 3.85647 3.47968 3.76575 3.53026C3.67503 3.58084 3.59874 3.65377 3.54414 3.74213C3.48953 3.83048 3.45841 3.93133 3.45374 4.03509C3.44907 4.13885 3.471 4.24209 3.51744 4.33499C4.40096 6.05292 5.401 7.70838 6.51054 9.28977C8.66818 12.3358 10.6425 14.0378 12.3906 14.3628V21.775C11.7304 22.7767 8.84831 24.0324 7.11951 24.6092C6.98207 24.6549 6.86539 24.748 6.79037 24.8719C6.71536 24.9957 6.68692 25.1423 6.71014 25.2852C6.73337 25.4282 6.80674 25.5582 6.91712 25.6519C7.0275 25.7457 7.16766 25.7971 7.31248 25.7969H18.6875C18.8322 25.7969 18.9722 25.7455 19.0824 25.6517C19.1927 25.558 19.266 25.4281 19.2892 25.2852C19.3124 25.1424 19.284 24.996 19.2091 24.8721C19.1342 24.7483 19.0177 24.6552 18.8804 24.6094C17.1516 24.0326 14.2695 22.7769 13.6094 21.775V14.3631C15.3574 14.0376 17.3316 12.3358 19.4894 9.29002C20.599 7.70863 21.599 6.05318 22.4825 4.33525C22.529 4.24231 22.551 4.13903 22.5463 4.03522C22.5416 3.9314 22.5105 3.83051 22.4558 3.74212Z" fill="url(#paint0_linear)"/>
<path d="M16.7018 7.10795C17.1065 7.10833 17.5071 7.02804 17.8804 6.87179C18.2536 6.71554 18.592 6.48645 18.8756 6.19792C19.1593 5.90939 19.3826 5.56721 19.5326 5.19137C19.6825 4.81554 19.756 4.41359 19.7487 4.00903C19.7448 3.79274 19.718 3.57746 19.6688 3.3668C19.9638 3.20752 20.242 3.01909 20.4994 2.80434C21.2726 2.15968 21.7343 1.41517 21.7343 0.8125C21.7343 0.650884 21.6701 0.495887 21.5558 0.381607C21.4415 0.267327 21.2865 0.203125 21.1249 0.203125C20.9633 0.203125 20.8083 0.267327 20.694 0.381607C20.5797 0.495887 20.5155 0.650884 20.5155 0.8125C20.5155 0.944785 20.2751 1.40456 19.7192 1.86779C19.5439 2.01438 19.356 2.14523 19.1577 2.2588C18.8951 1.90123 18.5577 1.60532 18.1688 1.39175C17.78 1.17818 17.3493 1.0521 16.9067 1.02233C16.4641 0.992557 16.0203 1.05981 15.6064 1.21938C15.1925 1.37896 14.8184 1.62701 14.5103 1.94619C14.0947 2.37622 13.8149 2.9191 13.7059 3.50711C13.5968 4.09512 13.6633 4.70223 13.897 5.2527C14.1307 5.80318 14.5213 6.27267 15.0201 6.60259C15.5189 6.93252 16.1038 7.10828 16.7018 7.10795Z" fill="url(#paint1_linear)"/>
<path d="M14.8281 9.34375C15.1647 9.34375 15.4375 9.07092 15.4375 8.73438C15.4375 8.39783 15.1647 8.125 14.8281 8.125C14.4916 8.125 14.2188 8.39783 14.2188 8.73438C14.2188 9.07092 14.4916 9.34375 14.8281 9.34375Z" fill="url(#paint2_linear)"/>
<path d="M11.1719 10.1562C11.5084 10.1562 11.7812 9.88342 11.7812 9.54688C11.7812 9.21033 11.5084 8.9375 11.1719 8.9375C10.8353 8.9375 10.5625 9.21033 10.5625 9.54688C10.5625 9.88342 10.8353 10.1562 11.1719 10.1562Z" fill="url(#paint3_linear)"/>
<path d="M13.2031 11.7812C13.5397 11.7812 13.8125 11.5084 13.8125 11.1719C13.8125 10.8353 13.5397 10.5625 13.2031 10.5625C12.8666 10.5625 12.5938 10.8353 12.5938 11.1719C12.5938 11.5084 12.8666 11.7812 13.2031 11.7812Z" fill="url(#paint4_linear)"/>
<defs>
<linearGradient id="paint0_linear" x1="1.51448" y1="-20.8856" x2="29.3732" y2="-18.1654" gradientUnits="userSpaceOnUse">
<stop stop-color="#C79081"/>
<stop offset="1" stop-color="#DFA579"/>
</linearGradient>
<linearGradient id="paint1_linear" x1="12.8345" y1="-7.31821" x2="24.5262" y2="-5.75498" gradientUnits="userSpaceOnUse">
<stop stop-color="#C79081"/>
<stop offset="1" stop-color="#DFA579"/>
</linearGradient>
<linearGradient id="paint2_linear" x1="14.095" y1="6.79743" x2="15.867" y2="6.99991" gradientUnits="userSpaceOnUse">
<stop stop-color="#C79081"/>
<stop offset="1" stop-color="#DFA579"/>
</linearGradient>
<linearGradient id="paint3_linear" x1="10.4388" y1="7.60993" x2="12.2108" y2="7.81241" gradientUnits="userSpaceOnUse">
<stop stop-color="#C79081"/>
<stop offset="1" stop-color="#DFA579"/>
</linearGradient>
<linearGradient id="paint4_linear" x1="12.47" y1="9.23493" x2="14.242" y2="9.43741" gradientUnits="userSpaceOnUse">
<stop stop-color="#C79081"/>
<stop offset="1" stop-color="#DFA579"/>
</linearGradient>
</defs>
</svg>
