<svg width="26" height="26" viewBox="0 0 26 26" fill="none" xmlns="http://www.w3.org/2000/svg">
<path d="M19.9487 4.07922V4.27736V8.11961V8.31775C21.1142 8.25146 21.1178 7.16418 21.1178 6.19849C21.1178 5.2328 21.1142 4.14556 19.9487 4.07922Z" fill="url(#paint0_linear)"/>
<path d="M13.3756 14.1706C12.1065 14.4133 11.5391 15.13 11.5391 15.977C11.5391 16.9721 12.3233 17.7862 14.1066 17.864C14.6924 18.9651 15.7403 19.737 17.6185 19.737C21.8717 19.737 21.8717 15.7796 21.8717 13H13.3649C13.3649 13.3729 13.3653 13.7676 13.3756 14.1706ZM18.9778 17.9009C19.6945 16.8423 19.957 15.6339 19.9542 14.3684C19.953 13.7723 20.8771 13.7723 20.8782 14.3684C20.881 15.7844 20.5773 17.1829 19.7755 18.3675C19.4436 18.8579 18.6427 18.3961 18.9778 17.9009ZM12.6331 15.9968C12.6247 15.5374 12.7224 15.1788 13.4142 14.9986C13.4634 15.6919 13.5627 16.3856 13.7608 17.021C12.7605 16.8903 12.6426 16.5281 12.6331 15.9968Z" fill="url(#paint1_linear)"/>
<path d="M8.83057 23.7214H22.938C23.5757 23.7214 23.92 23.0682 23.92 22.4531V21.5537C23.92 20.8746 23.5253 20.148 22.9384 20.1476H9.92136C9.46075 20.1476 9.08787 20.0225 8.83057 19.7974V23.7214Z" fill="url(#paint2_linear)"/>
<path d="M15.331 2.27844H3.17444C2.54031 2.27844 2.08008 2.73828 2.08008 3.37124V22.4531C2.08008 23.0657 2.51964 23.7214 3.17444 23.7214H8.43352V18.8546V13.7941V12.8173V12.8169C8.43352 11.9893 9.04543 11.4116 9.92143 11.4116H15.331C15.9759 11.4116 16.3754 10.7405 16.3754 10.1186V9.4261V9.02899V3.46973V3.37163C16.3754 3.2648 16.3607 3.16675 16.3392 3.07262C16.2296 2.5886 15.854 2.27844 15.331 2.27844ZM7.57222 7.1746C7.54999 7.1746 7.52733 7.17299 7.50471 7.16864L7.1926 7.11505C6.92338 7.70991 6.32774 8.12525 5.63244 8.12525C4.68536 8.12525 3.91742 7.35765 3.91742 6.41062C3.91742 5.46359 4.68502 4.69599 5.63244 4.69599C6.55368 4.69599 7.29905 5.42387 7.33954 6.3348L7.63934 6.38605C7.85536 6.42298 8.0007 6.62825 7.96337 6.84471C7.93001 7.03797 7.76206 7.1746 7.57222 7.1746Z" fill="url(#paint3_linear)"/>
<path d="M17.7429 9.82317H17.8703H18.5041H18.6486L18.7765 9.4261L18.9044 9.02899H19.5516V3.46973H16.772V9.02899H17.3788L17.561 9.4261L17.7429 9.82317Z" fill="url(#paint4_linear)"/>
<defs>
<linearGradient id="paint0_linear" x1="19.83" y1="-0.537742" x2="21.5503" y2="-0.483526" gradientUnits="userSpaceOnUse">
<stop stop-color="#C79081"/>
<stop offset="1" stop-color="#DFA579"/>
</linearGradient>
<linearGradient id="paint1_linear" x1="10.49" y1="5.66143" x2="25.2561" y2="8.24917" gradientUnits="userSpaceOnUse">
<stop stop-color="#C79081"/>
<stop offset="1" stop-color="#DFA579"/>
</linearGradient>
<linearGradient id="paint2_linear" x1="7.2985" y1="15.523" x2="25.9279" y2="23.7086" gradientUnits="userSpaceOnUse">
<stop stop-color="#C79081"/>
<stop offset="1" stop-color="#DFA579"/>
</linearGradient>
<linearGradient id="paint3_linear" x1="0.628642" y1="-21.079" x2="21.5635" y2="-19.4843" gradientUnits="userSpaceOnUse">
<stop stop-color="#C79081"/>
<stop offset="1" stop-color="#DFA579"/>
</linearGradient>
<linearGradient id="paint4_linear" x1="16.4897" y1="-3.45098" x2="20.5738" y2="-3.24682" gradientUnits="userSpaceOnUse">
<stop stop-color="#C79081"/>
<stop offset="1" stop-color="#DFA579"/>
</linearGradient>
</defs>
</svg>
