<svg width="26" height="26" viewBox="0 0 26 26" fill="none" xmlns="http://www.w3.org/2000/svg">
<path d="M8.82305 13.3335C8.84012 13.0554 8.8572 12.7769 8.89366 12.4956C8.96107 11.8287 9.10591 11.159 9.2539 10.5076C9.34398 10.1827 9.44157 9.8617 9.54393 9.5479C9.67485 9.24161 9.80296 8.93697 9.93074 8.63942C10.22 8.05861 10.5433 7.51589 10.9293 7.06162C11.0209 6.94457 11.1118 6.83114 11.2007 6.7173C11.3022 6.61575 11.4039 6.51734 11.5018 6.41893C11.7085 6.23209 11.8878 6.02974 12.0941 5.88134C12.5055 5.57669 12.8694 5.28707 13.2399 5.10774C13.597 4.90853 13.9032 4.73562 14.1793 4.63803C14.7204 4.42025 15.0275 4.31078 15.0275 4.31078C15.0275 4.31078 14.7656 4.51866 14.3079 4.85588C14.0714 5.01022 13.8207 5.25381 13.5223 5.50335C13.2113 5.74134 12.9296 6.08253 12.5948 6.40951C12.4273 6.57655 12.2973 6.78641 12.1389 6.9796C12.062 7.07801 11.983 7.17717 11.9016 7.27797C11.8358 7.38908 11.7676 7.50053 11.6985 7.61437C11.403 8.05239 11.182 8.56656 10.9518 9.08823C10.8574 9.36119 10.7618 9.63811 10.6642 9.91777C10.5975 10.2086 10.5238 10.5025 10.4433 10.7953C10.3223 11.3971 10.2036 12.0109 10.1524 12.642C10.1168 12.871 10.0997 13.1018 10.0782 13.3343C15.0933 13.3351 18.9749 13.3383 24.4061 13.3383C24.4244 13.1002 24.4347 12.859 24.4347 12.6166C24.4347 8.04242 21.1013 4.27506 16.8119 3.77599C17.0888 3.51696 17.2642 3.14955 17.2642 2.7409C17.2658 1.95541 16.6294 1.31982 15.8455 1.31982C15.0608 1.31982 14.4237 1.95541 14.4237 2.7409C14.4237 3.15037 14.5983 3.51689 14.8759 3.77599C10.5869 4.27506 7.25439 8.04242 7.25439 12.6166C7.25439 12.8583 7.26307 13.0962 7.28096 13.3336C7.81063 13.3335 8.322 13.3335 8.82305 13.3335Z" fill="url(#paint0_linear)"/>
<path d="M25.9998 13.8627H5.69043V15.6544H25.9998V13.8627Z" fill="url(#paint1_linear)"/>
<path d="M17.6625 16.9263C16.6303 17.4277 13.0312 18.7258 13.0312 18.7258L8.77667 18.4593C8.77667 18.4593 11.2102 17.7824 12.1536 17.5706C13.0986 17.3595 12.6876 16.2939 12.1651 16.2939C11.6427 16.2939 7.08939 16.482 7.08939 16.482L4.06592 17.5706L4.86609 22.6352C4.86609 22.6352 5.48857 21.5696 6.10947 21.5696C6.7327 21.5696 12.131 21.7132 12.8638 21.5696C13.597 21.4243 18.0625 18.3695 18.5973 18.0132C19.1297 17.6586 18.6988 16.424 17.6625 16.9263Z" fill="url(#paint2_linear)"/>
<path d="M0 18.115V24.68L4.63221 23.8127L3.47337 17.5039L0 18.115Z" fill="url(#paint3_linear)"/>
<defs>
<linearGradient id="paint0_linear" x1="5.51004" y1="-11.7717" x2="30.1583" y2="-7.74564" gradientUnits="userSpaceOnUse">
<stop stop-color="#C79081"/>
<stop offset="1" stop-color="#DFA579"/>
</linearGradient>
<linearGradient id="paint1_linear" x1="3.62837" y1="11.911" x2="14.8006" y2="26.3816" gradientUnits="userSpaceOnUse">
<stop stop-color="#C79081"/>
<stop offset="1" stop-color="#DFA579"/>
</linearGradient>
<linearGradient id="paint2_linear" x1="2.56727" y1="9.3865" x2="22.8722" y2="14.787" gradientUnits="userSpaceOnUse">
<stop stop-color="#C79081"/>
<stop offset="1" stop-color="#DFA579"/>
</linearGradient>
<linearGradient id="paint3_linear" x1="-0.47032" y1="9.68706" x2="6.31582" y2="10.1876" gradientUnits="userSpaceOnUse">
<stop stop-color="#C79081"/>
<stop offset="1" stop-color="#DFA579"/>
</linearGradient>
</defs>
</svg>
