<svg width="40" height="40" viewBox="0 0 40 40" fill="none" xmlns="http://www.w3.org/2000/svg">
<g clip-path="url(#clip0)">
<path d="M39.988 10.6241L39.8089 9.335C39.764 9.01151 39.595 8.72556 39.3328 8.53056C39.071 8.33525 38.7487 8.25468 38.4255 8.30442L17.4548 11.5118C17.5284 10.8673 17.7127 10.4736 17.9477 9.97465C17.9873 9.89042 18.0282 9.79978 18.0694 9.70335L37.3025 3.92637C37.6153 3.83238 37.8717 3.6215 38.0249 3.3328C38.1774 3.04411 38.2077 2.7133 38.1094 2.40171L37.7182 1.16056C37.6199 0.848977 37.4057 0.595376 37.1148 0.44645C36.824 0.297219 36.4929 0.271889 36.1825 0.374428L30.4507 2.26743C30.144 2.36875 29.9774 2.69956 30.0787 3.00657C30.18 3.31327 30.5105 3.4799 30.8178 3.37858L36.5496 1.48557C36.5539 1.48405 36.5664 1.48008 36.5814 1.48801C36.5969 1.49564 36.6006 1.50816 36.6018 1.51212L36.9934 2.75358C36.9946 2.75755 36.9986 2.77006 36.9903 2.78532C36.9824 2.80058 36.9699 2.80424 36.9659 2.80546L18.536 8.34104C18.544 8.31144 18.5507 8.28123 18.5583 8.25163C18.565 8.22447 18.5717 8.19761 18.5782 8.17045C18.5898 8.12223 18.601 8.07401 18.612 8.02549C18.6187 7.99497 18.6255 7.96446 18.6322 7.93363C18.6419 7.88786 18.6514 7.84208 18.6602 7.7963C18.6676 7.76029 18.6746 7.72398 18.6813 7.68736C18.6889 7.64585 18.6966 7.60465 18.7039 7.56315C18.7112 7.52073 18.7182 7.4777 18.7249 7.43467C18.7283 7.4127 18.7326 7.39073 18.7359 7.36906L28.2116 4.23948C28.5183 4.13816 28.685 3.80705 28.5836 3.50034C28.4823 3.19334 28.1515 3.02671 27.8445 3.12803L18.6761 6.15629C18.6123 6.04582 18.5281 5.94633 18.4247 5.86454C18.1555 5.65244 17.8006 5.58958 17.4753 5.69731L16.5115 6.0156C16.1215 6.14408 15.8487 6.49137 15.8163 6.90031C15.8105 6.97263 15.8032 7.0413 15.795 7.10783L14.5062 7.53355C14.4546 7.44383 14.3899 7.36112 14.3115 7.28941C14.0405 7.0413 13.6554 6.9589 13.3063 7.07426L12.2336 7.42857C11.9436 7.52409 11.7142 7.7432 11.6037 8.02854C11.5317 8.21409 11.4474 8.39506 11.3647 8.57084L9.98838 9.02555C9.95451 8.96665 9.91483 8.9105 9.86845 8.85832C9.59837 8.55345 9.17387 8.439 8.78721 8.56657L7.60893 8.95567C7.30986 9.05454 7.07762 9.28007 6.97172 9.57426C6.91221 9.73844 6.86094 9.90507 6.81456 10.0735L5.49834 10.5084C5.4434 10.4132 5.37199 10.3259 5.28593 10.2502C5.01219 10.0104 4.64232 9.93559 4.29686 10.0497L3.33128 10.3686C2.95104 10.4944 2.67882 10.8337 2.63762 11.2332C2.62999 11.3077 2.62328 11.3833 2.61717 11.4599L1.32689 11.8863C0.700977 12.0929 0.353077 12.7725 0.551136 13.4012L0.642383 13.6902C0.748279 14.0265 0.990894 14.284 1.28997 14.4229C1.14897 14.6536 1.08336 14.9322 1.12303 15.2188L1.16484 15.5191C1.24877 16.1218 1.77123 16.5637 2.36571 16.5637C2.41515 16.5637 2.46489 16.5606 2.51524 16.5545L3.70665 16.4053C3.85558 16.8088 3.94896 17.2537 3.94896 17.9571C3.94896 19.0423 3.72771 19.5129 3.42101 20.1645C3.23241 20.5655 3.02397 21.0095 2.86253 21.5823H0.923755C0.663135 21.5823 0.413502 21.6931 0.238636 21.886C0.0640756 22.0791 -0.0213735 22.3385 0.00456641 22.5979C0.358875 26.1447 1.90856 32.6901 8.2971 36.8265V37.8277C8.2971 38.8128 9.0988 39.6145 10.0842 39.6145H25.3384C26.3235 39.6145 27.1252 38.8128 27.1252 37.8277V36.8222C33.5079 32.6858 35.0573 26.1432 35.4116 22.5976C35.4376 22.3385 35.3521 22.0791 35.1773 21.886C35.0027 21.6931 34.7531 21.5823 34.4928 21.5823H17.9214C17.9303 21.5634 17.9385 21.5454 17.9477 21.5259C18.3175 20.7391 18.7784 19.7601 18.7784 17.9571C18.7784 16.3186 18.3978 15.3607 18.0508 14.609L38.9389 11.9931C39.263 11.9525 39.551 11.7874 39.7497 11.528C39.9487 11.2689 40.0332 10.9479 39.988 10.6241ZM1.75841 13.3383L1.66747 13.0493C1.66075 13.0276 1.67266 13.0047 1.69371 12.9977L2.60375 12.6971C2.60527 12.727 2.60741 12.7557 2.60924 12.7853C2.61046 12.8033 2.61138 12.8213 2.6126 12.8393C2.61565 12.8821 2.6187 12.9245 2.62236 12.9669C2.62236 12.9693 2.62267 12.9715 2.62297 12.9739C2.62694 13.0218 2.6306 13.07 2.63548 13.1173L1.80968 13.3655C1.78801 13.3719 1.76543 13.3597 1.75841 13.3383ZM2.36998 15.3934C2.3477 15.3958 2.32695 15.3802 2.3239 15.358L2.2824 15.0577C2.27904 15.0354 2.2946 15.0146 2.31688 15.0113L3.05022 14.8993C3.05266 14.906 3.05541 14.9124 3.05815 14.9194C3.07921 14.975 3.10088 15.029 3.12254 15.0821C3.12621 15.0909 3.12956 15.1001 3.13353 15.1089C3.15764 15.1681 3.18236 15.2258 3.20708 15.2823C3.20769 15.2841 3.2086 15.2862 3.20952 15.2881L2.36998 15.3934ZM15.9567 10.0833C15.957 10.0824 15.9573 10.0815 15.9576 10.0805C16.0183 9.9011 16.0852 9.73387 16.1545 9.57395C16.1545 9.57365 16.1548 9.57334 16.1548 9.57273C16.224 9.41313 16.2957 9.26084 16.3662 9.111C16.3736 9.09513 16.3812 9.07896 16.3885 9.06309C16.3998 9.03898 16.4114 9.01457 16.4227 8.99015C16.4312 8.97215 16.4395 8.95414 16.448 8.93583C16.4691 8.89005 16.4905 8.84397 16.5112 8.79728C16.514 8.79118 16.5167 8.78477 16.5197 8.77836C16.5384 8.73625 16.557 8.69322 16.5756 8.64988C16.5811 8.63737 16.5863 8.62455 16.5918 8.61173C16.6119 8.56352 16.6317 8.51469 16.6513 8.46464C16.6559 8.45335 16.6598 8.44175 16.6644 8.43046C16.68 8.38957 16.6952 8.34806 16.7102 8.30595C16.7157 8.28977 16.7215 8.2736 16.7273 8.25712C16.7444 8.20738 16.7608 8.15672 16.7767 8.10453C16.7825 8.08592 16.788 8.06669 16.7935 8.04746C16.8051 8.00779 16.8164 7.9672 16.8274 7.92631C16.8326 7.90617 16.838 7.88603 16.8432 7.86558C16.857 7.81034 16.8701 7.75358 16.8823 7.69529C16.8841 7.68675 16.8863 7.67912 16.8881 7.67027C16.889 7.6666 16.889 7.66294 16.8899 7.65898C16.9253 7.48594 16.954 7.29978 16.9739 7.09532L17.6196 6.882C17.6101 6.96378 17.6001 7.04557 17.5882 7.12705C17.5863 7.14048 17.5842 7.1533 17.5824 7.16642C17.5717 7.23753 17.5604 7.30802 17.5479 7.37882C17.5445 7.39866 17.5412 7.4185 17.5375 7.43803C17.5226 7.51951 17.507 7.60099 17.4899 7.68186C17.489 7.68614 17.4878 7.69041 17.4869 7.69468C17.4707 7.77006 17.4533 7.84483 17.435 7.9196C17.4292 7.94309 17.4234 7.96629 17.4176 7.98979C17.399 8.06333 17.3797 8.13658 17.3593 8.20951C17.3568 8.21806 17.3544 8.22691 17.352 8.23545C17.3303 8.31053 17.3077 8.38529 17.2842 8.46006C17.2796 8.47471 17.2748 8.48997 17.2702 8.50462C17.2445 8.58427 17.2177 8.66331 17.1899 8.74204C17.1881 8.74754 17.1863 8.75273 17.1841 8.75791C17.1542 8.84184 17.1231 8.92546 17.0901 9.00816C17.0898 9.00907 17.0898 9.00968 17.0895 9.0106C17.0212 9.18363 16.9531 9.33958 16.8887 9.4763C16.56 10.1748 16.2497 10.8346 16.2497 12.1811C16.2497 12.1875 16.25 12.193 16.25 12.1991V12.2C16.25 12.2677 16.2512 12.3337 16.253 12.3984C16.2539 12.4408 16.2561 12.4814 16.2576 12.5226C16.2588 12.5467 16.2597 12.5711 16.261 12.5949C16.2634 12.6422 16.2665 12.6886 16.2698 12.7344C16.2707 12.745 16.2716 12.7557 16.2723 12.7664C16.3058 13.1939 16.376 13.5431 16.4679 13.8495C16.4688 13.8531 16.47 13.8568 16.4712 13.8605C16.503 13.9657 16.5371 14.0664 16.5735 14.1632C16.5741 14.1644 16.5747 14.1659 16.575 14.1672C16.6702 14.4208 16.7782 14.6518 16.8887 14.8868C17.2424 15.6384 17.608 16.416 17.608 17.9571C17.608 19.4986 17.2424 20.2759 16.8887 21.0278C16.8051 21.206 16.7193 21.3876 16.64 21.5823H15.9753C16.0934 21.2427 16.2314 20.9497 16.3662 20.6625C16.6949 19.964 17.0053 19.3039 17.0053 17.9571C17.0053 16.6107 16.6949 15.9506 16.3662 15.2517C16.2106 14.9212 16.0528 14.5852 15.925 14.1821C15.9247 14.1809 15.9244 14.18 15.924 14.1791C15.7596 13.6587 15.6701 13.0939 15.6512 12.4518C15.6512 12.4512 15.6509 12.4502 15.6509 12.4493C15.6485 12.3626 15.6473 12.2735 15.6473 12.1814C15.6469 11.2628 15.777 10.6155 15.9567 10.0833ZM13.9859 21.5259C14.3557 20.7391 14.8163 19.7601 14.8163 17.9571C14.8163 16.6403 14.5706 15.7632 14.2941 15.0793L14.9731 14.9945C15.083 15.2731 15.1989 15.52 15.307 15.7501C15.6137 16.4013 15.8349 16.8719 15.8349 17.9571C15.8349 19.0423 15.6137 19.5129 15.307 20.1645C15.1184 20.5655 14.9099 21.0095 14.7488 21.5823H13.9596C13.9685 21.5631 13.9767 21.5451 13.9859 21.5259ZM13.7918 13.9627C13.7878 13.9532 13.7835 13.9438 13.7796 13.934C13.7686 13.9078 13.7576 13.8812 13.7469 13.8543C13.7372 13.8302 13.7277 13.8061 13.7185 13.782C13.703 13.7414 13.6877 13.7002 13.6734 13.6584C13.6697 13.6484 13.6664 13.638 13.663 13.6279C13.6276 13.5217 13.5953 13.4106 13.5678 13.2904L14.5245 13.1442C14.5254 13.1512 14.5266 13.1579 14.5273 13.165C14.5392 13.2754 14.5529 13.3822 14.5685 13.4854C14.57 13.4964 14.5715 13.5074 14.5733 13.5184C14.5901 13.6267 14.6087 13.7311 14.6292 13.8318C14.6307 13.8403 14.6319 13.8492 14.6335 13.8574L13.7918 13.9627ZM14.4781 8.77531L15.3689 8.48112C15.3656 8.48783 15.3625 8.49424 15.3595 8.50096C15.3463 8.52964 15.3329 8.55833 15.3192 8.58702C15.3152 8.59556 15.3113 8.6041 15.307 8.61296C15.2221 8.79301 15.1327 8.98374 15.0451 9.19187C15.043 9.19645 15.0412 9.20103 15.039 9.20591C15.0125 9.27 14.9856 9.33561 14.9594 9.40306C14.9576 9.40794 14.9557 9.41252 14.9539 9.4174L14.1296 9.6649C14.2495 9.40092 14.371 9.11131 14.4781 8.77531ZM13.5711 11.0547L14.5889 10.7489C14.5285 11.1072 14.4888 11.5097 14.479 11.9671L13.4585 12.1231C13.4622 11.6833 13.5025 11.3452 13.5711 11.0547ZM11.737 11.2423C11.7373 11.2408 11.7376 11.2396 11.738 11.2384C11.8084 10.6491 11.943 10.1959 12.0968 9.80497C12.0987 9.80039 12.1002 9.79612 12.102 9.79154C12.128 9.72624 12.1545 9.66245 12.1811 9.6002C12.1856 9.58982 12.1899 9.57975 12.1945 9.56938C12.2033 9.54862 12.2125 9.52818 12.2214 9.50773C12.2259 9.49796 12.2302 9.48759 12.2348 9.47782C12.2473 9.44944 12.2601 9.42137 12.2726 9.39359C12.2757 9.38719 12.2787 9.38078 12.2818 9.37437C12.2925 9.35087 12.3031 9.32737 12.3138 9.30418C12.344 9.23948 12.3739 9.17509 12.4042 9.111C12.4884 8.93217 12.583 8.73136 12.669 8.51713L13.4051 8.2739C13.2715 8.73625 13.0969 9.11436 12.9388 9.45036C12.9349 9.45921 12.9306 9.46775 12.9266 9.4766C12.9211 9.48759 12.9162 9.49858 12.911 9.50987C12.8985 9.53581 12.8863 9.56205 12.8741 9.5886C12.8637 9.61057 12.8534 9.63285 12.843 9.65513C12.8357 9.671 12.8283 9.68687 12.821 9.70304C12.8073 9.73265 12.7939 9.76255 12.7804 9.79246C12.7774 9.79887 12.7743 9.80558 12.7716 9.8123C12.5067 10.404 12.2876 11.0504 12.2876 12.1811C12.2876 12.4258 12.298 12.6471 12.3169 12.8509V12.8546C12.3172 12.8561 12.3172 12.8576 12.3175 12.8589C12.3202 12.8879 12.3236 12.915 12.3266 12.9431C12.33 12.9748 12.3334 13.0069 12.337 13.0377C12.3422 13.078 12.3477 13.117 12.3535 13.1558C12.3553 13.1695 12.3575 13.1836 12.3596 13.1973C12.428 13.641 12.5396 13.9938 12.6706 14.3152C12.6751 14.3262 12.6794 14.3374 12.684 14.3481C12.6895 14.3619 12.6953 14.375 12.7011 14.3884C12.7145 14.4211 12.7282 14.4531 12.7423 14.4848C12.745 14.4909 12.7475 14.497 12.7502 14.5032C12.8027 14.6225 12.8558 14.7357 12.9074 14.8456C12.9074 14.8459 12.9077 14.8462 12.9077 14.8462C12.9141 14.8596 12.9202 14.873 12.9266 14.8861C13.2803 15.6381 13.6459 16.4154 13.6459 17.9568C13.6459 19.4986 13.2803 20.2759 12.9266 21.0275C12.8427 21.2057 12.7572 21.3873 12.6776 21.582H12.0129C12.1313 21.2424 12.269 20.9494 12.4038 20.6622C12.7325 19.9637 13.0432 19.3039 13.0432 17.9568C13.0432 16.6101 12.7328 15.9503 12.4042 15.2514C12.3071 15.0455 12.2091 14.837 12.1182 14.6118C12.1182 14.6115 12.1182 14.6112 12.1179 14.6109C11.9058 14.0857 11.7846 13.5916 11.7251 13.0093C11.7248 13.0075 11.7245 13.0057 11.7242 13.0038C11.6989 12.7551 11.6849 12.4829 11.6849 12.1811C11.6849 11.8319 11.7038 11.5219 11.737 11.2423ZM11.3452 15.7501C11.6516 16.4013 11.8728 16.8719 11.8728 17.9571C11.8728 19.0423 11.6516 19.5129 11.3452 20.1645C11.1566 20.5655 10.9479 21.0098 10.7867 21.5823H9.99754C10.0064 21.5631 10.0149 21.5451 10.0238 21.5259C10.394 20.7391 10.8545 19.7598 10.8545 17.9571C10.8545 16.9256 10.7037 16.1642 10.5054 15.5539L11.2127 15.4654C11.2573 15.5633 11.3019 15.6582 11.3452 15.7501ZM9.90263 14.1275C9.90202 14.1266 9.90171 14.1257 9.9011 14.1247C9.86234 14.039 9.82542 13.9541 9.79063 13.8681L10.6479 13.7372C10.6497 13.7469 10.6521 13.7564 10.654 13.7665C10.6705 13.8525 10.6882 13.9364 10.7068 14.0176C10.711 14.0359 10.7156 14.0542 10.7199 14.0729C10.74 14.1574 10.7611 14.2392 10.7834 14.3185C10.7852 14.3252 10.7867 14.3323 10.7886 14.339L10.0442 14.432C10.0375 14.4174 10.0305 14.4028 10.0238 14.3884C10.0226 14.386 10.0216 14.3835 10.0204 14.3811C9.97984 14.2947 9.94016 14.2105 9.90263 14.1275ZM9.87577 10.2954L10.798 9.99082C10.7757 10.0671 10.755 10.1471 10.7348 10.2283C10.7333 10.234 10.7318 10.2398 10.7303 10.2456C10.7037 10.3537 10.679 10.466 10.6564 10.5835C10.6552 10.5902 10.654 10.5972 10.6524 10.6039C10.6454 10.6412 10.6384 10.6775 10.6317 10.7156L9.61821 11.0199C9.68229 10.7602 9.76957 10.5337 9.87577 10.2954ZM10.5169 11.972C10.5157 12.0407 10.5148 12.11 10.5148 12.1814C10.5148 12.3163 10.5176 12.4463 10.5224 12.5723L9.51811 12.7258C9.50621 12.5891 9.49949 12.4399 9.49736 12.2781L10.5169 11.972ZM8.96879 9.46806L8.97886 9.47294C8.97734 9.47538 8.9755 9.47813 8.97398 9.48057L8.96513 9.4766C8.96604 9.47355 8.96727 9.4708 8.96879 9.46806ZM7.7252 11.9836C7.72612 11.9443 7.72764 11.9064 7.72886 11.8683C7.72978 11.8448 7.73039 11.8207 7.7313 11.7975C7.73344 11.7514 7.73588 11.7068 7.73863 11.6626C7.73954 11.6482 7.74015 11.6339 7.74107 11.6199C7.74412 11.5729 7.74778 11.5271 7.75145 11.4822C7.75236 11.4712 7.75328 11.4605 7.75419 11.4499C7.75847 11.4035 7.76274 11.3583 7.76762 11.3141C7.76854 11.3055 7.76945 11.2967 7.77067 11.2881C7.78471 11.163 7.8015 11.0464 7.81981 10.9369C7.82438 10.9103 7.82866 10.8838 7.83354 10.8575C7.83751 10.8362 7.84147 10.8154 7.84544 10.7947C7.85337 10.7544 7.86131 10.7144 7.87016 10.6744C7.92509 10.4196 7.98826 10.2118 8.04655 10.0436L8.81987 9.78819C8.5504 10.3866 8.32548 11.0351 8.32548 12.1814C8.32548 13.3313 8.55192 13.9804 8.82261 14.5807C8.82292 14.5813 8.82322 14.5819 8.82353 14.5825C8.84642 14.6325 8.869 14.6826 8.89219 14.7323C8.89311 14.7339 8.89372 14.7357 8.89463 14.7372C8.91752 14.787 8.94102 14.8367 8.96452 14.8865C8.96696 14.8916 8.9691 14.8965 8.97154 14.9014C8.99961 14.9612 9.028 15.022 9.05668 15.0836C9.0579 15.0863 9.05912 15.0891 9.06034 15.0918C9.09208 15.1605 9.12382 15.2304 9.15525 15.3018H9.15556C9.43846 15.9451 9.68382 16.6949 9.68382 17.9571C9.68382 19.4983 9.31791 20.2759 8.96452 21.0278C8.8806 21.2057 8.79515 21.3876 8.7155 21.582H8.05082C8.16923 21.2424 8.30687 20.9494 8.44206 20.6622C8.77073 19.9637 9.0811 19.3036 9.0811 17.9571C9.0811 16.6107 8.77073 15.9506 8.44175 15.2517C8.41124 15.1864 8.38041 15.1208 8.3499 15.0549C8.3499 15.0549 8.3499 15.0546 8.34959 15.0546C8.32731 15.0064 8.30473 14.9573 8.28215 14.9066C8.28154 14.9051 8.28093 14.9035 8.28032 14.9023C8.11766 14.5404 7.94828 14.1095 7.84178 13.5519C7.84117 13.5498 7.84056 13.5476 7.83995 13.5455C7.77586 13.2071 7.73375 12.8207 7.7249 12.3648C7.7249 12.3645 7.7249 12.3642 7.7249 12.3639C7.72368 12.3041 7.72276 12.2433 7.72276 12.1811C7.72306 12.1145 7.72368 12.0486 7.7252 11.9836ZM7.46916 15.9341C7.73008 16.4978 7.91105 16.9769 7.91105 17.9571C7.91105 19.0423 7.6895 19.5129 7.3831 20.1645C7.1945 20.5655 6.98607 21.0095 6.82463 21.5823H6.03544C6.0446 21.5634 6.05284 21.5454 6.06199 21.5259C6.43187 20.7391 6.89238 19.7601 6.89238 17.9571C6.89238 17.1792 6.80662 16.5548 6.67936 16.033L7.46916 15.9341ZM6.82188 14.3222C6.82371 14.3289 6.82585 14.335 6.82768 14.3414C6.84965 14.4189 6.87224 14.494 6.89573 14.5669C6.89848 14.5749 6.90123 14.5828 6.90367 14.5907C6.92839 14.6664 6.95372 14.74 6.97966 14.8114C6.98027 14.8126 6.98088 14.8144 6.98118 14.8157L6.29576 14.9017C6.29545 14.9011 6.29515 14.9005 6.29515 14.9002C6.22435 14.7354 6.15263 14.5816 6.08366 14.4351L6.82188 14.3222ZM6.60399 13.1717L6.43889 13.1967L6.60154 13.1479C6.60216 13.1558 6.60307 13.1637 6.60399 13.1717ZM5.5377 11.9647C5.53801 11.9552 5.53801 11.9458 5.53831 11.9366C5.54075 11.8683 5.54442 11.8017 5.54899 11.7367C5.5493 11.7325 5.5496 11.7282 5.54991 11.7239L6.58507 11.3821C6.58354 11.3977 6.58293 11.4139 6.58171 11.4294C6.57896 11.4667 6.57652 11.5042 6.57408 11.5417C6.5695 11.6119 6.56553 11.683 6.56248 11.7547C6.56065 11.7929 6.55913 11.8313 6.55821 11.8698C6.55729 11.8933 6.55607 11.9162 6.55546 11.94L5.53496 12.2464C5.53465 12.2244 5.53404 12.2037 5.53404 12.1814C5.53404 12.1069 5.53557 12.0352 5.5377 11.9647ZM3.85954 13.4418C3.85924 13.4396 3.85924 13.4378 3.85893 13.4356C3.82597 13.2434 3.80186 13.0447 3.78539 12.8372C3.78539 12.8338 3.78508 12.8302 3.78478 12.8268C3.78142 12.7835 3.77837 12.7395 3.77592 12.6956C3.77501 12.6797 3.77409 12.6639 3.77318 12.6477C3.77165 12.6147 3.76982 12.5812 3.7686 12.5476C3.76769 12.5293 3.76707 12.511 3.76646 12.4923C3.76524 12.4582 3.76433 12.4234 3.76372 12.3886C3.76341 12.3718 3.7628 12.355 3.7625 12.3382C3.76158 12.2864 3.76097 12.2342 3.76097 12.1814C3.76097 12.1307 3.76189 12.0807 3.7628 12.0306C3.76341 11.994 3.76433 11.9577 3.76524 11.9217C3.77013 11.7596 3.77898 11.6012 3.79271 11.4486L4.42442 11.2402C4.4174 11.289 4.41191 11.3394 4.40642 11.3897C4.40459 11.4062 4.40214 11.4224 4.40031 11.4392C4.39421 11.4975 4.38933 11.5576 4.38506 11.6177C4.38353 11.6379 4.38139 11.6574 4.38017 11.6775C4.37621 11.7367 4.37346 11.7975 4.37102 11.8588C4.3701 11.8808 4.36858 11.9021 4.36797 11.9247C4.36522 12.0083 4.364 12.0938 4.364 12.1814C4.364 12.2641 4.36522 12.3449 4.36736 12.4243C4.3994 13.5061 4.64568 14.118 4.92247 14.7146C4.92522 14.7204 4.92796 14.7265 4.93071 14.7326C4.95482 14.7839 4.97862 14.8352 5.00304 14.8868C5.00426 14.8892 5.00548 14.8916 5.0067 14.8944C5.0363 14.9573 5.06621 15.0207 5.09581 15.0854C5.09642 15.0863 5.09703 15.0876 5.09733 15.0888C5.19163 15.2926 5.28532 15.505 5.36986 15.7379C5.36986 15.7382 5.37016 15.7382 5.37016 15.7385C5.57158 16.2936 5.72233 16.9678 5.72233 17.9571C5.72233 19.4986 5.35673 20.2759 5.00304 21.0278C4.91911 21.206 4.83366 21.3876 4.75401 21.5823H4.08934C4.20775 21.2427 4.34538 20.9497 4.48058 20.6625C4.80894 19.964 5.11961 19.3039 5.11961 17.9571C5.11961 16.6128 4.81016 15.9527 4.4821 15.2554C4.48149 15.2542 4.48119 15.253 4.48058 15.2517C4.4641 15.2173 4.44792 15.1825 4.43175 15.1477C4.42595 15.1358 4.42046 15.1236 4.41466 15.1114C4.39757 15.0747 4.38048 15.0375 4.36308 15C4.35942 14.992 4.35576 14.9841 4.3521 14.9762C4.33379 14.9362 4.31578 14.8956 4.29747 14.8544C4.29533 14.8495 4.29289 14.8443 4.29076 14.8392C4.27153 14.7955 4.2523 14.7513 4.23338 14.7061C4.23247 14.704 4.23186 14.7021 4.23094 14.7C4.15068 14.5086 4.07469 14.3051 4.00816 14.0805C4.00786 14.079 4.00725 14.0777 4.00694 14.0762C3.94957 13.8827 3.89952 13.6734 3.85954 13.4418ZM34.2184 22.7527C33.832 26.1569 32.2888 32.1249 26.4108 35.8899H14.4351C14.1119 35.8899 13.8501 36.152 13.8501 36.4752C13.8501 36.7984 14.1119 37.0602 14.4351 37.0602H25.9549V37.8274C25.9549 38.1677 25.6784 38.4442 25.3384 38.4442H10.0842C9.74424 38.4442 9.46745 38.1677 9.46745 37.8274V37.0602H11.7123C12.0355 37.0602 12.2976 36.7984 12.2976 36.4752C12.2976 36.152 12.0355 35.8899 11.7123 35.8899H9.00541C3.12743 32.1243 1.58446 26.1569 1.19811 22.7527H34.2184ZM38.8211 10.816C38.8104 10.8298 38.7976 10.8313 38.7933 10.8319L17.5815 13.4881C17.5186 13.2718 17.4673 13.0176 17.4405 12.698L38.6029 9.46104C38.6071 9.46043 38.6199 9.4586 38.6337 9.46897C38.6474 9.47904 38.6492 9.49186 38.6499 9.49613L38.829 10.7855C38.8296 10.7895 38.8314 10.8026 38.8211 10.816Z" fill="#CE9D70"/>
</g>
<defs>
<clipPath id="clip0">
<rect width="40" height="40" fill="white"/>
</clipPath>
</defs>
</svg>
