<svg width="40" height="40" viewBox="0 0 40 40" fill="none" xmlns="http://www.w3.org/2000/svg">
<g clip-path="url(#clip0)">
<path d="M31.4673 28.5671C31.5656 28.5116 31.6464 28.4289 31.6986 28.3267C31.7725 28.1814 31.7816 28.0114 31.7233 27.8588C31.2122 26.5188 30.1901 25.3836 28.768 24.5758C27.4393 23.8214 25.8032 23.3898 24.0088 23.3139C24.0689 22.6574 24.4006 21.5878 25.8969 21.3867C26.2131 21.3443 26.4349 21.0534 26.3925 20.7373C26.3501 20.4211 26.059 20.1995 25.7431 20.2417C24.0567 20.4684 23.3575 21.4795 23.0682 22.2879C22.9333 22.6644 22.8769 23.0249 22.8555 23.3142C22.8189 23.3157 22.782 23.3166 22.7454 23.3184V21.8972C22.7454 19.1763 22.121 16.4425 20.9396 13.9911C20.8136 13.7295 20.6924 13.461 20.5798 13.1921C20.4562 12.8979 20.1175 12.7597 19.8236 12.883C19.5294 13.0066 19.3912 13.345 19.5145 13.6392C19.635 13.9264 19.7644 14.2135 19.899 14.4928C20.9219 16.615 21.4978 18.9636 21.579 21.3195H9.21326C9.29443 18.9636 9.8703 16.6153 10.8932 14.4928C11.7603 12.6938 12.3209 10.7803 12.5626 8.79851H18.2297C18.32 9.53489 18.4552 10.2682 18.6337 10.9854C18.7106 11.2951 19.024 11.4834 19.3335 11.4068C19.6432 11.3296 19.8318 11.0165 19.7549 10.7068C19.548 9.87547 19.4031 9.02128 19.3237 8.1674C19.274 7.63396 19.249 7.10204 19.249 6.5869V5.03081C19.798 4.84649 20.195 4.32799 20.195 3.71764V1.3858C20.195 0.621642 19.5734 0 18.8089 0H11.983C11.2189 0 10.5972 0.621642 10.5972 1.3858V3.71764C10.5972 4.32799 10.9943 4.84649 11.5436 5.03081V6.5869C11.5436 7.10204 11.5182 7.63396 11.4685 8.16771C11.2796 10.199 10.7358 12.1585 9.8526 13.9914C8.67126 16.4425 8.04688 19.1766 8.04688 21.8972V38.0331C8.04688 39.1177 8.92914 39.9999 10.0137 39.9999H20.7788C21.0831 39.9999 21.3791 39.93 21.6483 39.797C22.2308 39.9306 22.8287 39.9999 23.4344 39.9999C25.6955 39.9999 27.8473 39.0444 29.4934 37.3089C31.0788 35.6377 31.9882 33.4139 31.9882 31.2078C31.9879 30.2331 31.8134 29.3493 31.4673 28.5671ZM12.6657 7.64342C12.6868 7.28728 12.6987 6.93328 12.6987 6.5869V5.10345H18.0936V6.5869C18.0936 6.93358 18.1055 7.28728 18.1265 7.64342H12.6657ZM11.7526 1.3858C11.7526 1.25854 11.8561 1.15509 11.9833 1.15509H18.8092C18.9362 1.15509 19.0396 1.25854 19.0396 1.3858V3.71764C19.0396 3.8449 18.9362 3.94836 18.8092 3.94836H11.9833C11.8561 3.94836 11.7526 3.8449 11.7526 3.71764V1.3858ZM23.4344 24.4555C25.2545 24.4555 26.9016 24.8446 28.1976 25.5804C28.9514 26.0086 29.5682 26.5405 30.0238 27.1505C29.3002 26.8743 28.3524 26.4715 27.5174 26.0891C27.3032 25.9912 27.0511 26.033 26.8799 26.1947C26.709 26.3565 26.6531 26.6061 26.7392 26.8252C26.9534 27.3721 27.2058 28.1555 27.3355 28.7872C27.0355 28.5247 26.6083 28.1274 25.9995 27.5274C25.8493 27.3797 25.6308 27.3251 25.4291 27.3852C25.2274 27.4453 25.0742 27.6104 25.0296 27.8161C25.0275 27.8259 24.8141 28.7997 24.4531 29.7628C23.8605 31.3436 23.4384 31.4147 23.4344 31.4147C23.4305 31.4147 23.0103 31.3439 22.4194 29.7729C22.0575 28.8101 21.8414 27.8259 21.8393 27.8161C21.7947 27.6104 21.6415 27.4453 21.4395 27.3852C21.3855 27.369 21.33 27.3611 21.2747 27.3611C21.1252 27.3611 20.979 27.4194 20.8694 27.5274C20.2606 28.1271 19.8334 28.5244 19.5337 28.7869C19.6637 28.1555 19.9155 27.3724 20.1297 26.8252C20.2155 26.6058 20.1599 26.3565 19.9887 26.1947C19.8175 26.033 19.5654 25.9909 19.3515 26.0891C18.5165 26.4715 17.5684 26.8743 16.8451 27.1505C17.3007 26.5405 17.9172 26.0086 18.6713 25.5804C19.9673 24.8446 21.6144 24.4555 23.4344 24.4555ZM10.0137 38.8445C9.56635 38.8445 9.20227 38.4805 9.20227 38.0331V36.4013H14.1052C14.4244 36.4013 14.6829 36.1425 14.6829 35.8236C14.6829 35.5044 14.4244 35.2459 14.1052 35.2459H9.20227V22.4749H21.59V23.4295C20.2936 23.6163 19.1089 24.0033 18.1009 24.5758C16.6788 25.3836 15.6567 26.5188 15.1456 27.8588C15.0873 28.0114 15.0964 28.1811 15.1703 28.3267C15.2225 28.4289 15.3036 28.5116 15.4016 28.5671C15.0555 29.3493 14.881 30.2331 14.881 31.2075C14.881 33.4136 15.7904 35.6374 17.3758 37.3089C17.9556 37.9202 18.5986 38.4344 19.2868 38.8445H10.0137ZM28.6554 36.5139C27.2293 38.0169 25.3754 38.8445 23.4344 38.8445C22.8595 38.8445 22.2925 38.7713 21.7416 38.63C21.7166 38.6221 21.6916 38.6153 21.666 38.6108C20.3864 38.2668 19.198 37.5512 18.2138 36.5139C16.8301 35.0549 16.0364 33.121 16.0364 31.2075C16.0364 30.1113 16.2964 29.1656 16.8097 28.3938C17.1246 28.2839 17.5223 28.1311 18.0328 27.9208C18.2343 27.8378 18.4335 27.7542 18.6218 27.6736C18.4058 28.413 18.2172 29.295 18.3261 29.8663C18.374 30.1177 18.5443 30.3121 18.7814 30.386C19.1983 30.5163 19.6005 30.3387 20.9644 29.0444C21.062 29.3814 21.1859 29.7738 21.3339 30.1684C21.9397 31.7843 22.627 32.5698 23.4344 32.5698C24.2422 32.5698 24.9292 31.7843 25.535 30.1684C25.683 29.7738 25.8072 29.3814 25.9045 29.0444C27.2684 30.3387 27.6706 30.5163 28.0878 30.386C28.3249 30.3121 28.4952 30.1177 28.5428 29.8663C28.6517 29.295 28.4631 28.413 28.2474 27.6736C28.4357 27.7542 28.6349 27.8378 28.8364 27.9208C29.3466 28.1311 29.7446 28.2839 30.0595 28.3938C30.5725 29.1659 30.8328 30.1113 30.8328 31.2075C30.8328 33.121 30.0391 35.0549 28.6554 36.5139Z" fill="#CE9D70"/>
</g>
<defs>
<clipPath id="clip0">
<rect width="40" height="40" fill="white"/>
</clipPath>
</defs>
</svg>
