<svg width="40" height="40" viewBox="0 0 40 40" fill="none" xmlns="http://www.w3.org/2000/svg">
<path d="M38.7879 20.0404H38.7476V18.1213C38.7476 17.3124 38.2223 16.6245 37.4951 16.3792V5.10108C37.4951 4.77748 37.2327 4.51514 36.9091 4.51514H3.09094C2.76735 4.51514 2.505 4.77748 2.505 5.10108V16.3791C1.77782 16.6244 1.2525 17.3124 1.2525 18.1213V20.0403H1.21219C0.543751 20.0404 0 20.5842 0 21.2525V26.2626C0 26.931 0.543751 27.4749 1.21219 27.4749H1.2525V31.899C1.2525 32.2226 1.51485 32.485 1.83844 32.485H3.09094C3.35977 32.485 3.59415 32.3019 3.65938 32.0411L4.80095 27.4749H35.1991L36.3406 32.0411C36.4058 32.3019 36.6402 32.485 36.9091 32.485H38.1616C38.4852 32.485 38.7475 32.2226 38.7475 31.899V27.4749H38.7878C39.4562 27.4749 40 26.931 40 26.2626V21.2525C40.0001 20.5842 39.4563 20.0404 38.7879 20.0404ZM2.63344 31.3132H2.42438V27.4749H3.59305L2.63344 31.3132ZM37.5758 31.3132H37.3666L36.4071 27.4749H37.5758V31.3132ZM38.7879 26.303H1.21219C1.18992 26.303 1.17188 26.2849 1.17188 26.2626V21.2525C1.17188 21.2302 1.18992 21.2122 1.21219 21.2122H34.404C34.7276 21.2122 34.9899 20.9499 34.9899 20.6263C34.9899 20.3027 34.7276 20.0403 34.404 20.0403H2.42438V18.1213C2.42438 17.7537 2.72344 17.4547 3.09094 17.4547H4.34352C4.66712 17.4547 4.92946 17.1923 4.92946 16.8687C4.92946 16.5452 4.66712 16.2828 4.34352 16.2828H3.67688V5.68701H36.3231V16.2828H33.1112V13.1112C33.1112 12.0974 32.2864 11.2727 31.2727 11.2727H22.505C21.4913 11.2727 20.6666 12.0975 20.6666 13.1112V16.2828H19.3335V13.1112C19.3335 12.0974 18.5087 11.2727 17.495 11.2727H8.72728C7.71353 11.2727 6.88884 12.0975 6.88884 13.1112V16.2828H6.84853C6.52494 16.2828 6.26259 16.5452 6.26259 16.8687C6.26259 17.1923 6.52494 17.4547 6.84853 17.4547H36.9091C37.2766 17.4547 37.5756 17.7537 37.5756 18.1213V20.0403H36.9091C36.5855 20.0403 36.3232 20.3027 36.3232 20.6263C36.3232 20.9499 36.5855 21.2122 36.9091 21.2122H38.7878C38.8101 21.2122 38.8281 21.2302 38.8281 21.2525V26.2626C38.8281 26.2849 38.8102 26.303 38.7879 26.303ZM31.9393 13.1112V16.2828H21.8385V13.1112C21.8385 12.7437 22.1375 12.4446 22.505 12.4446H31.2727C31.6403 12.4445 31.9393 12.7436 31.9393 13.1112ZM18.1615 13.1112V16.2828H8.06072V13.1112C8.06072 12.7437 8.35978 12.4446 8.72728 12.4446H17.495C17.8625 12.4445 18.1615 12.7436 18.1615 13.1112Z" fill="#CE9D70"/>
</svg>
