<svg width="40" height="40" viewBox="0 0 40 40" fill="none" xmlns="http://www.w3.org/2000/svg">
<g clip-path="url(#clip0)">
<path d="M38.2932 20.4144H36.9046C36.7746 18.3032 36.2604 16.2656 35.3705 14.35C35.2347 14.0567 34.8868 13.9297 34.5935 14.0656C34.3002 14.2017 34.173 14.5496 34.3091 14.8428C35.1266 16.6034 35.6036 18.475 35.7318 20.4144H8.92944C8.60626 20.4144 8.34442 20.6763 8.34442 20.9995C8.34442 21.3226 8.60626 21.5845 8.92944 21.5845H38.2932C38.5892 21.5845 38.8297 21.8253 38.8297 22.1213V22.8354C38.8297 23.1314 38.5892 23.3722 38.2932 23.3722H1.70685C1.41083 23.3722 1.17035 23.1314 1.17035 22.8354V22.1213C1.17035 21.8253 1.41083 21.5845 1.70685 21.5845H6.20209C6.52527 21.5845 6.78741 21.3226 6.78741 20.9995C6.78741 20.6763 6.52527 20.4144 6.20209 20.4144H4.26819C4.52606 16.5274 6.19293 12.9114 9.00238 10.1764C11.7099 7.54089 15.2084 5.98938 18.9474 5.74341C18.9496 5.74341 18.9517 5.74371 18.9539 5.74341C19.1132 5.73303 19.2706 5.7251 19.4263 5.7193C19.4574 5.71838 19.4882 5.71686 19.5193 5.71594C19.5749 5.71411 19.6301 5.71289 19.6848 5.71167C19.7897 5.70984 19.8947 5.70801 20 5.70801C20.1398 5.70801 20.2795 5.71075 20.419 5.71442C20.4602 5.71564 20.5011 5.71686 20.5426 5.71808C20.65 5.72174 20.7571 5.72723 20.8643 5.73303C20.921 5.73608 20.9778 5.73914 21.0349 5.7428C25.8386 6.05835 30.2582 8.55652 33.0084 12.5623C33.1912 12.8284 33.5556 12.8964 33.822 12.7133C34.0884 12.5305 34.1562 12.1661 33.9731 11.8997C31.2668 7.95776 27.0544 5.37598 22.3987 4.71008C22.6904 4.2572 22.8543 3.72406 22.8543 3.16559C22.8543 2.8476 22.7124 2.26135 21.7621 1.91162C21.2875 1.73706 20.6616 1.64062 20 1.64062C19.3381 1.64062 18.7122 1.73706 18.2376 1.91162C17.2873 2.26135 17.1457 2.8476 17.1457 3.16559C17.1457 3.72253 17.309 4.25476 17.5989 4.70673C14.064 5.20691 10.7855 6.80725 8.18604 9.33777C5.14923 12.294 3.3551 16.2088 3.0954 20.4141H1.70685C0.765686 20.4144 0 21.1801 0 22.1213V22.8354C0 23.7769 0.765686 24.5425 1.70685 24.5425H8.01025C7.69562 24.758 7.3941 24.9997 7.11182 25.2679L7.10022 25.2789C7.08221 25.2957 7.06512 25.3137 7.04956 25.3329L4.27155 28.7064C3.92303 28.4851 3.51044 28.4045 3.10333 28.4827C2.67883 28.5638 2.31171 28.8055 2.0694 29.1632L0.976868 30.7742C0.477295 31.5112 0.670166 32.518 1.40656 33.0182L8.88245 38.0969C9.15344 38.2809 9.46655 38.3768 9.78729 38.3768C9.88922 38.3768 9.99207 38.367 10.0946 38.3475C10.5188 38.2663 10.8859 38.0246 11.1282 37.6669L12.2208 36.0559C12.7203 35.3189 12.5278 34.3121 11.7914 33.812L11.7487 33.783C12.269 33.1924 12.9626 32.7692 13.7173 32.5946C15.3076 32.2263 17.179 32.4634 18.4482 32.6736C20.0183 32.9337 21.6675 32.8448 23.2175 32.4167L25.372 31.8213C26.8073 31.4246 28.1281 30.7565 29.2981 29.8355C29.3069 29.8285 29.3155 29.8215 29.324 29.8138L33.0231 26.5378C33.6536 26.0553 33.7909 25.2197 33.5733 24.5425H38.2932C39.2343 24.5425 40 23.7769 40 22.8357V22.1213C40 21.1801 39.2343 20.4144 38.2932 20.4144ZM20 2.81097C20.9854 2.81097 21.5759 3.05481 21.684 3.19031C21.676 3.74542 21.3953 4.25751 20.9384 4.56451C20.8234 4.55841 20.7098 4.55353 20.5966 4.54926C20.5585 4.54803 20.5203 4.5462 20.4822 4.54529C20.3189 4.54041 20.1578 4.53796 20 4.53796C19.888 4.53796 19.7739 4.53949 19.6588 4.54193C19.6033 4.54285 19.5474 4.54437 19.4916 4.5462C19.425 4.54834 19.3579 4.55048 19.2908 4.55322C19.2142 4.55658 19.1376 4.55994 19.0613 4.56421C18.6044 4.2572 18.324 3.74512 18.316 3.19031C18.4241 3.05481 19.0146 2.81097 20 2.81097ZM24.1962 24.8248C24.1525 24.726 24.1003 24.632 24.0414 24.5425H29.6539L27.2272 26.1487L23.768 27.1494L23.6505 27.1521C24.3164 26.597 24.5593 25.6491 24.1962 24.8248ZM17.851 24.5425L17.0065 24.7186L16.3538 24.5425H17.851ZM11.2521 35.3992L10.1599 37.0102C10.0931 37.1091 9.99176 37.1756 9.87457 37.1982C9.75769 37.2205 9.63867 37.196 9.5401 37.1289L2.06421 32.0502C1.86096 31.9122 1.80786 31.6345 1.9458 31.4313L3.03833 29.8199C3.10516 29.7214 3.20618 29.6545 3.32336 29.6323C3.35175 29.6268 3.38013 29.624 3.4082 29.624C3.4967 29.624 3.58307 29.6506 3.65784 29.7015L4.06158 29.9756C4.06158 29.9759 4.06189 29.9759 4.06189 29.9759L11.1337 34.78C11.337 34.9179 11.3901 35.1959 11.2521 35.3992ZM32.305 25.6137C32.291 25.6238 32.2775 25.6348 32.2644 25.6464L28.5614 28.9264C27.5174 29.7452 26.3394 30.3397 25.0604 30.6931L22.9059 31.2885C21.5186 31.6721 20.0433 31.7517 18.6398 31.5192C17.272 31.2927 15.2469 31.0391 13.4534 31.4545C12.4146 31.6949 11.4661 32.2919 10.7761 33.1219L5.24536 29.3649L7.92969 26.105C8.94501 25.1465 10.2325 24.5773 11.4655 24.5425H11.4893C11.8716 24.5361 12.2763 24.6487 12.7045 24.7687C12.7905 24.7925 12.8763 24.8166 12.9623 24.8398L16.8369 25.885C16.9257 25.9088 17.0187 25.9116 17.1088 25.8926L22.1832 24.8346C22.4133 24.787 22.655 24.8337 22.8464 24.9634C22.97 25.0473 23.0664 25.1627 23.1253 25.2966C23.2993 25.6912 23.1354 26.1545 22.7466 26.3547L21.0153 27.2714C20.7758 27.3984 20.6549 27.673 20.723 27.9355C20.7913 28.1982 21.0303 28.3771 21.3019 28.3734L23.8699 28.3179C23.9209 28.3167 23.9713 28.309 24.0198 28.295L27.6382 27.2482C27.6953 27.2318 27.7493 27.2067 27.7988 27.1741L31.4493 24.7577C31.7557 24.5685 32.1634 24.4128 32.3804 24.733C32.5494 24.982 32.5534 25.4303 32.305 25.6137Z" fill="#CE9D70"/>
</g>
<defs>
<clipPath id="clip0">
<rect width="40" height="40" fill="white"/>
</clipPath>
</defs>
</svg>
