<svg width="40" height="40" viewBox="0 0 40 40" fill="none" xmlns="http://www.w3.org/2000/svg">
<g clip-path="url(#clip0)">
<path d="M28.787 31.0702V25.6348C28.787 25.31 28.5242 25.0468 28.2001 25.0468C27.876 25.0468 27.6133 25.31 27.6133 25.6348V31.0702C27.6133 31.3949 27.876 31.6582 28.2001 31.6582C28.5242 31.6582 28.787 31.3949 28.787 31.0702Z" fill="#CE9D70"/>
<path d="M24.9658 31.6582C25.2899 31.6582 25.5526 31.3949 25.5526 31.0702V25.6348C25.5526 25.31 25.2899 25.0468 24.9658 25.0468C24.6417 25.0468 24.3789 25.31 24.3789 25.6348V31.0702C24.3789 31.3949 24.6417 31.6582 24.9658 31.6582Z" fill="#CE9D70"/>
<path d="M22.2027 31.0702V25.6348C22.2027 25.31 21.9399 25.0468 21.6162 25.0468C21.2921 25.0468 21.0293 25.31 21.0293 25.6348V31.0702C21.0293 31.3949 21.2921 31.6582 21.6162 31.6582C21.9399 31.6582 22.2027 31.3949 22.2027 31.0702Z" fill="#CE9D70"/>
<path d="M18.9706 31.0702V25.6348C18.9706 25.31 18.7078 25.0468 18.3837 25.0468C18.0596 25.0468 17.7969 25.31 17.7969 25.6348V31.0702C17.7969 31.3949 18.0596 31.6582 18.3837 31.6582C18.7078 31.6582 18.9706 31.3949 18.9706 31.0702Z" fill="#CE9D70"/>
<path d="M15.6207 31.0702V25.6348C15.6207 25.31 15.3579 25.0468 15.0341 25.0468C14.71 25.0468 14.4473 25.31 14.4473 25.6348V31.0702C14.4473 31.3949 14.71 31.6582 15.0341 31.6582C15.3579 31.6582 15.6207 31.3949 15.6207 31.0702Z" fill="#CE9D70"/>
<path d="M11.2129 25.6348V31.0702C11.2129 31.3949 11.4756 31.6582 11.7997 31.6582C12.1238 31.6582 12.3866 31.3949 12.3866 31.0702V25.6348C12.3866 25.31 12.1238 25.0468 11.7997 25.0468C11.4756 25.0468 11.2129 25.31 11.2129 25.6348Z" fill="#CE9D70"/>
<path d="M39.9934 15.8452C39.9183 14.0573 39.1862 12.3594 37.9319 11.0638C36.6773 9.76796 35.0059 8.98335 33.2249 8.85431C32.3567 8.79132 31.5031 8.87938 30.6794 9.11605C30.0242 6.99337 28.7257 5.08566 26.9764 3.69408C25.0016 2.12241 22.6215 1.29163 20.0944 1.29163C18.1019 1.29163 16.1482 1.82795 14.4441 2.84281C14.1657 3.00854 14.0739 3.36935 14.2396 3.64852C14.405 3.9277 14.7651 4.01943 15.044 3.8537C16.5666 2.94678 18.3131 2.46763 20.0944 2.46763C24.665 2.46763 28.6189 5.56908 29.7096 10.0101C29.7498 10.174 29.8585 10.3125 30.0077 10.3908C30.1569 10.4691 30.3324 10.4792 30.4896 10.4186C31.3368 10.0927 32.2282 9.96121 33.1404 10.0273C34.6333 10.1352 36.0359 10.7941 37.0893 11.8827C38.1428 12.9709 38.7577 14.3955 38.8206 15.8944C38.892 17.5899 38.2878 19.1959 37.1192 20.4168C35.9501 21.6387 34.3766 22.3114 32.6878 22.3114C31.7167 22.3114 30.9263 23.103 30.9263 24.0763V33.3048H26.8449C26.5208 33.3048 26.258 33.5681 26.258 33.8928C26.258 34.2173 26.5208 34.4805 26.8449 34.4805H30.9263V36.7072C30.9263 37.2383 30.4954 37.6701 29.9656 37.6701H10.0343C9.50448 37.6701 9.07326 37.2383 9.07326 36.7072V34.4805H24.1145C24.4386 34.4805 24.701 34.2173 24.701 33.8928C24.701 33.5681 24.4386 33.3048 24.1145 33.3048H9.07357V23.9097C9.07357 23.0593 8.4739 22.3309 7.6484 22.1775C5.8323 21.8402 4.17916 20.8648 2.99386 19.4307C1.79268 17.9783 1.14663 16.1366 1.1747 14.2451C1.23818 9.93705 4.78982 6.42647 9.09157 6.42005H9.10409C9.89937 6.42005 10.6849 6.53777 11.4387 6.76986C11.6782 6.84385 11.938 6.75701 12.0854 6.55429C12.3649 6.16993 12.675 5.80208 13.0064 5.46145C13.2328 5.22906 13.2282 4.85694 12.9963 4.63006C12.7644 4.40317 12.3927 4.40776 12.1665 4.64015C11.8913 4.92299 11.6294 5.22203 11.3853 5.533C10.6428 5.34098 9.8774 5.24405 9.10409 5.24405C9.0992 5.24405 9.09432 5.24405 9.08974 5.24405C4.15108 5.25169 0.0739333 9.28178 0.00099626 14.228C-0.0310472 16.3986 0.710835 18.5131 2.08993 20.1808C3.4504 21.8264 5.34859 22.9462 7.43416 23.3336C7.70394 23.3837 7.89986 23.6259 7.89986 23.9097V36.7072C7.89986 37.8865 8.8572 38.8461 10.0343 38.8461H29.9656C31.1427 38.8461 32.1 37.8865 32.1 36.7072V24.0763C32.1 23.7516 32.364 23.4874 32.6881 23.4874C34.6995 23.4874 36.5742 22.686 37.9667 21.2308C39.3583 19.7762 40.0782 17.8636 39.9934 15.8452Z" fill="#CE9D70"/>
</g>
<defs>
<clipPath id="clip0">
<rect width="40" height="40" fill="white"/>
</clipPath>
</defs>
</svg>
