<svg width="26" height="26" viewBox="0 0 26 26" fill="none" xmlns="http://www.w3.org/2000/svg">
<path d="M13.4152 3.90552C8.65975 3.90552 4.80469 7.76058 4.80469 12.516C4.80469 17.2715 8.65975 21.1266 13.4152 21.1266C18.1707 21.1266 22.0257 17.2715 22.0257 12.516C22.0257 7.76058 18.1707 3.90552 13.4152 3.90552ZM13.4152 19.0495C9.81263 19.0495 6.88174 16.1186 6.88174 12.5161C6.88174 8.91356 9.81263 5.98267 13.4152 5.98267C17.0177 5.98267 19.9486 8.91356 19.9486 12.5161C19.9486 16.1186 17.0177 19.0495 13.4152 19.0495Z" fill="url(#paint0_linear)"/>
<path d="M13.4154 7.73389C10.7786 7.73389 8.6333 9.87914 8.6333 12.516C8.6333 15.1529 10.7786 17.2981 13.4154 17.2981C16.0523 17.2981 18.1975 15.1529 18.1975 12.516C18.1975 9.87914 16.0523 7.73389 13.4154 7.73389Z" fill="url(#paint1_linear)"/>
<path d="M25.4576 13.238V2.77464C25.4576 2.67368 25.3931 2.58395 25.2973 2.55171C25.2017 2.51951 25.0961 2.55206 25.035 2.6325C23.7295 4.35414 23.0229 6.45547 23.0229 8.61606V12.4438C23.0229 12.8828 23.3788 13.2388 23.8179 13.2388H24.1493C23.8226 16.6128 23.6067 21.3318 23.6067 21.8843C23.6067 22.7548 24.1425 23.4605 24.8034 23.4605C25.4644 23.4605 26.0002 22.7548 26.0002 21.8843C26.0002 21.3317 25.7843 16.612 25.4576 13.238Z" fill="url(#paint2_linear)"/>
<path d="M3.4743 11.1639C4.13659 10.7627 4.57925 10.0353 4.57925 9.20446L4.2512 3.8409C4.23866 3.63645 4.0692 3.47705 3.86435 3.47705C3.64279 3.47705 3.46628 3.66266 3.4773 3.88381L3.69063 8.18544C3.69063 8.42726 3.49456 8.62322 3.25284 8.62322C3.01107 8.62322 2.81506 8.42716 2.81506 8.18544L2.70847 3.88559C2.70283 3.65834 2.51702 3.4771 2.28968 3.4771C2.06233 3.4771 1.87657 3.65839 1.87088 3.88559L1.76429 8.18544C1.76429 8.42726 1.56823 8.62322 1.32651 8.62322C1.08474 8.62322 0.888723 8.42716 0.888723 8.18544L1.10205 3.88381C1.11302 3.66255 0.936406 3.47705 0.715 3.47705C0.510148 3.47705 0.340691 3.63645 0.328199 3.8409L0 9.20451C0 10.0354 0.442609 10.7627 1.10495 11.164C1.53598 11.425 1.77628 11.9131 1.72072 12.414C1.34682 15.7838 1.09291 21.2852 1.09291 21.8844C1.09291 22.7549 1.62871 23.4606 2.28963 23.4606C2.95054 23.4606 3.48634 22.7549 3.48634 21.8844C3.48634 21.2852 3.23238 15.7838 2.85853 12.414C2.80292 11.9134 3.04347 11.4249 3.4743 11.1639Z" fill="url(#paint3_linear)"/>
<defs>
<linearGradient id="paint0_linear" x1="3.05619" y1="-14.8531" x2="28.0952" y2="-11.9921" gradientUnits="userSpaceOnUse">
<stop stop-color="#C79081"/>
<stop offset="1" stop-color="#DFA579"/>
</linearGradient>
<linearGradient id="paint1_linear" x1="7.66222" y1="-2.68432" x2="21.5684" y2="-1.09534" gradientUnits="userSpaceOnUse">
<stop stop-color="#C79081"/>
<stop offset="1" stop-color="#DFA579"/>
</linearGradient>
<linearGradient id="paint2_linear" x1="22.7207" y1="-20.2496" x2="27.1048" y2="-20.1783" gradientUnits="userSpaceOnUse">
<stop stop-color="#C79081"/>
<stop offset="1" stop-color="#DFA579"/>
</linearGradient>
<linearGradient id="paint3_linear" x1="-0.464943" y1="-18.2907" x2="6.27549" y2="-18.1142" gradientUnits="userSpaceOnUse">
<stop stop-color="#C79081"/>
<stop offset="1" stop-color="#DFA579"/>
</linearGradient>
</defs>
</svg>
