<svg width="584" height="771" viewBox="0 0 584 771" fill="none" xmlns="http://www.w3.org/2000/svg">
<path d="M163.797 241.851C176.972 236.596 189.498 219.355 192.838 207.923C193.302 206.356 191.632 204.696 190.054 205.157C175.302 210.043 166.116 226.823 158.323 239.915C157.58 240.191 156.838 240.56 156.189 240.837C154.89 241.298 154.983 243.142 156.374 243.326C155.446 245.354 158.23 247.106 159.9 245.631C161.385 244.617 162.591 243.326 163.797 241.851ZM170.292 232.724C174.931 225.071 179.013 217.05 186.621 212.072C183.281 219.54 177.25 227.007 170.292 232.724Z" fill="#E7E7E9" fill-opacity="0.5"/>
<path d="M180.869 12.6523C180.869 12.8367 180.869 13.0211 180.776 13.2055V13.482C179.848 19.9357 179.663 26.4817 180.312 32.9354C180.312 33.5808 180.312 34.3183 180.405 34.9636C180.405 35.148 180.498 35.2403 180.591 35.3325C177.621 53.2184 176.508 71.1966 175.116 89.2669C175.024 89.1747 175.024 89.0825 174.931 88.9903C174.189 84.2883 172.982 79.5863 170.106 76.5439C169.828 75.2532 169.549 74.0546 169.364 73.2249C167.879 68.5229 166.302 63.36 162.683 59.6721C161.385 58.3814 159.529 59.3956 159.343 61.0551C158.323 75.2532 164.354 90.2811 171.869 102.082C172.426 102.912 173.168 103.188 173.817 103.188C172.426 115.727 170.292 128.174 167.787 140.436C167.508 132.876 166.395 125.408 163.704 117.94C163.055 116.188 161.199 116.004 160.086 117.018C158.879 116.926 157.673 117.571 157.302 118.954C154.426 128.358 156.281 138.684 159.158 147.996C159.714 151.038 160.364 154.081 161.013 156.939C161.292 158.322 162.683 158.875 163.89 158.783C163.89 159.059 163.797 159.336 163.797 159.52C162.498 165.789 161.199 172.151 159.993 178.42C159.529 170.676 157.488 163.208 152.477 157.492C151.364 156.201 149.323 157.031 148.859 158.414C144.684 172.612 149.601 188.469 153.776 202.022C154.055 202.944 154.704 203.497 155.539 203.682C153.869 213.455 152.199 223.32 150.529 233.092C147.745 223.043 141.993 213.27 136.426 207.37C135.405 206.263 133.457 206.54 132.715 207.831C124.086 222.398 136.519 244.248 144.498 256.51C144.962 257.155 145.611 257.432 146.261 257.524C144.591 266.651 142.921 275.779 141.251 284.998C141.251 284.906 141.251 284.906 141.251 284.814C141.251 284.353 141.065 283.984 140.694 283.615C139.488 277.438 137.168 271.63 133.457 267.02C132.436 265.729 130.024 266.467 129.746 268.034C127.983 276.701 127.89 285.828 129.653 294.587C130.766 300.118 132.343 307.31 135.962 312.288C133.921 322.614 131.787 332.94 129.56 343.174C126.034 331.649 117.869 316.806 115.921 313.671C115.179 312.565 113.045 312.196 112.395 313.671C107.385 325.657 113.694 340.224 120.003 352.854C121.302 357.188 122.787 361.429 124.55 365.577C123.715 369.081 122.972 372.677 122.137 376.18C111.56 420.618 100.055 464.872 87.9932 508.942C81.2201 521.296 74.5397 533.742 68.2305 546.281C33.0658 616.35 0.40625 692.135 -13.9751 769.579C-14.2534 771.054 -12.1194 771.607 -11.6555 770.132C15.0659 691.858 39.1895 614.598 77.6943 540.841C78.715 538.905 79.8284 536.969 80.849 534.941C78.8078 542.132 76.8593 549.323 74.8181 556.515C57.6533 617.18 35.2926 676.185 18.3133 736.85C17.6638 739.155 20.9113 739.8 21.7463 737.772C51.0657 665.582 74.2614 590.166 94.3953 514.105C111.838 491.701 130.395 470.588 152.292 452.61C153.405 453.348 155.354 452.61 155.446 451.043C155.446 450.766 155.539 450.397 155.539 450.029C155.91 449.752 156.281 449.476 156.653 449.107C159.25 448 161.848 446.525 164.446 444.681C165.281 444.958 166.116 445.142 166.951 445.327C181.333 452.426 203.601 449.199 215.755 439.795C216.776 438.965 216.312 437.398 215.384 436.845C204.714 429.93 190.24 430.852 177.25 434.355C190.982 425.505 205.178 417.852 219.745 410.938C219.745 411.583 220.116 412.228 220.673 412.505C223.549 414.165 226.704 415.271 230.137 415.916C241.363 420.434 254.26 421.909 265.672 417.484C266.507 417.115 267.157 415.916 266.322 415.179C264.188 413.427 261.776 412.044 259.27 410.753C259.27 410.108 258.992 409.463 258.435 409.186C249.807 404.945 239.137 404.761 229.487 406.328C239.693 401.718 249.992 397.385 260.384 393.236C274.487 402.364 296.847 392.13 308.26 382.91C309.28 382.081 308.631 380.421 307.517 380.144C304.92 379.499 302.136 379.222 299.445 379.13C299.817 378.762 300.188 378.393 300.466 377.932C301.394 376.733 300.095 375.258 298.796 375.166C286.27 374.152 274.023 380.513 262.982 385.584C261.961 386.045 262.703 387.612 263.724 387.336C264.837 387.059 265.858 386.783 266.879 386.506C265.765 387.059 264.559 387.704 263.446 388.35C263.353 388.35 263.353 388.442 263.353 388.534C262.054 388.995 260.662 389.364 259.363 389.825C258.806 389.641 258.25 389.825 257.971 390.286C250.27 392.775 242.569 395.633 234.868 398.768C240.25 393.882 244.611 388.258 246.93 382.449C247.487 381.066 245.91 380.052 244.796 380.329C227.817 383.371 215.199 396.371 203.23 407.711C202.395 408.541 202.58 409.831 203.23 410.569C202.951 410.846 202.58 411.214 202.302 411.491C201.652 412.136 202.487 413.335 203.322 412.782C203.972 412.321 204.621 411.767 205.271 411.214C205.271 411.583 205.456 411.86 205.735 412.044C198.034 416.009 190.426 420.25 183.003 424.767C187.828 417.207 191.075 409.186 191.168 402.364C191.168 401.349 190.147 400.612 189.219 400.888C172.333 406.144 152.477 427.164 151.55 446.157C134.477 459.341 118.797 474.276 105.344 490.687C135.684 438.136 169.735 387.428 207.498 340.039C216.961 328.146 226.704 316.437 236.631 304.913C237.095 305.65 238.487 305.742 238.765 304.636C238.951 303.714 239.137 302.792 239.322 301.87C247.487 292.466 255.745 283.247 264.188 274.027C264.281 274.119 264.466 274.211 264.652 274.304C263.631 274.765 263.167 276.424 264.466 276.977C282.466 285.091 309.095 273.474 323.476 262.318C324.775 261.304 324.218 259.276 323.012 258.538C308.074 250.056 287.105 259.184 271.332 266.467C282.188 254.85 293.322 243.326 304.548 231.986C304.734 232.539 305.012 233 305.755 233.092C306.311 233.184 306.868 233.184 307.332 233.184C307.425 233.184 307.425 233.277 307.517 233.277C314.847 234.936 322.641 234.66 330.157 233.092C344.352 231.617 358.455 227.56 370.146 220.461C371.259 219.816 371.723 218.064 370.61 217.142C352.703 202.668 325.053 218.064 308.26 228.39C322.919 213.731 337.857 199.441 353.167 185.335C356.878 186.994 361.332 187.271 365.878 186.902C371.723 187.548 378.125 185.98 383.971 183.307C392.135 181.094 400.208 178.144 407.445 173.81C408.929 172.888 409.115 170.491 407.445 169.662C391.672 161.548 373.764 170.768 359.847 179.158C373.579 166.619 387.404 154.265 401.507 142.187C401.507 142.372 401.599 142.556 401.785 142.74C407.63 148.549 418.857 146.981 426.001 145.138C434.723 142.925 444.279 139.329 450.31 132.322C451.053 131.4 451.238 129.649 449.939 129.095C436.393 123.472 418.3 130.663 406.702 137.946C405.218 138.868 405.125 140.989 406.702 141.819C406.981 142.003 407.259 142.095 407.63 142.279C406.146 141.911 404.661 141.45 403.362 140.897C403.269 140.897 403.177 140.897 403.084 140.897C416.63 129.28 430.362 117.755 444.187 106.507C459.496 109.919 477.496 109.458 490.578 100.699C491.97 99.7773 492.248 97.5645 490.578 96.7348C479.815 91.2952 467.104 94.0611 455.692 97.9334C455.228 98.1178 454.671 98.2099 454.207 98.3943C462.465 91.7562 470.723 85.2103 478.98 78.6644C483.341 79.9552 489.094 78.6644 493.083 77.7425C501.062 75.8986 509.691 73.4093 516.743 69.0761C517.949 68.3385 518.32 66.1258 516.743 65.4804C510.619 62.8989 504.032 62.7145 497.63 64.1896C502.361 60.594 507.093 56.9062 511.825 53.3106C512.846 52.9418 513.867 52.3887 514.887 51.9277C525.372 55.7077 541.516 50.1759 549.681 44.2754C550.794 43.5378 550.701 42.2471 549.681 41.5095C543.928 37.0841 537.433 37.0842 530.939 39.0203C538.361 33.3963 545.877 27.8646 553.392 22.3329C553.485 22.4251 553.485 22.6094 553.67 22.7016C558.402 25.4674 565.639 20.1201 569.443 17.5386C574.918 13.8508 581.412 9.51763 583.918 3.15613C584.196 2.51076 583.732 1.40445 583.083 1.12786C570.835 -4.0351 555.897 9.60985 548.938 20.1202C541.33 23.9924 533.815 28.2333 526.485 32.7509C530.567 27.4036 534 21.503 536.134 15.2337C536.691 13.6664 534.743 12.5601 533.537 13.2055C527.598 16.2479 523.702 21.5031 520.454 27.127C517.671 32.1056 513.774 37.1763 511.547 42.3393C505.516 46.4881 499.578 50.8213 493.64 55.2467C497.537 47.7788 499.764 40.0344 499.207 33.9495C499.114 32.4744 497.722 31.7368 496.331 32.2899C489.65 35.0558 460.609 66.218 471.743 72.7639C470.537 73.778 469.331 74.8844 468.125 75.8986C467.939 75.8986 467.846 75.9907 467.661 76.0829C467.104 76.2673 466.826 76.6361 466.64 77.097C458.29 84.2883 450.032 91.5718 441.867 99.0397C443.444 96.2738 444.836 93.4157 446.042 90.8342C449.568 83.4586 453.279 75.5297 453.836 67.3243C453.929 65.5726 451.888 65.2038 450.774 66.0336C438.712 75.1609 429.898 90.8342 429.434 106.047C429.341 107.245 430.269 107.983 431.197 108.075C430.919 108.351 430.64 108.628 430.362 108.812C429.991 109.181 429.898 109.642 429.991 110.011C420.434 118.954 410.878 127.805 401.414 136.656C408.836 125.869 414.032 112.224 412.826 100.884C412.64 99.4084 411.063 98.0255 409.579 99.0397C393.62 109.827 384.063 129.372 381.929 148.088C381.651 150.577 385.177 151.038 386.29 149.286C387.218 147.811 388.146 146.244 388.981 144.677C389.259 144.677 389.445 144.492 389.63 144.216C395.754 133.89 400.671 122.918 406.61 112.5C407.63 110.748 406.053 109.089 404.476 109.089C405.775 107.798 407.073 106.508 408.465 105.401C408.094 120.521 397.702 136.287 388.239 147.074C387.682 147.719 387.775 148.457 388.239 148.918C383.878 152.882 379.61 156.754 375.249 160.534C366.713 168.094 358.177 175.747 349.734 183.399C358.363 171.045 364.115 155.556 361.795 141.542C361.61 140.159 359.847 139.698 358.826 140.251C357.527 140.989 356.228 141.819 354.93 142.74C354.744 142.833 354.651 142.925 354.466 143.109C342.125 152.698 334.053 173.442 334.796 189.023C334.332 190.867 333.775 192.803 333.404 194.647C333.126 195.937 334.239 196.767 335.352 196.675C323.383 207.831 311.507 219.078 299.816 230.511C308.909 217.419 314.291 199.349 310.858 184.597C310.579 183.307 309.095 182.938 307.981 183.399C292.023 190.129 282.466 214.377 286.363 231.709C285.806 234.844 285.342 237.886 284.878 240.929C284.693 242.404 286.734 243.51 287.476 242.035C288.033 240.929 288.497 239.823 288.961 238.716C289.425 239.269 290.074 239.546 290.817 239.546C277.641 252.638 264.837 266.006 252.219 279.651C260.105 269.049 261.033 244.801 260.291 236.319C260.105 234.383 257.879 233.83 256.765 235.397C249.064 246.645 243.961 259.829 241.363 273.382C239.044 281.034 237.466 288.778 236.91 296.707C223.363 312.012 210.188 327.685 197.663 343.911C163.055 388.35 131.044 435.277 102.467 484.141C111.838 447.078 120.653 409.924 129.096 373.045C129.838 373.045 130.581 372.4 130.395 371.478C130.302 370.833 130.117 370.187 129.931 369.542C130.024 369.081 130.117 368.712 130.209 368.343C131.88 360.968 133.55 353.684 135.034 346.309C145.89 357.28 178.364 324.55 183.281 316.99C184.209 315.515 182.632 313.302 180.962 313.948C177.807 315.054 174.745 316.345 171.683 317.82C171.312 317.175 170.57 316.714 169.735 316.714C155.354 316.898 144.22 330.174 136.148 341.146C137.818 333.032 139.488 324.919 141.065 316.806C141.9 316.806 142.642 315.976 142.364 315.146C142.178 314.593 141.9 314.04 141.715 313.487C143.013 306.664 144.312 299.75 145.611 292.927C145.704 293.019 145.89 293.112 145.983 293.204C145.89 293.296 145.797 293.388 145.797 293.48C145.333 294.218 146.261 295.324 147.096 294.771C147.56 294.402 148.117 294.034 148.58 293.757C160.457 294.771 171.034 280.665 178.642 269.786C179.755 269.509 180.869 269.233 181.982 269.049C179.106 281.034 163.055 297.26 150.993 297.168C149.23 297.168 149.323 299.658 150.993 299.842C165.931 301.225 184.209 280.757 185.879 267.112C185.972 266.191 184.951 265.361 184.116 265.361C183.281 265.361 182.353 265.545 181.518 265.637C182.446 264.347 183.281 263.148 184.024 262.042C185.137 260.567 183.096 258.999 181.704 259.737C179.57 260.843 171.591 266.836 164.539 273.382C157.859 278.268 151.921 284.722 147.745 290.715C147.56 290.715 147.374 290.715 147.189 290.715C146.725 290.622 146.354 290.715 146.075 290.899C151.735 260.198 156.838 229.404 162.127 198.519C162.22 198.611 162.312 198.703 162.405 198.795C162.034 200.271 164.075 201.469 165.189 200.271C165.374 200.086 165.56 199.902 165.745 199.717C180.869 201.1 197.477 170.86 200.817 160.258C201.281 158.875 199.797 157.492 198.405 157.861C182.817 162.563 168.9 180.633 163.426 196.03C163.147 195.937 162.869 196.03 162.683 196.122C163.24 192.618 163.89 189.115 164.446 185.611C166.766 172.151 169.735 158.875 172.426 145.506C173.261 145.414 174.096 145.045 174.56 144.4C174.838 144.123 175.024 143.662 175.209 143.294C184.58 143.294 196.92 117.479 199.704 112.685C200.632 111.117 198.776 108.997 197.106 110.103C189.59 114.897 183.931 121.443 178.828 128.634C177.9 129.925 176.323 131.769 174.745 133.705C176.415 123.932 177.807 114.16 178.364 104.295C178.457 102.359 178.549 100.515 178.642 98.5787C179.013 98.4865 179.292 98.3943 179.57 98.1177C181.054 96.1816 181.982 93.8767 182.817 91.5718C193.209 89.4513 198.219 68.5229 198.962 60.5941C199.147 58.7502 196.735 58.1048 195.529 59.2112C188.848 65.2961 182.261 75.8985 179.199 86.1323C179.755 71.2888 180.312 56.4453 182.168 41.694C182.817 44.3677 183.467 46.9491 184.395 49.5306C185.322 52.1121 189.776 51.9276 189.405 48.8852C188.848 43.4456 187.456 37.8217 186.529 32.1056C189.59 26.4817 189.312 9.70198 189.127 7.48928C188.941 5.55317 186.436 4.63123 185.322 6.47515C184.302 8.04248 183.56 9.60987 182.91 11.2694C181.611 11.1772 180.962 11.6382 180.869 12.6523ZM175.58 139.606C177.9 135.826 182.817 129.833 183.745 128.542C185.972 125.5 188.199 122.642 190.797 119.968C186.25 127.805 179.848 137.762 175.58 139.606ZM168.436 195.845C177.158 184.321 181.426 169.846 195.157 163.116C190.611 173.81 179.106 192.987 168.436 195.845ZM159.529 283.247C160.642 282.048 161.848 280.85 163.055 279.743C164.632 278.268 166.024 276.977 167.044 276.055C168.9 274.488 170.941 273.013 173.075 271.814C168.25 278.453 162.127 285.552 155.91 288.871C156.374 287.211 157.766 285.183 159.529 283.247ZM166.209 328.976C167.601 327.224 168.807 325.38 170.013 323.444C171.405 322.614 172.797 321.877 174.281 321.139C171.962 323.536 169.178 326.302 166.209 328.976ZM138.467 344.649C145.983 337.366 152.848 326.302 162.962 322.614C155.261 327.593 148.395 333.954 143.106 341.238C142.364 342.252 142.828 343.543 143.663 344.28C141.622 344.926 139.952 345.11 138.467 344.649ZM245.167 281.772C244.982 281.864 244.796 281.864 244.611 281.956C244.703 281.034 244.796 280.204 244.889 279.282C246.745 272.736 248.972 266.283 251.662 259.921C250.085 267.481 248.229 274.949 245.167 281.772ZM300.095 204.512C299.074 214.192 296.847 223.965 291.559 231.801C294.528 222.766 296.291 213.27 300.095 204.512ZM303.713 214.837C305.198 207.554 305.847 200.086 306.126 192.987C306.126 191.696 305.476 190.959 304.548 190.682C305.569 189.852 306.59 189.023 307.61 188.377C309.095 196.767 307.146 205.802 304.085 213.731C303.992 213.916 303.899 214.376 303.713 214.837ZM389.723 134.166C392.228 126.606 395.94 119.415 400.95 113.238C399.744 115.451 398.537 117.571 397.424 119.784C394.826 124.578 392.321 129.372 389.723 134.166ZM554.505 21.5031C555.804 20.5811 557.103 19.567 558.402 18.6451C559.516 17.8153 559.052 16.3401 558.031 16.0635C563.691 9.88641 569.536 3.34054 577.33 3.52493C581.784 3.61713 578.072 6.01415 575.938 7.95026C573.34 10.3473 570.557 12.5601 567.588 14.4962C564.99 16.3402 558.217 21.5953 554.505 21.5031ZM518.042 50.2681C526.949 45.013 536.042 37.8217 545.691 42.9846C541.516 45.5661 536.691 47.2257 531.959 48.4242C527.784 49.4384 522.681 50.6369 518.042 50.2681ZM530.011 20.3967C527.877 24.9143 525.093 29.1553 521.939 33.0276C524.258 28.6022 526.578 23.9923 530.011 20.3967ZM501.619 67.9698C504.495 67.5088 507.465 67.5088 510.248 68.0619C507.279 69.4449 504.124 70.5511 501.063 71.5653C501.619 71.1965 502.176 70.8278 502.733 70.3668C503.66 69.5371 502.733 67.9698 501.619 67.9698ZM495.31 37.5452C494.753 45.1974 490.485 54.7857 484.547 62.5302C484.269 62.7146 483.99 62.9911 483.712 63.1755C483.712 63.0833 483.805 63.0834 483.805 62.9912C483.99 62.5302 483.99 62.1614 483.712 61.7926C486.588 57.275 489.65 52.8497 492.434 48.1477C493.176 46.8569 491.413 45.8427 490.485 46.6725L490.392 46.5803C487.516 49.8071 484.826 53.2183 482.32 56.814C482.784 55.5232 483.341 54.3247 483.898 53.1262C484.269 52.3886 483.155 51.6511 482.692 52.4808C481.485 54.7857 480.743 57.275 479.351 59.4877C479.073 59.9487 479.351 60.4097 479.722 60.6863C478.331 62.8068 476.846 65.0194 475.547 67.2321C474.991 68.0619 475.269 68.9839 475.826 69.537C475.454 69.8136 475.083 70.0902 474.712 70.3668C470.537 62.6224 486.681 43.8145 495.31 37.5452ZM470.166 103.373C471.836 102.082 473.32 100.515 474.434 98.6709C477.681 98.3943 480.929 98.5787 483.99 99.3163C479.537 101.621 474.898 102.82 470.166 103.373ZM414.589 140.251C422.29 138.223 429.527 134.812 437.506 133.982C431.661 139.329 422.475 141.818 414.589 140.251ZM368.29 181.647C376.177 178.328 383.878 173.073 392.135 172.796C388.981 175.286 385.177 177.683 381.187 179.434C380.723 179.526 380.259 179.711 379.888 179.803C375.991 180.725 372.094 181.278 368.29 181.647ZM350.198 163.208C348.528 169.662 346.208 176.023 343.146 181.831C345.558 175.654 347.785 169.385 350.198 163.208ZM353.816 168.555C355.857 161.733 357.342 154.818 358.27 148.088C358.362 154.91 356.692 161.917 353.816 168.555ZM351.033 224.61C354.651 222.305 357.991 219.724 360.868 216.774C360.868 216.774 360.868 216.774 360.868 216.681C362.259 217.142 363.651 217.788 364.95 218.525C360.589 221.015 355.95 223.043 351.033 224.61ZM318.744 229.958C329.785 225.532 340.455 220.277 352.239 218.249C344.074 224.426 333.682 228.667 323.291 229.773C322.363 229.865 321.528 229.958 320.6 229.958C319.95 229.958 319.394 229.958 318.744 229.958ZM306.219 260.29C310.023 260.013 313.734 260.29 317.074 261.396C314.662 263.056 312.064 264.623 309.28 266.191C309.837 265.637 310.301 264.992 310.765 264.439C311.786 263.148 310.672 261.028 309.188 260.751C308.167 260.474 307.239 260.382 306.219 260.29ZM273.373 272.552C283.487 272.368 292.951 265.176 303.249 265.084C295.827 271.261 283.023 274.672 273.373 272.552ZM289.332 383.095C284.229 386.229 278.105 388.35 272.26 388.719C275.136 387.612 278.013 386.506 280.982 385.307C281.26 385.215 281.446 385.031 281.446 384.754C284.136 384.109 286.734 383.556 289.332 383.095ZM263.631 392.222C263.817 392.13 264.002 392.038 264.188 392.038C274.951 394.527 288.033 390.102 296.476 382.541C298.703 382.541 301.023 382.726 303.157 383.002C292.765 390.286 275.507 397.662 263.631 392.222ZM232.456 389.641C228.003 393.421 223.363 397.016 218.446 400.151C222.9 396.279 227.446 392.591 232.456 389.641ZM240.714 416.654C246.374 416.285 251.941 414.994 256.765 413.058C258.714 413.888 260.569 414.81 262.239 415.916C255.281 418.037 247.858 418.037 240.714 416.654ZM226.333 411.306C230.044 410.2 234.033 409.555 238.116 409.463C238.301 409.463 238.487 409.463 238.673 409.463C243.033 409.463 247.394 410.108 251.569 411.214C243.59 413.519 233.941 414.165 226.333 411.306ZM210.559 409.094C222.25 403.747 232.271 394.896 241.549 386.137C235.24 396.555 222.157 405.775 210.559 409.094ZM168.714 441.547C168.807 441.455 168.9 441.362 168.993 441.27C170.477 440.717 171.962 440.164 173.539 439.703C173.725 440.072 174.003 440.348 174.374 440.348C183.745 440.164 193.395 435.37 202.487 438.412C192.652 443.391 179.848 443.759 168.714 441.547ZM170.013 433.341C173.353 429.469 176.879 425.136 180.869 421.817C179.292 424.398 177.622 426.98 175.766 429.469C173.817 430.76 171.869 432.051 170.013 433.341ZM168.529 421.079C171.683 417.392 174.931 413.796 178.735 410.846C179.477 410.2 189.405 401.903 187.549 407.711C186.529 410.846 185.044 414.349 183.188 417.852C183.096 417.852 183.003 417.852 183.003 417.852C177.065 420.434 172.426 425.689 168.065 430.299C164.725 433.802 160.457 437.582 157.116 441.731C159.158 434.171 163.333 427.164 168.529 421.079ZM128.168 350.826C128.075 351.379 127.89 351.932 127.797 352.578C126.034 346.309 123.993 340.132 121.766 333.954C124.642 340.316 127.333 346.862 128.168 350.826ZM135.684 299.197C135.034 297.445 134.57 295.509 134.199 293.573C133.178 287.396 132.807 281.126 133.457 274.949C135.313 278.637 136.519 282.786 137.075 287.027C135.869 291.083 135.405 295.14 135.684 299.197ZM145.519 248.673C139.395 238.44 132.343 224.149 135.684 213.455C137.818 216.036 139.673 218.802 141.251 221.752C140.879 221.937 140.508 222.305 140.601 222.859C141.715 231.617 145.797 240.007 145.519 248.673ZM153.776 184.597C152.199 177.775 151.364 170.86 152.199 164.222C153.22 165.974 154.055 167.818 154.611 169.846C153.962 169.938 153.498 170.399 153.498 171.229C153.591 175.654 153.684 180.08 153.776 184.597ZM193.302 67.0478C191.724 74.1469 188.57 83.7352 183.745 87.0542C184.302 85.2103 184.859 83.4585 185.601 81.7068C187.735 76.5439 190.054 71.4732 193.302 67.0478ZM166.024 74.3312C165.467 74.5156 165.003 74.9766 164.817 75.6219C164.075 72.8561 163.611 70.0902 163.333 67.4165C164.539 69.6292 165.374 71.9341 166.024 74.3312Z" fill="#E7E7E9" fill-opacity="0.5"/>
</svg>
