<svg width="588" height="779" viewBox="0 0 588 779" fill="none" xmlns="http://www.w3.org/2000/svg">
<g filter="url(#filter0_f)">
<path d="M163.797 245.851C176.972 240.596 189.498 223.355 192.838 211.923C193.302 210.356 191.632 208.696 190.054 209.157C175.302 214.043 166.116 230.823 158.323 243.915C157.58 244.191 156.838 244.56 156.189 244.837C154.89 245.298 154.983 247.142 156.374 247.326C155.446 249.354 158.23 251.106 159.9 249.631C161.385 248.617 162.591 247.326 163.797 245.851ZM170.292 236.724C174.931 229.071 179.013 221.05 186.621 216.072C183.281 223.54 177.25 231.007 170.292 236.724Z" fill="#E7E7E9" fill-opacity="0.5"/>
<path d="M180.869 16.6523C180.869 16.8367 180.869 17.0211 180.776 17.2055V17.482C179.848 23.9357 179.663 30.4817 180.312 36.9354C180.312 37.5808 180.312 38.3183 180.405 38.9636C180.405 39.148 180.498 39.2403 180.591 39.3325C177.621 57.2184 176.508 75.1966 175.116 93.2669C175.024 93.1747 175.024 93.0825 174.931 92.9903C174.189 88.2883 172.982 83.5863 170.106 80.5439C169.828 79.2532 169.549 78.0546 169.364 77.2249C167.879 72.5229 166.302 67.36 162.683 63.6721C161.385 62.3814 159.529 63.3956 159.343 65.0551C158.323 79.2532 164.354 94.2811 171.869 106.082C172.426 106.912 173.168 107.188 173.817 107.188C172.426 119.727 170.292 132.174 167.787 144.436C167.508 136.876 166.395 129.408 163.704 121.94C163.055 120.188 161.199 120.004 160.086 121.018C158.879 120.926 157.673 121.571 157.302 122.954C154.426 132.358 156.281 142.684 159.158 151.996C159.714 155.038 160.364 158.081 161.013 160.939C161.292 162.322 162.683 162.875 163.89 162.783C163.89 163.059 163.797 163.336 163.797 163.52C162.498 169.789 161.199 176.151 159.993 182.42C159.529 174.676 157.488 167.208 152.477 161.492C151.364 160.201 149.323 161.031 148.859 162.414C144.684 176.612 149.601 192.469 153.776 206.022C154.055 206.944 154.704 207.497 155.539 207.682C153.869 217.455 152.199 227.32 150.529 237.092C147.745 227.043 141.993 217.27 136.426 211.37C135.405 210.263 133.457 210.54 132.715 211.831C124.086 226.398 136.519 248.248 144.498 260.51C144.962 261.155 145.611 261.432 146.261 261.524C144.591 270.651 142.921 279.779 141.251 288.998C141.251 288.906 141.251 288.906 141.251 288.814C141.251 288.353 141.065 287.984 140.694 287.615C139.488 281.438 137.168 275.63 133.457 271.02C132.436 269.729 130.024 270.467 129.746 272.034C127.983 280.701 127.89 289.828 129.653 298.587C130.766 304.118 132.343 311.31 135.962 316.288C133.921 326.614 131.787 336.94 129.56 347.174C126.034 335.649 117.869 320.806 115.921 317.671C115.179 316.565 113.045 316.196 112.395 317.671C107.385 329.657 113.694 344.224 120.003 356.854C121.302 361.188 122.787 365.429 124.55 369.577C123.715 373.081 122.972 376.677 122.137 380.18C111.56 424.618 100.055 468.872 87.9932 512.942C81.2201 525.296 74.5397 537.742 68.2305 550.281C33.0658 620.35 0.40625 696.135 -13.9751 773.579C-14.2534 775.054 -12.1194 775.607 -11.6555 774.132C15.0659 695.858 39.1895 618.598 77.6943 544.841C78.715 542.905 79.8284 540.969 80.849 538.941C78.8078 546.132 76.8593 553.323 74.8181 560.515C57.6533 621.18 35.2926 680.185 18.3133 740.85C17.6638 743.155 20.9113 743.8 21.7463 741.772C51.0657 669.582 74.2614 594.166 94.3953 518.105C111.838 495.701 130.395 474.588 152.292 456.61C153.405 457.348 155.354 456.61 155.446 455.043C155.446 454.766 155.539 454.397 155.539 454.029C155.91 453.752 156.281 453.476 156.653 453.107C159.25 452 161.848 450.525 164.446 448.681C165.281 448.958 166.116 449.142 166.951 449.327C181.333 456.426 203.601 453.199 215.755 443.795C216.776 442.965 216.312 441.398 215.384 440.845C204.714 433.93 190.24 434.852 177.25 438.355C190.982 429.505 205.178 421.852 219.745 414.938C219.745 415.583 220.116 416.228 220.673 416.505C223.549 418.165 226.704 419.271 230.137 419.916C241.363 424.434 254.26 425.909 265.672 421.484C266.507 421.115 267.157 419.916 266.322 419.179C264.188 417.427 261.776 416.044 259.27 414.753C259.27 414.108 258.992 413.463 258.435 413.186C249.807 408.945 239.137 408.761 229.487 410.328C239.693 405.718 249.992 401.385 260.384 397.236C274.487 406.364 296.847 396.13 308.26 386.91C309.28 386.081 308.631 384.421 307.517 384.144C304.92 383.499 302.136 383.222 299.445 383.13C299.817 382.762 300.188 382.393 300.466 381.932C301.394 380.733 300.095 379.258 298.796 379.166C286.27 378.152 274.023 384.513 262.982 389.584C261.961 390.045 262.703 391.612 263.724 391.336C264.837 391.059 265.858 390.783 266.879 390.506C265.765 391.059 264.559 391.704 263.446 392.35C263.353 392.35 263.353 392.442 263.353 392.534C262.054 392.995 260.662 393.364 259.363 393.825C258.806 393.641 258.25 393.825 257.971 394.286C250.27 396.775 242.569 399.633 234.868 402.768C240.25 397.882 244.611 392.258 246.93 386.449C247.487 385.066 245.91 384.052 244.796 384.329C227.817 387.371 215.199 400.371 203.23 411.711C202.395 412.541 202.58 413.831 203.23 414.569C202.951 414.846 202.58 415.214 202.302 415.491C201.652 416.136 202.487 417.335 203.322 416.782C203.972 416.321 204.621 415.767 205.271 415.214C205.271 415.583 205.456 415.86 205.735 416.044C198.034 420.009 190.426 424.25 183.003 428.767C187.828 421.207 191.075 413.186 191.168 406.364C191.168 405.349 190.147 404.612 189.219 404.888C172.333 410.144 152.477 431.164 151.55 450.157C134.477 463.341 118.797 478.276 105.344 494.687C135.684 442.136 169.735 391.428 207.498 344.039C216.961 332.146 226.704 320.437 236.631 308.913C237.095 309.65 238.487 309.742 238.765 308.636C238.951 307.714 239.137 306.792 239.322 305.87C247.487 296.466 255.745 287.247 264.188 278.027C264.281 278.119 264.466 278.211 264.652 278.304C263.631 278.765 263.167 280.424 264.466 280.977C282.466 289.091 309.095 277.474 323.476 266.318C324.775 265.304 324.218 263.276 323.012 262.538C308.074 254.056 287.105 263.184 271.332 270.467C282.188 258.85 293.322 247.326 304.548 235.986C304.734 236.539 305.012 237 305.755 237.092C306.311 237.184 306.868 237.184 307.332 237.184C307.425 237.184 307.425 237.277 307.517 237.277C314.847 238.936 322.641 238.66 330.157 237.092C344.352 235.617 358.455 231.56 370.146 224.461C371.259 223.816 371.723 222.064 370.61 221.142C352.703 206.668 325.053 222.064 308.26 232.39C322.919 217.731 337.857 203.441 353.167 189.335C356.878 190.994 361.332 191.271 365.878 190.902C371.723 191.548 378.125 189.98 383.971 187.307C392.135 185.094 400.208 182.144 407.445 177.81C408.929 176.888 409.115 174.491 407.445 173.662C391.672 165.548 373.764 174.768 359.847 183.158C373.579 170.619 387.404 158.265 401.507 146.187C401.507 146.372 401.599 146.556 401.785 146.74C407.63 152.549 418.857 150.981 426.001 149.138C434.723 146.925 444.279 143.329 450.31 136.322C451.053 135.4 451.238 133.649 449.939 133.095C436.393 127.472 418.3 134.663 406.702 141.946C405.218 142.868 405.125 144.989 406.702 145.819C406.981 146.003 407.259 146.095 407.63 146.279C406.146 145.911 404.661 145.45 403.362 144.897C403.269 144.897 403.177 144.897 403.084 144.897C416.63 133.28 430.362 121.755 444.187 110.507C459.496 113.919 477.496 113.458 490.578 104.699C491.97 103.777 492.248 101.565 490.578 100.735C479.815 95.2952 467.104 98.0611 455.692 101.933C455.228 102.118 454.671 102.21 454.207 102.394C462.465 95.7562 470.723 89.2103 478.98 82.6644C483.341 83.9552 489.094 82.6644 493.083 81.7425C501.062 79.8986 509.691 77.4093 516.743 73.0761C517.949 72.3385 518.32 70.1258 516.743 69.4804C510.619 66.8989 504.032 66.7145 497.63 68.1896C502.361 64.594 507.093 60.9062 511.825 57.3106C512.846 56.9418 513.867 56.3887 514.887 55.9277C525.372 59.7077 541.516 54.1759 549.681 48.2754C550.794 47.5378 550.701 46.2471 549.681 45.5095C543.928 41.0841 537.433 41.0842 530.939 43.0203C538.361 37.3963 545.877 31.8646 553.392 26.3329C553.485 26.4251 553.485 26.6094 553.67 26.7016C558.402 29.4674 565.639 24.1201 569.443 21.5386C574.918 17.8508 581.412 13.5176 583.918 7.15613C584.196 6.51076 583.732 5.40445 583.083 5.12786C570.835 -0.0350952 555.897 13.6098 548.938 24.1202C541.33 27.9924 533.815 32.2333 526.485 36.7509C530.567 31.4036 534 25.503 536.134 19.2337C536.691 17.6664 534.743 16.5601 533.537 17.2055C527.598 20.2479 523.702 25.5031 520.454 31.127C517.671 36.1056 513.774 41.1763 511.547 46.3393C505.516 50.4881 499.578 54.8213 493.64 59.2467C497.537 51.7788 499.764 44.0344 499.207 37.9495C499.114 36.4744 497.722 35.7368 496.331 36.2899C489.65 39.0558 460.609 70.218 471.743 76.7639C470.537 77.778 469.331 78.8844 468.125 79.8986C467.939 79.8986 467.846 79.9907 467.661 80.0829C467.104 80.2673 466.826 80.6361 466.64 81.097C458.29 88.2883 450.032 95.5718 441.867 103.04C443.444 100.274 444.836 97.4157 446.042 94.8342C449.568 87.4586 453.279 79.5297 453.836 71.3243C453.929 69.5726 451.888 69.2038 450.774 70.0336C438.712 79.1609 429.898 94.8342 429.434 110.047C429.341 111.245 430.269 111.983 431.197 112.075C430.919 112.351 430.64 112.628 430.362 112.812C429.991 113.181 429.898 113.642 429.991 114.011C420.434 122.954 410.878 131.805 401.414 140.656C408.836 129.869 414.032 116.224 412.826 104.884C412.64 103.408 411.063 102.026 409.579 103.04C393.62 113.827 384.063 133.372 381.929 152.088C381.651 154.577 385.177 155.038 386.29 153.286C387.218 151.811 388.146 150.244 388.981 148.677C389.259 148.677 389.445 148.492 389.63 148.216C395.754 137.89 400.671 126.918 406.61 116.5C407.63 114.748 406.053 113.089 404.476 113.089C405.775 111.798 407.073 110.508 408.465 109.401C408.094 124.521 397.702 140.287 388.239 151.074C387.682 151.719 387.775 152.457 388.239 152.918C383.878 156.882 379.61 160.754 375.249 164.534C366.713 172.094 358.177 179.747 349.734 187.399C358.363 175.045 364.115 159.556 361.795 145.542C361.61 144.159 359.847 143.698 358.826 144.251C357.527 144.989 356.228 145.819 354.93 146.74C354.744 146.833 354.651 146.925 354.466 147.109C342.125 156.698 334.053 177.442 334.796 193.023C334.332 194.867 333.775 196.803 333.404 198.647C333.126 199.937 334.239 200.767 335.352 200.675C323.383 211.831 311.507 223.078 299.816 234.511C308.909 221.419 314.291 203.349 310.858 188.597C310.579 187.307 309.095 186.938 307.981 187.399C292.023 194.129 282.466 218.377 286.363 235.709C285.806 238.844 285.342 241.886 284.878 244.929C284.693 246.404 286.734 247.51 287.476 246.035C288.033 244.929 288.497 243.823 288.961 242.716C289.425 243.269 290.074 243.546 290.817 243.546C277.641 256.638 264.837 270.006 252.219 283.651C260.105 273.049 261.033 248.801 260.291 240.319C260.105 238.383 257.879 237.83 256.765 239.397C249.064 250.645 243.961 263.829 241.363 277.382C239.044 285.034 237.466 292.778 236.91 300.707C223.363 316.012 210.188 331.685 197.663 347.911C163.055 392.35 131.044 439.277 102.467 488.141C111.838 451.078 120.653 413.924 129.096 377.045C129.838 377.045 130.581 376.4 130.395 375.478C130.302 374.833 130.117 374.187 129.931 373.542C130.024 373.081 130.117 372.712 130.209 372.343C131.88 364.968 133.55 357.684 135.034 350.309C145.89 361.28 178.364 328.55 183.281 320.99C184.209 319.515 182.632 317.302 180.962 317.948C177.807 319.054 174.745 320.345 171.683 321.82C171.312 321.175 170.57 320.714 169.735 320.714C155.354 320.898 144.22 334.174 136.148 345.146C137.818 337.032 139.488 328.919 141.065 320.806C141.9 320.806 142.642 319.976 142.364 319.146C142.178 318.593 141.9 318.04 141.715 317.487C143.013 310.664 144.312 303.75 145.611 296.927C145.704 297.019 145.89 297.112 145.983 297.204C145.89 297.296 145.797 297.388 145.797 297.48C145.333 298.218 146.261 299.324 147.096 298.771C147.56 298.402 148.117 298.034 148.58 297.757C160.457 298.771 171.034 284.665 178.642 273.786C179.755 273.509 180.869 273.233 181.982 273.049C179.106 285.034 163.055 301.26 150.993 301.168C149.23 301.168 149.323 303.658 150.993 303.842C165.931 305.225 184.209 284.757 185.879 271.112C185.972 270.191 184.951 269.361 184.116 269.361C183.281 269.361 182.353 269.545 181.518 269.637C182.446 268.347 183.281 267.148 184.024 266.042C185.137 264.567 183.096 262.999 181.704 263.737C179.57 264.843 171.591 270.836 164.539 277.382C157.859 282.268 151.921 288.722 147.745 294.715C147.56 294.715 147.374 294.715 147.189 294.715C146.725 294.622 146.354 294.715 146.075 294.899C151.735 264.198 156.838 233.404 162.127 202.519C162.22 202.611 162.312 202.703 162.405 202.795C162.034 204.271 164.075 205.469 165.189 204.271C165.374 204.086 165.56 203.902 165.745 203.717C180.869 205.1 197.477 174.86 200.817 164.258C201.281 162.875 199.797 161.492 198.405 161.861C182.817 166.563 168.9 184.633 163.426 200.03C163.147 199.937 162.869 200.03 162.683 200.122C163.24 196.618 163.89 193.115 164.446 189.611C166.766 176.151 169.735 162.875 172.426 149.506C173.261 149.414 174.096 149.045 174.56 148.4C174.838 148.123 175.024 147.662 175.209 147.294C184.58 147.294 196.92 121.479 199.704 116.685C200.632 115.117 198.776 112.997 197.106 114.103C189.59 118.897 183.931 125.443 178.828 132.634C177.9 133.925 176.323 135.769 174.745 137.705C176.415 127.932 177.807 118.16 178.364 108.295C178.457 106.359 178.549 104.515 178.642 102.579C179.013 102.486 179.292 102.394 179.57 102.118C181.054 100.182 181.982 97.8767 182.817 95.5718C193.209 93.4513 198.219 72.5229 198.962 64.5941C199.147 62.7502 196.735 62.1048 195.529 63.2112C188.848 69.2961 182.261 79.8985 179.199 90.1323C179.755 75.2888 180.312 60.4453 182.168 45.694C182.817 48.3677 183.467 50.9491 184.395 53.5306C185.322 56.1121 189.776 55.9276 189.405 52.8852C188.848 47.4456 187.456 41.8217 186.529 36.1056C189.59 30.4817 189.312 13.702 189.127 11.4893C188.941 9.55317 186.436 8.63123 185.322 10.4751C184.302 12.0425 183.56 13.6099 182.91 15.2694C181.611 15.1772 180.962 15.6382 180.869 16.6523ZM175.58 143.606C177.9 139.826 182.817 133.833 183.745 132.542C185.972 129.5 188.199 126.642 190.797 123.968C186.25 131.805 179.848 141.762 175.58 143.606ZM168.436 199.845C177.158 188.321 181.426 173.846 195.157 167.116C190.611 177.81 179.106 196.987 168.436 199.845ZM159.529 287.247C160.642 286.048 161.848 284.85 163.055 283.743C164.632 282.268 166.024 280.977 167.044 280.055C168.9 278.488 170.941 277.013 173.075 275.814C168.25 282.453 162.127 289.552 155.91 292.871C156.374 291.211 157.766 289.183 159.529 287.247ZM166.209 332.976C167.601 331.224 168.807 329.38 170.013 327.444C171.405 326.614 172.797 325.877 174.281 325.139C171.962 327.536 169.178 330.302 166.209 332.976ZM138.467 348.649C145.983 341.366 152.848 330.302 162.962 326.614C155.261 331.593 148.395 337.954 143.106 345.238C142.364 346.252 142.828 347.543 143.663 348.28C141.622 348.926 139.952 349.11 138.467 348.649ZM245.167 285.772C244.982 285.864 244.796 285.864 244.611 285.956C244.703 285.034 244.796 284.204 244.889 283.282C246.745 276.736 248.972 270.283 251.662 263.921C250.085 271.481 248.229 278.949 245.167 285.772ZM300.095 208.512C299.074 218.192 296.847 227.965 291.559 235.801C294.528 226.766 296.291 217.27 300.095 208.512ZM303.713 218.837C305.198 211.554 305.847 204.086 306.126 196.987C306.126 195.696 305.476 194.959 304.548 194.682C305.569 193.852 306.59 193.023 307.61 192.377C309.095 200.767 307.146 209.802 304.085 217.731C303.992 217.916 303.899 218.376 303.713 218.837ZM389.723 138.166C392.228 130.606 395.94 123.415 400.95 117.238C399.744 119.451 398.537 121.571 397.424 123.784C394.826 128.578 392.321 133.372 389.723 138.166ZM554.505 25.5031C555.804 24.5811 557.103 23.567 558.402 22.6451C559.516 21.8153 559.052 20.3401 558.031 20.0635C563.691 13.8864 569.536 7.34054 577.33 7.52493C581.784 7.61713 578.072 10.0141 575.938 11.9503C573.34 14.3473 570.557 16.5601 567.588 18.4962C564.99 20.3402 558.217 25.5953 554.505 25.5031ZM518.042 54.2681C526.949 49.013 536.042 41.8217 545.691 46.9846C541.516 49.5661 536.691 51.2257 531.959 52.4242C527.784 53.4384 522.681 54.6369 518.042 54.2681ZM530.011 24.3967C527.877 28.9143 525.093 33.1553 521.939 37.0276C524.258 32.6022 526.578 27.9923 530.011 24.3967ZM501.619 71.9698C504.495 71.5088 507.465 71.5088 510.248 72.0619C507.279 73.4449 504.124 74.5511 501.063 75.5653C501.619 75.1965 502.176 74.8278 502.733 74.3668C503.66 73.5371 502.733 71.9698 501.619 71.9698ZM495.31 41.5452C494.753 49.1974 490.485 58.7857 484.547 66.5302C484.269 66.7146 483.99 66.9911 483.712 67.1755C483.712 67.0833 483.805 67.0834 483.805 66.9912C483.99 66.5302 483.99 66.1614 483.712 65.7926C486.588 61.275 489.65 56.8497 492.434 52.1477C493.176 50.8569 491.413 49.8427 490.485 50.6725L490.392 50.5803C487.516 53.8071 484.826 57.2183 482.32 60.814C482.784 59.5232 483.341 58.3247 483.898 57.1262C484.269 56.3886 483.155 55.6511 482.692 56.4808C481.485 58.7857 480.743 61.275 479.351 63.4877C479.073 63.9487 479.351 64.4097 479.722 64.6863C478.331 66.8068 476.846 69.0194 475.547 71.2321C474.991 72.0619 475.269 72.9839 475.826 73.537C475.454 73.8136 475.083 74.0902 474.712 74.3668C470.537 66.6224 486.681 47.8145 495.31 41.5452ZM470.166 107.373C471.836 106.082 473.32 104.515 474.434 102.671C477.681 102.394 480.929 102.579 483.99 103.316C479.537 105.621 474.898 106.82 470.166 107.373ZM414.589 144.251C422.29 142.223 429.527 138.812 437.506 137.982C431.661 143.329 422.475 145.818 414.589 144.251ZM368.29 185.647C376.177 182.328 383.878 177.073 392.135 176.796C388.981 179.286 385.177 181.683 381.187 183.434C380.723 183.526 380.259 183.711 379.888 183.803C375.991 184.725 372.094 185.278 368.29 185.647ZM350.198 167.208C348.528 173.662 346.208 180.023 343.146 185.831C345.558 179.654 347.785 173.385 350.198 167.208ZM353.816 172.555C355.857 165.733 357.342 158.818 358.27 152.088C358.362 158.91 356.692 165.917 353.816 172.555ZM351.033 228.61C354.651 226.305 357.991 223.724 360.868 220.774C360.868 220.774 360.868 220.774 360.868 220.681C362.259 221.142 363.651 221.788 364.95 222.525C360.589 225.015 355.95 227.043 351.033 228.61ZM318.744 233.958C329.785 229.532 340.455 224.277 352.239 222.249C344.074 228.426 333.682 232.667 323.291 233.773C322.363 233.865 321.528 233.958 320.6 233.958C319.95 233.958 319.394 233.958 318.744 233.958ZM306.219 264.29C310.023 264.013 313.734 264.29 317.074 265.396C314.662 267.056 312.064 268.623 309.28 270.191C309.837 269.637 310.301 268.992 310.765 268.439C311.786 267.148 310.672 265.028 309.188 264.751C308.167 264.474 307.239 264.382 306.219 264.29ZM273.373 276.552C283.487 276.368 292.951 269.176 303.249 269.084C295.827 275.261 283.023 278.672 273.373 276.552ZM289.332 387.095C284.229 390.229 278.105 392.35 272.26 392.719C275.136 391.612 278.013 390.506 280.982 389.307C281.26 389.215 281.446 389.031 281.446 388.754C284.136 388.109 286.734 387.556 289.332 387.095ZM263.631 396.222C263.817 396.13 264.002 396.038 264.188 396.038C274.951 398.527 288.033 394.102 296.476 386.541C298.703 386.541 301.023 386.726 303.157 387.002C292.765 394.286 275.507 401.662 263.631 396.222ZM232.456 393.641C228.003 397.421 223.363 401.016 218.446 404.151C222.9 400.279 227.446 396.591 232.456 393.641ZM240.714 420.654C246.374 420.285 251.941 418.994 256.765 417.058C258.714 417.888 260.569 418.81 262.239 419.916C255.281 422.037 247.858 422.037 240.714 420.654ZM226.333 415.306C230.044 414.2 234.033 413.555 238.116 413.463C238.301 413.463 238.487 413.463 238.673 413.463C243.033 413.463 247.394 414.108 251.569 415.214C243.59 417.519 233.941 418.165 226.333 415.306ZM210.559 413.094C222.25 407.747 232.271 398.896 241.549 390.137C235.24 400.555 222.157 409.775 210.559 413.094ZM168.714 445.547C168.807 445.455 168.9 445.362 168.993 445.27C170.477 444.717 171.962 444.164 173.539 443.703C173.725 444.072 174.003 444.348 174.374 444.348C183.745 444.164 193.395 439.37 202.487 442.412C192.652 447.391 179.848 447.759 168.714 445.547ZM170.013 437.341C173.353 433.469 176.879 429.136 180.869 425.817C179.292 428.398 177.622 430.98 175.766 433.469C173.817 434.76 171.869 436.051 170.013 437.341ZM168.529 425.079C171.683 421.392 174.931 417.796 178.735 414.846C179.477 414.2 189.405 405.903 187.549 411.711C186.529 414.846 185.044 418.349 183.188 421.852C183.096 421.852 183.003 421.852 183.003 421.852C177.065 424.434 172.426 429.689 168.065 434.299C164.725 437.802 160.457 441.582 157.116 445.731C159.158 438.171 163.333 431.164 168.529 425.079ZM128.168 354.826C128.075 355.379 127.89 355.932 127.797 356.578C126.034 350.309 123.993 344.132 121.766 337.954C124.642 344.316 127.333 350.862 128.168 354.826ZM135.684 303.197C135.034 301.445 134.57 299.509 134.199 297.573C133.178 291.396 132.807 285.126 133.457 278.949C135.313 282.637 136.519 286.786 137.075 291.027C135.869 295.083 135.405 299.14 135.684 303.197ZM145.519 252.673C139.395 242.44 132.343 228.149 135.684 217.455C137.818 220.036 139.673 222.802 141.251 225.752C140.879 225.937 140.508 226.305 140.601 226.859C141.715 235.617 145.797 244.007 145.519 252.673ZM153.776 188.597C152.199 181.775 151.364 174.86 152.199 168.222C153.22 169.974 154.055 171.818 154.611 173.846C153.962 173.938 153.498 174.399 153.498 175.229C153.591 179.654 153.684 184.08 153.776 188.597ZM193.302 71.0478C191.724 78.1469 188.57 87.7352 183.745 91.0542C184.302 89.2103 184.859 87.4585 185.601 85.7068C187.735 80.5439 190.054 75.4732 193.302 71.0478ZM166.024 78.3312C165.467 78.5156 165.003 78.9766 164.817 79.6219C164.075 76.8561 163.611 74.0902 163.333 71.4165C164.539 73.6292 165.374 75.9341 166.024 78.3312Z" fill="#E7E7E9" fill-opacity="0.5"/>
</g>
<defs>
<filter id="filter0_f" x="-18" y="0" width="606" height="779" filterUnits="userSpaceOnUse" color-interpolation-filters="sRGB">
<feFlood flood-opacity="0" result="BackgroundImageFix"/>
<feBlend mode="normal" in="SourceGraphic" in2="BackgroundImageFix" result="shape"/>
<feGaussianBlur stdDeviation="2" result="effect1_foregroundBlur"/>
</filter>
</defs>
</svg>
