<svg width="216" height="316" viewBox="0 0 216 316" fill="none" xmlns="http://www.w3.org/2000/svg">
<path d="M202.886 179.017C189.26 176.066 173.51 169.4 159.285 171.039C144.406 172.788 133.07 183.279 118.409 185.847C117.919 185.956 117.973 186.612 118.355 186.721C118.082 186.776 117.81 186.885 117.483 186.94C116.829 186.994 116.12 187.158 115.139 187.267C114.758 187.322 114.594 187.65 114.594 187.923C113.94 188.196 113.286 188.524 112.632 188.852C119.118 179.836 124.241 169.947 132.634 162.352C141.845 154.046 153.017 147.708 163.209 140.714C170.948 135.414 174.709 127.109 184.301 124.049C184.519 123.994 184.519 123.666 184.246 123.666C178.088 123.557 174 128.365 169.749 132.463C162.01 139.949 153.017 145.358 144.243 151.478C146.75 148.746 149.148 145.796 151.6 143.064C154.652 139.621 158.031 136.397 160.647 132.627C160.811 132.409 160.484 132.026 160.266 132.19C156.56 134.758 153.562 138.528 150.51 141.916C146.804 145.959 142.88 150.112 139.828 154.647V154.702C133.233 159.62 128.11 164.592 123.478 170.329C130.018 150.549 148.33 133.392 165.934 123.229C171.766 119.896 178.197 117.874 184.301 115.142C186.699 114.05 207.409 104.87 206.483 108.695C202.177 126.89 182.72 144.648 167.678 154.429C155.797 162.133 140.591 157.161 130.181 166.231C129.473 166.832 130.29 168.034 131.108 167.542C139.937 162.406 150.347 163.991 159.884 160.986C167.624 158.527 174.491 153.008 180.595 147.872C193.075 137.326 205.883 121.972 209.589 105.744C209.753 105.034 209.317 104.214 208.499 104.214C201.741 104.105 195.637 107.274 189.642 110.061C179.995 114.541 170.022 118.366 160.865 123.721C144.243 133.502 124.786 152.789 121.461 172.46C121.461 172.624 121.461 172.733 121.516 172.842C119.281 175.793 117.101 178.962 114.921 182.404C110.343 189.617 102.658 193.988 97.1539 199.999C100.969 189.344 104.457 178.58 107.291 167.652C107.346 167.542 107.346 167.378 107.4 167.269C108 167.378 108.654 167.214 108.926 166.504C113.45 154.429 122.224 143.61 128.383 132.299C134.869 120.388 141.845 109.077 151.164 99.0782C157.65 92.0843 165.062 85.9646 171.929 79.3531C179.668 74.9273 185.5 68.3158 191.985 62.3054C192.367 61.9775 191.822 61.4311 191.44 61.759C186.699 65.7477 182.175 69.8457 177.434 73.7798C186.208 64.4363 194.056 54.164 202.177 44.2741C202.722 43.6184 201.632 42.6896 201.033 43.3452C190.95 54.765 181.521 66.7859 170.948 77.7685C161.955 87.112 151.764 95.0348 143.316 104.925C142.008 106.455 140.809 108.039 139.61 109.678C146.096 93.7235 154.489 79.4077 166.261 66.5127C176.889 54.8743 193.239 40.2308 208.336 34.876C218.364 31.3244 205.665 50.2299 204.303 52.2516C200.106 58.4259 194.928 63.9446 190.187 69.6818C179.069 83.1779 162.936 89.2976 150.292 100.772C149.475 101.482 150.456 102.958 151.382 102.357C176.78 85.3089 207.791 65.5291 215.966 33.8378C216.129 33.0729 215.693 32.4718 214.93 32.4172C199.561 30.778 183.211 47.7711 172.747 57.0053C155.633 72.1406 142.662 92.4121 136.231 114.323C136.231 114.432 136.231 114.487 136.286 114.541C131.871 121.371 128.056 128.639 124.186 135.687C119.608 144.156 113.668 151.861 109.199 160.33C113.068 144.43 116.229 128.365 119.554 112.301C119.772 112.192 119.935 112.083 119.99 111.755C120.044 111.154 120.044 110.553 120.044 109.952C121.189 104.324 122.388 98.6957 123.587 93.1224C125.004 86.511 125.985 79.7902 126.748 73.0695C130.508 63.5075 133.669 53.563 136.504 43.7277C136.667 43.1813 135.85 42.9628 135.686 43.4545C133.179 50.8856 130.018 58.2074 127.511 65.6931C128.982 49.9567 129.909 34.2203 133.56 18.9211C133.669 18.4293 132.961 18.2108 132.797 18.7025C127.947 35.641 127.838 53.5629 125.821 71.1571C125.331 72.7963 124.895 74.4355 124.568 76.1293C124.459 76.5118 124.786 76.785 125.113 76.6757C124.622 80.1181 124.023 83.5604 123.26 86.9481C122.115 92.0843 120.971 97.2751 119.826 102.466C119.227 97.3297 118.028 92.3028 116.829 87.0027C114.322 75.9108 114.812 64.3817 116.175 53.1805C118.082 37.7719 119.499 16.4623 130.29 4.27752C135.359 -1.51433 142.335 29.7945 142.444 32.144C142.989 42.0885 140.482 52.033 137.812 61.5404C133.015 78.4789 123.859 94.3245 120.208 111.482C119.99 112.574 121.407 113.011 121.843 111.973C136.231 78.916 157.868 33.6193 133.724 0.398069C133.397 -0.0390522 132.743 -0.0936924 132.307 0.124868C120.153 6.35385 117.864 26.7893 115.957 38.5915C114.431 48.0989 113.177 57.5517 112.796 67.223C112.305 81.3202 117.701 94.4338 118.573 108.312C114.267 127.874 110.016 147.489 105.22 166.941C98.6254 193.66 87.5072 219.177 77.6426 244.967C78.0786 235.569 76.389 225.898 75.5715 216.664C74.754 207.484 73.991 198.523 73.664 189.508C76.2255 159.292 94.4833 131.097 91.3768 100.116C91.3223 99.4061 90.1233 99.5153 90.1233 100.226C89.5238 120.552 82.0572 140.55 76.8796 160.603C74.9175 131.534 78.1331 102.193 91.2678 75.9108C93.6113 71.1571 96.8814 97.1658 96.7179 95.4173C97.5354 105.198 96.3909 115.142 94.7013 124.814C92.0853 139.84 85.2182 152.953 79.6591 166.941C79.3866 167.597 80.3676 167.925 80.6946 167.433C92.2488 151.15 97.3719 130.114 99.1704 110.443C99.7154 104.652 100.642 71.6488 93.3388 69.6818C92.9028 69.5725 92.3578 69.6818 92.1398 70.1189C84.0192 84.9264 78.5691 100.335 76.062 117.055C74.645 126.508 74.5905 136.179 75.299 145.686C75.7895 152.079 74.4815 158.199 75.953 164.428C75.0265 168.198 74.209 171.968 73.6095 175.793C73.664 174.208 73.6095 172.679 73.664 171.094C74.1 162.188 72.9555 153.5 70.3394 145.14C70.4485 127.764 69.0859 110.279 59.6573 95.1988C52.4087 83.615 40.7455 70.8292 26.4662 69.354C26.1392 69.2993 25.6487 69.6272 25.5942 69.955C23.1417 84.5986 30.3903 97.8215 37.3664 110.225C41.672 117.82 45.705 125.688 50.6101 132.9C56.0057 140.933 64.5078 145.959 69.9034 153.882C70.7755 157.762 71.3205 161.86 71.5385 166.395C72.138 179.782 71.1025 192.95 72.465 206.446C72.792 209.561 73.1735 212.675 73.5005 215.844C68.5954 203.933 60.4748 195.409 50.5011 186.721C42.3805 179.672 34.0419 173.061 26.6842 165.193C20.9616 159.018 17.4191 152.352 10.116 147.763C9.24396 147.216 8.31744 148.582 9.24396 149.129C21.9972 157.215 29.4638 172.187 41.5085 181.585C41.563 181.639 41.6175 181.694 41.672 181.694C36.4399 179.017 31.1533 176.886 26.7932 172.569C26.4662 172.241 25.9757 172.733 26.2482 173.061C30.9898 178.143 37.7479 182.404 44.5605 184.098C51.2641 189.562 57.3137 195.136 62.4913 201.419C50.4466 194.535 39.4919 189.781 28.7008 180.164C17.3101 170.001 9.51646 156.778 3.52136 142.845C0.251312 135.195 25.6487 147.052 25.8667 147.216C32.4068 150.877 37.7479 156.396 42.7075 161.86C53.1172 173.389 57.9677 187.322 64.5624 200.982C64.8349 201.583 65.7069 201.201 65.5979 200.6C59.2213 170.548 33.0063 139.293 0.959808 137.927C0.196793 137.873 -0.184708 138.692 0.0877991 139.348C5.75589 153.992 13.2225 166.723 23.9592 178.197C35.6769 190.655 48.9206 196.829 64.1263 203.714C64.1808 203.769 64.2354 203.714 64.2899 203.714C68.0504 208.686 71.266 214.15 73.9365 220.379C75.1355 230.98 76.1711 241.798 74.972 252.125C67.3964 272.451 60.9108 293.105 58.2402 314.743C58.0222 316.382 60.5838 316.437 60.8018 314.798C62.8183 300.099 66.5244 285.893 70.9935 271.85C74.863 264.747 83.3107 259.174 90.6683 254.803C90.8318 254.857 91.0498 254.912 91.2133 254.748C96.6634 250.869 106.365 253.928 112.087 255.458C117.265 256.824 121.843 259.611 126.857 261.196C127.347 261.359 127.565 260.813 127.347 260.485C123.75 255.513 113.177 253.874 107.727 252.672C104.294 251.907 99.9334 251.087 96.0639 251.634C96.3364 251.47 96.6089 251.306 96.8269 251.196C97.3174 250.923 97.7534 250.65 98.2439 250.377C110.071 245.951 129.255 248.246 132.961 261.086C134.051 264.802 135.25 269.009 129.037 267.862C124.513 267.042 120.262 264.693 116.284 262.562C110.125 259.283 104.239 255.513 97.4809 253.601C96.6089 253.327 96.2274 254.639 97.0449 254.967C109.417 260.103 120.698 269.173 134.378 270.43C134.869 270.484 135.305 269.993 135.305 269.556C135.577 261.25 133.833 253.163 125.276 249.83C118.627 247.262 110.67 245.951 103.421 247.317C113.94 241.197 124.513 235.46 135.25 229.668C135.632 229.45 135.414 228.849 134.978 228.958C124.295 232.4 114.158 238.083 104.348 244.148C111.651 230.16 130.781 223.111 145.442 221.855C149.475 221.527 153.78 220.762 150.946 225.953C148.603 230.215 144.406 233.712 140.482 236.444C132.797 241.744 123.369 237.099 115.521 241.416C114.921 241.744 115.248 242.673 115.957 242.509C124.731 240.76 133.506 243 141.463 238.301C147.458 234.75 153.235 228.521 154.925 221.636C155.034 221.144 154.816 220.434 154.216 220.325C137.267 216.937 108.545 227.045 102.713 245.131C97.9169 248.137 93.2298 251.196 88.5973 254.147C83.6922 257.261 77.0431 261.305 72.6285 266.496C79.3866 246.279 87.6707 226.444 95.0829 206.337C99.3884 200.927 105.384 198.141 109.798 192.95C111.869 191.256 114.213 189.999 116.72 189.18C125.276 190.382 133.833 196.228 142.717 197.485C151.6 198.742 161.029 199.179 169.967 199.015C184.083 198.742 196.727 193.551 203.485 180.765C203.703 180 203.594 179.181 202.886 179.017ZM47.8851 125.36C40.0914 112.356 31.5348 98.6957 27.3927 84.0522C23.5777 70.6107 31.3168 70.4468 40.6365 76.9489C48.3756 82.3037 54.5342 90.7729 59.4393 98.6411C67.0694 110.88 67.4509 124.978 67.8869 138.911C67.8324 138.802 67.7779 138.692 67.7234 138.583C65.6524 133.611 63.0363 129.185 60.3658 124.868C59.9298 122.355 59.2758 119.896 58.7308 117.437C57.6407 112.684 56.7142 107.93 55.9512 103.067C55.8967 102.684 55.2972 102.739 55.2972 103.122C55.2972 108.367 56.0057 114.214 57.2592 119.732C52.8992 112.629 49.0296 105.362 47.8851 96.073C47.7761 95.2534 46.4135 95.3627 46.4135 96.2369C46.6861 105.471 50.2831 112.957 54.8612 120.825C60.4748 130.66 65.2709 139.02 68.2139 148.582C62.3278 140.55 53.1172 134.048 47.8851 125.36ZM195.528 188.087C185.118 198.96 165.825 197.321 152.363 195.791C141.518 194.535 132.634 193.606 122.715 188.36C122.279 188.142 121.843 187.923 121.516 187.759C128.819 186.448 136.885 187.158 143.916 186.83C157.486 186.284 171.602 186.83 184.573 182.295C185.064 182.131 184.9 181.366 184.355 181.476C169.695 184.317 154.979 185.628 140.155 185.738C144.624 184.371 148.875 181.421 152.69 179.181C153.072 178.962 152.745 178.416 152.418 178.634C149.856 179.836 147.24 180.929 144.679 182.077C141.79 183.333 138.684 184.153 135.85 185.574C135.741 185.628 135.741 185.683 135.686 185.792C134.105 185.792 132.525 185.792 130.89 185.738C128.655 185.683 126.475 185.738 124.295 185.901C131.38 184.098 137.648 180.437 144.352 177.104C156.342 171.094 168.332 173.17 180.867 175.902C188.77 177.541 205.229 177.979 195.528 188.087Z" fill="#E7E7E9"/>
</svg>
