<svg width="159" height="174" viewBox="0 0 159 174" fill="none" xmlns="http://www.w3.org/2000/svg">
<path d="M123.878 185.867C123.805 185.493 123.701 185.105 123.555 184.737C123.689 184.567 123.835 184.363 123.969 184.192C124.73 183.188 123.7 182.058 122.755 182.221C122.707 182.162 122.67 182.07 122.56 181.985C122.359 181.669 122.097 181.518 121.817 181.511C120.354 179.737 118.398 178.435 116.356 177.173C111.579 174.234 106.649 171.61 101.78 168.823C100.61 167.784 99.3973 166.765 98.1054 165.865C98.5744 165.839 99.0435 165.813 99.5308 165.833C103.114 167.418 106.946 168.425 110.693 169.281C112.88 169.769 115.177 169.961 117.394 170.271C117.9 170.337 119.222 170.679 120.514 171.009C120.051 171.113 119.545 171.238 118.991 171.494C118.492 171.697 118.516 172.584 119.028 172.728C119.571 172.886 120.107 172.966 120.631 173.078C120.716 173.229 120.801 173.38 120.929 173.511C121.74 174.28 123.007 173.723 123.939 173.592C124.128 173.559 124.255 173.5 124.396 173.408C124.755 173.297 125.157 173.166 125.583 172.969C125.882 172.831 126.101 172.431 126.015 172.089C125.38 169.416 119.587 169.123 117.515 168.8C113.744 168.2 109.845 167.659 106.056 166.822C106.86 166.941 107.634 167.046 108.34 167.047C113.866 167.11 119.22 165.918 124.537 164.443C125.128 164.279 125.237 163.413 124.829 163.084C125.644 162.408 124.937 160.693 123.786 160.844C122.037 161.079 120.74 161.242 119.132 161.957C118.547 162.2 118.536 162.994 118.92 163.389C118.579 163.737 118.542 164.216 118.707 164.63C114.096 165.724 109.187 166.194 104.782 165.587C103.545 165.395 102.089 165.033 100.615 164.815C109.623 162.536 118.494 153.57 122.535 145.907C122.803 145.376 122.565 144.778 121.998 144.685C116.216 143.789 110.949 146.655 105.424 148.116C98.1943 149.984 90.854 150.623 83.5015 151.104C85.2248 149.982 86.9116 148.768 88.5618 147.462C91.168 145.388 93.9693 143.741 96.6425 141.773C96.8374 141.628 96.6727 141.215 96.429 141.3C91.0143 142.846 86.8504 148.17 82.1248 151.195C81.9786 151.208 81.8629 151.234 81.7288 151.214C80.279 151.312 78.3785 151.481 76.3257 151.776C81.7154 148.962 86.5801 144.131 91.7992 141.205C96.525 138.561 101.665 136.134 107.093 136.459C110.273 136.652 103.624 143.15 102.924 143.8C100.483 146.097 97.5106 147.441 94.758 149.147C94.4901 149.298 94.5878 149.797 94.935 149.719C101.349 148.337 107.042 142.797 110.352 136.915C110.626 136.462 110.449 135.89 109.992 135.693C96.8615 130.023 84.1386 146.428 73.4141 152.194C68.7848 153.052 63.705 154.552 60.3011 157.158C65.9069 148.419 71.6895 139.872 77.6489 131.515C80.4489 127.582 83.3709 123.703 86.2807 119.856C94.1708 122.12 103.237 124.93 111.259 123.977C113.446 123.702 123.326 122.599 123.196 118.658C122.98 112.852 112.1 112.076 108.499 112.35C102.95 112.734 95.0249 113.234 89.1723 116.153C95.1685 108.46 101.342 100.956 107.771 93.7162C107.99 93.6967 108.209 93.6771 108.428 93.6575C111.75 96.2343 117.117 97.1047 120.821 97.9806C124.568 98.8368 130.685 100.259 133.815 96.9643C137.273 93.3542 132.099 89.292 129.357 88.108C123.507 85.5822 117.368 86.8918 111.752 89.2658C115.399 85.242 119.137 81.2577 122.93 77.4114C127.775 81.0268 151.958 89.8696 149.405 77.1131C148.226 71.2341 135.561 70.0306 128.337 71.9766C131.807 68.5241 135.327 65.1308 138.925 61.8098C142.246 64.0056 147.297 64.7773 150.836 65.6202C154.09 66.3776 159.951 68.1087 162.825 65.3127C165.973 62.2541 160.549 58.0077 158.294 57.2247C153.81 55.593 148.194 56.2527 143.419 57.6946C146.542 54.8921 149.684 52.1356 152.887 49.4055C152.917 49.4186 152.905 49.4514 152.936 49.4646C157.866 52.8502 165.109 53.6167 170.78 53.095C173.558 52.8472 177.687 50.8597 174.926 47.5346C172.067 44.0912 166.224 43.3584 162.265 43.172C161.704 43.1585 161.071 43.1515 160.455 43.1905C162.173 41.7992 163.92 40.4211 165.656 39.0758C166.119 39.1615 166.594 39.2144 167.081 39.2344C171.304 42.2386 177.226 43.0437 182.124 42.9877C183.976 42.9495 188.611 41.9804 188.213 38.9524C187.657 34.8274 182.527 33.412 179.316 33.2064C176.934 33.0538 174.492 33.4463 172.092 34.2C175.082 31.9492 178.09 29.7443 181.147 27.5986C181.165 27.6446 181.171 27.7234 181.19 27.7694C181.433 28.0651 181.72 28.3411 182.006 28.6171C182.006 28.6171 181.976 28.604 181.964 28.6368C181.629 28.6826 181.568 29.2277 181.915 29.3395C182.324 29.4777 182.726 29.5371 183.128 29.5965C185.809 31.7065 189.313 33.0289 192.335 33.6482C194.577 34.0831 198.561 34.2039 199.162 31.1502C199.782 27.9521 194.889 25.6108 192.817 25.0971C190.131 24.4321 187.164 24.7126 184.313 25.3478C187.023 23.4711 189.751 21.6405 192.498 19.8558C192.778 20.053 193.071 20.2174 193.375 20.3489C193.12 20.467 192.931 20.8806 193.242 21.091C193.504 21.2422 193.79 21.3278 194.089 21.3805C195.241 23.1349 197.867 23.9641 199.585 24.4775C201.468 25.0239 204.459 25.63 205.938 23.8314C207.497 21.9146 204.376 18.7009 203.011 17.9972C201.019 16.9845 198.813 16.832 196.645 17.1525C196.98 16.9162 197.333 16.726 197.668 16.4898C197.796 16.6212 197.96 16.6541 198.113 16.5295C198.417 16.2801 198.63 15.9912 198.904 15.7287C198.959 15.6762 199.044 15.6368 199.087 15.6172C199.184 15.545 199.251 15.4596 199.245 15.3808C199.556 15.0198 199.848 14.6127 200.109 14.1926C200.584 13.8645 201.029 13.5232 201.486 13.1492C201.401 13.379 201.583 13.6484 201.809 13.7077L201.943 13.7274C202.004 13.7537 202.12 13.7276 202.205 13.6882C203.972 14.4512 206.439 14.1835 208.23 14.119C209.655 14.0871 213.554 14.2472 214.168 12.3035C214.977 9.83449 211.706 9.22157 210.225 9.306C208.483 9.42967 206.766 10.0591 205.17 10.7411C204.5 11.0231 203.745 11.3445 203.057 11.7709C203.799 11.1015 204.469 10.4386 205.06 9.8938C206.485 8.5286 210.053 5.19441 208.595 2.73709C204.358 -4.23414 197.993 9.88926 196.406 14.8404C196.236 15.1096 196.053 15.4116 195.864 15.6348C195.627 15.9893 195.7 16.3637 195.895 16.6003C195.305 16.9546 194.744 17.322 194.154 17.6763C193.289 17.9122 192.442 18.1941 191.656 18.5022C191.328 18.6268 191.437 19.0932 191.724 19.1788C191.358 19.4019 190.981 19.6578 190.585 19.8677C192.509 17.5373 193.835 14.3396 194.747 11.6868C195.435 9.73655 196.718 5.41572 194.012 4.51419C191.112 3.56655 189.147 8.20222 188.49 10.3561C187.943 12.2144 187.701 14.2043 187.409 16.1351C187.191 17.6784 186.522 19.6746 186.791 21.2379C186.797 21.3167 186.858 21.3431 186.906 21.4022C186.839 21.4875 186.785 21.54 186.718 21.6254C186.572 21.8289 186.59 22.0654 186.736 22.2428C184.648 23.5879 182.589 24.9461 180.519 26.3371C180.403 26.3633 180.275 26.4224 180.129 26.4354C180.129 26.4354 180.129 26.4354 180.117 26.4682L180.074 26.4879C182.838 22.8445 188.317 5.10164 182.049 6.85124C177.25 8.1683 175.371 25.2567 178.491 27.7085C175.373 29.8279 172.335 32.0196 169.284 34.2442C173.338 28.2635 177.679 13.8761 171.215 12.7225C166.78 11.9118 165.602 18.7154 164.909 22.1105C164.32 25.1314 162.692 34.2925 166.02 36.3767C166.142 36.4293 166.245 36.4359 166.33 36.3966C163.103 38.8115 159.912 41.3184 156.782 43.8515C156.137 44.0679 155.552 44.3105 155.004 44.6451C157.511 39.7865 159.08 34.2179 158.712 28.727C158.429 24.9109 157.196 19.0844 152.622 21.794C149.157 23.8015 148.826 31.2755 148.572 34.822C148.33 38.5261 147.902 45.8819 151.217 48.3798C147.722 51.3266 144.245 54.3192 140.848 57.3843C142.825 53.2872 143.724 48.1911 143.484 43.9744C143.331 41.4325 142.39 36.7227 139.198 37.3249C135.513 38.0188 134.779 44.2906 134.592 47.3708C134.345 51.5675 134.683 57.2358 137.456 60.5281C133.048 64.6039 128.737 68.798 124.475 73.0513C126.946 67.5293 128.562 61.0675 128.181 55.038C127.924 51.1562 126.288 46.6036 122.135 49.0376C118.293 51.3011 118.132 57.9345 118.195 61.9607C118.288 66.3809 118.937 72.2596 121.553 75.9787C117.9 79.7332 114.295 83.5468 110.758 87.4655C112.924 82.5739 114.395 76.887 113.997 71.9543C113.629 67.6061 111.379 63.283 107.037 65.9402C103.511 68.1119 103.594 75.0411 103.626 78.6732C103.647 82.719 103.936 88.3281 106.07 92.106C105.364 92.296 104.712 92.624 104.365 93.274C104.249 93.4907 104.298 93.7403 104.512 93.8323C104.664 93.8981 104.828 93.9311 104.962 93.9509C98.1742 101.683 91.6299 109.712 85.2745 117.898C87.3676 102.044 93.287 87.5003 98.6703 72.6866C102.502 62.1542 105.878 51.6149 103.77 40.2314C103.635 39.4498 102.721 39.2456 102.283 39.8562C97.7118 46.3751 93.0247 52.9203 90.7505 60.5835C91.1511 57.9763 91.7955 55.4744 92.4947 52.9199C92.902 51.3439 93.3093 49.7679 93.6739 48.2115C93.8077 47.6599 93.9109 47.0951 94.0263 46.4975C94.4219 45.7162 94.4276 45.0332 94.074 44.4615C94.1166 44.4419 94.1592 44.4222 94.214 44.3697C94.2932 44.2515 94.3418 44.1201 94.421 44.002C94.4273 44.4617 94.4395 44.4289 94.4574 43.9035C94.5731 43.6868 94.7009 43.4373 94.8165 43.2207C96.7162 41.5274 97.3851 39.3407 97.5604 36.6743C97.6389 35.4133 96.1034 34.7883 95.4339 35.8322C94.1983 37.7361 93.5169 39.3842 93.3535 41.4464C93.2379 41.6631 93.1527 41.8929 93.0006 42.208C92.7328 42.7399 93.0072 43.2392 93.4216 43.4562C93.4704 43.5154 93.507 43.6073 93.5679 43.6336C93.5436 43.6993 93.5497 43.7781 93.5254 43.8438C93.4949 43.8306 93.4949 43.8306 93.4766 43.7846C93.3853 43.9356 93.3976 44.0933 93.4525 44.2313C92.5177 50.3782 90.1877 56.1892 89.9535 62.4483C89.8558 62.1395 89.8008 61.8111 89.7336 61.5155C90.6193 54.5476 90.0246 47.4736 90.4228 40.4856C91.7374 38.0826 92.0591 35.9746 91.1439 33.2943C90.7046 32.0001 89.1148 32.38 88.695 33.4175C87.5695 36.1687 87.3577 38.7432 88.1695 41.6073C88.316 42.1656 89.1751 42.4223 89.3696 41.7066C89.4061 41.6081 89.4243 41.4636 89.4608 41.3651C89.5339 41.3586 89.5765 41.3389 89.6618 41.2995C89.866 47.1385 89.2661 53.0492 89.1169 58.888C87.4932 52.7788 85.2604 46.7875 83.4113 40.6191C83.277 40.2183 82.7774 40.0407 82.4242 40.2309C76.797 43.2091 74.4937 53.3353 74.0106 61.315C73.6848 55.8043 72.8776 50.162 71.4677 45.0972C71.4433 44.9724 71.3762 44.8673 71.297 44.795C71.2908 44.7162 71.2847 44.6374 71.309 44.5717L71.3395 44.5849C71.6564 44.8741 72.2167 44.5066 72.0946 44.073C71.9664 43.5607 71.8686 43.0615 71.8135 42.5426C71.9048 42.3916 71.9657 42.2274 71.9656 42.0369C72.0502 40.8548 72.0801 39.7251 71.988 38.5428C71.9142 37.2161 69.8368 37.0046 69.5573 38.3311C69.4723 38.7514 69.4115 39.106 69.3813 39.4738C68.8575 39.7427 68.4985 40.4256 68.773 41.1154C69.4501 42.8169 69.5118 44.3669 69.4153 46.1533C69.3366 47.0334 70.3054 47.3755 70.7986 46.903C72.5141 53.8135 71.848 61.1428 73.6426 67.9351C73.6915 68.1847 73.99 68.2375 74.1423 68.1128C74.2954 69.7023 74.5217 71.2853 74.7905 72.8486C72.8008 65.8197 69.6295 59.1185 65.9954 52.9029C66.0075 52.6796 65.9586 52.43 65.8062 52.1738C65.7879 52.1278 65.7391 52.0687 65.7208 52.0227C65.5988 51.7796 65.4342 51.5561 65.2391 51.3196C64.7575 50.6165 64.2333 49.9331 63.6481 49.2234C63.2275 48.7371 62.5147 48.6578 62.0763 49.0779C61.4611 49.1169 60.8889 49.8981 61.206 50.5683C61.2792 50.7522 61.3767 50.8705 61.4621 51.0216C61.3109 53.051 62.0188 55.337 64.4246 54.4716C64.6256 54.4061 64.7961 54.3274 64.9666 54.2487C69.069 59.105 71.9603 65.9899 73.9375 72.4803C67.7929 65.0284 51.8498 63.3236 45.2426 67.7067C44.7676 68.0348 44.6706 68.8689 45.2921 69.0992C56.0706 73.1059 66.5342 80.4423 71.9374 91.2302C76.7856 100.941 83.5585 110.225 81.9201 121.896C81.9262 121.974 81.9324 122.053 81.9811 122.112C80.6723 123.832 79.3513 125.585 78.0608 127.351C74.6946 131.953 71.3649 136.647 68.084 141.4C69.4919 131.496 69.7848 121.073 67.7327 111.352C67.1098 108.455 64.3874 98.4435 60.0756 100.542C54.2777 103.409 54.5395 114.338 55.3953 119.659C56.7829 128.598 61.3867 136.87 66.1544 144.223C61.6075 150.866 57.2068 157.688 52.9158 164.594C52.8184 164.667 52.7819 164.765 52.7454 164.864C50.7064 168.172 48.6553 171.514 46.6651 174.882C47.7017 165.504 45.7137 150.364 37.8197 152.02C33.1843 152.989 33.8955 161.37 34.671 164.714C36.0693 170.764 39.5325 176.487 42.7213 181.71C25.1509 212.437 10.39 245.214 0.192437 279.124C-0.202803 280.477 1.69212 281.181 2.10566 279.874C11.1298 250.18 23.4868 221.696 38.0864 194.6C38.2813 194.646 38.4823 194.581 38.5979 194.364C38.6101 194.331 38.6344 194.265 38.6466 194.233C42.8627 195.253 48.9892 191.881 52.6799 190.123C55.7189 188.694 62.6557 185.519 61.5627 180.744C60.2926 175.206 53.0629 177.454 50.1276 179.272C47.643 180.827 45.2075 183.012 43.0767 185.52C47.1787 178.265 51.4086 171.142 55.7787 164.117C57.764 162.955 59.8899 162.655 62.0708 162.873C71.844 166.445 73.7827 180.574 77.004 189.43C80.0605 197.871 85.2304 205.283 92.1534 210.444C92.5435 210.726 93.1403 210.451 93.1583 209.925C93.7251 199.049 92.6283 187.417 86.8484 178.218C94.8137 184.476 105.68 193.586 115.719 191.865C116.023 191.806 116.309 191.511 116.297 191.163C116.593 186.263 110.857 179.521 108.211 175.789C107.187 174.356 106.083 173.042 104.913 171.813C107.302 173.187 109.715 174.496 112.067 175.968C114.511 177.481 118.575 179.197 120.745 181.924C120.52 182.246 120.423 182.699 120.587 183.113C121.374 184.9 121.356 184.854 122.374 186.398C122.929 187.285 124.031 186.695 123.878 185.867ZM103.987 114.324C108.068 113.611 112.143 113.58 116.17 114.634C117.87 115.101 119.473 116.022 120.935 117.034C123.848 119.092 119.396 120.711 118.483 121.078C113.915 122.914 108.907 123.075 104.155 122.356C101.146 121.895 98.1054 120.848 95.0347 119.98C96.7707 119.777 98.525 119.43 100.163 118.919C100.797 118.735 100.821 117.717 100.108 117.638C96.2698 117.123 92.4687 117.462 88.686 118.038C93.3754 115.683 99.1501 115.168 103.987 114.324ZM208.6 10.9272C209.769 10.6324 211.103 10.3706 212.279 10.726C213.199 11.009 213.589 12.0535 212.67 12.5324C210.66 13.5688 208.388 13.3112 206.164 13.1128C206.859 12.9556 207.559 12.6867 207.967 12.0631C208.07 11.8792 207.936 11.669 207.747 11.7017C206.919 11.8391 206.09 11.9765 205.262 12.1139C206.37 11.6023 207.442 11.1892 208.6 10.9272ZM201.118 8.61053C200.6 9.14876 200.101 9.73299 199.632 10.3304C199.778 9.93639 199.936 9.50957 200.113 9.12875C200.922 7.42162 201.823 5.75396 202.943 4.25721C203.886 2.9508 207.845 1.04209 207.78 4.17492C207.739 6.86115 203.671 9.63675 201.911 11.0477C201.205 11.6187 200.45 12.1305 199.713 12.6883C200.431 11.5131 201.088 10.3116 201.593 9.04432C201.757 8.69633 201.349 8.36767 201.118 8.61053ZM193.88 19.0816C195.903 18.7743 197.937 18.434 199.984 18.6324C201.617 18.8042 202.988 19.5867 204.006 20.9403C204.53 21.6237 205.347 22.8524 204.269 23.3771C202.692 24.1052 200.285 23.2564 198.756 22.7102C197.817 22.3812 197.013 21.8816 196.209 21.3819C196.568 21.2705 196.927 21.1591 197.244 21.0673C197.89 20.851 197.603 19.8131 197.024 19.7536C195.879 19.6018 194.508 19.7717 193.363 19.4294C193.557 19.285 193.728 19.2063 193.88 19.0816ZM189.116 18.7765C189.475 17.7127 189.712 16.5963 190.004 15.6179C190.132 15.1779 189.541 14.9608 189.383 15.3876C189.164 15.9786 188.932 16.6024 188.659 17.2458L188.671 17.213C189.114 14.3957 189.435 11.5257 190.494 8.85986C191.096 7.32993 194.408 4.49474 194.185 8.05438C194.076 9.49268 193.474 10.8321 192.987 12.1454C192.056 14.7522 190.669 16.7808 189.116 18.7765ZM196.597 29.2045C199.913 33.4166 191.597 31.9204 190.055 31.4071C188.636 30.9464 187.344 30.2363 186.107 29.4736L186.149 29.4539C186.752 29.2573 186.916 28.3379 186.264 28.0944C185.308 27.7195 184.235 27.1802 183.12 26.8511C187.847 26.112 193.36 25.0646 196.597 29.2045ZM179.477 25.2396C179.604 24.6092 179.659 23.9853 179.756 23.3417C179.95 22.0545 180.303 20.7215 180.29 19.421C180.295 18.9284 179.692 18.7441 179.51 19.2366C179.139 20.1427 178.944 21.049 178.872 22.0079C178.805 22.2837 178.781 22.5398 178.714 22.8156C178.598 23.4132 178.44 24.0305 178.374 24.6872C178.196 22.211 178.584 18.8748 178.675 17.9619C178.941 14.954 179.328 9.14167 182.653 8.17833C185.114 7.45087 183.054 16.1586 182.853 16.986C182.16 19.6193 181.211 22.942 179.477 25.2396ZM168.889 36.7397C174.139 34.3984 180.535 33.3516 185.191 36.8093C188.098 38.9786 185.711 41.0328 183.439 41.5371C181.788 41.8907 179.991 41.6859 178.346 41.5469C175.172 41.2428 172.254 40.2491 169.311 39.1307C170.206 38.908 171.077 38.5604 171.887 37.9961C172.319 37.6877 171.953 36.9584 171.49 37.0632C170.26 37.3317 169.06 37.6134 167.836 37.5798C168.152 37.2975 168.512 36.9956 168.889 36.7397ZM166.535 31.4577C166.504 31.635 166.462 31.8451 166.432 32.0224C166.17 32.8235 165.982 33.6182 165.97 34.4129C164.097 28.5006 166.871 11.3799 171.85 14.2533C175.055 16.0943 172.293 23.7375 171.43 26.259C170.487 29.0892 169.221 31.7418 167.615 34.1709C168.144 32.838 168.326 31.3931 168.209 29.8956C168.203 29.6263 168.002 29.5014 167.795 29.4881C167.813 29.1532 167.386 28.969 167.173 29.2578C166.778 29.8487 166.656 30.7484 166.535 31.4577ZM158.568 44.851C162.722 43.9407 167.834 45.3101 171.209 46.882C172.507 47.4805 175.902 49.4794 173.545 50.9753C171.706 52.1235 169.117 51.9576 167.112 51.9301C163.841 51.8886 160.813 51 157.73 50.1639C158.656 49.9543 159.496 49.5936 160.105 48.9044C160.446 48.5565 160.269 47.985 159.806 47.8993C158.551 47.6621 157.26 47.7138 155.974 47.8443C155.536 47.8834 155.042 47.9751 154.598 48.1258C155.968 47.0036 157.253 45.9207 158.568 44.851ZM154.824 48.9469C155.39 48.8488 155.963 48.8295 156.548 48.7773C157.09 48.7448 157.62 48.7452 158.168 48.7915C156.993 49.1979 155.616 49.0985 154.41 49.3014C154.215 49.2552 154.02 49.2092 153.825 49.1631C154.032 48.9859 154.562 48.9862 154.824 48.9469ZM152.483 46.1081C152.538 46.0556 152.562 45.99 152.629 45.9046C152.708 45.7864 152.623 45.6353 152.489 45.6155C152.501 45.0113 152.421 44.3676 152.287 43.7764C152.322 42.3446 152.401 40.8932 152.425 39.4942C152.418 38.844 151.529 38.7647 151.505 39.4017C151.444 40.5182 151.354 41.6216 151.22 42.7446C151.068 42.8693 150.952 43.086 150.971 43.3224C151.001 43.907 150.99 44.5112 151.02 45.0958C151.014 45.3979 150.996 45.7328 150.96 46.0218C148.569 40.0763 149.91 30.6391 151.972 25.3599C153.238 22.1359 156.088 22.0721 156.98 25.5799C157.45 27.4586 157.463 29.5209 157.391 31.4321C157.242 37.0804 154.576 41.6039 152.44 46.5088C152.489 46.3774 152.477 46.2198 152.483 46.1081ZM141.793 59.3158C146.129 57.9131 150.96 57.5615 155.371 58.0569C158.325 58.3807 161.707 59.6504 162.336 63.1975C162.795 65.6804 159.048 65.5861 157.751 65.559C152.664 65.4572 147.997 63.5561 143.226 62.0293C143.737 61.7932 144.237 61.3994 144.608 60.8742C144.925 60.4015 144.522 59.7708 144.029 59.8624C143.389 59.9671 142.713 59.9798 142.031 59.9137C141.824 59.9004 141.543 59.8936 141.275 59.8541C141.421 59.6505 141.598 59.4602 141.793 59.3158ZM137.827 59.4315C137.925 59.3593 137.992 59.274 138.028 59.1755C138.32 58.1971 138.35 57.2579 138.215 56.2858C138.246 55.7275 138.294 55.2152 138.294 54.6438C138.312 54.3089 137.867 54.0787 137.703 54.4267C137.69 54.4596 137.678 54.4924 137.666 54.5252C137.343 54.3477 136.819 54.6166 136.765 55.0501C136.704 55.5951 136.729 56.1009 136.753 56.6067C135.325 51.4959 135.322 45.02 137.5 40.8573C140.567 35.0599 142.302 43.5402 142.23 46.0228C142.057 51.3558 139.774 55.3213 138.065 60.0294C138.022 59.8586 137.931 59.6286 137.827 59.4315ZM126.571 73.8802C132.93 71.4082 148.714 71.4446 148.23 79.2337C147.796 86.1297 135.025 81.4912 127.64 78.3404C129.419 78.6897 131.338 78.5661 132.83 77.8775C133.353 77.6085 133.304 76.7875 132.774 76.5967C130.983 75.8994 129.125 75.8588 127.248 75.7722C126.377 75.7388 125.573 75.62 124.739 75.6786C125.384 75.0813 125.987 74.5037 126.571 73.8802ZM121.832 74.4617C121.96 74.4026 122.07 74.2976 122.088 74.1532C122.282 73.2469 122.671 71.244 122.116 70.1665C122.164 69.0828 122.182 67.986 122.157 66.9088C122.151 66.4491 121.511 66.3633 121.475 66.8427C121.421 68.6094 121.117 70.3826 121.051 72.1821C119.22 66.2502 118.668 59.347 120.493 53.6604C121.442 50.7186 125.424 48.3633 126.566 52.6265C127.06 54.4396 127.055 56.4559 126.965 58.3211C126.748 62.531 125.379 66.3198 124.059 70.1677C124.07 67.2779 123.886 64.3419 124.256 61.5311C124.329 60.9532 123.531 60.9132 123.439 61.4452C122.839 65.4512 122.75 69.7925 122.837 73.9435C122.722 74.3506 122.594 74.7906 122.478 75.1977C122.369 75.3027 122.302 75.3881 122.192 75.4931C122.107 75.1515 121.96 74.7836 121.832 74.4617ZM110.23 91.0841C115.578 88.6705 121.035 87.2948 126.86 88.7435C129.711 89.4415 134.512 91.3624 133.418 95.46C132.834 97.6073 129.691 97.6973 128.089 97.7291C122.271 97.883 116.83 95.6858 111.426 93.5806C111.675 93.5742 111.907 93.5218 112.126 93.5023C115.343 93.7868 118.59 94.4654 121.788 94.1324C122.08 94.1064 122.117 93.6269 121.83 93.5413C119.917 92.9818 117.876 92.6718 115.842 92.4407C115.939 92.3685 116.055 92.3423 116.183 92.2833C116.901 91.87 116.566 90.7729 115.761 90.8446C113.873 90.9813 111.851 91.6696 109.981 91.2809C110.096 91.2547 110.163 91.1694 110.23 91.0841ZM105.985 70.0182C106.867 67.1617 110.362 64.596 112.149 68.8334C112.967 70.824 113.017 73.3592 112.86 75.5002C112.454 81.0761 109.271 85.9474 107.617 91.1743C107.44 91.3647 107.264 91.5551 107.087 91.7454C104.257 85.6486 104.185 76.0201 105.985 70.0182ZM101.828 43.6587C103.898 40.7438 101.702 57.924 101.757 57.681C100.961 61.6409 99.6472 65.5677 98.4126 69.3763C94.9096 80.165 90.8034 90.7695 87.8426 101.716C89.227 93.4022 90.3738 85.0617 91.1187 76.8524C91.4639 73.1549 91.2914 69.6147 90.7718 66.1531C93.2831 57.7544 96.8125 50.7093 101.828 43.6587ZM74.2864 86.7985C75.7812 91.062 76.7947 95.3843 78.0337 99.7658C75.1853 93.2421 71.551 86.4552 67.4971 81.2771C65.6501 78.918 49.7805 66.8098 47.2898 68.4765C55.3525 63.1223 69.6048 69.7715 75.2373 76.6977C75.3594 77.1313 75.4815 77.5648 75.5731 77.9852C75.6341 78.202 75.7986 78.2349 75.9569 78.1891C77.4775 85.0535 79.4915 91.8262 80.4091 98.8873C80.8251 102.152 82.0948 107.118 82.731 111.887C81.9182 107.118 79.8691 102.92 78.6117 98.3016C77.5191 94.2879 77.1208 89.9266 74.7492 86.5032C74.5237 86.2535 74.1766 86.5226 74.2864 86.7985ZM82.3556 104.984C81.1759 97.5808 80.5567 90.1915 78.7252 82.9263C76.8753 75.4246 75.1656 68.0215 75.9959 60.1537C76.2687 57.6055 77.0288 55.0774 77.6915 52.6215C77.807 52.2143 82.2239 41.6297 82.8769 43.7778C85.2936 51.7528 88.3799 59.0648 89.5358 67.4856C90.7285 76.1888 88.5583 84.811 87.1435 93.3023C86.2875 98.5692 85.6568 103.895 84.9774 109.162C85.1633 103.797 84.7157 98.4237 84.5179 93.0445C84.2145 84.0398 84.843 74.7138 82.5843 65.9311C82.505 65.6683 82.1699 65.7141 82.2066 65.9965C82.9725 74.1346 83.0927 82.2985 83.4626 90.4561C83.8141 98.3772 84.7382 106.279 83.8774 114.134C83.5772 110.843 82.7529 107.44 82.3556 104.984ZM59.0721 103.537C62.5473 97.687 65.9283 109.163 66.3617 110.76C67.4725 114.629 67.7915 118.727 67.8972 122.734C68.0095 127.581 67.2933 132.375 66.8877 137.189C66.8856 133.189 66.2009 128.742 63.8542 126.206C63.5007 125.824 62.9768 125.903 62.7517 126.415C62.6422 126.711 62.5632 127.019 62.4963 127.295C62.222 126.986 61.6007 127.137 61.6741 127.702C61.772 128.391 61.9124 129.061 62.0834 129.745C61.9878 133.245 63.5311 136.996 64.4769 140.071C64.6905 140.734 65.7077 140.374 65.5672 139.704C64.9565 136.964 64.1144 134.278 63.4306 131.545C63.296 130.382 63.3075 129.207 63.5871 128.071C65.9649 131.763 65.0846 137.286 65.9397 141.464C66.0313 141.884 66.543 141.839 66.5855 141.438C66.5976 141.405 66.6098 141.373 66.5915 141.327C66.5797 142.121 66.5497 142.87 66.5684 143.678C59.636 132.534 51.5556 116.287 59.0721 103.537ZM42.6407 178.971C42.7502 178.866 42.8294 178.748 42.7988 178.545C42.7554 177.04 42.5048 175.523 42.3882 174.026C42.3514 173.553 41.931 173.447 41.6021 173.572C41.5287 173.007 41.437 172.396 41.3331 171.818C41.2414 171.207 40.3704 171.364 40.4621 171.975C40.6151 173.184 40.6523 174.419 40.8052 175.627C37.4454 169.53 33.799 163.157 35.9822 156.216C37.3748 151.79 40.7752 153.868 42.5127 156.332C43.8051 158.185 44.1353 160.346 44.4837 162.553C45.3761 168.156 44.8063 173.318 44.5655 178.736C44.1882 179.373 43.8291 180.056 43.4518 180.693C43.2017 180.128 42.9212 179.55 42.6407 178.971ZM46.9931 184.393C45.9091 185.029 44.8557 185.869 43.8632 186.735C45.0382 185.377 46.2802 184.123 47.5284 182.948C49.5742 181.051 51.9248 179.476 54.5439 178.703C56.834 178.054 61.9459 179.614 60.2055 183.166C58.3982 186.804 52.8497 188.711 49.5426 190.102C46.7471 191.256 43.8966 192.082 41.0095 192.815C42.739 191.772 44.438 190.716 46.0943 189.489C46.3439 189.292 46.2768 188.996 46.1 188.806C46.167 188.72 46.2644 188.648 46.3314 188.563C46.5871 188.254 46.1726 187.847 45.8742 187.985C44.2542 188.732 42.6709 189.762 41.1242 190.885C41.8852 190.071 42.829 189.336 43.5292 188.686C44.8505 187.504 46.3912 186.494 47.4686 185.017C47.6634 184.682 47.3037 184.222 46.9931 184.393ZM57.5379 161.753C61.7195 155.333 72.8725 153.37 79.2746 152.592C88.1741 151.56 96.7694 151.158 105.632 149.463C108.866 148.841 111.991 147.562 115.17 146.612C123.588 144.115 118.236 150.069 115.125 153.41C109.701 159.179 103.099 162.879 95.6495 164.195C93.218 162.65 90.6526 161.276 88.0326 160.144C85.5648 159.079 82.6891 158.256 79.6307 157.735C82.0979 157.848 84.5347 157.948 86.8678 157.851C93.9159 157.619 101.305 156.849 107.23 152.4C107.425 152.255 107.211 151.973 107.01 152.038C97.43 156.052 87.9212 157.011 77.6991 156.748C72.3017 156.627 65.8804 155.644 61.3197 159.464C59.9981 160.074 58.6888 160.841 57.5379 161.753ZM92.1742 203.711C92.4469 212.322 86.594 203.511 84.3567 200.488C81.211 196.197 79.1917 190.87 77.3554 185.811C75.092 179.616 72.8929 168.574 66.9207 164.281C68.4257 164.893 69.9003 165.682 71.3994 166.596C75.2454 170.428 77.7027 174.764 79.6428 180.21C81.3755 185.072 82.0487 190.694 84.7436 195.057C84.9265 195.326 85.2919 195.103 85.2552 194.821C84.2894 188.653 81.8674 182.123 79.592 176.342C78.6404 173.95 77.433 171.677 75.9394 169.699C79.2669 172.164 82.3142 174.813 84.8373 176.778C84.8008 176.877 84.7947 176.989 84.8618 177.094C89.6545 185.523 91.8277 193.774 92.1742 203.711ZM111.606 190.851C103.821 190.498 95.8486 183.209 89.7361 178.627C83.002 173.625 72.1038 162.406 62.3077 161.566C66.4318 161.404 71.0319 163.01 74.4927 164.162C82.5048 166.86 88.46 173.201 95.5776 177.646C95.8091 177.784 95.9917 177.482 95.815 177.291C88.2024 170.081 80.0666 164.093 70.1174 161.663C67.656 161.057 64.0493 160.3 60.9305 160.705C71.022 155.884 83.9811 159.347 93.6945 164.988C93.7494 165.126 93.8164 165.231 93.9504 165.251C94.0114 165.277 94.1149 165.284 94.188 165.278C94.6512 165.554 95.0838 165.817 95.5043 166.113C95.4192 166.342 95.6021 166.612 95.8579 166.494C95.9005 166.474 95.9736 166.468 96.0162 166.448C96.8084 166.98 97.5702 167.5 98.3015 168.006C100.099 169.353 118.728 191.184 111.606 190.851Z" fill="#F1ECE5"/>
</svg>
