<svg width="130" height="220" viewBox="0 0 130 220" fill="none" xmlns="http://www.w3.org/2000/svg">
<path d="M-35.7617 83.0822C-35.416 83.1436 -35.0568 83.2368 -34.7137 83.3764C-34.5636 83.226 -34.3841 83.0612 -34.2339 82.9108C-33.3493 82.0548 -32.2693 83.1022 -32.3767 84.1158C-32.3204 84.1651 -32.2347 84.2 -32.1516 84.3131C-31.8541 84.5135 -31.7041 84.786 -31.6854 85.0843C-29.9971 86.5642 -28.7189 88.591 -27.473 90.7103C-24.5711 95.6709 -21.9507 100.808 -19.1828 105.872C-18.1806 107.073 -17.1945 108.32 -16.3129 109.657C-16.3101 109.156 -16.3074 108.655 -16.3475 108.136C-17.9577 104.388 -19.0506 100.349 -20.0014 96.3935C-20.5451 94.0841 -20.8234 91.6448 -21.2063 89.2951C-21.2893 88.7591 -21.6617 87.3653 -22.0206 86.0034C-22.0957 86.5014 -22.1869 87.0458 -22.3961 87.648C-22.5597 88.1894 -23.3718 88.2026 -23.5272 87.6636C-23.6959 87.0927 -23.7923 86.5248 -23.9182 85.9714C-24.0602 85.8872 -24.2023 85.8029 -24.3282 85.6724C-25.0678 84.8428 -24.6146 83.4677 -24.5368 82.4685C-24.5153 82.2658 -24.467 82.1268 -24.3893 81.9734C-24.3034 81.5854 -24.2015 81.1511 -24.0406 80.6879C-23.928 80.3637 -23.5715 80.1122 -23.2552 80.188C-20.7814 80.7452 -20.2545 86.907 -19.8662 89.1003C-19.1485 93.0928 -18.4792 97.2243 -17.5444 101.226C-17.689 100.374 -17.8202 99.5542 -17.8523 98.8011C-18.1568 92.9148 -17.3063 87.155 -16.1957 81.4216C-16.0723 80.7845 -15.2843 80.6294 -14.9654 81.0499C-14.3836 80.1499 -12.7836 80.8274 -12.8696 82.0612C-13.0066 83.935 -13.098 85.3252 -13.6799 87.0709C-13.8756 87.7049 -14.602 87.753 -14.9798 87.3614C-15.2828 87.7404 -15.7197 87.8005 -16.1056 87.6435C-16.8998 92.6069 -17.1097 97.8609 -16.3573 102.528C-16.127 103.838 -15.7306 105.374 -15.4655 106.935C-13.7834 97.2318 -5.97961 87.3756 0.847719 82.7259C1.32216 82.4167 1.87962 82.6436 1.98941 83.2433C3.06853 89.3654 0.682197 95.1083 -0.406965 101.062C-1.79124 108.851 -2.04719 116.703 -2.15837 124.562C-1.20925 122.675 -0.174368 120.822 0.946275 119.005C2.72643 116.135 4.10725 113.075 5.78824 110.138C5.91156 109.924 6.29748 110.081 6.23044 110.344C5.05822 116.185 0.375101 120.861 -2.18002 126.033C-2.18541 126.189 -2.20419 126.314 -2.1801 126.456C-2.20447 128.006 -2.27449 130.039 -2.45174 132.24C-0.118979 126.369 4.08182 120.968 6.52446 115.275C8.73115 110.119 10.7208 104.532 10.1804 98.7614C9.86197 95.3807 4.21617 102.758 3.65319 103.533C1.66133 106.238 0.564574 109.466 -0.872527 112.476C-0.998553 112.769 -1.45951 112.687 -1.40316 112.313C-0.426429 105.415 4.38563 99.0998 9.61807 95.3079C10.0202 94.9957 10.5508 95.1587 10.7517 95.637C16.5254 109.379 2.08998 123.673 -2.70421 135.362C-3.28129 140.334 -4.42665 145.816 -6.65723 149.56C1.08434 143.194 8.64368 136.649 16.0208 129.923C19.4922 126.763 22.9101 123.475 26.2984 120.201C23.8742 111.893 20.898 102.356 21.4114 93.7624C21.5645 91.4193 22.1318 80.8392 25.7421 80.8014C31.0624 80.7722 32.2585 92.3342 32.1695 96.1835C32.0666 102.115 31.9634 110.585 29.5555 116.953C36.3242 110.218 42.9107 103.303 49.2453 96.1265C49.2533 95.8919 49.2614 95.6573 49.2695 95.4227C46.764 91.9979 45.7277 86.3162 44.7608 82.4072C43.81 78.452 42.2351 71.996 45.1088 68.5131C48.2561 64.6657 52.2032 69.9987 53.4088 72.8682C55.9808 78.9897 55.0577 85.5923 53.1377 91.6836C56.6548 87.6167 60.1318 83.454 63.4801 79.2391C59.9564 74.237 50.7861 48.8575 62.5681 51.008C67.9981 52.0014 69.6657 65.4469 68.209 73.2333C71.2115 69.3799 74.1578 65.4771 77.0343 61.4932C74.8773 58.0516 73.9455 52.7031 73.016 48.968C72.1777 45.5342 70.332 39.3646 72.7608 36.1764C75.4175 32.6845 79.5442 38.2756 80.3613 40.6434C82.0544 45.35 81.7023 51.3656 80.5972 56.5196C83.0207 53.065 85.4013 49.5929 87.7551 46.0571C87.7417 46.0252 87.7123 46.0396 87.6989 46.0078C84.3816 40.9046 83.3563 33.2185 83.5798 27.1506C83.6821 24.1789 85.3151 19.6889 88.48 22.4833C91.7575 25.3763 92.6892 31.5706 93.0369 35.7827C93.0743 36.3795 93.1091 37.0544 93.1009 37.7119C94.2966 35.8195 95.4789 33.8952 96.6317 31.9853C96.5326 31.4956 96.463 30.9915 96.4229 30.473C93.4861 26.1061 92.4847 19.8306 92.3167 14.6079C92.2688 12.6324 92.9477 7.64854 95.7351 7.93681C99.533 8.34544 101.057 13.7499 101.389 17.1625C101.635 19.6945 101.385 22.3155 100.803 24.9069C102.728 21.6195 104.61 18.3146 106.436 14.9605C106.393 14.943 106.321 14.94 106.278 14.9226C105.997 14.6759 105.731 14.3829 105.466 14.09C105.466 14.09 105.479 14.1219 105.45 14.1363C105.423 14.4954 104.927 14.5844 104.809 14.2193C104.665 13.7903 104.592 13.3644 104.52 12.9385C102.47 10.1749 101.104 6.49992 100.402 3.30683C99.9041 0.936673 99.6153 -3.30431 102.381 -4.082C105.279 -4.88555 107.639 0.224787 108.202 2.40967C108.93 5.24363 108.807 8.41804 108.353 11.4848C109.948 8.51253 111.501 5.52286 113.01 2.51574C112.817 2.22578 112.654 1.92139 112.52 1.60256C112.423 1.88048 112.053 2.10004 111.847 1.7782C111.697 1.50568 111.606 1.20429 111.544 0.888474C109.888 -0.261175 109.012 -3.02296 108.466 -4.83127C107.882 -6.81342 107.193 -9.97463 108.772 -11.6319C110.456 -13.3787 113.535 -10.1963 114.24 -8.77301C115.255 -6.69459 115.493 -4.3509 115.297 -2.02529C115.498 -2.39284 115.656 -2.77782 115.857 -3.14537C115.732 -3.27591 115.694 -3.44976 115.801 -3.61759C116.016 -3.95325 116.27 -4.19327 116.498 -4.49704C116.544 -4.5578 116.576 -4.65044 116.592 -4.69676C116.654 -4.80384 116.729 -4.87901 116.801 -4.876C117.118 -5.22309 117.477 -5.55273 117.849 -5.85048C118.128 -6.37142 118.42 -6.86047 118.742 -7.36396C118.536 -7.2629 118.281 -7.44579 118.217 -7.68341L118.193 -7.82538C118.166 -7.88915 118.185 -8.01367 118.217 -8.10631C117.44 -9.95553 117.574 -12.597 117.553 -14.5087C117.519 -16.0294 117.198 -20.1778 118.948 -20.9194C121.17 -21.892 121.877 -18.4325 121.866 -16.851C121.831 -14.9886 121.332 -13.1298 120.78 -11.3985C120.552 -10.6718 120.292 -9.85253 119.932 -9.1C120.512 -9.9217 121.088 -10.6652 121.56 -11.3191C122.745 -12.8987 125.635 -16.8508 127.947 -15.4076C134.513 -11.203 121.88 -3.78757 117.423 -1.87421C117.184 -1.68052 116.916 -1.47239 116.72 -1.26125C116.407 -0.992371 116.061 -1.05376 115.836 -1.25108C115.538 -0.605623 115.227 0.00796583 114.93 0.653424C114.752 1.58583 114.533 2.50077 114.286 3.35196C114.187 3.70808 113.755 3.61182 113.664 3.31044C113.476 3.70987 113.259 4.12372 113.085 4.55503C115.13 2.40035 117.996 0.843641 120.381 -0.247476C122.134 -1.06732 126.029 -2.62819 126.975 0.214807C127.971 3.26354 123.819 5.56552 121.878 6.36189C120.203 7.02834 118.394 7.37596 116.641 7.7729C115.239 8.07482 113.443 8.87723 112.001 8.66061C111.929 8.6576 111.902 8.59383 111.846 8.5445C111.771 8.61969 111.725 8.68044 111.65 8.75563C111.471 8.92045 111.254 8.91142 111.085 8.76343C109.948 11.0499 108.798 13.3045 107.618 15.5735C107.599 15.698 107.551 15.837 107.546 15.9934C107.546 15.9934 107.546 15.9934 107.516 16.0078L107.5 16.0541C110.709 12.9454 126.692 6.31158 125.372 13.07C124.382 18.2446 108.837 21.0122 106.454 17.7962C104.655 21.2142 102.787 24.5509 100.889 27.9021C106.177 23.3137 119.143 18.0422 120.487 24.8802C121.427 29.5711 115.257 31.1313 112.182 32.0215C109.446 32.7847 101.139 34.9295 99.0842 31.4765C99.0306 31.3489 99.02 31.2388 99.0521 31.1462C96.9878 34.6941 94.8376 38.2071 92.6607 41.6563C92.4917 42.3541 92.296 42.9882 92.0145 43.5873C96.3462 40.6976 101.369 38.7764 106.408 38.9234C109.911 39.0535 115.296 40.1077 113.022 45.1036C111.341 48.8867 104.519 49.5739 101.287 50.0033C97.9098 50.4267 91.2011 51.2126 88.768 47.7908C86.2291 51.6479 83.6475 55.4875 80.9961 59.2459C84.655 56.9547 89.2759 55.7687 93.1435 55.8356C95.4753 55.8857 99.8252 56.6775 99.4172 60.1064C98.9475 64.0652 93.2438 65.1279 90.4348 65.4652C86.6074 65.9168 81.4077 65.8101 78.2723 63.0013C74.7416 67.8822 71.0984 72.6644 67.3989 77.3973C72.3391 74.5173 78.177 72.5047 83.7089 72.6409C87.271 72.7421 91.5082 74.2811 89.4678 78.8167C87.5695 83.0137 81.5094 83.4821 77.824 83.595C73.7768 83.6929 68.3709 83.2643 64.8521 80.6432C61.5816 84.7047 58.2547 88.717 54.8287 92.6624C59.206 90.1349 64.3416 88.3124 68.8712 88.5165C72.8647 88.714 76.9196 90.9189 74.6835 95.6657C72.8549 99.521 66.5134 99.7427 63.1899 99.8707C59.4885 100.03 54.3451 99.9725 50.7941 97.8669C50.6519 98.6285 50.3811 99.3377 49.8021 99.7365C49.6091 99.8695 49.3787 99.8285 49.2849 99.6054C49.2179 99.4459 49.1804 99.2721 49.1563 99.1301C42.3874 106.711 35.3372 114.046 28.1343 121.186C42.541 118.245 55.5789 111.285 68.8873 104.885C78.3493 100.329 87.838 96.26 98.3442 97.9972C99.0652 98.1055 99.2928 99.0704 98.754 99.5649C92.996 104.729 87.2192 110.018 80.3118 112.784C82.6786 112.241 84.9381 111.442 87.2433 110.582C88.6666 110.078 90.0899 109.573 91.4971 109.115C91.9956 108.948 92.5076 108.812 93.049 108.663C93.7459 108.206 94.3704 108.169 94.9091 108.521C94.9252 108.474 94.9413 108.428 94.9868 108.367C95.0914 108.278 95.2094 108.22 95.3139 108.13C94.8931 108.144 94.9226 108.13 95.4023 108.087C95.5953 107.954 95.8178 107.807 96.0108 107.674C97.4746 105.573 99.4447 104.762 101.876 104.456C103.026 104.316 103.666 105.925 102.741 106.685C101.055 108.087 99.578 108.887 97.6991 109.154C97.5061 109.287 97.2997 109.388 97.0183 109.564C96.5438 109.873 96.0748 109.603 95.8578 109.171C95.8015 109.122 95.7158 109.087 95.689 109.023C95.63 109.052 95.5576 109.049 95.4986 109.078C95.512 109.11 95.5121 109.11 95.555 109.127C95.4209 109.231 95.2762 109.225 95.1475 109.173C89.5671 110.444 84.3562 113.188 78.6419 113.717C78.9287 113.808 79.2315 113.852 79.5049 113.91C85.8385 112.654 92.3353 112.971 98.7091 112.234C100.848 110.726 102.762 110.288 105.254 111.144C106.458 111.554 106.181 113.266 105.251 113.759C102.785 115.082 100.44 115.423 97.784 114.686C97.2667 114.555 96.9935 113.651 97.6395 113.411C97.7279 113.368 97.8592 113.342 97.9477 113.299C97.9504 113.221 97.9665 113.174 97.9987 113.082C92.6489 113.125 87.2695 114.029 81.9358 114.45C87.5962 115.907 93.1761 118.019 98.9008 119.713C99.2733 119.839 99.4582 120.363 99.3 120.748C96.8278 126.879 87.6689 129.787 80.3919 130.659C85.4469 130.76 90.6438 131.368 95.3393 132.644C95.4546 132.664 95.5537 132.731 95.6234 132.812C95.6958 132.815 95.7681 132.818 95.8271 132.789L95.8137 132.757C95.535 132.433 95.846 131.819 96.2481 131.93C96.7224 132.043 97.1834 132.125 97.6605 132.161C97.7945 132.057 97.9419 131.985 98.1162 131.976C99.1936 131.833 100.226 131.751 101.311 131.796C102.528 131.815 102.814 134.02 101.613 134.377C101.233 134.487 100.911 134.567 100.576 134.616C100.354 135.186 99.7452 135.599 99.1019 135.338C97.5153 134.692 96.0948 134.696 94.4652 134.878C93.6638 135.002 93.3075 133.984 93.7176 133.438C87.3202 131.918 80.6462 132.956 74.3533 131.348C74.1228 131.307 74.0612 130.991 74.1684 130.823C72.7077 130.731 71.2497 130.561 69.8078 130.344C76.3258 132.15 82.597 135.23 88.4447 138.826C88.6484 138.803 88.8789 138.844 89.1201 138.995C89.163 139.012 89.2193 139.061 89.2621 139.079C89.4899 139.198 89.7017 139.363 89.9268 139.561C90.5914 140.043 91.2399 140.571 91.9152 141.163C92.3788 141.589 92.4833 142.345 92.1187 142.832C92.1105 143.489 91.4216 144.134 90.7945 143.826C90.6229 143.756 90.5104 143.657 90.3684 143.573C88.519 143.825 86.3963 143.173 87.0802 140.57C87.1312 140.353 87.1955 140.168 87.2599 139.982C82.6345 135.827 76.2077 133.054 70.1828 131.237C77.2737 137.452 79.5465 154.369 75.8331 161.607C75.5543 162.128 74.7958 162.269 74.5573 161.617C70.4102 150.308 63.2316 139.484 53.1226 134.208C44.024 129.475 35.2286 122.671 24.6279 124.94C24.5555 124.937 24.4831 124.934 24.4269 124.885C22.9123 126.357 21.3682 127.843 19.8108 129.297C15.7523 133.091 11.608 136.85 7.40744 140.56C16.4026 138.616 25.923 137.837 34.9068 139.59C37.5843 140.124 46.8629 142.577 45.1361 147.267C42.7737 153.575 32.7657 153.785 27.861 153.111C19.6221 152.032 11.8501 147.495 4.9118 142.743C-0.961456 147.886 -7.00354 152.882 -13.1287 157.765C-13.1904 157.872 -13.2788 157.915 -13.3673 157.958C-16.3025 160.28 -19.2672 162.615 -22.2587 164.887C-13.7273 163.363 0.209709 164.804 -0.952238 173.292C-1.63116 178.276 -9.32875 177.893 -12.4216 177.216C-18.0178 175.996 -23.4072 172.561 -28.3275 169.396C-55.6452 189.498 -84.9645 206.698 -115.524 219.085C-116.743 219.566 -117.472 217.578 -116.295 217.079C-89.5395 206.132 -64.04 191.687 -39.9098 174.913C-39.9607 174.708 -39.9097 174.49 -39.7167 174.357C-39.6872 174.343 -39.6282 174.314 -39.5988 174.3C-40.7211 169.852 -37.911 163.171 -36.4684 159.159C-35.2966 155.856 -32.7036 148.32 -28.2867 149.271C-23.165 150.377 -24.8977 158.183 -26.4286 161.393C-27.7397 164.111 -29.6297 166.805 -31.8279 169.188C-25.3758 164.491 -19.0496 159.664 -12.82 154.692C-11.8467 152.524 -11.6667 150.245 -11.9638 147.93C-15.6689 137.673 -28.6786 136.239 -36.9225 133.202C-44.7805 130.322 -51.7911 125.144 -56.8207 117.996C-57.0967 117.593 -56.8715 116.944 -56.3917 116.901C-46.4693 115.811 -35.7806 116.459 -27.1083 122.208C-33.1884 113.998 -42.0072 102.824 -40.8824 92.0476C-40.8422 91.7203 -40.5848 91.4021 -40.2659 91.3997C-35.7978 90.8651 -29.3742 96.677 -25.8421 99.3301C-24.4861 100.358 -23.2346 101.475 -22.0582 102.667C-23.422 100.183 -24.7269 97.6692 -26.1791 95.228C-27.6716 92.6912 -29.4238 88.4363 -32.0152 86.2453C-32.2994 86.4998 -32.7095 86.6237 -33.0954 86.4667C-34.7651 85.708 -34.7222 85.7255 -36.1801 84.7094C-37.0162 84.1577 -36.5255 82.9564 -35.7617 83.0822ZM30.5659 101.082C31.0356 96.7002 30.8809 92.3552 29.7371 88.1099C29.2335 86.3191 28.3198 84.6521 27.3284 83.1386C25.316 80.1259 24.0341 84.9437 23.7391 85.9338C22.2641 90.8846 22.341 96.2288 23.2112 101.261C23.7682 104.449 24.8612 107.642 25.7934 110.876C25.9009 109.017 26.1398 107.132 26.5341 105.362C26.6735 104.679 27.6036 104.608 27.708 105.364C28.3506 109.432 28.2106 113.499 27.8534 117.556C29.7974 112.453 30.0102 106.275 30.5659 101.082ZM120.456 -15.0458C120.673 -16.3054 120.853 -17.7389 120.475 -18.9763C120.175 -19.9443 119.203 -20.3137 118.806 -19.3121C117.948 -17.1237 118.285 -14.7132 118.566 -12.3521C118.679 -13.0992 118.893 -13.8578 119.446 -14.3203C119.609 -14.4388 119.807 -14.3053 119.786 -14.1025C119.697 -13.2134 119.609 -12.3244 119.52 -11.4353C119.938 -12.6396 120.268 -13.8005 120.456 -15.0458ZM122.91 -7.17488C122.441 -6.59922 121.929 -6.041 121.403 -5.51466C121.757 -5.6879 122.14 -5.87556 122.481 -6.08068C124.006 -7.01964 125.491 -8.05426 126.81 -9.31506C127.963 -10.3792 129.531 -14.6838 126.669 -14.474C124.214 -14.3099 121.857 -9.85005 120.645 -7.91129C120.155 -7.13289 119.72 -6.30517 119.243 -5.4949C120.286 -6.31297 121.355 -7.06727 122.492 -7.66215C122.803 -7.85283 123.122 -7.43234 122.91 -7.17488ZM113.656 1.00768C113.847 -1.16153 114.067 -3.34517 113.794 -5.518C113.564 -7.2505 112.787 -8.67682 111.503 -9.70133C110.855 -10.2295 109.694 -11.0453 109.263 -9.87288C108.667 -8.15907 109.551 -5.63189 110.119 -4.02631C110.462 -3.04094 110.955 -2.20595 111.448 -1.37097C111.534 -1.75897 111.62 -2.14698 111.69 -2.48867C111.859 -3.18646 112.821 -2.92715 112.901 -2.31296C113.091 -1.09901 112.997 0.369391 113.361 1.57493C113.485 1.36078 113.549 1.17551 113.656 1.00768ZM114.149 6.0716C115.106 5.64153 116.116 5.33899 116.998 4.98411C117.395 4.82832 117.62 5.44854 117.236 5.63621C116.706 5.89606 116.145 6.17035 115.569 6.49095L115.599 6.47652C118.156 5.87809 120.766 5.40718 123.157 4.15966C124.53 3.44928 126.975 -0.208067 123.729 0.189416C122.418 0.369825 121.22 1.07178 120.041 1.64922C117.698 2.75778 115.905 4.32776 114.149 6.0716ZM104.276 -1.43447C100.275 -4.7805 102.016 4.01613 102.554 5.63615C103.039 7.12863 103.746 8.47375 104.499 9.7581L104.515 9.71179C104.668 9.06032 105.502 8.84438 105.754 9.52837C106.139 10.5312 106.681 11.6501 107.032 12.8238C107.496 7.75265 108.207 1.83036 104.276 -1.43447ZM108.669 16.6353C109.239 16.4711 109.808 16.3851 110.392 16.2528C111.561 15.9882 112.764 15.5527 113.954 15.5082C114.404 15.48 114.6 16.1146 114.158 16.3312C113.346 16.7672 112.525 17.015 111.652 17.1353C111.402 17.2189 111.169 17.2562 110.92 17.3398C110.378 17.4896 109.821 17.6857 109.223 17.7861C111.496 17.865 114.53 17.3021 115.361 17.1644C118.1 16.7458 123.399 16.0735 124.132 12.4858C124.687 9.8306 116.814 12.4163 116.067 12.6671C113.689 13.5237 110.692 14.6833 108.669 16.6353ZM98.6237 28.4344C100.53 22.7341 101.202 15.8704 97.8306 11.0626C95.7163 8.06133 93.9443 10.6973 93.5847 13.1414C93.3352 14.9166 93.6029 16.8229 93.8036 18.5698C94.2238 21.9392 95.2633 25.0054 96.4179 28.092C96.5816 27.1277 96.8605 26.1839 97.3404 25.2954C97.6032 24.8208 98.2866 25.1781 98.2114 25.6762C98.0209 26.9996 97.817 28.2912 97.9026 29.5947C98.1465 29.2446 98.4066 28.8482 98.6237 28.4344ZM103.56 30.7073C103.4 30.7476 103.209 30.8023 103.048 30.8426C102.327 31.1572 101.609 31.3936 100.883 31.4417C106.374 33.1738 121.909 29.4502 119.059 24.2725C117.231 20.9386 110.364 24.224 108.096 25.2574C105.55 26.3888 103.18 27.8565 101.03 29.6779C102.226 29.0541 103.539 28.7955 104.914 28.8527C105.161 28.8473 105.284 29.0561 105.305 29.2762C105.611 29.242 105.799 29.6883 105.544 29.9283C105.021 30.3765 104.204 30.5461 103.56 30.7073ZM91.6666 39.7981C92.3133 35.3297 90.832 29.9427 89.2432 26.4151C88.6377 25.0586 86.6576 21.5304 85.3948 24.1092C84.4269 26.1208 84.6945 28.8729 84.8094 31.0078C84.9937 34.4926 85.942 37.6803 86.8447 40.9288C86.995 39.9326 87.2873 39.0207 87.8904 38.3409C88.1934 37.962 88.724 38.125 88.8231 38.6147C89.0962 39.9417 89.1068 41.3205 89.0449 42.6963C89.0287 43.1655 88.967 43.6955 88.849 44.1761C89.8141 42.6656 90.7471 41.2478 91.6666 39.7981ZM88.0878 43.9721C88.1523 43.3639 88.1443 42.7528 88.1658 42.1272C88.1713 41.5479 88.1473 40.983 88.0804 40.4007C87.7612 41.6717 87.9138 43.1347 87.7822 44.4293C87.8331 44.635 87.884 44.8408 87.9349 45.0465C88.0877 44.8179 88.0637 44.253 88.0878 43.9721ZM90.7891 46.34C90.8347 46.2792 90.8937 46.2503 90.9687 46.1751C91.0733 46.0855 91.2153 46.1697 91.2394 46.3117C91.7915 46.272 92.3839 46.328 92.9306 46.4447C94.2386 46.3425 95.5626 46.194 96.8411 46.1062C97.4362 46.084 97.5485 47.0284 96.9669 47.0826C95.9484 47.1968 94.9433 47.3429 93.9221 47.5354C93.8149 47.7032 93.6219 47.8362 93.4048 47.8271C92.8687 47.8205 92.3166 47.8602 91.7805 47.8535C91.5045 47.8734 91.1989 47.9076 90.9363 47.9594C96.4813 50.2419 105.053 48.3901 109.789 45.9558C112.682 44.4629 112.612 41.4214 109.364 40.6284C107.625 40.2115 105.738 40.2896 103.993 40.4519C98.8334 40.8638 94.8152 43.9075 90.4246 46.4031C90.5425 46.3454 90.6873 46.3514 90.7891 46.34ZM79.1871 58.3249C80.276 53.64 80.3814 48.4756 79.7309 43.7967C79.3025 40.662 77.9898 37.1145 74.7173 36.6024C72.4258 36.2252 72.6798 40.2141 72.7626 41.5959C73.0834 47.0129 75.0311 51.9024 76.6411 56.9189C76.8342 56.3631 77.1719 55.8133 77.6357 55.394C78.0539 55.0355 78.6488 55.4362 78.5871 55.9661C78.52 56.6525 78.5386 57.3738 78.6296 58.098C78.651 58.3182 78.6697 58.6166 78.7179 58.9005C78.8975 58.7357 79.0638 58.539 79.1871 58.3249ZM79.2587 62.5568C79.3204 62.4497 79.3955 62.3745 79.4839 62.3312C80.3658 61.9764 81.2234 61.9024 82.1186 62.0023C82.6279 61.9452 83.0943 61.8706 83.6169 61.8454C83.9225 61.8111 84.1529 62.2749 83.842 62.4656C83.8125 62.48 83.783 62.4945 83.7535 62.5089C83.9303 62.8452 83.7078 63.4154 83.3138 63.493C82.8179 63.582 82.3542 63.5784 81.8905 63.5748C86.629 64.8683 92.5524 64.5822 96.2623 62.0739C101.428 58.5454 93.5935 57.0761 91.326 57.2637C86.456 57.6875 82.931 60.2975 78.7013 62.33C78.8594 62.3679 79.0738 62.4551 79.2587 62.5568ZM66.547 75.2004C68.5234 68.3126 67.7838 51.4913 60.681 52.3548C54.3931 53.1269 59.2072 66.531 62.4196 74.2611C62.0205 72.3807 62.0477 70.33 62.6108 68.7088C62.8333 68.1385 63.5864 68.1542 63.7847 68.7106C64.5027 70.5887 64.623 72.5673 64.7861 74.5632C64.8557 75.4902 65.0003 76.342 64.984 77.2342C65.5015 76.5195 66.0028 75.8512 66.547 75.2004ZM66.2272 80.2775C66.2754 80.1385 66.3666 80.017 66.4979 79.9911C67.3181 79.7433 69.1327 79.2393 70.1431 79.7826C71.1321 79.6828 72.1345 79.6148 73.1208 79.5932C73.5417 79.5794 73.6488 80.2574 73.2119 80.3175C71.5983 80.454 69.9901 80.8569 68.3471 81.0079C73.8547 82.6937 80.1934 82.9731 85.3131 80.774C87.9613 79.6312 89.9374 75.2808 85.9869 74.255C84.3064 73.8092 82.4624 73.9047 80.7604 74.0845C76.9196 74.5042 73.5154 76.1325 70.055 77.7114C72.6977 77.5708 75.3913 77.6359 77.9457 77.1156C78.471 77.0122 78.5433 77.861 78.0608 77.9819C74.4236 78.8016 70.4568 79.0908 66.6562 79.1833C66.289 79.3246 65.8923 79.4804 65.525 79.6218C65.4339 79.7433 65.3588 79.8185 65.2677 79.94C65.584 80.0158 65.927 80.1554 66.2272 80.2775ZM51.5427 93.3872C53.5109 87.5798 54.525 81.7014 52.9393 75.5583C52.1733 72.5505 50.2015 67.519 46.5025 68.8687C44.5646 69.5869 44.623 72.9411 44.6656 74.6502C44.7852 80.8576 47.0383 86.5587 49.2057 92.2248C49.2004 91.9584 49.2379 91.7093 49.246 91.4747C48.8419 88.059 48.0759 84.6283 48.2372 81.2049C48.248 80.8921 48.6849 80.8319 48.776 81.1333C49.3734 83.1474 49.7482 85.3088 50.0508 87.4672C50.1124 87.3601 50.1312 87.2356 50.1794 87.0966C50.5253 86.3122 51.5438 86.6208 51.5142 87.4811C51.4736 89.4999 50.9346 91.6859 51.3738 93.6621C51.3926 93.5375 51.4676 93.4624 51.5427 93.3872ZM71.0006 96.9691C73.5738 95.9015 75.7642 92.0612 71.8084 90.346C69.9512 89.5639 67.6301 89.6239 65.6788 89.8873C60.597 90.5687 56.2839 94.1796 51.5771 96.1766C51.4109 96.3733 51.2446 96.57 51.0784 96.7667C56.7815 99.51 65.5915 99.1561 71.0006 96.9691ZM95.2964 100.22C97.8698 97.8835 82.2542 100.993 82.474 100.924C78.8877 101.949 75.3549 103.525 71.9266 105.011C62.2154 109.228 52.6998 114.079 42.8199 117.725C50.3623 115.877 57.9396 114.281 65.415 113.12C68.7815 112.587 72.0272 112.612 75.2166 113.011C82.7861 109.958 89.072 105.881 95.2964 100.22ZM57.0711 131.506C53.1045 130.103 49.1058 129.216 45.0427 128.092C51.1371 130.836 57.5075 134.406 62.425 138.495C64.6654 140.358 76.4504 156.73 75.0374 159.46C79.5739 150.627 72.8543 135.734 66.2672 130.04C65.8652 129.929 65.4632 129.819 65.0745 129.74C64.8735 129.684 64.836 129.511 64.8709 129.34C58.5243 128.026 52.2395 126.183 45.74 125.521C42.7355 125.224 38.1364 124.092 33.7463 123.628C38.1444 124.281 42.076 126.277 46.3562 127.41C50.0762 128.395 54.0831 128.625 57.3204 130.999C57.5589 131.228 57.3283 131.61 57.0711 131.506ZM40.077 123.719C46.9007 124.645 53.687 124.974 60.4141 126.601C67.3584 128.237 74.2061 129.728 81.3652 128.491C83.6837 128.086 85.9621 127.163 88.1787 126.347C88.546 126.206 98.0295 121.024 96.0355 120.424C88.6331 118.205 81.807 115.243 74.0532 114.388C66.0394 113.506 58.2502 116.205 50.5469 118.093C45.7678 119.241 40.9245 120.152 36.1374 121.112C41.037 120.673 45.9713 120.91 50.9002 120.88C59.15 120.8 67.6519 119.713 75.7861 121.728C76.03 121.8 76.0031 122.16 75.7431 122.133C68.2653 121.681 60.7928 121.918 53.315 121.889C46.0542 121.869 38.7855 121.237 31.6398 122.506C34.663 122.679 37.8122 123.405 40.077 123.719ZM42.4422 148.471C47.6372 144.505 36.9891 141.415 35.5097 141.024C31.921 140.014 28.158 139.857 24.4887 139.924C20.0502 140.021 15.6974 140.999 11.3124 141.646C14.9709 141.47 19.0689 142.001 21.4942 144.388C21.8586 144.748 21.8103 145.31 21.3519 145.573C21.0865 145.703 20.8078 145.801 20.5585 145.884C20.8533 146.163 20.7433 146.832 20.2233 146.779C19.5881 146.705 18.969 146.586 18.3365 146.434C15.1389 146.692 11.6388 145.215 8.78447 144.345C8.16804 144.147 8.45235 143.047 9.07146 143.166C11.6042 143.695 14.0994 144.472 16.6294 145.079C17.6988 145.17 18.7736 145.105 19.8002 144.756C16.3162 142.387 11.304 143.573 7.4446 142.848C7.05598 142.769 7.07484 142.222 7.43936 142.159C7.46884 142.144 7.49831 142.13 7.5412 142.147C6.81484 142.195 6.13138 142.261 5.39164 142.277C15.8943 149.167 31.1168 157.053 42.4422 148.471ZM-25.8189 169.36C-25.7277 169.238 -25.6231 169.149 -25.4355 169.172C-24.0579 169.151 -22.6588 169.35 -21.2839 169.407C-20.8497 169.425 -20.7345 169.869 -20.8338 170.225C-20.3138 170.278 -19.7509 170.348 -19.2176 170.433C-18.6548 170.504 -18.7594 171.439 -19.3223 171.369C-20.4346 171.26 -21.5656 171.275 -22.6779 171.166C-16.9508 174.475 -10.9583 178.076 -4.70759 175.438C-0.721808 173.756 -2.77431 170.225 -5.10582 168.483C-6.85848 167.188 -8.84984 166.933 -10.8841 166.661C-16.0488 165.96 -20.7447 166.798 -25.6898 167.298C-26.2555 167.728 -26.8639 168.142 -27.4295 168.572C-26.9016 168.813 -26.3602 169.087 -25.8189 169.36ZM-30.9722 164.963C-31.5058 166.147 -32.227 167.308 -32.9749 168.404C-31.7847 167.091 -30.6936 165.711 -29.6749 164.328C-28.0315 162.063 -26.6963 159.487 -26.1062 156.661C-25.6153 154.191 -27.2708 148.812 -30.4419 150.826C-33.688 152.915 -35.1845 158.914 -36.3082 162.501C-37.2387 165.533 -37.8664 168.608 -38.4083 171.718C-37.5316 169.828 -36.6414 167.97 -35.5931 166.149C-35.4242 165.874 -35.1509 165.933 -34.9686 166.113C-34.8936 166.037 -34.8319 165.93 -34.7569 165.855C-34.4861 165.569 -34.0949 165.992 -34.2075 166.317C-34.8189 168.077 -35.6902 169.81 -36.6474 171.509C-35.937 170.662 -35.3069 169.623 -34.744 168.847C-33.7225 167.386 -32.8672 165.699 -31.5644 164.484C-31.2669 164.262 -30.8301 164.625 -30.9722 164.963ZM-10.7371 152.711C-5.05149 147.967 -3.75498 135.992 -3.33036 129.133C-2.78471 119.602 -2.80197 110.423 -1.6479 100.901C-1.22385 97.4255 -0.194063 94.0381 0.532852 90.6069C2.44 81.5235 -2.76602 87.4937 -5.68269 90.9591C-10.7172 96.9991 -13.806 104.201 -14.6757 112.2C-13.1537 114.722 -11.7819 117.395 -10.6299 120.137C-9.5448 122.719 -8.66348 125.748 -8.05024 128.984C-8.26422 126.359 -8.4648 123.767 -8.48048 121.276C-8.58376 113.753 -8.20995 105.843 -4.40561 99.3292C-4.28228 99.1151 -4.01427 99.3298 -4.06524 99.547C-7.30736 109.938 -7.7593 120.115 -7.06156 130.999C-6.70871 136.746 -5.52252 143.546 -8.81199 148.578C-9.31075 150.014 -9.95421 151.444 -10.7371 152.711ZM-50.6642 117.672C-58.5521 117.767 -50.2309 123.611 -47.3661 125.86C-43.3007 129.021 -38.3373 130.935 -33.6284 132.666C-27.8608 134.801 -17.6628 136.65 -13.4693 142.824C-14.0962 141.247 -14.8839 139.711 -15.7869 138.154C-19.4636 134.226 -23.5398 131.801 -28.6078 129.977C-33.1318 128.348 -38.3046 127.882 -42.4157 125.205C-42.6702 125.022 -42.4825 124.622 -42.2226 124.649C-36.5379 125.402 -30.4568 127.691 -25.0672 129.858C-22.8374 130.765 -20.7041 131.95 -18.8282 133.454C-21.2318 130.017 -23.7909 126.888 -25.7015 124.287C-25.79 124.33 -25.8918 124.342 -25.991 124.275C-33.9157 119.544 -41.5594 117.597 -50.6642 117.672ZM-39.7709 96.3854C-39.0995 104.668 -32.0759 112.838 -27.6117 119.148C-22.7348 126.102 -11.9862 137.216 -10.7791 147.619C-10.8159 143.216 -12.4903 138.385 -13.6985 134.748C-16.5247 126.329 -22.5918 120.266 -26.9754 112.878C-27.1121 112.638 -26.844 112.43 -26.6618 112.609C-19.7266 120.4 -13.8851 128.804 -11.2173 139.299C-10.553 141.896 -9.69865 145.706 -9.9297 149.048C-5.97186 138.077 -9.71927 124.419 -15.3139 114.319C-15.4426 114.267 -15.5417 114.2 -15.5658 114.058C-15.5926 113.994 -15.6034 113.884 -15.6007 113.806C-15.874 113.325 -16.1338 112.875 -16.4232 112.44C-16.6296 112.541 -16.8842 112.358 -16.7877 112.08C-16.7716 112.034 -16.7689 111.956 -16.7528 111.91C-17.2754 111.089 -17.7845 110.3 -18.2802 109.544C-19.5932 107.688 -40.3941 88.81 -39.7709 96.3854Z" fill="#F1ECE5"/>
</svg>
