<svg width="257" height="376" viewBox="0 0 257 376" fill="none" xmlns="http://www.w3.org/2000/svg">
<path d="M15.6037 213.007C31.8152 209.497 50.5557 201.565 67.4805 203.515C85.1834 205.596 98.6714 218.078 116.115 221.134C116.699 221.264 116.634 222.044 116.18 222.174C116.504 222.239 116.828 222.369 117.217 222.434C117.995 222.499 118.838 222.695 120.006 222.825C120.46 222.89 120.654 223.28 120.654 223.605C121.432 223.93 122.21 224.32 122.989 224.71C115.272 213.983 109.176 202.215 99.1901 193.178C88.2312 183.296 74.9377 175.754 62.8115 167.432C53.6034 161.125 49.1291 151.243 37.7162 147.602C37.4568 147.537 37.4568 147.147 37.781 147.147C45.1086 147.017 49.972 152.739 55.03 157.615C64.2382 166.522 74.9377 172.958 85.3779 180.24C82.395 176.989 79.5418 173.478 76.6237 170.228C72.9924 166.132 68.9719 162.296 65.8593 157.81C65.6648 157.55 66.0538 157.094 66.3132 157.29C70.7228 160.345 74.2893 164.831 77.9207 168.862C82.3302 173.673 86.9991 178.614 90.6305 184.011V184.076C98.4768 189.927 104.572 195.843 110.084 202.67C102.303 179.135 80.5145 158.72 59.5692 146.627C52.6307 142.661 44.9789 140.256 37.7162 137.005C34.8629 135.705 10.2215 124.782 11.3239 129.333C16.4467 150.983 39.5967 172.113 57.4942 183.751C71.6306 192.918 89.7226 187.001 102.108 197.794C102.951 198.509 101.979 199.939 101.006 199.354C90.5008 193.243 78.1152 195.128 66.7672 191.552C57.559 188.627 49.3884 182.06 42.1257 175.949C27.276 163.401 12.0372 145.132 7.62763 125.822C7.4331 124.977 7.95186 124.002 8.92455 124.002C16.9655 123.872 24.2282 127.643 31.3613 130.959C42.839 136.29 54.7058 140.841 65.5999 147.212C85.3779 158.85 108.528 181.8 112.484 205.206C112.484 205.401 112.484 205.531 112.419 205.661C115.077 209.171 117.671 212.942 120.265 217.038C125.712 225.62 134.855 230.821 141.405 237.973C136.866 225.295 132.715 212.487 129.344 199.484C129.279 199.354 129.279 199.159 129.214 199.029C128.501 199.159 127.722 198.964 127.398 198.119C122.016 183.751 111.576 170.878 104.248 157.42C96.5315 143.246 88.2312 129.788 77.1425 117.891C69.4258 109.569 60.6068 102.287 52.4362 94.4202C43.2281 89.154 36.2896 81.2872 28.5729 74.1355C28.119 73.7454 28.7674 73.0953 29.2213 73.4854C34.8629 78.2315 40.2452 83.1076 45.8868 87.7886C35.4466 76.6711 26.1087 64.4483 16.4467 52.6806C15.7982 51.9004 17.0951 50.7952 17.8085 51.5754C29.805 65.1635 41.0233 79.4667 53.6034 92.5347C64.303 103.652 76.4292 113.079 86.4803 124.847C88.0366 126.668 89.4632 128.553 90.8899 130.503C83.1732 111.519 73.1869 94.4852 59.1802 79.1417C46.5352 65.2935 27.0814 47.8695 9.11909 41.498C-2.81257 37.2721 12.2965 59.7672 13.9177 62.1728C18.9108 69.5195 25.0712 76.086 30.7128 82.9125C43.9414 98.9712 63.1358 106.253 78.18 119.906C79.1527 120.751 77.9855 122.507 76.8831 121.791C46.6649 101.507 9.76755 77.9714 0.0406547 40.2628C-0.153883 39.3525 0.364886 38.6374 1.27273 38.5724C19.5593 36.6219 39.0131 56.8416 51.4635 67.8291C71.8251 85.8382 87.2585 109.959 94.9103 136.03C94.9103 136.16 94.9103 136.225 94.8455 136.29C100.098 144.417 104.637 153.064 109.241 161.45C114.688 171.528 121.757 180.695 127.074 190.772C122.47 171.853 118.709 152.739 114.753 133.624C114.494 133.494 114.299 133.364 114.234 132.974C114.17 132.259 114.17 131.544 114.17 130.829C112.808 124.132 111.381 117.435 109.955 110.804C108.269 102.937 107.101 94.9403 106.194 86.9434C101.719 75.5658 97.9581 63.7331 94.5861 52.0305C94.3915 51.3803 95.3642 51.1202 95.5588 51.7054C98.5417 60.5474 102.303 69.2594 105.286 78.1664C103.535 59.4422 102.432 40.7179 98.0878 22.5137C97.9581 21.9286 98.8011 21.6685 98.9956 22.2536C104.767 42.4082 104.897 63.7331 107.296 84.6679C107.879 86.6184 108.398 88.5688 108.787 90.5843C108.917 91.0394 108.528 91.3645 108.139 91.2344C108.722 95.3304 109.436 99.4263 110.344 103.457C111.705 109.569 113.067 115.745 114.429 121.921C115.142 115.81 116.569 109.829 117.995 103.522C120.978 90.3242 120.395 76.6061 118.774 63.278C116.504 44.9438 114.818 19.588 101.979 5.08971C95.9478 -1.80187 87.6476 35.4517 87.5179 38.2473C86.8694 50.08 89.8523 61.9127 93.0298 73.2253C98.7362 93.3799 109.63 112.234 113.975 132.649C114.234 133.949 112.548 134.469 112.03 133.234C94.9103 93.9 69.1665 40.0027 97.8932 0.473652C98.2823 -0.0464672 99.0604 -0.111482 99.5792 0.148577C114.04 7.56027 116.763 31.8758 119.033 45.9191C120.849 57.2317 122.34 68.4792 122.794 79.9869C123.378 96.7607 116.958 112.364 115.92 128.878C121.043 152.153 126.101 175.494 131.808 198.639C139.654 230.431 152.883 260.793 164.62 291.48C164.101 280.298 166.111 268.79 167.084 257.803C168.057 246.88 168.964 236.218 169.353 225.49C166.306 189.537 144.582 155.989 148.279 119.126C148.343 118.281 149.77 118.411 149.77 119.256C150.483 143.441 159.367 167.237 165.528 191.097C167.862 156.509 164.036 121.596 148.408 90.3242C145.62 84.6679 141.729 115.615 141.924 113.535C140.951 125.172 142.313 137.005 144.323 148.513C147.436 166.392 155.606 181.995 162.22 198.639C162.545 199.419 161.377 199.809 160.988 199.224C147.241 179.85 141.145 154.819 139.006 131.414C138.357 124.522 137.255 85.2531 145.944 82.9125C146.463 82.7825 147.111 82.9125 147.371 83.4326C157.033 101.052 163.517 119.386 166.5 139.28C168.186 150.528 168.251 162.036 167.408 173.348C166.824 180.955 168.381 188.237 166.63 195.648C167.732 200.134 168.705 204.62 169.418 209.171C169.353 207.286 169.418 205.466 169.353 203.58C168.835 192.983 170.196 182.645 173.309 172.698C173.179 152.023 174.801 131.219 186.019 113.274C194.643 99.4913 208.52 84.2778 225.51 82.5224C225.899 82.4574 226.483 82.8475 226.548 83.2376C229.466 100.662 220.841 116.395 212.541 131.154C207.418 140.191 202.619 149.553 196.783 158.135C190.364 167.692 180.248 173.673 173.828 183.1C172.79 187.717 172.142 192.593 171.882 197.989C171.169 213.918 172.401 229.586 170.78 245.645C170.391 249.351 169.937 253.056 169.548 256.827C175.384 242.654 185.046 232.512 196.913 222.174C206.575 213.787 216.497 205.921 225.251 196.559C232.06 189.212 236.275 181.28 244.964 175.819C246.001 175.169 247.104 176.794 246.001 177.444C230.827 187.066 221.944 204.88 207.613 216.063C207.548 216.128 207.483 216.193 207.418 216.193C213.643 213.007 219.933 210.472 225.121 205.336C225.51 204.945 226.094 205.531 225.769 205.921C220.128 211.967 212.087 217.038 203.981 219.054C196.005 225.555 188.807 232.187 182.647 239.663C196.978 231.472 210.012 225.815 222.851 214.373C236.404 202.28 245.677 186.546 252.81 169.967C256.701 160.865 226.483 174.974 226.223 175.169C218.442 179.525 212.087 186.091 206.186 192.593C193.8 206.311 188.029 222.89 180.183 239.143C179.859 239.858 178.821 239.403 178.951 238.688C186.538 202.93 217.729 165.741 255.858 164.116C256.766 164.051 257.22 165.026 256.896 165.807C250.152 183.23 241.268 198.379 228.493 212.032C214.551 226.855 198.794 234.202 180.702 242.394C180.637 242.459 180.572 242.394 180.507 242.394C176.033 248.31 172.207 254.812 169.029 262.224C167.603 274.836 166.371 287.709 167.797 299.997C176.811 324.183 184.527 348.758 187.705 374.504C187.964 376.455 184.917 376.52 184.657 374.569C182.258 357.08 177.848 340.176 172.531 323.468C167.927 315.016 157.876 308.384 149.122 303.183C148.927 303.248 148.668 303.313 148.473 303.118C141.988 298.502 130.446 302.143 123.637 303.963C117.477 305.589 112.03 308.904 106.064 310.79C105.48 310.985 105.221 310.335 105.48 309.944C109.76 304.028 122.34 302.078 128.825 300.647C132.91 299.737 138.098 298.762 142.702 299.412C142.378 299.217 142.053 299.022 141.794 298.892C141.21 298.567 140.692 298.242 140.108 297.917C126.036 292.651 103.211 295.381 98.8011 310.66C97.5041 315.081 96.0775 320.087 103.47 318.721C108.852 317.746 113.91 314.951 118.644 312.415C125.972 308.514 132.975 304.028 141.016 301.753C142.053 301.428 142.507 302.988 141.535 303.378C126.815 309.489 113.391 320.282 97.1151 321.777C96.5315 321.842 96.0127 321.257 96.0127 320.737C95.6885 310.855 97.7635 301.233 107.944 297.267C115.856 294.211 125.323 292.651 133.948 294.276C121.432 286.994 108.852 280.168 96.0775 273.276C95.6236 273.016 95.883 272.301 96.4018 272.431C109.112 276.527 121.173 283.288 132.845 290.505C124.156 273.861 101.395 265.474 83.9513 263.979C79.1527 263.589 74.0299 262.679 77.4019 268.855C80.1903 273.926 85.1834 278.087 89.8523 281.338C98.9956 287.644 110.214 282.118 119.552 287.254C120.265 287.644 119.876 288.75 119.033 288.555C108.593 286.474 98.1526 289.14 88.6851 283.548C81.552 279.322 74.6784 271.911 72.6681 263.719C72.5385 263.134 72.7978 262.289 73.5111 262.159C93.6782 258.128 127.852 270.155 134.791 291.675C140.497 295.251 146.074 298.892 151.586 302.403C157.422 306.109 165.333 310.92 170.586 317.096C162.545 293.041 152.688 269.44 143.869 245.515C138.746 239.078 131.613 235.763 126.361 229.586C123.896 227.571 121.108 226.075 118.125 225.1C107.944 226.53 97.7635 233.487 87.1936 234.982C76.6237 236.478 65.4054 236.998 54.7706 236.803C37.9755 236.478 22.9313 230.301 14.8904 215.088C14.631 214.178 14.7607 213.202 15.6037 213.007ZM200.026 149.163C209.299 133.689 219.479 117.435 224.408 100.011C228.947 84.0178 219.739 83.8227 208.65 91.5595C199.442 97.931 192.114 108.008 186.278 117.37C177.2 131.934 176.746 148.708 176.227 165.286C176.292 165.156 176.357 165.026 176.422 164.896C178.886 158.98 181.998 153.714 185.176 148.578C185.695 145.587 186.473 142.661 187.121 139.736C188.418 134.079 189.521 128.423 190.428 122.637C190.493 122.182 191.207 122.247 191.207 122.702C191.207 128.943 190.364 135.9 188.872 142.466C194.06 134.014 198.664 125.367 200.026 114.315C200.155 113.339 201.776 113.47 201.776 114.51C201.452 125.497 197.172 134.404 191.725 143.766C185.046 155.469 179.34 165.416 175.838 176.794C182.841 167.237 193.8 159.5 200.026 149.163ZM24.3579 223.8C36.7435 236.738 59.6989 234.787 75.7159 232.967C88.6202 231.472 99.1901 230.366 110.992 224.125C111.511 223.865 112.03 223.605 112.419 223.41C103.729 221.849 94.1322 222.695 85.767 222.304C69.6204 221.654 52.8253 222.304 37.3919 216.908C36.8083 216.713 37.0029 215.803 37.6513 215.933C55.0949 219.314 72.6033 220.874 90.2414 221.004C84.924 219.379 79.866 215.868 75.3268 213.202C74.8729 212.942 75.262 212.292 75.651 212.552C78.6988 213.983 81.8114 215.283 84.8592 216.648C88.296 218.143 91.9922 219.119 95.3642 220.809C95.4939 220.874 95.4939 220.939 95.5588 221.069C97.4393 221.069 99.3198 221.069 101.265 221.004C103.924 220.939 106.518 221.004 109.112 221.199C100.682 219.054 93.2243 214.698 85.2483 210.732C70.9821 203.58 56.716 206.051 41.8015 209.301C32.3988 211.252 12.8153 211.772 24.3579 223.8Z" fill="#E7E7E9"/>
</svg>
