<svg width="272" height="252" viewBox="0 0 272 252" fill="none" xmlns="http://www.w3.org/2000/svg">
<path d="M95.4172 218.604C95.8903 218.131 96.3634 217.725 96.8364 217.251C96.6337 217.048 96.4985 216.777 96.3634 216.574C95.9579 215.897 96.6337 215.018 97.3771 215.424C97.715 215.627 98.0529 215.762 98.3232 215.965C111.029 205.272 131.506 201.008 148.064 205.407C148.199 205.407 148.334 205.34 148.469 205.34C143.468 202.429 138.467 199.79 133.331 197.354C133.331 197.354 133.331 197.354 133.263 197.354C133.196 197.354 133.061 197.421 132.925 197.421C132.317 197.286 131.709 197.151 131.101 197.015C118.666 194.714 104.406 197.895 92.1057 196.203C82.1711 194.85 70.0739 187.811 71.3579 176.171C71.3579 176.103 71.4255 176.035 71.4255 176.035C71.2903 175.968 71.2227 175.968 71.0876 175.968C70.209 175.697 70.4793 174.546 71.3579 174.614C127.046 180.57 179.895 216.777 212.943 261.715C209.564 254.609 206.117 247.435 202.535 240.532C193.749 223.748 184.491 207.235 174.556 191.127C165.568 179.758 155.025 170.621 143.536 162.703C118.801 155.867 87.848 158.236 66.6947 142.873C56.8953 135.767 33.3767 118.306 39.1212 103.417C38.4453 102.876 37.7695 102.402 37.0937 101.725C36.0124 100.71 37.4316 99.0184 38.5805 99.9659C38.986 100.304 39.3915 100.575 39.797 100.913C40.1349 100.846 40.4728 100.846 40.6756 101.252C40.7431 101.387 40.8783 101.522 40.9459 101.658C49.4613 106.937 61.964 105.921 71.2903 108.696C81.1573 111.606 90.754 115.464 100.013 119.931C117.922 128.593 131.844 142.332 142.928 158.575C151.308 164.124 159.215 170.418 166.108 177.66C163.675 173.937 161.31 170.215 158.809 166.56C142.657 142.873 124.005 120.404 103.189 100.71C101.297 98.883 99.337 97.1234 97.3095 95.4315C79.1299 85.6183 58.7876 81.1515 41.1486 70.4585C21.0767 58.2766 11.2097 33.1005 0.193773 13.6771C-0.279303 12.865 0.126191 11.4438 1.27509 11.5115C47.4338 14.6246 75.0074 54.0128 96.7013 90.8971C99.6073 93.2658 102.513 95.7022 105.352 98.2739C113.8 105.786 121.707 114.043 129.208 122.705C129.208 122.638 129.141 122.57 129.141 122.435C128.397 120.946 127.722 119.457 127.046 117.9C126.843 117.9 126.64 117.833 126.437 117.63C99.4721 86.6334 88.9969 35.1985 117.044 2.2396C117.044 2.2396 117.044 2.23962 117.044 2.17194C116.841 1.56284 117.381 1.22442 117.855 1.2921C118.125 1.02139 118.328 0.750713 118.598 0.480003C119.139 -0.0614168 120.085 -0.196739 120.625 0.344681C133.669 13.2711 137.048 33.642 139.616 51.1028C141.306 62.2695 141.306 73.0302 139.143 84.0617C138.4 88.0546 137.386 90.694 135.02 93.8749C127.924 103.62 128.397 110.05 130.357 119.998C131.236 122.367 132.182 124.803 133.128 127.104C139.886 135.158 146.307 143.55 152.524 151.942C148.199 142.603 145.225 131.91 147.726 123.585C146.172 121.961 145.225 119.66 145.09 117.291C144.887 113.772 146.374 109.373 149.753 107.749C154.281 105.515 159.688 109.373 160.702 113.975C160.837 114.652 160.229 115.464 159.485 115.058C158.607 114.584 157.66 113.704 156.647 112.825C156.714 112.892 156.714 113.028 156.714 113.095C157.323 113.772 157.931 114.449 158.471 115.261C160.161 117.224 160.567 120.066 159.688 122.435C158.539 125.48 154.754 126.022 151.984 125.683C151.443 125.616 150.97 125.48 150.564 125.345C150.226 136.241 152.524 147.949 157.12 158.101C157.323 158.372 157.458 158.575 157.66 158.845C167.122 171.975 175.773 185.713 183.882 199.722C182.125 191.804 181.382 183.683 181.179 175.494C176.989 157.559 170.366 140.437 171.785 121.217C172.799 107.207 172.596 77.8353 186.721 69.4433C187.262 69.105 187.87 69.308 188.208 69.7141C204.698 66.9393 207.401 96.1759 208.685 106.734C209.766 115.938 210.172 125.48 209.293 134.684C207.333 155.123 191.316 172.11 185.775 191.601C186.18 196.203 186.721 200.873 187.329 205.61C193.614 216.574 199.561 227.673 205.441 238.772C206.658 241.006 207.807 243.307 209.023 245.54C208.888 240.261 209.428 234.982 210.375 229.839C210.172 229.771 209.969 229.704 209.902 229.433C197.129 191.737 232.406 148.085 268.158 140.572C268.766 140.437 269.306 140.708 269.577 141.317C269.712 141.655 269.847 141.994 270.05 142.332C270.32 142.941 270.59 143.55 270.861 144.092C270.996 144.43 270.793 144.701 270.455 144.768C275.456 154.988 267.211 166.29 261.399 174.885C254.506 185.036 249.37 196 242.679 206.287C234.839 218.266 221.593 222.733 213.348 234.035C213.078 234.441 212.605 234.509 212.199 234.441C211.456 239.584 211.05 244.525 210.983 249.195C221.999 269.972 233.217 291.222 241.26 313.082C241.53 313.827 240.449 314.368 239.976 313.691C231.731 300.562 224.905 286.485 218.214 272.34C218.147 272.273 218.147 272.273 218.079 272.205C217.944 272.205 217.741 272.137 217.674 271.934C210.848 262.121 201.657 254.541 191.654 248.179C184.423 243.577 175.84 241.209 168.406 237.622C167.663 240.329 166.176 242.63 163.743 242.562C162.999 243.171 162.188 243.713 161.175 244.051C155.903 245.743 151.037 243.036 150.091 237.622C150.091 237.419 150.024 237.216 150.024 237.013C150.024 237.08 149.956 237.148 149.956 237.216C149.686 237.893 148.74 237.757 148.469 237.148C146.78 232.411 150.226 227.47 154.552 225.508C155.092 225.169 155.633 225.034 156.174 224.898C156.579 224.763 156.985 224.628 157.39 224.628C157.728 224.56 157.931 224.763 158.066 224.966C158.742 225.101 159.418 225.372 160.026 225.778C160.229 225.914 160.431 226.117 160.634 226.32C164.284 225.507 167.46 227.335 168.676 231.328C168.947 232.343 169.014 233.832 168.879 235.389C181.855 239.043 194.087 245.54 204.157 254.474C191.181 238.908 176.854 224.966 160.026 212.919C159.418 212.446 158.742 212.107 158.134 211.634C154.619 209.671 150.97 208.385 147.253 207.573C141.981 210.009 139.819 217.319 135.291 220.567C131.439 223.342 127.451 224.628 122.788 225.508C115.219 226.929 104.068 225.237 98.3908 219.281C97.715 219.552 97.1068 219.89 96.4309 220.161C95.5524 220.026 94.9441 219.078 95.4172 218.604ZM94.4711 182.803C96.4985 183.954 98.526 185.036 100.689 185.984C104.473 187.54 108.731 188.556 112.921 188.962C106.906 186.728 100.689 184.698 94.4711 182.803ZM116.3 190.248C105.96 190.586 94.6062 187.811 87.037 180.502C82.3062 179.081 77.5079 177.66 72.7096 176.238C75.6832 182.194 76.9672 187.202 83.4551 190.654C89.8755 194.173 98.3908 194.173 105.487 194.308C107.852 194.376 110.285 194.308 112.718 194.308C99.2018 192.819 85.1447 190.451 78.5892 179.284C78.1837 178.607 78.9947 177.93 79.603 178.404C88.3211 185.375 95.7551 189.165 106.906 191.06C113.462 192.143 119.95 192.752 126.37 194.173C123.058 192.752 119.679 191.466 116.3 190.248ZM130.222 154.175C121.842 149.303 113.124 144.768 104.135 140.369C90.4161 133.669 76.5618 127.375 62.3695 121.758C58.7876 120.337 55.4085 118.78 52.2997 116.885C72.9123 138.61 101.905 143.076 130.222 154.175ZM125.897 148.491C103.595 134.075 79.8057 125.074 55.6112 114.72C63.248 119.322 71.5607 122.638 80.1436 126.36C94.6062 132.654 108.799 139.828 122.856 146.934C123.869 147.408 124.883 147.949 125.897 148.491ZM43.3113 109.238C42.3651 108.764 41.3514 108.358 40.4052 107.884C41.3514 127.104 74.8046 145.377 88.8617 149.303C101.567 152.822 115.422 152.687 128.397 155.258C96.4985 143.347 62.6398 139.286 43.3113 109.238ZM82.1711 114.923C72.3717 111.133 63.248 108.629 52.908 107.816C49.5964 107.546 46.8255 107.14 44.2574 106.192C45.0684 107.004 45.947 107.681 46.8256 108.426C79.1299 118.848 112.313 133.466 138.197 155.394C138.197 155.394 138.197 155.461 138.264 155.529C138.873 155.935 139.481 156.273 140.089 156.612C124.613 137.121 105.69 123.924 82.1711 114.923ZM7.22233 16.9257C6.00585 22.4075 16.6838 37.4996 18.3734 40.4097C26.6184 54.622 37.2289 65.518 51.8942 72.9625C63.7211 78.9858 76.5618 81.8283 88.2535 87.4455C88.0507 87.2425 87.848 87.1072 87.6452 86.9718C53.8541 72.2858 26.9564 48.5986 7.49266 17.1963C7.3575 17.0609 7.28991 16.9933 7.22233 16.9257ZM76.359 78.0383C65.0728 69.308 53.6514 60.7129 42.9734 51.2381C33.5118 43.9966 24.591 35.4693 16.2784 26.7389C24.9289 37.838 33.8497 48.5987 44.3926 57.9382C53.9217 66.3302 65.2755 72.0151 76.359 78.0383ZM8.16848 15.4367C21.8201 27.1449 34.3228 40.4774 47.4338 52.7947C56.8953 60.5099 66.7623 67.7514 76.5618 75.0605C69.9387 68.0221 63.3832 60.7806 56.7601 53.9452C42.23 38.9885 25.5371 27.0772 8.37123 15.369C8.30365 15.369 8.23606 15.369 8.16848 15.4367ZM11.8179 15.166C11.2773 15.0306 10.8042 15.0307 10.3311 14.963C38.9184 33.1006 65.8838 56.1108 88.5238 81.8283C67.9112 53.3361 49.1909 23.0842 11.8179 15.166ZM118.125 57.126C118.125 67.1423 119.274 77.5646 121.301 87.9192C120.625 61.525 124.951 34.8601 118.801 8.66896C114.948 22.0014 118.125 43.8612 118.125 57.126ZM115.422 12.865C112.448 26.1975 109.609 38.3117 109.745 52.93C109.88 67.8191 114.408 82.0313 120.355 95.5668C117.584 82.5727 116.3 69.0373 115.692 57.3291C115.084 46.5007 116.503 35.8076 115.692 24.9115C115.286 20.9186 114.881 16.7903 115.422 12.865ZM125.964 104.839C126.167 99.0183 135.291 87.6486 136.44 83.3172C141.981 63.217 135.561 37.4319 128.735 18.5498C128.87 18.9559 124.14 5.75881 119.747 5.01436C125.491 19.768 125.018 35.6723 125.221 51.4412C125.491 68.7666 125.018 86.0243 125.018 103.35C125.356 104.5 125.626 105.651 125.964 106.801C125.964 106.124 125.964 105.515 125.964 104.839ZM122.788 105.922C115.286 93.1981 111.299 78.5798 108.731 64.0291C105.217 43.6582 110.015 27.8217 114.948 9.07501C112.11 13.068 109.947 17.3993 107.92 21.9337C102.986 32.8298 102.716 45.3502 103.797 56.923C105.487 75.9404 114.34 92.1829 123.261 108.426C123.058 107.613 122.923 106.801 122.788 105.922ZM154.281 112.419C154.214 112.08 154.079 111.809 154.011 111.606C153.943 111.471 154.011 111.336 154.011 111.2C153.335 110.93 152.659 110.794 152.051 110.997C151.308 111.2 150.767 111.742 150.294 112.419C150.564 112.554 150.767 112.757 150.835 113.095C150.902 113.84 151.105 114.516 151.375 115.261C151.51 115.193 151.646 115.126 151.781 115.126C152.389 115.126 152.997 115.261 153.673 115.126C154.349 114.99 154.552 114.246 154.484 113.501C154.146 113.095 154.146 112.689 154.281 112.419ZM154.89 119.457C155.633 119.592 156.106 119.728 156.309 119.254C156.647 118.577 156.579 117.697 156.309 116.818C156.241 116.885 156.241 117.021 156.174 117.088C155.43 118.171 154.079 118.577 152.795 118.374C152.93 118.645 153.065 118.848 153.2 119.119C153.741 119.186 154.281 119.322 154.89 119.457ZM173.61 127.443C173.137 139.016 176.043 149.979 179.152 160.876C176.11 132.992 180.706 101.793 184.896 74.5191C174.826 87.7839 174.286 112.215 173.61 127.443ZM186.248 72.8272C185.031 88.5284 183.207 104.162 182.193 119.863C181.517 129.744 181.72 139.693 181.72 149.641C181.787 148.423 181.855 147.205 181.923 145.987C183.68 121.487 184.964 97.1234 186.315 72.6918C186.315 72.6918 186.315 72.7595 186.248 72.8272ZM187.87 71.2706C191.114 91.7769 187.464 113.975 185.572 134.481C184.288 148.355 183.95 161.755 184.491 175.088C186.586 165.816 189.965 156.747 192.465 147.543C198.886 123.585 195.169 94.89 188.005 71.6767C187.937 71.5413 188.005 71.406 188.005 71.2706C188.005 71.2706 187.937 71.2706 187.87 71.2706ZM206.725 124.871C206.86 111.2 206.996 75.3989 189.492 71.609C196.791 90.3556 198.48 111.065 196.926 131.03C195.574 148.829 188.681 165.207 185.572 182.6C192.195 162.906 206.522 146.866 206.725 124.871ZM223.621 219.755C235.11 212.513 241.868 201.617 248.086 189.909C254.776 177.254 271.604 161.079 268.495 145.987C265.387 158.439 257.953 168.455 249.91 178.539C239.3 191.939 231.19 206.829 221.796 220.905C222.404 220.567 222.945 220.161 223.621 219.755ZM216.66 224.831C223.418 212.92 230.785 201.211 238.489 189.909C248.356 175.291 261.399 163.244 266.738 146.122C247.275 171.772 231.528 197.624 215.916 225.508C216.119 225.237 216.389 225.034 216.66 224.831ZM265.454 145.31C238.692 158.845 219.769 194.714 213.281 226.929C224.026 197.354 244.031 168.32 265.454 145.31ZM225.581 188.15C233.893 171.636 245.788 149.303 264.373 142.806C252.478 143.889 230.852 166.628 226.865 171.569C213.889 187.676 211.726 205.746 211.05 225.304C214.024 212.446 219.633 200.061 225.581 188.15ZM156.444 229.162C156.376 229.23 156.376 229.23 156.444 229.162C156.376 229.23 156.309 229.298 156.174 229.433C156.106 229.501 155.768 229.974 155.701 230.042C155.363 230.651 155.025 231.192 154.822 231.869C154.417 232.884 154.146 234.509 154.214 235.727C154.281 238.434 155.228 240.126 158.066 239.99C158.336 239.99 158.539 239.923 158.742 239.855C158.336 238.502 158.404 237.148 158.336 235.659C158.201 233.426 157.728 231.192 156.579 229.23C156.512 229.162 156.579 229.094 156.579 229.027C156.579 229.094 156.512 229.162 156.444 229.162ZM162.121 228.079C162.797 229.162 163.067 230.11 163.202 231.192C164.013 232.005 164.689 233.02 165.162 234.103C165.23 234.103 165.365 234.17 165.432 234.17C165.5 233.697 165.568 233.155 165.568 232.681C165.432 230.11 164.013 228.688 162.121 228.079ZM137.589 206.152C130.628 210.415 121.774 212.175 113.8 211.431C113.664 211.431 113.597 211.363 113.529 211.295C110.42 212.716 107.447 214.273 104.406 215.83C118.192 215.221 131.168 214.814 143.063 206.49C141.238 206.287 139.413 206.219 137.589 206.152ZM135.223 216.439C137.453 214.273 139.211 211.769 141.035 209.671C130.425 216.71 114.881 221.718 102.986 216.913C102.851 216.845 102.716 216.709 102.716 216.574C102.243 216.845 101.77 217.048 101.297 217.318C112.245 222.8 125.086 226.32 135.223 216.439Z" fill="#F1ECE4"/>
</svg>
