<svg width="266" height="162" viewBox="0 0 266 162" fill="none" xmlns="http://www.w3.org/2000/svg">
<path d="M164.272 209.423C163.884 208.962 163.492 208.563 163.104 208.103C163.3 207.934 163.44 207.7 163.575 207.527C163.985 206.947 163.447 206.107 162.755 206.419C162.439 206.578 162.128 206.675 161.872 206.839C151.321 196.304 133.379 191.001 118.304 193.776C118.184 193.766 118.068 193.696 117.948 193.686C122.615 191.424 127.263 189.406 132.017 187.58C132.017 187.58 132.017 187.58 132.077 187.585C132.137 187.59 132.253 187.66 132.373 187.67C132.925 187.592 133.477 187.513 134.029 187.435C145.278 186.253 157.757 190.137 168.842 189.494C177.794 188.986 189.084 183.515 188.781 172.945C188.786 172.884 188.73 172.818 188.73 172.818C188.856 172.767 188.916 172.772 189.036 172.781C189.839 172.6 189.681 171.545 188.893 171.544C138.831 172.921 89.1133 201.734 56.4124 239.823C59.9376 233.668 63.5278 227.456 67.2189 221.498C76.262 207.018 85.7071 192.815 95.7252 179.026C104.558 169.434 114.614 161.963 125.426 155.657C147.965 151.273 175.38 155.62 195.343 143.304C204.59 137.608 226.813 123.572 222.769 109.758C223.41 109.319 224.047 108.941 224.698 108.38C225.735 107.543 224.592 105.919 223.5 106.69C223.114 106.965 222.733 107.18 222.347 107.455C222.051 107.37 221.75 107.346 221.54 107.697C221.47 107.814 221.34 107.926 221.27 108.043C213.299 112.186 202.229 110.378 193.717 112.209C184.713 114.122 175.881 116.908 167.306 120.267C150.719 126.784 137.318 138.155 126.266 151.984C118.396 156.38 110.894 161.481 104.227 167.506C106.665 164.33 109.042 161.148 111.535 158.037C127.642 137.869 145.89 118.977 165.864 102.737C167.683 101.228 169.557 99.7841 171.486 98.406C188.397 90.8727 206.85 88.3071 223.343 79.9431C242.113 70.4128 252.726 48.4551 263.947 31.7581C264.428 31.0608 264.169 29.7525 263.14 29.7312C221.777 29.2314 194.356 62.7162 172.356 94.3676C169.594 96.2921 166.828 98.2774 164.113 100.389C156.041 106.548 148.397 113.415 141.085 120.676C141.09 120.615 141.155 120.559 141.165 120.437C141.935 119.15 142.645 117.858 143.36 116.505C143.541 116.52 143.726 116.473 143.922 116.305C170.194 90.3312 183.247 44.7786 160.632 13.1022C160.632 13.1022 160.632 13.1022 160.637 13.0413C160.862 12.5075 160.405 12.1641 159.978 12.1912C159.757 11.9282 159.596 11.67 159.374 11.407C158.931 10.8809 158.098 10.6914 157.577 11.1401C145.018 21.8434 140.534 39.9397 136.984 55.4743C134.671 65.4058 133.893 75.0927 135.024 85.1779C135.398 88.8256 136.11 91.2742 137.989 94.3068C143.609 103.588 142.723 109.341 140.257 118.157C139.303 120.226 138.284 122.352 137.274 124.356C130.669 131.122 124.34 138.217 118.193 145.327C122.722 137.229 126.145 127.816 124.518 120.143C126.021 118.792 127.03 116.789 127.322 114.666C127.757 111.512 126.75 107.446 123.856 105.742C119.981 103.408 114.884 106.494 113.648 110.564C113.479 111.163 113.962 111.938 114.654 111.626C115.471 111.262 116.378 110.538 117.345 109.818C117.28 109.874 117.27 109.996 117.265 110.057C116.674 110.623 116.083 111.189 115.543 111.881C113.895 113.527 113.328 116.057 113.94 118.252C114.744 121.076 118.078 121.834 120.572 121.727C121.059 121.705 121.49 121.617 121.861 121.524C121.375 131.357 118.481 141.733 113.652 150.542C113.451 150.772 113.316 150.945 113.116 151.174C103.735 162.316 95.0322 174.065 86.792 186.096C88.9303 179.093 90.1797 171.836 90.9521 164.479C95.9825 148.634 103.123 133.694 103.247 116.29C103.355 103.606 105.659 77.1796 93.6766 68.6146C93.2192 68.2713 92.6624 68.4105 92.3319 68.7519C77.8357 65.0743 73.3138 91.1999 71.4064 100.612C69.7776 108.82 68.7266 117.382 68.8445 125.73C69.1143 144.269 82.1618 160.707 85.6924 178.65C84.9984 182.763 84.1791 186.929 83.2947 191.15C76.9008 200.57 70.7983 210.136 64.7561 219.707C63.5105 221.63 62.3203 223.619 61.0747 225.543C61.5767 220.8 61.4763 216.009 61.0047 211.312C61.1903 211.265 61.3759 211.219 61.4557 210.98C75.5636 177.959 47.2768 136.139 15.9568 126.819C15.4245 126.654 14.9231 126.859 14.6381 127.388C14.4932 127.683 14.3483 127.978 14.1431 128.268C13.8582 128.797 13.5732 129.326 13.2932 129.794C13.1483 130.089 13.3094 130.347 13.6057 130.432C8.41 139.274 14.9416 150.038 19.5005 158.191C24.9106 167.823 28.696 178.06 33.9156 187.799C40.0369 199.143 51.5197 204.112 58.0513 214.876C58.2628 215.261 58.6796 215.356 59.0459 215.324C59.3368 220.007 59.3411 224.484 59.0639 228.692C47.7447 246.608 36.2105 264.935 27.4632 284.038C27.1685 284.689 28.0931 285.254 28.5636 284.678C36.8607 273.449 43.9614 261.265 50.9465 249.011C51.0116 248.955 51.0116 248.955 51.0767 248.899C51.1972 248.908 51.3828 248.862 51.4577 248.684C58.2503 240.338 66.9896 234.172 76.3637 229.161C83.1411 225.536 90.9618 224.017 97.8465 221.32C98.3134 223.81 99.4723 225.988 101.646 226.101C102.264 226.703 102.948 227.248 103.827 227.625C108.403 229.526 112.935 227.437 114.169 222.631C114.184 222.448 114.259 222.27 114.274 222.087C114.269 222.148 114.324 222.214 114.319 222.275C114.511 222.903 115.364 222.849 115.649 222.32C117.497 218.176 114.783 213.482 111.07 211.406C110.612 211.063 110.14 210.902 109.668 210.742C109.316 210.591 108.965 210.44 108.603 210.411C108.307 210.326 108.112 210.494 107.977 210.667C107.364 210.741 106.743 210.936 106.171 211.258C105.981 211.366 105.785 211.534 105.59 211.702C102.396 210.71 99.4331 212.128 98.0604 215.635C97.7461 216.53 97.5783 217.865 97.5863 219.276C85.7576 221.638 74.3861 226.611 64.7659 233.933C77.4553 220.849 91.232 209.323 107.1 199.683C107.677 199.3 108.303 199.044 108.88 198.661C112.154 197.145 115.499 196.249 118.871 195.784C123.393 198.354 124.792 205.088 128.593 208.337C131.825 211.11 135.286 212.553 139.379 213.679C146.022 215.5 156.083 214.774 161.572 209.819C162.155 210.111 162.673 210.459 163.256 210.751C164.048 210.692 164.659 209.883 164.272 209.423ZM167.702 177.262C165.812 178.152 163.927 178.982 161.931 179.68C158.445 180.811 154.577 181.42 150.813 181.486C156.336 179.906 162.024 178.523 167.702 177.262ZM147.709 182.402C156.9 183.446 167.22 181.76 174.494 175.722C178.813 174.781 183.192 173.845 187.571 172.909C184.49 178.057 182.984 182.474 176.952 185.117C170.976 187.826 163.387 187.216 157.053 186.831C154.94 186.722 152.776 186.487 150.608 186.313C162.762 185.94 175.461 184.813 182.111 175.23C182.521 174.65 181.847 173.982 181.271 174.365C172.997 180.017 166.098 182.897 156.023 183.805C150.102 184.31 144.275 184.395 138.451 185.215C141.505 184.172 144.609 183.256 147.709 182.402ZM137.908 148.933C145.729 145.146 153.826 141.688 162.155 138.371C174.866 133.321 187.669 128.646 200.723 124.605C204.019 123.582 207.143 122.422 210.05 120.939C190.11 139.021 163.947 140.968 137.908 148.933ZM142.173 144.125C163.092 132.744 184.944 126.343 207.255 118.753C200.117 122.349 192.468 124.74 184.55 127.476C171.205 132.107 158.038 137.55 144.996 142.941C144.059 143.295 143.116 143.71 142.173 144.125ZM218.614 114.698C219.491 114.339 220.424 114.046 221.302 113.687C219.069 130.922 187.934 144.978 175.122 147.506C163.544 149.765 151.206 148.652 139.456 150.038C168.746 141.598 199.216 140.365 218.614 114.698ZM183.569 117.035C192.577 114.324 200.889 112.723 210.163 112.732C213.134 112.725 215.633 112.558 217.991 111.888C217.209 112.561 216.377 113.108 215.54 113.715C185.996 120.786 155.366 131.572 130.712 149.459C130.712 149.459 130.707 149.52 130.642 149.576C130.071 149.898 129.504 150.159 128.938 150.42C144.139 133.982 161.958 123.455 183.569 117.035ZM257.448 34.1796C258.137 39.2015 247.529 52.0235 245.813 54.5223C237.438 66.7265 227.194 75.7761 213.586 81.4285C202.61 86.0046 190.96 87.6447 180.134 91.8649C180.329 91.6966 180.52 91.5893 180.71 91.482C211.888 80.6791 237.572 61.28 257.188 34.4039C257.318 34.2917 257.383 34.2357 257.448 34.1796ZM191.415 84.2475C202.104 77.1958 212.905 70.2756 223.106 62.5102C232.062 56.6683 240.629 49.6301 248.668 42.3657C240.156 51.7383 231.428 60.7869 221.357 68.4401C212.258 75.3129 201.728 79.6182 191.415 84.2475ZM256.713 32.7716C243.7 42.3347 231.593 53.4422 219.018 63.5924C210.028 69.8608 200.711 75.6736 191.449 81.5523C197.861 75.6901 204.226 69.6403 210.623 63.9608C224.654 51.5362 240.392 42.0078 256.537 32.6961C256.597 32.701 256.657 32.7058 256.713 32.7716ZM253.48 32.2668C253.971 32.1836 254.393 32.2175 254.82 32.1904C228.031 46.4727 202.335 65.2576 180.299 86.7889C200.729 62.6147 219.599 36.7211 253.48 32.2668ZM155.702 62.434C154.979 71.4507 153.201 80.7507 150.646 89.927C153.156 66.2151 151.228 41.9017 158.602 18.7642C161.071 31.0418 156.661 50.4929 155.702 62.434ZM161.31 22.7833C162.997 34.998 164.651 46.1064 163.474 59.2563C162.278 72.6498 157.215 85.1199 150.937 96.8791C154.345 85.38 156.468 73.2871 157.856 62.7908C159.181 53.0865 158.688 43.359 160.199 33.6083C160.849 30.0428 161.508 26.3556 161.31 22.7833ZM145.268 104.824C145.507 99.5704 138.198 88.6825 137.487 84.7012C134 66.2104 141.586 43.4577 149.034 26.9483C148.884 27.3042 154.054 15.7625 158.023 15.4066C151.837 28.277 151.109 42.628 149.789 56.8087C148.296 72.3859 147.47 87.9553 146.218 103.552C145.834 104.563 145.51 105.58 145.126 106.591C145.175 105.982 145.219 105.434 145.268 104.824ZM148.02 106.026C155.625 95.1095 160.236 82.2352 163.576 69.3203C168.18 51.2337 165.048 36.6342 162.006 19.4053C164.247 23.2029 165.861 27.2568 167.341 31.4837C170.95 41.6454 170.286 52.9357 168.486 63.2763C165.606 80.275 156.542 94.2632 147.418 108.247C147.657 107.53 147.836 106.809 148.02 106.026ZM119.483 109.622C119.567 109.322 119.707 109.088 119.782 108.91C119.852 108.793 119.802 108.666 119.812 108.545C120.433 108.349 121.046 108.276 121.573 108.502C122.221 108.738 122.664 109.264 123.036 109.907C122.786 110.01 122.59 110.178 122.505 110.478C122.391 111.143 122.162 111.738 121.867 112.389C121.752 112.318 121.636 112.247 121.516 112.238C120.973 112.194 120.422 112.273 119.829 112.102C119.236 111.932 119.11 111.248 119.224 110.582C119.554 110.241 119.583 109.875 119.483 109.622ZM118.432 115.915C117.76 115.983 117.328 116.071 117.182 115.63C116.929 114.997 117.053 114.21 117.358 113.437C117.413 113.503 117.403 113.625 117.459 113.69C118.043 114.718 119.218 115.18 120.377 115.09C120.237 115.324 120.102 115.497 119.962 115.731C119.475 115.753 118.984 115.836 118.432 115.915ZM101.17 121.764C100.756 132.216 97.3735 141.878 93.8155 151.464C98.5408 126.581 96.6996 98.1664 94.9361 73.3144C102.952 85.9759 101.668 108.008 101.17 121.764ZM93.8537 71.6946C93.8033 85.9159 94.2998 100.12 94.0687 114.327C93.957 123.27 93.0574 132.211 92.3385 141.167C92.3663 140.066 92.3941 138.964 92.4219 137.863C92.6262 115.682 93.2424 93.658 93.8032 71.5679C93.8032 71.5679 93.7983 71.6288 93.8537 71.6946ZM92.5206 70.1773C88.1476 88.4051 89.796 108.649 90.0007 127.244C90.1426 139.826 89.4754 151.913 88.0301 163.876C86.8329 155.38 84.4766 146.974 82.9132 138.51C78.9224 116.483 84.3087 90.9175 92.3708 70.5331C92.4408 70.4161 92.3903 70.2895 92.4001 70.1676C92.4001 70.1676 92.4604 70.1724 92.5206 70.1773ZM71.8425 117.08C72.7099 104.764 75.1765 72.5253 91.0506 70.3659C83.1908 86.7196 80.1885 105.241 80.1311 123.325C80.0495 139.445 85.0097 154.681 86.5235 170.561C82.0439 152.359 70.4338 136.895 71.8425 117.08ZM49.9279 201.286C40.2117 193.945 34.9758 183.653 30.2805 172.669C25.2321 160.797 11.4031 145.033 15.2644 131.669C17.1352 143.101 23.0369 152.65 29.4759 162.303C37.964 175.125 44.116 189.108 51.471 202.452C50.9534 202.104 50.5009 201.7 49.9279 201.286ZM55.765 206.354C50.6025 195.147 44.8833 184.081 38.8335 173.355C31.096 159.49 20.3417 147.712 16.8206 131.916C32.314 156.399 44.4799 180.799 56.3787 207.016C56.2175 206.758 55.9913 206.556 55.765 206.354ZM18.0237 131.277C40.8976 145.377 55.1706 179.02 58.625 208.484C51.1852 181.092 35.4546 153.524 18.0237 131.277ZM50.465 172.695C44.2498 157.235 35.2628 136.279 19.1684 129.1C29.691 130.926 47.3221 152.944 50.5188 157.677C60.9194 173.105 61.5411 189.526 60.7301 207.181C59.009 195.393 54.9047 183.843 50.465 172.695ZM109.119 214.561C109.174 214.626 109.174 214.626 109.119 214.561C109.174 214.626 109.23 214.692 109.34 214.824C109.396 214.89 109.663 215.34 109.718 215.406C109.975 215.978 110.237 216.49 110.369 217.114C110.657 218.057 110.78 219.538 110.632 220.63C110.376 223.062 109.411 224.517 106.891 224.192C106.65 224.173 106.474 224.098 106.298 224.022C106.758 222.833 106.795 221.609 106.963 220.274C107.245 218.273 107.828 216.297 108.994 214.612C109.059 214.556 109.003 214.49 109.008 214.429C109.003 214.49 109.059 214.556 109.119 214.561ZM104.138 213.18C103.457 214.106 103.148 214.94 102.949 215.905C102.168 216.578 101.492 217.443 100.992 218.384C100.932 218.38 100.806 218.431 100.746 218.426C100.72 217.995 100.699 217.503 100.733 217.076C101.04 214.771 102.407 213.593 104.138 213.18ZM127.587 195.196C133.482 199.532 141.246 201.749 148.407 201.65C148.527 201.659 148.592 201.603 148.658 201.547C151.325 203.049 153.863 204.663 156.461 206.282C144.218 204.747 132.683 203.453 122.683 195.109C124.324 195.056 125.955 195.126 127.587 195.196ZM128.951 204.625C127.12 202.516 125.735 200.136 124.26 198.117C133.208 205.212 146.7 210.833 157.648 207.358C157.773 207.307 157.903 207.195 157.913 207.073C158.315 207.35 158.722 207.567 159.124 207.844C148.971 211.996 137.272 214.245 128.951 204.625Z" fill="#F1ECE4"/>
</svg>
