<svg width="37" height="57" viewBox="0 0 37 57" fill="none" xmlns="http://www.w3.org/2000/svg">
<path d="M18.5999 11.4996C16.5208 11.4996 14.5646 12.3095 13.0947 13.7794C10.0599 16.8142 10.0599 21.7518 13.0947 24.7866C14.5663 26.2565 16.5217 27.0664 18.6016 27.0664C20.6798 27.0664 22.6361 26.2565 24.1052 24.7866C27.1399 21.7518 27.1399 16.8142 24.1052 13.7794C22.6361 12.3095 20.6798 11.4996 18.5999 11.4996ZM21.7092 22.3906C20.8798 23.2209 19.775 23.6784 18.6016 23.6784C17.4274 23.6784 16.3226 23.22 15.4915 22.3906C13.7784 20.6767 13.7784 17.8885 15.4915 16.1754C16.3226 15.3443 17.4265 14.8876 18.5999 14.8876C19.775 14.8876 20.8789 15.3443 21.7092 16.1754C23.4215 17.8893 23.4215 20.6775 21.7092 22.3906Z" fill="#CE9D70"/>
<path d="M30.6316 16.4889C30.5722 16.2339 30.5324 16.0483 30.5011 15.906C30.4367 15.6052 30.3969 15.4231 30.291 15.1765C30.1063 14.747 29.6056 14.553 29.1777 14.7334C28.7507 14.9181 28.5508 15.4163 28.7355 15.8467C28.7753 15.9374 28.7906 16.0017 28.8465 16.2618C28.8778 16.4135 28.921 16.61 28.9837 16.8795C29.0769 17.27 29.4251 17.5327 29.8089 17.5327C29.8725 17.5327 29.9385 17.525 30.0029 17.5089C30.4579 17.4005 30.7391 16.9438 30.6316 16.4889Z" fill="#CE9D70"/>
<path d="M28.9897 12.5866C26.9683 9.40018 23.6675 7.28044 19.9329 6.77041C19.4661 6.70856 19.0425 7.03135 18.9781 7.49563C18.9137 7.95906 19.239 8.38606 19.7033 8.4496C22.9414 8.89016 25.8042 10.7295 27.5579 13.4948C27.7189 13.749 27.9942 13.8879 28.2755 13.8879C28.4323 13.8879 28.5856 13.8456 28.7288 13.7566C29.1219 13.5058 29.2397 12.9822 28.9897 12.5866Z" fill="#CE9D70"/>
<path d="M18.5004 0.763611C8.46842 0.763611 0.307129 8.9249 0.307129 18.956C0.307129 25.5017 9.74349 46.2849 12.2784 51.2809C14.4659 55.5933 17.1669 56.2372 18.5834 56.2372C21.037 56.2372 23.2711 54.475 24.8766 51.2742C27.281 46.4797 36.6928 25.4296 36.6928 18.9569C36.6936 8.9249 28.5315 0.763611 18.5004 0.763611ZM21.8469 49.7551C20.8768 51.691 19.656 52.8474 18.5834 52.8474C17.4956 52.8474 16.3001 51.7172 15.3004 49.7466C11.9327 43.1095 3.69602 24.0995 3.69602 18.9569C3.69602 10.7939 10.3374 4.15335 18.5004 4.15335C26.6642 4.15335 33.3047 10.7939 33.3047 18.9569C33.3047 24.1774 24.7927 43.8838 21.8469 49.7551Z" fill="#CE9D70"/>
</svg>
