<svg width="55" height="55" viewBox="0 0 55 55" fill="none" xmlns="http://www.w3.org/2000/svg">
<path d="M16.563 7.03359C16.2461 7.11069 15.9344 7.1988 15.6277 7.29792C15.182 7.44195 14.9372 7.91978 15.0812 8.36458C15.1981 8.7221 15.5294 8.95085 15.8878 8.95085C15.9742 8.95085 16.0614 8.93815 16.1487 8.90934C16.4139 8.82292 16.685 8.74667 16.9595 8.68144C17.4145 8.5713 17.6949 8.1138 17.5848 7.65884C17.4755 7.20473 17.0188 6.92769 16.563 7.03359Z" fill="#CE9D70"/>
<path d="M12.7707 8.62808C8.98365 10.9986 6.72241 15.0771 6.72241 19.5395C6.72241 20.008 7.10197 20.3867 7.56963 20.3867C8.0373 20.3867 8.41686 20.0071 8.4177 19.5395C8.4177 15.6651 10.3807 12.1229 13.6705 10.0641C14.0661 9.81589 14.1864 9.29315 13.9382 8.89665C13.69 8.50015 13.1672 8.379 12.7707 8.62808Z" fill="#CE9D70"/>
<path d="M54.8212 51.4535L54.0892 44.2725C54.0494 43.8836 53.8774 43.521 53.602 43.2465L37.2684 26.912C38.2775 24.5305 38.7901 22.021 38.7901 19.4345C38.7901 8.78657 30.1264 0.123718 19.4785 0.123718C8.83058 0.124565 0.168579 8.78741 0.168579 19.4353C0.168579 30.0823 8.83058 38.7452 19.4776 38.7452C22.1921 38.7452 24.8973 38.1623 27.3737 37.0524L34.2057 43.8836C34.7937 44.4724 35.7214 44.5453 36.3958 44.059L37.0592 43.5803L37.2854 43.7743L36.7787 44.946C36.5042 45.5831 36.6457 46.3244 37.1371 46.8158L40.3625 50.0395C40.6556 50.3352 41.0462 50.5106 41.4597 50.5326L43.6489 50.6631L44.7062 53.7309C44.9451 54.4281 45.5983 54.8746 46.3075 54.8746C46.432 54.8746 46.5582 54.8611 46.6836 54.8306L53.5122 53.2768C54.3467 53.087 54.9093 52.3041 54.8212 51.4535ZM47.4148 51.19L46.4837 48.4874C46.2592 47.8376 45.667 47.3886 44.9816 47.3487L42.3035 47.1886L40.3472 45.2324L40.8937 43.97C41.1894 43.288 41.003 42.4925 40.4387 42.0104L38.2478 40.1406C37.6556 39.6348 36.7898 39.5966 36.156 40.055L35.5825 40.4684L28.9165 33.8017C28.3887 33.2755 27.5796 33.1527 26.9239 33.5034C24.6059 34.7336 22.1006 35.3571 19.4776 35.3571C10.6996 35.3571 3.55747 28.2151 3.55747 19.4361C3.55747 10.6572 10.6996 3.5143 19.4776 3.51515C28.2565 3.51515 35.4003 10.6581 35.4003 19.437C35.4003 21.9024 34.8344 24.2857 33.7194 26.5223C33.3941 27.1738 33.5237 27.9609 34.038 28.476L50.7808 45.218L51.2984 50.3064L47.4148 51.19Z" fill="#CE9D70"/>
</svg>
