<svg width="59" height="57" viewBox="0 0 59 57" fill="none" xmlns="http://www.w3.org/2000/svg">
<path d="M43.6556 56.3878C42.7219 56.3878 41.7942 56.1565 40.9699 55.7142L29.501 49.5405L18.0356 55.7126C16.1768 56.7038 13.8469 56.5699 12.1355 55.3965C10.3775 54.185 9.47014 52.0653 9.82174 49.9938L12.0677 36.5755L2.3755 26.8968C0.886087 25.4142 0.38199 23.2639 1.06146 21.2857C1.73755 19.3252 3.44809 17.9154 5.52717 17.607L18.7116 15.6474L24.438 3.75835C25.3606 1.84701 27.3482 0.61261 29.501 0.61261C31.6555 0.61261 33.6422 1.84786 34.5623 3.75835L40.2904 15.6474L53.4732 17.6079C55.5506 17.9154 57.2628 19.3235 57.9397 21.2831C58.6184 23.2656 58.1151 25.415 56.6274 26.8977L46.9318 36.5755L49.1803 49.9955C49.5285 52.067 48.6211 54.1867 46.8682 55.3948C45.9159 56.0447 44.8061 56.3878 43.6556 56.3878ZM29.501 45.9212C29.7772 45.9212 30.0534 45.989 30.3042 46.1228L42.572 52.7269C43.309 53.1226 44.2588 53.0726 44.951 52.5999C45.6296 52.133 45.971 51.3485 45.838 50.5564L43.4454 36.2739C43.3556 35.7325 43.5319 35.1818 43.9199 34.7946L54.234 24.4983C54.7974 23.9366 54.9897 23.1267 54.7347 22.3845C54.4737 21.6297 53.7993 21.0815 52.9758 20.9595L38.9043 18.8669C38.3494 18.7847 37.8699 18.4322 37.6267 17.9264L31.5089 5.22912C31.1497 4.48272 30.3618 4.0015 29.501 4.0015C28.6402 4.0015 27.8515 4.48357 27.4897 5.22997L21.3753 17.9264C21.1322 18.4322 20.6526 18.7847 20.0977 18.8669L6.02534 20.9595C5.2137 21.0807 4.52406 21.6407 4.26566 22.3888C4.01149 23.1284 4.20466 23.9366 4.76806 24.4975L15.0804 34.7946C15.4685 35.1818 15.6447 35.7325 15.5549 36.2739L13.164 50.5555C13.0302 51.3485 13.3716 52.1305 14.0562 52.6024C14.7373 53.0692 15.6854 53.1251 16.436 52.7253L28.6987 46.1228C28.9486 45.989 29.2248 45.9212 29.501 45.9212Z" fill="#CE9D70"/>
<path d="M10.9331 25.2109C10.5255 25.2109 10.1655 24.9152 10.0977 24.4992C10.0231 24.0375 10.3366 23.602 10.7983 23.5274L11.3609 23.4359C11.8252 23.3563 12.2581 23.6749 12.3327 24.1366C12.4072 24.5983 12.0938 25.0338 11.632 25.1084L11.0695 25.1999C11.0246 25.2075 10.978 25.2109 10.9331 25.2109ZM14.0441 24.7059C13.6459 24.7059 13.2909 24.4246 13.2138 24.0188C13.1248 23.5596 13.4256 23.1148 13.8848 23.0267L23.0543 21.2577L26.5126 13.326C26.7007 12.8982 27.2006 12.7008 27.6276 12.888C28.0571 13.0753 28.2537 13.5743 28.0664 14.003L24.4293 22.3439C24.3175 22.5997 24.087 22.7844 23.8125 22.837L14.205 24.6907C14.1508 24.7017 14.0974 24.7059 14.0441 24.7059Z" fill="#CE9D70"/>
</svg>
