<svg width="47" height="55" viewBox="0 0 47 55" fill="none" xmlns="http://www.w3.org/2000/svg">
<path d="M23.3477 30.4044C16.6716 30.4044 11.2401 35.8359 11.2401 42.512C11.2401 49.189 16.6716 54.6214 23.3477 54.6214C30.0238 54.6214 35.4554 49.189 35.4554 42.512C35.4545 35.8359 30.0238 30.4044 23.3477 30.4044ZM23.3477 51.2325C18.5397 51.2325 14.629 47.3208 14.629 42.512C14.629 37.704 18.5397 33.7932 23.3477 33.7932C28.1557 33.7932 32.0665 37.704 32.0665 42.512C32.0656 47.3208 28.1557 51.2325 23.3477 51.2325Z" fill="#CE9D70"/>
<path d="M23.348 36.0265C21.0478 36.0265 18.8992 37.2609 17.7411 39.2519C17.5055 39.656 17.6419 40.1745 18.0469 40.41C18.1808 40.488 18.3273 40.5252 18.4722 40.5252C18.7645 40.5252 19.0483 40.3736 19.2051 40.1042C20.0616 38.6351 21.6484 37.7209 23.348 37.7209C23.8165 37.7209 24.1952 37.3422 24.1952 36.8737C24.1952 36.4052 23.8165 36.0265 23.348 36.0265Z" fill="#CE9D70"/>
<path d="M18.5577 42.512C18.5577 42.0434 18.179 41.6647 17.7105 41.6647C17.242 41.6647 16.8633 42.0434 16.8633 42.512C16.8633 43.0754 16.9361 43.6371 17.0802 44.1818C17.1801 44.5622 17.5241 44.8122 17.8986 44.8122C17.9706 44.8122 18.0435 44.8028 18.1155 44.7842C18.567 44.6648 18.8382 44.2013 18.7178 43.7481C18.6111 43.3448 18.5577 42.9288 18.5577 42.512Z" fill="#CE9D70"/>
<path d="M13.9673 27.2349C16.7809 25.504 20.0241 24.589 23.3469 24.589C26.7104 24.589 29.9866 25.5244 32.8231 27.2959C33.1026 27.4704 33.4136 27.5535 33.7194 27.5535C34.2854 27.5535 34.8378 27.2705 35.1589 26.7571C35.6536 25.9624 35.4122 24.9177 34.6183 24.4221C31.2421 22.3134 27.3449 21.2001 23.3469 21.2001C19.3971 21.2001 15.5397 22.2888 12.1915 24.3493C11.3943 24.839 11.146 25.8836 11.6366 26.68C12.1263 27.4764 13.1717 27.7254 13.9673 27.2349Z" fill="#CE9D70"/>
<path d="M40.2729 15.6754C35.2133 12.478 29.3615 10.7886 23.3488 10.7886C17.5741 10.7886 11.9223 12.356 7.00076 15.3213C6.19844 15.8042 5.94089 16.8454 6.4238 17.6469C6.90587 18.4484 7.94711 18.7042 8.74943 18.2239C13.1423 15.5771 18.19 14.1784 23.3479 14.1784C28.7185 14.1784 33.945 15.6864 38.4615 18.5399C38.7428 18.7178 39.0554 18.8025 39.3647 18.8025C39.9255 18.8025 40.4762 18.5238 40.799 18.0129C41.3014 17.2216 41.0642 16.1753 40.2729 15.6754Z" fill="#CE9D70"/>
<path d="M45.236 6.50415C38.6582 2.49763 31.09 0.379578 23.3464 0.379578C15.7349 0.379578 8.27513 2.4324 1.77524 6.31522C0.972074 6.79474 0.710283 7.83513 1.18981 8.6383C1.66849 9.44062 2.70973 9.70411 3.51289 9.22373C9.48835 5.65523 16.3458 3.76847 23.3464 3.76847C30.4681 3.76847 37.4281 5.71538 43.4738 9.39911C43.7483 9.56686 44.0533 9.64649 44.3524 9.64649C44.9251 9.64649 45.4826 9.35759 45.802 8.83231C46.2883 8.03423 46.0358 6.99045 45.236 6.50415Z" fill="#CE9D70"/>
</svg>
