<svg width="26" height="26" viewBox="0 0 26 26" fill="none" xmlns="http://www.w3.org/2000/svg">
<path d="M25.312 9.38263C25.4228 7.5571 25.2451 5.87212 24.5206 4.55384C24.3848 4.30033 24.2249 4.06055 24.043 3.83783C22.8311 2.27945 21.4663 1.56283 20.0116 1.69252C20.0073 1.69293 20.0031 1.69313 19.9989 1.69354C19.9861 1.6947 19.9735 1.69633 19.9605 1.69765C19.0501 1.79099 18.1049 2.21491 17.1401 2.97094C17.1258 2.98211 17.1115 2.99303 17.0972 3.0044C17.096 3.00532 17.0948 3.00633 17.0936 3.00725C16.3848 3.54223 15.8393 4.31065 15.4217 5.22248C14.69 6.81701 14.3494 8.84826 14.2038 10.837C14.0987 12.2665 14.0945 13.6736 14.1194 14.8792C14.1185 15.2383 14.1178 15.5933 14.1152 15.9447C14.106 17.1709 14.0735 18.3501 13.9347 19.5065C13.6791 21.6367 13.9214 23.082 14.6971 24.0548C15.8519 25.398 17.4545 25.5007 18.9733 25.5792C21.7059 25.5704 22.8386 23.7801 23.2119 20.6197C23.3863 19.2263 23.8088 17.5077 24.232 15.6805C24.7104 13.8296 25.205 11.541 25.312 9.38263ZM22.0026 20.4682L22.0016 20.4765C21.832 21.9122 21.5121 22.9085 21.0236 23.5223C20.7175 23.907 20.2111 24.3486 19.0012 24.3602C17.4703 24.28 16.4041 24.156 15.6365 23.2779C15.0961 22.5841 14.9353 21.3975 15.1448 19.6517C15.3304 18.1042 15.3348 16.5555 15.3381 14.9173C16.3184 14.1234 17.788 13.2003 19.3719 13.4077C21.1836 13.6449 22.3129 14.715 22.9885 15.6475C22.9544 15.7942 22.9205 15.9398 22.8869 16.0842C22.5146 17.6794 22.1631 19.1861 22.0026 20.4683V20.4682Z" fill="url(#paint0_linear)"/>
<path d="M12.6065 18.0827C12.3776 16.6972 12.2941 14.9292 12.1803 13.0571C12.1128 11.1467 11.9363 8.8118 11.4253 6.7122C11.0125 4.93059 10.3632 3.36571 9.29391 2.30779C9.09164 2.10328 8.87007 1.91883 8.63228 1.75701C8.61385 1.74381 8.59546 1.73111 8.57703 1.71811C6.99448 0.602348 5.50294 0.315282 4.1618 0.844676C4.15637 0.846809 4.15094 0.848739 4.1455 0.850922C4.13479 0.855188 4.12417 0.85986 4.11356 0.864227C3.25328 1.21705 2.45545 1.90727 1.73619 2.93245C1.20699 3.6475 0.901952 4.54079 0.760323 5.5357C0.512409 7.27135 0.76276 9.31382 1.1881 11.261C1.49391 12.6625 1.89031 14.0141 2.25715 15.1638C2.35841 15.5083 2.45804 15.8492 2.55605 16.1866C2.89583 17.3647 3.19985 18.5046 3.39562 19.6527C3.75616 21.7677 4.39931 23.0844 5.4195 23.7965C6.90851 24.7558 8.47404 24.3987 9.95269 24.0422C12.5701 23.2573 13.147 21.2188 12.6065 18.0827ZM11.3337 21.4877C11.1496 21.9436 10.7897 22.511 9.63297 22.8659C8.14249 23.2243 7.08497 23.4085 6.09936 22.7847C5.38411 22.2731 4.8926 21.1812 4.5971 19.4479C4.33512 17.9114 3.89901 16.4255 3.43644 14.8539C4.15058 13.8141 5.29712 12.5113 6.87459 12.2598C8.6791 11.9722 10.0659 12.6771 10.9788 13.3791C10.9878 13.5294 10.9967 13.6787 11.0054 13.8269C11.1019 15.462 11.1933 17.0062 11.4041 18.2812L11.4055 18.2895C11.651 19.7143 11.6276 20.7604 11.3337 21.4877Z" fill="url(#paint1_linear)"/>
<defs>
<linearGradient id="paint0_linear" x1="12.6687" y1="-24.358" x2="29.5646" y2="-23.4287" gradientUnits="userSpaceOnUse">
<stop stop-color="#C79081"/>
<stop offset="1" stop-color="#DFA579"/>
</linearGradient>
<linearGradient id="paint1_linear" x1="-0.569387" y1="-25.3657" x2="17.236" y2="-24.33" gradientUnits="userSpaceOnUse">
<stop stop-color="#C79081"/>
<stop offset="1" stop-color="#DFA579"/>
</linearGradient>
</defs>
</svg>
