<svg width="26" height="26" viewBox="0 0 26 26" fill="none" xmlns="http://www.w3.org/2000/svg">
<path d="M6.5 7.32202C6.97678 7.32202 7.36328 6.93552 7.36328 6.45874C7.36328 5.98196 6.97678 5.59546 6.5 5.59546C6.02322 5.59546 5.63672 5.98196 5.63672 6.45874C5.63672 6.93552 6.02322 7.32202 6.5 7.32202Z" fill="url(#paint0_linear)"/>
<path d="M24.9997 0.860257L21.0742 2.15523V10.762L24.9997 12.057C25.4919 12.2193 26 11.8525 26 11.3336V1.58364C26 1.06546 25.4923 0.697757 24.9997 0.860257Z" fill="url(#paint1_linear)"/>
<path d="M6.56617 12.8241C7.29361 12.8143 6.48984 12.9217 19.5508 10.6166V2.30081L7.59977 0.191714C3.68113 -0.499622 0 2.48799 0 6.45873C0 10.0344 3.00452 12.8773 6.56617 12.8241ZM4.11328 6.45873C4.11328 5.14268 5.18395 4.07201 6.5 4.07201C7.81605 4.07201 8.88672 5.14268 8.88672 6.45873C8.88672 7.77478 7.81605 8.84545 6.5 8.84545C5.18395 8.84545 4.11328 7.77478 4.11328 6.45873Z" fill="url(#paint2_linear)"/>
<path d="M20.1094 15.8533C18.6913 15.8533 17.5196 16.999 17.5196 18.4431V21.033C17.5196 22.8675 16.0501 24.371 14.2441 24.3845C12.5481 24.393 11.1987 23.1527 10.9576 21.5958C12.0957 21.0757 12.7486 19.855 12.5341 18.611L11.6624 13.5558C9.86042 13.8738 8.114 14.1874 6.20752 14.5046L7.08588 19.5546C7.29373 20.7493 8.24852 21.664 9.45041 21.8216C9.79786 24.1004 11.7827 25.928 14.2554 25.908C16.8953 25.8882 19.043 23.7013 19.043 21.033V18.4431C19.043 17.8481 19.5253 17.3767 20.1094 17.3767C20.6974 17.3767 21.1758 17.8551 21.1758 18.4431V25.1463C21.1758 25.5669 21.5168 25.908 21.9375 25.908C22.3582 25.908 22.6992 25.5669 22.6992 25.1463V18.4431C22.6992 17.0151 21.5375 15.8533 20.1094 15.8533Z" fill="url(#paint3_linear)"/>
<defs>
<linearGradient id="paint0_linear" x1="5.46142" y1="3.71474" x2="7.9718" y2="4.00159" gradientUnits="userSpaceOnUse">
<stop stop-color="#C79081"/>
<stop offset="1" stop-color="#DFA579"/>
</linearGradient>
<linearGradient id="paint1_linear" x1="20.5741" y1="-11.4597" x2="27.8115" y2="-11.0983" gradientUnits="userSpaceOnUse">
<stop stop-color="#C79081"/>
<stop offset="1" stop-color="#DFA579"/>
</linearGradient>
<linearGradient id="paint2_linear" x1="-1.98504" y1="-13.7779" x2="25.9525" y2="-8.8763" gradientUnits="userSpaceOnUse">
<stop stop-color="#C79081"/>
<stop offset="1" stop-color="#DFA579"/>
</linearGradient>
<linearGradient id="paint3_linear" x1="4.53307" y1="0.100548" x2="28.2722" y2="3.72208" gradientUnits="userSpaceOnUse">
<stop stop-color="#C79081"/>
<stop offset="1" stop-color="#DFA579"/>
</linearGradient>
</defs>
</svg>
