<svg width="26" height="26" viewBox="0 0 26 26" fill="none" xmlns="http://www.w3.org/2000/svg">
<g clip-path="url(#clip0)">
<path d="M25.3752 1.04431H0.624812C0.279754 1.04431 0 1.32396 0 1.66902V17.2728C0 17.6178 0.279754 17.8975 0.624812 17.8975H25.3752C25.7203 17.8975 26 17.6178 26 17.2728V1.66902C26 1.32407 25.7202 1.04431 25.3752 1.04431Z" fill="url(#paint0_linear)"/>
<path d="M17.2855 22.7949H16.2052H14.7647V19.9861H11.1636V22.7949H9.72314H8.64282C8.04619 22.7949 7.5625 23.2786 7.5625 23.8753C7.5625 24.4719 8.04619 24.9556 8.64282 24.9556H17.2855C17.8821 24.9556 18.3658 24.4719 18.3658 23.8753C18.3658 23.2787 17.8821 22.7949 17.2855 22.7949Z" fill="url(#paint1_linear)"/>
</g>
<defs>
<linearGradient id="paint0_linear" x1="-2.63985" y1="-17.3136" x2="34.503" y2="-10.7661" gradientUnits="userSpaceOnUse">
<stop stop-color="#C79081"/>
<stop offset="1" stop-color="#DFA579"/>
</linearGradient>
<linearGradient id="paint1_linear" x1="6.46561" y1="14.5729" x2="21.4536" y2="18.2959" gradientUnits="userSpaceOnUse">
<stop stop-color="#C79081"/>
<stop offset="1" stop-color="#DFA579"/>
</linearGradient>
<clipPath id="clip0">
<rect width="26" height="26" fill="white"/>
</clipPath>
</defs>
</svg>
