<svg width="26" height="26" viewBox="0 0 26 26" fill="none" xmlns="http://www.w3.org/2000/svg">
<g clip-path="url(#clip0)">
<path d="M20.7822 14.5828C20.4246 14.5828 20.0723 14.446 19.7989 14.1726C16.0444 10.4234 9.9447 10.4234 6.19022 14.1726C5.64861 14.7142 4.7652 14.7142 4.22359 14.1726C3.68198 13.631 3.68198 12.7476 4.22359 12.206C9.06129 7.36827 16.9278 7.36827 21.7655 12.206C22.3071 12.7476 22.3071 13.631 21.7655 14.1726C21.4921 14.446 21.1345 14.5828 20.7822 14.5828Z" fill="url(#paint0_linear)"/>
<path d="M17.0173 18.3425C16.6598 18.3425 16.3075 18.2058 16.034 17.9323C15.2242 17.1226 14.141 16.6756 12.9947 16.6756C11.8484 16.6756 10.7651 17.1226 9.95536 17.9323C9.41375 18.474 8.53034 18.474 7.98873 17.9323C7.44712 17.3907 7.44712 16.5073 7.98873 15.9657C9.32435 14.6301 11.1017 13.8939 12.9947 13.8939C14.8877 13.8939 16.665 14.6301 18.0007 15.971C18.5423 16.5126 18.5423 17.396 18.0007 17.9376C17.7325 18.2058 17.3749 18.3425 17.0173 18.3425Z" fill="url(#paint1_linear)"/>
<path d="M12.9949 22.8331C14.02 22.8331 14.8511 22.0021 14.8511 20.9769C14.8511 19.9518 14.02 19.1207 12.9949 19.1207C11.9697 19.1207 11.1387 19.9518 11.1387 20.9769C11.1387 22.0021 11.9697 22.8331 12.9949 22.8331Z" fill="url(#paint2_linear)"/>
<path d="M24.6052 10.76C24.2476 10.76 23.8953 10.6232 23.6219 10.3498C17.7588 4.49198 8.23066 4.49198 2.37284 10.3498C1.83123 10.8914 0.947821 10.8914 0.406209 10.3498C-0.135403 9.80819 -0.135403 8.92478 0.406209 8.38317C3.77156 5.01782 8.24118 3.16687 13 3.16687C17.7588 3.16687 22.2284 5.01782 25.5938 8.38317C26.1354 8.92478 26.1354 9.80819 25.5938 10.3498C25.3151 10.6232 24.9575 10.76 24.6052 10.76Z" fill="url(#paint3_linear)"/>
</g>
<defs>
<linearGradient id="paint0_linear" x1="1.95382" y1="2.03648" x2="26.0499" y2="10.452" gradientUnits="userSpaceOnUse">
<stop stop-color="#C79081"/>
<stop offset="1" stop-color="#DFA579"/>
</linearGradient>
<linearGradient id="paint1_linear" x1="6.4835" y1="9.04815" x2="21.2833" y2="13.1629" gradientUnits="userSpaceOnUse">
<stop stop-color="#C79081"/>
<stop offset="1" stop-color="#DFA579"/>
</linearGradient>
<linearGradient id="paint2_linear" x1="10.7617" y1="15.0769" x2="16.1595" y2="15.6936" gradientUnits="userSpaceOnUse">
<stop stop-color="#C79081"/>
<stop offset="1" stop-color="#DFA579"/>
</linearGradient>
<linearGradient id="paint3_linear" x1="-2.63985" y1="-5.10417" x2="30.5727" y2="7.89063" gradientUnits="userSpaceOnUse">
<stop stop-color="#C79081"/>
<stop offset="1" stop-color="#DFA579"/>
</linearGradient>
<clipPath id="clip0">
<rect width="26" height="26" fill="white"/>
</clipPath>
</defs>
</svg>
