<svg width="28" height="28" viewBox="0 0 28 28" fill="none" xmlns="http://www.w3.org/2000/svg">
<path d="M25.0701 20.8185C24.5854 20.4579 23.9003 20.5586 23.5398 21.0432C23.3415 21.3097 23.1293 21.5712 22.9091 21.8203C22.509 22.2728 22.5515 22.9641 23.0041 23.3642C23.2122 23.5482 23.4706 23.6385 23.7281 23.6385C24.0306 23.6385 24.3318 23.5137 24.5479 23.2692C24.8087 22.9742 25.06 22.6645 25.2948 22.3488C25.6554 21.8642 25.5548 21.179 25.0701 20.8185Z" fill="white"/>
<path d="M26.8974 15.689C26.3076 15.5606 25.7245 15.9349 25.5961 16.5251C25.5254 16.8498 25.44 17.1751 25.342 17.492C25.1637 18.0692 25.487 18.6816 26.0641 18.8599C26.1717 18.8931 26.2804 18.9089 26.3874 18.9089C26.8544 18.9089 27.2869 18.6074 27.432 18.1377C27.5483 17.7616 27.6497 17.3755 27.7335 16.9904C27.862 16.4002 27.4877 15.8176 26.8974 15.689Z" fill="white"/>
<path d="M19.805 24.3214C19.5146 24.4835 19.214 24.635 18.9114 24.7716C18.3609 25.0202 18.1162 25.6681 18.3648 26.2186C18.5474 26.6231 18.9455 26.8624 19.3622 26.8624C19.5127 26.8624 19.6657 26.8312 19.8118 26.7652C20.1707 26.6032 20.5271 26.4235 20.8714 26.2313C21.3989 25.9368 21.5877 25.2705 21.2932 24.7431C20.9988 24.2158 20.3325 24.0269 19.805 24.3214Z" fill="white"/>
<path d="M12.9072 5.25V13.547L8.8965 17.5576C8.46939 17.9848 8.46939 18.6773 8.8965 19.1044C9.11011 19.318 9.38995 19.4248 9.66995 19.4248C9.94984 19.4248 10.2298 19.318 10.4434 19.1044L14.7744 14.7734C14.9795 14.5683 15.0947 14.2901 15.0947 14V5.25C15.0947 4.64592 14.6051 4.15625 14.001 4.15625C13.3969 4.15625 12.9072 4.64592 12.9072 5.25Z" fill="white"/>
<path d="M26.9062 2.35156C26.3022 2.35156 25.8125 2.84123 25.8125 3.44531V6.48244C23.2667 2.48981 18.8208 0 14 0C10.2605 0 6.74477 1.45627 4.10047 4.10047C1.45627 6.74477 0 10.2605 0 14C0 17.7395 1.45627 21.2552 4.10047 23.8995C6.74477 26.5437 10.2605 28 14 28C14.0092 28 14.0182 27.9989 14.0273 27.9986C14.0365 27.9989 14.0454 28 14.0547 28C14.4489 28 14.8469 27.9834 15.238 27.9507C15.8399 27.9002 16.287 27.3714 16.2367 26.7695C16.1862 26.1675 15.6581 25.7202 15.0554 25.7708C14.7249 25.7984 14.3882 25.8125 14.0547 25.8125C14.0454 25.8125 14.0365 25.8136 14.0273 25.8139C14.0182 25.8136 14.0092 25.8125 14 25.8125C7.48655 25.8125 2.1875 20.5134 2.1875 14C2.1875 7.48655 7.48655 2.1875 14 2.1875C18.1977 2.1875 22.0586 4.42493 24.1684 7.98438H21.1609C20.5569 7.98438 20.0672 8.47405 20.0672 9.07812C20.0672 9.6822 20.5569 10.1719 21.1609 10.1719H24.5C25.1661 10.1719 25.7893 9.98468 26.3198 9.66038C26.354 9.64091 26.3868 9.61997 26.4181 9.59738C27.3699 8.97116 28 7.89398 28 6.67188V3.44531C28 2.84123 27.5103 2.35156 26.9062 2.35156Z" fill="white"/>
</svg>
