<svg width="30" height="30" viewBox="0 0 30 30" fill="none" xmlns="http://www.w3.org/2000/svg">
<path d="M26.1256 5.21535L25.9602 2.42176C25.9307 1.96108 25.5468 1.60671 25.0802 1.63624C24.6196 1.66577 24.2711 2.05558 24.2947 2.51625L24.342 3.33721C21.9323 1.53584 19.0087 0.55542 15.9375 0.55542C12.1813 0.55542 8.64939 2.02014 5.99753 4.67199C5.6727 4.99683 5.6727 5.52247 5.99753 5.85322C6.4464 6.30208 7.01339 6.01859 7.17876 5.85322C9.51759 3.51439 12.6301 2.22095 15.9435 2.22095C18.5776 2.22095 21.0818 3.03599 23.1726 4.54796L22.452 4.59521C21.9913 4.62474 21.6429 5.01455 21.6665 5.47522C21.6901 5.91818 22.0622 6.26074 22.4993 6.26074C22.517 6.26074 25.3401 6.09537 25.3401 6.09537C25.8008 6.06584 26.1492 5.67603 26.1256 5.21535Z" fill="white"/>
<path d="M12.73 26.5838C6.78843 24.995 3.02032 19.3192 3.61093 13.3895L4.00664 13.986C4.16611 14.2281 4.67403 14.5175 5.15834 14.2222C5.54814 13.9801 5.64854 13.4544 5.39458 13.0705L3.85899 10.7317C3.73496 10.5486 3.54596 10.4187 3.33334 10.3714C3.11482 10.3301 2.89038 10.3714 2.70729 10.4896L0.374372 12.0251C-0.00952592 12.2791 -0.115836 12.7929 0.138127 13.1768C0.392091 13.5607 0.905924 13.6671 1.28982 13.4131L1.98084 12.9583C1.1717 19.7858 5.47727 26.3652 12.2988 28.1902C12.3697 28.2079 13.108 28.2965 13.3206 27.5996C13.4564 27.1626 13.1789 26.7019 12.73 26.5838Z" fill="white"/>
<path d="M29.521 10.9739C29.4029 10.5309 28.9422 10.2652 28.4992 10.3833C28.0563 10.5014 27.7905 10.9621 27.9086 11.405C29.4974 17.3466 26.4734 23.4536 21.0398 25.9046L21.3587 25.2608C21.5654 24.8474 21.4001 24.3513 20.9866 24.1446C20.5732 23.9379 20.0712 24.1032 19.8704 24.5167L18.6183 27.0149C18.4116 27.4284 18.5769 27.9245 18.9904 28.1312L21.4887 29.3833C21.6068 29.4424 22.2742 29.59 22.6049 29.0112C22.8353 28.6096 22.6463 28.1017 22.2328 27.895L21.4828 27.517C27.8023 24.812 31.346 17.8014 29.521 10.9739Z" fill="white"/>
<path d="M12.0938 17.6065L13.5939 16.0413C14.1786 15.433 15.1236 14.5707 15.1236 13.3127C15.1236 12.5272 14.5212 10.7731 12.4245 10.7731C10.8299 10.7731 9.76676 12.0015 9.37695 12.604L10.8594 13.484C11.326 12.7398 11.8221 12.3677 12.3418 12.3677C13.3518 12.3677 13.3164 13.0646 13.3164 13.3422C13.3164 14.0746 12.4422 14.8955 11.952 15.3976L9.5187 17.89V19.2661H15.3717V17.6065H12.0938Z" fill="white"/>
<path d="M21.56 15.6752V14.2282H19.7823V15.6752H18.607L21.4183 10.9621H19.4043L16.4453 15.8642V17.2757H19.7823V19.2602H21.56V17.2757H22.4991V15.6752H21.56Z" fill="white"/>
<path d="M24.5178 9.89302C24.2343 9.89302 23.9804 10.0052 23.7559 10.2356V8.9126H23.0059V12.6216H23.7559V11.1687C23.7559 10.9561 23.8091 10.5309 24.317 10.5309C24.6182 10.5309 24.7718 10.7376 24.7718 11.151V12.6216H25.5219V10.9916C25.5219 10.46 25.1911 9.89302 24.5178 9.89302Z" fill="white"/>
</svg>
