<svg width="30" height="30" viewBox="0 0 30 30" fill="none" xmlns="http://www.w3.org/2000/svg">
<path d="M8.47965 11.7391H5.87094C5.51094 11.7391 5.21875 12.0313 5.21875 12.3913V17.6087C5.21875 17.9687 5.51094 18.2609 5.87094 18.2609C6.23094 18.2609 6.52313 17.9687 6.52313 17.6087V13.0435H8.47965C8.83965 13.0435 9.13184 12.7513 9.13184 12.3913C9.13184 12.0313 8.83965 11.7391 8.47965 11.7391Z" fill="white"/>
<path d="M7.17527 14.3478H5.87094C5.51094 14.3478 5.21875 14.64 5.21875 15C5.21875 15.36 5.51094 15.6522 5.87094 15.6522H7.17527C7.53527 15.6522 7.82746 15.36 7.82746 15C7.82746 14.64 7.53527 14.3478 7.17527 14.3478Z" fill="white"/>
<path d="M15 0C6.72915 0 0 6.72915 0 15C0 23.2708 6.72915 29.9999 15 29.9999C23.2708 29.9999 29.9999 23.2708 29.9999 15C29.9999 6.72915 23.2709 0 15 0ZM15 28.6956C7.4478 28.6956 1.30433 22.5521 1.30433 15C1.30433 7.4478 7.4478 1.30433 15 1.30433C22.5521 1.30433 28.6956 7.4478 28.6956 15C28.6956 22.5521 22.5521 28.6956 15 28.6956Z" fill="white"/>
<path d="M23.646 8.06995C21.5264 5.42865 18.3751 3.91302 14.9994 3.91302C11.6238 3.91302 8.47248 5.42865 6.3529 8.06995C6.12723 8.35041 6.17162 8.76128 6.45336 8.98689C6.73381 9.21256 7.14468 9.16817 7.36901 8.88643C9.24072 6.55426 12.0216 5.21729 14.9994 5.21729C17.9773 5.21729 20.7581 6.55426 22.6286 8.88643C22.7577 9.04687 22.9468 9.13033 23.1373 9.13033C23.2821 9.13033 23.4256 9.08337 23.5455 8.98683C23.8273 8.76128 23.8716 8.35041 23.646 8.06995Z" fill="white"/>
<path d="M23.014 21.7004C22.7558 21.4539 22.341 21.4644 22.0932 21.7252C20.2214 23.6961 17.7027 24.7826 15.0001 24.7826C12.2975 24.7826 9.77882 23.696 7.90839 21.7252C7.66187 21.4617 7.24709 21.4539 6.98754 21.7004C6.72408 21.9482 6.71491 22.3617 6.96278 22.6226C9.08236 24.857 11.9363 26.0869 15.0002 26.0869C18.0641 26.0869 20.918 24.857 23.0388 22.6226C23.2866 22.3617 23.2762 21.9482 23.014 21.7004Z" fill="white"/>
<path d="M12.6451 15.6352C13.6051 15.5113 14.3486 14.6883 14.3486 13.6957C14.3486 12.6169 13.4708 11.7391 12.3921 11.7391H11.0877C10.7277 11.7391 10.4355 12.0313 10.4355 12.3913V14.9948C10.4355 14.9974 10.4355 15.0013 10.4355 15.0039V17.6087C10.4355 17.9687 10.7277 18.2609 11.0877 18.2609C11.4477 18.2609 11.7399 17.9687 11.7399 17.6087V16.5744L13.2347 18.0704C13.3626 18.1969 13.5295 18.2609 13.6965 18.2609C13.8634 18.2609 14.0303 18.197 14.1569 18.0692C14.4113 17.8148 14.4113 17.4013 14.1569 17.147L12.6451 15.6352ZM11.7399 14.3479V13.0435H12.3921C12.7508 13.0435 13.0443 13.3357 13.0443 13.6957C13.0443 14.0557 12.7508 14.3479 12.3921 14.3479H11.7399V14.3479Z" fill="white"/>
<path d="M18.9152 16.9565H16.9587V13.0435H18.9152C19.2752 13.0435 19.5674 12.7513 19.5674 12.3913C19.5674 12.0313 19.2752 11.7391 18.9152 11.7391H16.3065C15.9465 11.7391 15.6543 12.0313 15.6543 12.3913V17.6087C15.6543 17.9687 15.9465 18.2609 16.3065 18.2609H18.9152C19.2752 18.2609 19.5674 17.9687 19.5674 17.6087C19.5674 17.2487 19.2752 16.9565 18.9152 16.9565Z" fill="white"/>
<path d="M17.6089 14.3478H16.3045C15.9445 14.3478 15.6523 14.64 15.6523 15C15.6523 15.36 15.9445 15.6522 16.3045 15.6522H17.6089C17.9688 15.6522 18.261 15.36 18.261 15C18.261 14.64 17.9688 14.3478 17.6089 14.3478Z" fill="white"/>
<path d="M24.132 16.9565H22.1755V13.0435H24.132C24.492 13.0435 24.7842 12.7513 24.7842 12.3913C24.7842 12.0313 24.492 11.7391 24.132 11.7391H21.5233C21.1633 11.7391 20.8711 12.0313 20.8711 12.3913V17.6087C20.8711 17.9687 21.1633 18.2609 21.5233 18.2609H24.132C24.492 18.2609 24.7842 17.9687 24.7842 17.6087C24.7842 17.2487 24.492 16.9565 24.132 16.9565Z" fill="white"/>
<path d="M22.8276 14.3478H21.5233C21.1633 14.3478 20.8711 14.64 20.8711 15C20.8711 15.36 21.1633 15.6522 21.5233 15.6522H22.8276C23.1876 15.6522 23.4798 15.36 23.4798 15C23.4798 14.64 23.1876 14.3478 22.8276 14.3478Z" fill="white"/>
</svg>
