<svg width="88" height="88" viewBox="0 0 88 88" fill="none" xmlns="http://www.w3.org/2000/svg">
<path d="M85.25 78.375H83.875V74.25C83.875 73.8853 83.7301 73.5356 83.4723 73.2777C83.2144 73.0199 82.8647 72.875 82.5 72.875H81.125V68.75C81.125 68.3853 80.9801 68.0356 80.7223 67.7777C80.4644 67.5199 80.1147 67.375 79.75 67.375H78.375V42.625H79.75C80.1147 42.625 80.4644 42.4801 80.7223 42.2223C80.9801 41.9644 81.125 41.6147 81.125 41.25V37.125H82.5C82.8647 37.125 83.2144 36.9801 83.4723 36.7223C83.7301 36.4644 83.875 36.1147 83.875 35.75V22C83.875 21.6353 83.7301 21.2856 83.4723 21.0277C83.2144 20.7699 82.8647 20.625 82.5 20.625H80.4856L75.3981 12.9869C75.2721 12.798 75.1013 12.6433 74.901 12.5365C74.7007 12.4298 74.477 12.3743 74.25 12.375H57.475C56.8438 9.2667 55.1575 6.47219 52.7017 4.46495C50.2459 2.45772 47.1717 1.36121 44 1.36121C40.8283 1.36121 37.7541 2.45772 35.2983 4.46495C32.8425 6.47219 31.1562 9.2667 30.525 12.375H13.75C13.5237 12.375 13.3009 12.4308 13.1013 12.5375C12.9017 12.6443 12.7316 12.7986 12.606 12.9869L7.51438 20.625H5.5C5.13533 20.625 4.78559 20.7699 4.52773 21.0277C4.26987 21.2856 4.125 21.6353 4.125 22V35.75C4.125 36.1147 4.26987 36.4644 4.52773 36.7223C4.78559 36.9801 5.13533 37.125 5.5 37.125H6.875V41.25C6.875 41.6147 7.01987 41.9644 7.27773 42.2223C7.53559 42.4801 7.88533 42.625 8.25 42.625H9.625V67.375H8.25C7.88533 67.375 7.53559 67.5199 7.27773 67.7777C7.01987 68.0356 6.875 68.3853 6.875 68.75V72.875H5.5C5.13533 72.875 4.78559 73.0199 4.52773 73.2777C4.26987 73.5356 4.125 73.8853 4.125 74.25V78.375H2.75C2.38533 78.375 2.03559 78.5199 1.77773 78.7777C1.51987 79.0356 1.375 79.3853 1.375 79.75V85.25C1.375 85.6147 1.51987 85.9644 1.77773 86.2223C2.03559 86.4801 2.38533 86.625 2.75 86.625H85.25C85.6147 86.625 85.9644 86.4801 86.2223 86.2223C86.4801 85.9644 86.625 85.6147 86.625 85.25V79.75C86.625 79.3853 86.4801 79.0356 86.2223 78.7777C85.9644 78.5199 85.6147 78.375 85.25 78.375ZM67.375 72.875V70.125H78.375V72.875H67.375ZM34.375 72.875V56.375H42.625V72.875H34.375ZM45.375 56.375H53.625V72.875H45.375V56.375ZM55 53.625H33C32.6353 53.625 32.2856 53.7699 32.0277 54.0277C31.7699 54.2856 31.625 54.6353 31.625 55V72.875H23.375V68.75C23.375 68.3853 23.2301 68.0356 22.9723 67.7777C22.7144 67.5199 22.3647 67.375 22 67.375H20.625V42.625H22C22.3647 42.625 22.7144 42.4801 22.9723 42.2223C23.2301 41.9644 23.375 41.6147 23.375 41.25V37.125H64.625V41.25C64.625 41.6147 64.7699 41.9644 65.0277 42.2223C65.2856 42.4801 65.6353 42.625 66 42.625H67.375V67.375H66C65.6353 67.375 65.2856 67.5199 65.0277 67.7777C64.7699 68.0356 64.625 68.3853 64.625 68.75V72.875H56.375V55C56.375 54.6353 56.2301 54.2856 55.9723 54.0277C55.7144 53.7699 55.3647 53.625 55 53.625ZM75.625 67.375H70.125V42.625H75.625V67.375ZM78.375 39.875H67.375V37.125H78.375V39.875ZM73.5144 15.125L77.1815 20.625H56.5936C57.3564 18.8917 57.7502 17.0187 57.75 15.125H73.5144ZM44 4.12499C46.1756 4.12499 48.3023 4.77013 50.1113 5.97883C51.9202 7.18752 53.3301 8.90549 54.1627 10.9155C54.9952 12.9255 55.2131 15.1372 54.7886 17.271C54.3642 19.4048 53.3166 21.3648 51.7782 22.9032C50.2398 24.4415 48.2798 25.4892 46.146 25.9136C44.0122 26.3381 41.8005 26.1202 39.7905 25.2877C37.7805 24.4551 36.0625 23.0452 34.8538 21.2363C33.6451 19.4273 33 17.3006 33 15.125C33.0033 12.2086 34.1633 9.41262 36.2254 7.35043C38.2876 5.28824 41.0836 4.12827 44 4.12499ZM14.4856 15.125H30.25C30.2498 17.0187 30.6436 18.8917 31.4064 20.625H10.8185L14.4856 15.125ZM6.875 23.375H33.0261C34.3014 25.0822 35.9574 26.4683 37.8625 27.4231C39.7675 28.3779 41.8691 28.875 44 28.875C46.1309 28.875 48.2325 28.3779 50.1375 27.4231C52.0426 26.4683 53.6986 25.0822 54.9739 23.375H81.125V34.375H6.875V23.375ZM20.625 37.125V39.875H9.625V37.125H20.625ZM12.375 42.625H17.875V67.375H12.375V42.625ZM9.625 70.125H20.625V72.875H9.625V70.125ZM6.875 75.625H81.125V78.375H6.875V75.625ZM83.875 83.875H4.125V81.125H83.875V83.875Z" fill="#CE9D70"/>
<path d="M52.25 42.625H35.75C35.3853 42.625 35.0356 42.7699 34.7777 43.0277C34.5199 43.2856 34.375 43.6353 34.375 44V49.5C34.375 49.8647 34.5199 50.2144 34.7777 50.4723C35.0356 50.7301 35.3853 50.875 35.75 50.875H52.25C52.6147 50.875 52.9644 50.7301 53.2223 50.4723C53.4801 50.2144 53.625 49.8647 53.625 49.5V44C53.625 43.6353 53.4801 43.2856 53.2223 43.0277C52.9644 42.7699 52.6147 42.625 52.25 42.625ZM50.875 48.125H37.125V45.375H50.875V48.125Z" fill="#CE9D70"/>
<path d="M44.9368 16.4432C47.5618 16.4432 48.9311 14.9261 48.9311 12.9205C48.9311 10.9432 47.5845 9.36364 44.9368 9.36364H40.7095V14.9545H38.9311V16.4432H40.7095V17.4205H38.9311V18.9148H40.7095V21H42.4595V18.9148H45.022V17.4205H42.4595V16.4432H44.9368ZM42.4595 14.9545V10.8636H44.9368C46.4595 10.8636 47.1868 11.7443 47.1868 12.9261C47.1868 14.1193 46.4652 14.9545 44.9141 14.9545H42.4595Z" fill="#CE9D70"/>
</svg>
