<svg width="346" height="263" viewBox="0 0 346 263" fill="none" xmlns="http://www.w3.org/2000/svg">
<g filter="url(#filter0_f)">
<path d="M231.857 11.1549C231.857 11.2592 231.857 11.3634 231.909 11.4677V11.6241C232.434 15.2736 232.538 18.9754 232.171 22.6249C232.171 22.9899 232.171 23.407 232.119 23.7719C232.119 23.8762 232.066 23.9283 232.014 23.9805C233.692 34.095 234.322 44.2616 235.108 54.4804C235.161 54.4283 235.161 54.3761 235.213 54.324C235.633 51.665 236.314 49.006 237.94 47.2855C238.097 46.5556 238.255 45.8778 238.36 45.4086C239.199 42.7496 240.09 39.83 242.135 37.7446C242.87 37.0146 243.918 37.5882 244.023 38.5266C244.6 46.5556 241.191 55.0539 236.944 61.7274C236.629 62.1966 236.209 62.353 235.842 62.353C236.629 69.4436 237.835 76.4821 239.251 83.4162C239.408 79.141 240.038 74.9179 241.559 70.6949C241.926 69.7043 242.975 69.6 243.604 70.1735C244.286 70.1214 244.967 70.4863 245.177 71.2684C246.803 76.5863 245.754 82.4256 244.128 87.6914C243.814 89.4119 243.447 91.1325 243.079 92.7487C242.922 93.5307 242.135 93.8436 241.454 93.7914C241.454 93.9478 241.506 94.1042 241.506 94.2085C242.24 97.7538 242.975 101.351 243.656 104.896C243.918 100.517 245.072 96.294 247.904 93.0615C248.533 92.3316 249.687 92.8008 249.949 93.5829C252.309 101.612 249.53 110.579 247.17 118.243C247.013 118.765 246.645 119.078 246.174 119.182C247.117 124.708 248.061 130.287 249.005 135.814C250.579 130.131 253.83 124.604 256.977 121.267C257.554 120.642 258.655 120.798 259.074 121.528C263.952 129.766 256.924 142.122 252.414 149.056C252.152 149.421 251.785 149.578 251.418 149.63C252.362 154.791 253.306 159.953 254.25 165.166C254.25 165.114 254.25 165.114 254.25 165.062C254.25 164.801 254.355 164.593 254.564 164.384C255.246 160.891 256.557 157.607 258.655 155C259.232 154.27 260.595 154.687 260.753 155.573C261.749 160.474 261.801 165.636 260.805 170.589C260.176 173.717 259.284 177.784 257.239 180.599C258.393 186.438 259.599 192.277 260.857 198.065C262.85 191.548 267.465 183.154 268.566 181.381C268.986 180.755 270.192 180.547 270.559 181.381C273.391 188.159 269.825 196.396 266.259 203.539C265.525 205.989 264.686 208.388 263.689 210.734C264.161 212.715 264.581 214.748 265.053 216.73C271.031 241.859 277.534 266.885 284.352 291.806C288.18 298.793 291.956 305.831 295.522 312.922C315.398 352.545 333.857 395.402 341.986 439.197C342.143 440.031 340.937 440.343 340.675 439.509C325.571 395.245 311.936 351.555 290.173 309.846C289.596 308.751 288.967 307.656 288.39 306.509C289.543 310.575 290.645 314.642 291.798 318.709C301.5 353.015 314.139 386.382 323.736 420.688C324.103 421.991 322.268 422.356 321.796 421.209C305.224 380.386 292.113 337.739 280.733 294.726C270.874 282.057 260.385 270.117 248.009 259.951C247.38 260.368 246.278 259.951 246.226 259.064C246.226 258.908 246.174 258.699 246.174 258.491C245.964 258.335 245.754 258.178 245.544 257.97C244.076 257.344 242.607 256.51 241.139 255.467C240.667 255.623 240.195 255.728 239.723 255.832C231.594 259.847 219.008 258.022 212.138 252.704C211.561 252.235 211.824 251.348 212.348 251.035C218.379 247.125 226.56 247.647 233.902 249.628C226.14 244.623 218.117 240.295 209.883 236.385C209.883 236.75 209.674 237.115 209.359 237.271C207.733 238.21 205.95 238.835 204.01 239.2C197.664 241.755 190.375 242.589 183.924 240.087C183.452 239.878 183.085 239.2 183.557 238.783C184.763 237.793 186.127 237.011 187.543 236.281C187.543 235.916 187.7 235.551 188.015 235.394C192.892 232.996 198.923 232.892 204.377 233.778C198.608 231.171 192.787 228.721 186.913 226.375C178.942 231.536 166.304 225.749 159.853 220.536C159.276 220.066 159.643 219.128 160.273 218.971C161.741 218.606 163.314 218.45 164.835 218.398C164.625 218.189 164.416 217.981 164.258 217.72C163.734 217.042 164.468 216.208 165.202 216.156C172.282 215.583 179.204 219.18 185.445 222.048C186.022 222.308 185.602 223.194 185.026 223.038C184.396 222.882 183.819 222.725 183.243 222.569C183.872 222.882 184.554 223.247 185.183 223.612C185.235 223.612 185.235 223.664 185.235 223.716C185.97 223.977 186.756 224.185 187.49 224.446C187.805 224.341 188.12 224.446 188.277 224.706C192.63 226.114 196.982 227.73 201.335 229.503C198.294 226.74 195.829 223.559 194.518 220.275C194.203 219.493 195.095 218.919 195.724 219.076C205.321 220.796 212.453 228.147 219.218 234.56C219.69 235.03 219.585 235.759 219.218 236.177C219.375 236.333 219.585 236.541 219.742 236.698C220.11 237.063 219.638 237.741 219.166 237.428C218.799 237.167 218.431 236.854 218.064 236.541C218.064 236.75 217.959 236.906 217.802 237.011C222.155 239.253 226.455 241.651 230.651 244.206C227.924 239.93 226.088 235.394 226.036 231.536C226.036 230.963 226.612 230.546 227.137 230.702C236.681 233.674 247.904 245.561 248.429 256.301C258.078 263.757 266.941 272.203 274.545 281.483C257.396 251.765 238.15 223.09 216.806 196.292C211.457 189.566 205.95 182.945 200.339 176.428C200.077 176.845 199.29 176.897 199.133 176.272C199.028 175.75 198.923 175.229 198.818 174.707C194.203 169.389 189.536 164.176 184.763 158.962C184.711 159.014 184.606 159.066 184.501 159.119C185.078 159.379 185.34 160.318 184.606 160.631C174.432 165.219 159.381 158.649 151.253 152.341C150.518 151.767 150.833 150.62 151.515 150.203C159.958 145.407 171.81 150.568 180.725 154.687C174.59 148.118 168.296 141.601 161.951 135.188C161.846 135.501 161.689 135.761 161.269 135.814C160.954 135.866 160.64 135.866 160.378 135.866C160.325 135.866 160.325 135.918 160.273 135.918C156.13 136.856 151.725 136.7 147.477 135.814C139.453 134.979 131.482 132.685 124.874 128.671C124.245 128.306 123.983 127.315 124.612 126.794C134.733 118.608 150.361 127.315 159.853 133.155C151.567 124.865 143.124 116.784 134.471 108.807C132.373 109.745 129.856 109.902 127.286 109.693C123.983 110.058 120.364 109.172 117.06 107.66C112.445 106.408 107.883 104.74 103.792 102.29C102.953 101.768 102.848 100.413 103.792 99.9435C112.707 95.3555 122.829 100.569 130.695 105.314C122.934 98.223 115.12 91.2367 107.148 84.4068C107.148 84.5111 107.096 84.6154 106.991 84.7196C103.687 88.0042 97.3418 87.1179 93.3037 86.0752C88.3741 84.8239 82.9725 82.7906 79.5637 78.8282C79.1442 78.3068 79.0393 77.3162 79.7735 77.0034C87.4301 73.8231 97.6564 77.8897 104.212 82.0085C105.051 82.5299 105.103 83.729 104.212 84.1983C104.054 84.3026 103.897 84.3547 103.687 84.459C104.526 84.2504 105.365 83.9897 106.1 83.6769C106.152 83.6769 106.205 83.6769 106.257 83.6769C98.6004 77.1077 90.8389 70.5906 83.0249 64.2299C74.3719 66.159 64.1981 65.8983 56.8037 60.9454C56.0171 60.424 55.8597 59.1727 56.8037 58.7035C62.887 55.6274 70.0717 57.1915 76.5221 59.3813C76.7843 59.4855 77.0989 59.5377 77.3612 59.6419C72.6938 55.8881 68.0264 52.1864 63.359 48.4847C60.8942 49.2146 57.6428 48.4847 55.3878 47.9633C50.8777 46.9206 46.0006 45.5129 42.0149 43.0625C41.3332 42.6454 41.1234 41.3941 42.0149 41.0291C45.4761 39.5693 49.1996 39.465 52.8181 40.2992C50.1435 38.2659 47.469 36.1804 44.7944 34.1471C44.2175 33.9386 43.6407 33.6258 43.0638 33.3651C37.1378 35.5027 28.0128 32.3744 23.3979 29.0377C22.7685 28.6206 22.821 27.8907 23.3979 27.4736C26.6493 24.971 30.3203 24.9711 33.9912 26.0659C29.7958 22.8856 25.548 19.7574 21.3002 16.6292C21.2477 16.6814 21.2477 16.7856 21.1428 16.8377C18.4683 18.4018 14.3777 15.3779 12.2276 13.9181C9.1335 11.8326 5.46253 9.38221 4.04658 5.78479C3.88925 5.41983 4.15146 4.79422 4.51856 4.63781C11.441 1.71816 19.8842 9.43436 23.8174 15.3779C28.1177 17.5677 32.3655 19.9659 36.5085 22.5206C34.201 19.4967 32.2606 16.16 31.0545 12.6147C30.7398 11.7283 31.8411 11.1027 32.5228 11.4677C35.8792 13.1882 38.0817 16.16 39.9172 19.3403C41.4905 22.1557 43.6931 25.0232 44.9517 27.9428C48.3605 30.289 51.7168 32.7394 55.0731 35.242C52.8705 31.0189 51.6119 26.6394 51.9266 23.1984C51.979 22.3642 52.7656 21.9471 53.5523 22.2599C57.3281 23.824 73.7426 41.4462 67.4495 45.1479C68.1313 45.7214 68.813 46.3471 69.4948 46.9206C69.5997 46.9206 69.6521 46.9727 69.757 47.0248C70.0717 47.1291 70.229 47.3376 70.3339 47.5983C75.0537 51.665 79.7211 55.7838 84.336 60.0069C83.4445 58.4428 82.6579 56.8265 81.9761 55.3667C79.9833 51.1958 77.8856 46.712 77.5709 42.0719C77.5185 41.0813 78.6722 40.8727 79.3015 41.3419C86.119 46.5035 91.1011 55.3667 91.3633 63.9692C91.4157 64.647 90.8913 65.0641 90.3669 65.1163C90.5242 65.2727 90.6815 65.4291 90.8389 65.5333C91.0486 65.7419 91.1011 66.0026 91.0487 66.2111C96.4502 71.2684 101.852 76.2735 107.201 81.2786C103.006 75.1787 100.069 67.4624 100.751 61.0496C100.855 60.2154 101.747 59.4334 102.586 60.0069C111.606 66.1069 117.008 77.1598 118.214 87.7435C118.371 89.1512 116.378 89.4119 115.749 88.4213C115.225 87.5871 114.7 86.7008 114.228 85.8145C114.071 85.8145 113.966 85.7102 113.861 85.5538C110.4 79.7145 107.62 73.5102 104.264 67.6188C103.687 66.6282 104.579 65.6898 105.47 65.6898C104.736 64.9599 104.002 64.2299 103.215 63.6043C103.425 72.1547 109.299 81.0701 114.648 87.17C114.962 87.535 114.91 87.9521 114.648 88.2128C117.113 90.4546 119.525 92.6444 121.99 94.782C126.814 99.0572 131.639 103.385 136.411 107.712C131.534 100.726 128.283 91.9666 129.594 84.0418C129.699 83.2598 130.695 82.9991 131.272 83.3119C132.006 83.729 132.74 84.1983 133.475 84.7196C133.579 84.7718 133.632 84.8239 133.737 84.9282C140.712 90.3504 145.274 102.081 144.855 110.892C145.117 111.935 145.432 113.03 145.641 114.073C145.799 114.802 145.169 115.272 144.54 115.22C151.305 121.528 158.018 127.889 164.625 134.354C159.486 126.95 156.444 116.732 158.385 108.39C158.542 107.66 159.381 107.451 160.01 107.712C169.031 111.518 174.432 125.23 172.23 135.031C172.544 136.804 172.806 138.525 173.069 140.245C173.174 141.079 172.02 141.705 171.6 140.871C171.286 140.245 171.023 139.619 170.761 138.994C170.499 139.307 170.132 139.463 169.712 139.463C177.159 146.866 184.396 154.426 191.528 162.143C187.071 156.147 186.546 142.435 186.966 137.638C187.071 136.543 188.329 136.231 188.959 137.117C193.311 143.478 196.196 150.933 197.664 158.597C198.975 162.925 199.867 167.304 200.181 171.788C207.838 180.442 215.285 189.306 222.365 198.482C241.926 223.612 260.018 250.149 276.171 277.781C270.874 256.823 265.892 235.812 261.12 214.957C260.7 214.957 260.281 214.592 260.385 214.071C260.438 213.706 260.543 213.341 260.648 212.976C260.595 212.715 260.543 212.506 260.49 212.298C259.546 208.127 258.602 204.008 257.763 199.837C251.628 206.042 233.273 187.533 230.493 183.258C229.969 182.424 230.86 181.172 231.804 181.537C233.587 182.163 235.318 182.893 237.049 183.727C237.258 183.362 237.678 183.101 238.15 183.101C246.278 183.206 252.571 190.713 257.134 196.918C256.19 192.33 255.246 187.742 254.355 183.154C253.883 183.154 253.463 182.684 253.62 182.215C253.725 181.902 253.883 181.589 253.987 181.277C253.253 177.419 252.519 173.508 251.785 169.65C251.732 169.702 251.628 169.754 251.575 169.807C251.628 169.859 251.68 169.911 251.68 169.963C251.942 170.38 251.418 171.006 250.946 170.693C250.684 170.484 250.369 170.276 250.107 170.119C243.394 170.693 237.416 162.716 233.115 156.564C232.486 156.407 231.857 156.251 231.227 156.147C232.853 162.925 241.926 172.101 248.743 172.048C249.74 172.048 249.687 173.456 248.743 173.56C240.3 174.342 229.969 162.768 229.025 155.052C228.972 154.531 229.549 154.061 230.021 154.061C230.493 154.061 231.018 154.166 231.49 154.218C230.965 153.488 230.493 152.81 230.074 152.184C229.444 151.35 230.598 150.464 231.385 150.881C232.591 151.507 237.101 154.895 241.087 158.597C244.862 161.36 248.219 165.01 250.579 168.399C250.684 168.399 250.788 168.399 250.893 168.399C251.156 168.347 251.365 168.399 251.523 168.503C248.324 151.142 245.439 133.728 242.45 116.262C242.398 116.314 242.345 116.367 242.293 116.419C242.503 117.253 241.349 117.931 240.719 117.253C240.615 117.149 240.51 117.044 240.405 116.94C231.857 117.722 222.469 100.621 220.582 94.6256C220.319 93.8436 221.158 93.0615 221.945 93.2701C230.755 95.929 238.622 106.148 241.716 114.855C241.873 114.802 242.031 114.855 242.135 114.907C241.821 112.926 241.454 110.944 241.139 108.963C239.828 101.351 238.15 93.8436 236.629 86.2837C236.157 86.2316 235.685 86.023 235.423 85.6581C235.265 85.5017 235.161 85.241 235.056 85.0324C229.759 85.0324 222.784 70.4342 221.211 67.7231C220.686 66.8368 221.735 65.6376 222.679 66.2633C226.927 68.9744 230.126 72.6761 233.01 76.7427C233.535 77.4726 234.426 78.5154 235.318 79.6102C234.374 74.0837 233.587 68.5573 233.273 62.9786C233.22 61.8838 233.168 60.8411 233.115 59.7462C232.906 59.694 232.748 59.6419 232.591 59.4855C231.752 58.3906 231.227 57.0872 230.755 55.7838C224.882 54.5847 222.05 42.7497 221.63 38.2659C221.526 37.2232 222.889 36.8582 223.571 37.4839C227.347 40.9249 231.07 46.9206 232.801 52.7077C232.486 44.3137 232.171 35.9198 231.123 27.5779C230.755 29.0899 230.388 30.5497 229.864 32.0095C229.339 33.4694 226.822 33.365 227.032 31.6445C227.347 28.5685 228.133 25.3882 228.658 22.1557C226.927 18.9754 227.084 9.48646 227.189 8.23518C227.294 7.14031 228.71 6.61896 229.339 7.66169C229.916 8.54801 230.336 9.43438 230.703 10.3728C231.437 10.3207 231.804 10.5814 231.857 11.1549ZM234.846 82.947C233.535 80.8094 230.755 77.4205 230.231 76.6906C228.972 74.9701 227.714 73.3538 226.245 71.8419C228.815 76.2735 232.434 81.9043 234.846 82.947ZM238.884 114.75C233.954 108.233 231.542 100.048 223.781 96.2418C226.35 102.29 232.853 113.134 238.884 114.75ZM243.918 164.176C243.289 163.498 242.607 162.82 241.926 162.195C241.034 161.36 240.248 160.631 239.671 160.109C238.622 159.223 237.468 158.389 236.262 157.711C238.989 161.465 242.45 165.479 245.964 167.356C245.702 166.418 244.915 165.271 243.918 164.176ZM240.143 190.036C239.356 189.045 238.674 188.002 237.992 186.907C237.206 186.438 236.419 186.021 235.58 185.604C236.891 186.96 238.464 188.524 240.143 190.036ZM255.823 198.899C251.575 194.78 247.694 188.524 241.978 186.438C246.331 189.254 250.212 192.851 253.201 196.97C253.62 197.543 253.358 198.273 252.886 198.69C254.04 199.055 254.984 199.16 255.823 198.899ZM195.514 163.342C195.619 163.394 195.724 163.394 195.829 163.446C195.776 162.925 195.724 162.455 195.671 161.934C194.623 158.232 193.364 154.583 191.843 150.985C192.735 155.26 193.783 159.484 195.514 163.342ZM164.468 119.651C165.045 125.126 166.304 130.652 169.293 135.084C167.615 129.974 166.618 124.604 164.468 119.651ZM162.423 125.49C161.584 121.372 161.217 117.149 161.059 113.134C161.059 112.404 161.426 111.987 161.951 111.831C161.374 111.361 160.797 110.892 160.22 110.527C159.381 115.272 160.482 120.381 162.213 124.865C162.266 124.969 162.318 125.23 162.423 125.49ZM113.809 79.8709C112.393 75.5957 110.295 71.5291 107.463 68.0359C108.145 69.2872 108.827 70.4863 109.456 71.7376C110.924 74.4487 112.34 77.1598 113.809 79.8709ZM20.6708 16.16C19.9366 15.6386 19.2025 15.0651 18.4683 14.5438C17.839 14.0745 18.1012 13.2403 18.678 13.0839C15.479 9.59076 12.1752 5.88907 7.76999 5.99335C5.25276 6.04548 7.35045 7.401 8.55663 8.49587C10.025 9.85142 11.5983 11.1027 13.2765 12.1976C14.7448 13.2403 18.5731 16.2121 20.6708 16.16ZM41.2807 32.4266C36.2463 29.4548 31.1069 25.3881 25.6529 28.3078C28.0128 29.7676 30.7398 30.7061 33.4144 31.3839C35.7743 31.9574 38.6586 32.6351 41.2807 32.4266ZM34.5157 15.5343C35.7218 18.089 37.2951 20.4873 39.0782 22.6771C37.7671 20.1745 36.456 17.5676 34.5157 15.5343ZM50.5631 42.4369C48.9373 42.1762 47.2592 42.1762 45.6859 42.489C47.3641 43.271 49.1471 43.8966 50.8777 44.4701C50.5631 44.2616 50.2484 44.0531 49.9338 43.7924C49.4093 43.3232 49.9337 42.4369 50.5631 42.4369ZM54.1291 25.2318C54.4438 29.5591 56.8562 34.9813 60.2125 39.3608C60.3698 39.4651 60.5271 39.6214 60.6845 39.7257C60.6845 39.6736 60.632 39.6736 60.632 39.6215C60.5271 39.3608 60.5271 39.1522 60.6845 38.9437C59.0587 36.389 57.3281 33.8864 55.7549 31.2275C55.3353 30.4976 56.3317 29.924 56.8562 30.3932L56.9086 30.3411C58.5343 32.1659 60.0551 34.0949 61.4711 36.1283C61.2089 35.3984 60.8942 34.7206 60.5796 34.0428C60.3698 33.6257 60.9991 33.2086 61.2613 33.6779C61.9431 34.9813 62.3626 36.389 63.1493 37.6402C63.3066 37.9009 63.1493 38.1616 62.9395 38.318C63.7261 39.5172 64.5652 40.7685 65.2994 42.0197C65.614 42.489 65.4567 43.0103 65.1421 43.3232C65.3518 43.4796 65.5616 43.636 65.7714 43.7924C68.1313 39.4129 59.0063 28.7771 54.1291 25.2318ZM68.3411 62.4573C67.3971 61.7274 66.558 60.841 65.9287 59.7983C64.0932 59.6419 62.2577 59.7462 60.5271 60.1633C63.0444 61.4667 65.6665 62.1444 68.3411 62.4573ZM99.7541 83.3119C95.4014 82.1649 91.3109 80.2359 86.8008 79.7667C90.1047 82.7906 95.2965 84.1982 99.7541 83.3119ZM125.923 106.721C121.465 104.844 117.113 101.873 112.445 101.716C114.228 103.124 116.378 104.479 118.633 105.47C118.896 105.522 119.158 105.626 119.368 105.679C121.57 106.2 123.773 106.513 125.923 106.721ZM136.149 96.2939C137.093 99.9435 138.404 103.541 140.135 106.826C138.771 103.332 137.513 99.7871 136.149 96.2939ZM134.104 99.3179C132.95 95.4598 132.111 91.5495 131.587 87.7435C131.534 91.6016 132.478 95.5641 134.104 99.3179ZM135.677 131.017C133.632 129.714 131.744 128.254 130.118 126.585C130.118 126.585 130.118 126.585 130.118 126.533C129.332 126.794 128.545 127.159 127.811 127.576C130.276 128.984 132.898 130.131 135.677 131.017ZM153.927 134.041C147.687 131.538 141.656 128.567 134.995 127.42C139.61 130.913 145.484 133.311 151.357 133.937C151.882 133.989 152.354 134.041 152.878 134.041C153.245 134.041 153.56 134.041 153.927 134.041ZM161.007 151.194C158.857 151.037 156.759 151.194 154.871 151.819C156.235 152.758 157.703 153.644 159.276 154.531C158.962 154.218 158.699 153.853 158.437 153.54C157.86 152.81 158.49 151.611 159.329 151.454C159.906 151.298 160.43 151.246 161.007 151.194ZM179.572 158.128C173.855 158.024 168.506 153.957 162.685 153.905C166.88 157.398 174.118 159.327 179.572 158.128ZM170.551 220.64C173.436 222.412 176.897 223.612 180.201 223.82C178.575 223.194 176.949 222.569 175.271 221.891C175.114 221.839 175.009 221.735 175.009 221.578C173.488 221.213 172.02 220.9 170.551 220.64ZM185.078 225.801C184.973 225.749 184.868 225.697 184.763 225.697C178.68 227.105 171.286 224.602 166.513 220.327C165.255 220.327 163.944 220.431 162.738 220.588C168.611 224.706 178.365 228.877 185.078 225.801ZM202.699 224.341C205.216 226.479 207.838 228.512 210.617 230.285C208.1 228.095 205.531 226.01 202.699 224.341ZM198.031 239.618C194.832 239.409 191.686 238.679 188.959 237.584C187.857 238.053 186.809 238.575 185.865 239.2C189.798 240.4 193.993 240.4 198.031 239.618ZM206.16 236.594C204.062 235.968 201.807 235.603 199.5 235.551C199.395 235.551 199.29 235.551 199.185 235.551C196.72 235.551 194.255 235.916 191.896 236.541C196.406 237.845 201.86 238.21 206.16 236.594ZM215.075 235.342C208.467 232.318 202.804 227.313 197.559 222.36C201.125 228.252 208.52 233.465 215.075 235.342ZM238.727 253.694C238.674 253.642 238.622 253.59 238.569 253.538C237.73 253.225 236.891 252.912 236 252.652C235.895 252.86 235.737 253.017 235.528 253.017C230.231 252.912 224.777 250.201 219.638 251.922C225.197 254.737 232.434 254.946 238.727 253.694ZM237.992 249.054C236.105 246.864 234.112 244.414 231.857 242.537C232.748 243.997 233.692 245.457 234.741 246.865C235.842 247.594 236.944 248.324 237.992 249.054ZM238.832 242.12C237.049 240.035 235.213 238.001 233.063 236.333C232.643 235.968 227.032 231.276 228.081 234.56C228.658 236.333 229.497 238.314 230.546 240.295C230.598 240.295 230.651 240.295 230.651 240.295C234.007 241.755 236.629 244.727 239.094 247.334C240.982 249.315 243.394 251.452 245.282 253.799C244.128 249.523 241.768 245.561 238.832 242.12ZM261.644 202.392C261.696 202.705 261.801 203.018 261.854 203.383C262.85 199.837 264.004 196.344 265.263 192.851C263.637 196.448 262.116 200.15 261.644 202.392ZM257.396 173.195C257.763 172.205 258.025 171.11 258.235 170.015C258.812 166.522 259.022 162.977 258.655 159.484C257.606 161.569 256.924 163.915 256.61 166.313C257.291 168.607 257.554 170.901 257.396 173.195ZM251.837 144.625C255.298 138.837 259.284 130.756 257.396 124.708C256.19 126.168 255.141 127.732 254.25 129.401C254.459 129.505 254.669 129.714 254.617 130.026C253.987 134.979 251.68 139.724 251.837 144.625ZM247.17 108.39C248.061 104.532 248.533 100.621 248.061 96.8674C247.485 97.858 247.013 98.9008 246.698 100.048C247.065 100.1 247.327 100.361 247.327 100.83C247.275 103.332 247.222 105.835 247.17 108.39ZM224.829 41.9155C225.721 45.93 227.504 51.3522 230.231 53.2291C229.916 52.1864 229.602 51.1958 229.182 50.2052C227.976 47.2855 226.665 44.418 224.829 41.9155ZM240.247 46.0342C240.562 46.1385 240.824 46.3992 240.929 46.7642C241.349 45.2001 241.611 43.6359 241.768 42.124C241.087 43.3753 240.615 44.6787 240.247 46.0342Z" fill="#E7E7E9"/>
<path d="M241.506 140.767C234.059 137.795 226.98 128.045 225.092 121.58C224.829 120.694 225.773 119.756 226.665 120.016C235.003 122.779 240.195 132.268 244.6 139.672C245.02 139.828 245.439 140.037 245.806 140.193C246.541 140.454 246.488 141.496 245.701 141.601C246.226 142.748 244.653 143.738 243.709 142.904C242.87 142.331 242.188 141.601 241.506 140.767ZM237.835 135.605C235.213 131.278 232.906 126.742 228.605 123.926C230.493 128.15 233.902 132.373 237.835 135.605Z" fill="#E7E7E9"/>
</g>
<defs>
<filter id="filter0_f" x="0" y="0" width="346" height="444" filterUnits="userSpaceOnUse" color-interpolation-filters="sRGB">
<feFlood flood-opacity="0" result="BackgroundImageFix"/>
<feBlend mode="normal" in="SourceGraphic" in2="BackgroundImageFix" result="shape"/>
<feGaussianBlur stdDeviation="2" result="effect1_foregroundBlur"/>
</filter>
</defs>
</svg>
