<svg width="35" height="35" viewBox="0 0 35 35" fill="none" xmlns="http://www.w3.org/2000/svg">
<path d="M17.5 0C7.82694 0 0 7.82763 0 17.5C0 27.1731 7.82763 35 17.5 35C27.1731 35 35 27.1724 35 17.5C35 7.82694 27.1723 0 17.5 0ZM17.5 32.2656C9.33837 32.2656 2.73438 25.6611 2.73438 17.5C2.73438 9.33837 9.33892 2.73438 17.5 2.73438C25.6616 2.73438 32.2656 9.33892 32.2656 17.5C32.2656 25.6616 25.661 32.2656 17.5 32.2656Z" fill="#CE9D70"/>
<rect x="16.1328" y="14.6515" width="2.73438" height="11.5386" fill="#CE9D70"/>
<path d="M17.5 12.9774C18.5194 12.9774 19.3457 12.151 19.3457 11.1317C19.3457 10.1123 18.5194 9.28595 17.5 9.28595C16.4806 9.28595 15.6543 10.1123 15.6543 11.1317C15.6543 12.151 16.4806 12.9774 17.5 12.9774Z" fill="#CE9D70"/>
</svg>
