<svg width="16" height="16" viewBox="0 0 16 16" fill="none" xmlns="http://www.w3.org/2000/svg">
<path d="M8.00328 3.89111C5.73462 3.89111 3.89795 5.72978 3.89795 7.99645C3.89795 10.2651 5.73662 12.1018 8.00328 12.1018C10.2719 12.1018 12.1086 10.2631 12.1086 7.99645C12.1086 5.72778 10.2699 3.89111 8.00328 3.89111ZM8.00328 10.6611C6.53062 10.6611 5.33862 9.46845 5.33862 7.99645C5.33862 6.52445 6.53128 5.33178 8.00328 5.33178C9.47528 5.33178 10.6679 6.52445 10.6679 7.99645C10.6686 9.46845 9.47595 10.6611 8.00328 10.6611Z" fill="white"/>
<path d="M11.2988 0.0502578C9.82682 -0.0184089 6.18082 -0.0150756 4.70749 0.0502578C3.41282 0.110924 2.27082 0.423591 1.35015 1.34426C-0.188515 2.88292 0.00815151 4.95626 0.00815151 7.99692C0.00815151 11.1089 -0.165182 13.1343 1.35015 14.6496C2.89482 16.1936 4.99815 15.9916 8.00282 15.9916C11.0855 15.9916 12.1495 15.9936 13.2395 15.5716C14.7215 14.9963 15.8402 13.6716 15.9495 11.2923C16.0188 9.81959 16.0148 6.17426 15.9495 4.70092C15.8175 1.89226 14.3102 0.188924 11.2988 0.0502578ZM13.6288 13.6316C12.6202 14.6403 11.2208 14.5503 7.98349 14.5503C4.65015 14.5503 3.31348 14.5996 2.33815 13.6216C1.21482 12.5036 1.41815 10.7083 1.41815 7.98626C1.41815 4.30292 1.04015 1.65026 4.73682 1.46092C5.58615 1.43092 5.83615 1.42092 7.97415 1.42092L8.00415 1.44092C11.5568 1.44092 14.3442 1.06892 14.5115 4.76492C14.5495 5.60826 14.5582 5.86159 14.5582 7.99626C14.5575 11.2909 14.6202 12.6356 13.6288 13.6316Z" fill="white"/>
<path d="M12.2709 4.6882C12.8007 4.6882 13.2302 4.25869 13.2302 3.72886C13.2302 3.19904 12.8007 2.76953 12.2709 2.76953C11.741 2.76953 11.3115 3.19904 11.3115 3.72886C11.3115 4.25869 11.741 4.6882 12.2709 4.6882Z" fill="white"/>
</svg>
