<svg width="174" height="50" viewBox="0 0 174 50" fill="none" xmlns="http://www.w3.org/2000/svg">
<path d="M70.32 22.032C70.32 22.392 70.3133 22.7387 70.3 23.072C70.2867 23.4053 70.2667 23.6587 70.24 23.832C70.4667 23.8053 70.74 23.792 71.06 23.792C71.38 23.7787 71.6067 23.772 71.74 23.772V25.312H66.04V23.992H66.16C66.4667 23.992 66.7267 23.9587 66.94 23.892C67.1667 23.8253 67.34 23.672 67.46 23.432C67.5933 23.1787 67.66 22.7853 67.66 22.252V21.692H62.24V19.812L69.1 10.992H70.32V19.892H72.28V21.692H70.32V22.032ZM67.64 15.192L64.1 19.832L67.66 19.852L67.68 15.192H67.64ZM92.3114 15.792C91.9514 13.5787 90.8314 12.4587 88.9514 12.432C88.2581 12.432 87.6514 12.592 87.1314 12.912C86.6114 13.232 86.1781 13.6587 85.8314 14.192C85.4981 14.7253 85.2447 15.332 85.0714 16.012C84.9114 16.692 84.8314 17.392 84.8314 18.112C84.8314 19.2587 84.9914 20.2787 85.3114 21.172C85.6447 22.052 86.1247 22.7453 86.7514 23.252C87.3781 23.7587 88.1381 24.012 89.0314 24.012C89.8714 24.012 90.7047 23.7987 91.5314 23.372C92.3581 22.932 93.0514 22.3253 93.6114 21.552L94.5714 22.432C93.9181 23.3253 93.2314 24.0053 92.5114 24.472C91.7914 24.9253 91.0847 25.232 90.3914 25.392C89.7114 25.552 89.0981 25.632 88.5514 25.632C87.5247 25.632 86.5914 25.452 85.7514 25.092C84.9114 24.7187 84.1847 24.212 83.5714 23.572C82.9714 22.9187 82.5047 22.1653 82.1714 21.312C81.8514 20.4453 81.6914 19.512 81.6914 18.512C81.6914 17.6053 81.8381 16.7053 82.1314 15.812C82.4247 14.9187 82.8581 14.112 83.4314 13.392C84.0181 12.6587 84.7514 12.0787 85.6314 11.652C86.5114 11.212 87.5314 10.992 88.6914 10.992C89.2114 10.992 89.7781 11.0787 90.3914 11.252C91.0181 11.412 91.6047 11.652 92.1514 11.972L92.0714 11.132H93.6114V15.792H92.3114ZM103.961 20.492C103.961 19.932 103.874 19.532 103.701 19.292C103.528 19.0387 103.288 18.8787 102.981 18.812C102.688 18.7453 102.361 18.7187 102.001 18.732L101.481 18.752V22.032C101.481 22.392 101.474 22.732 101.461 23.052C101.448 23.372 101.428 23.6187 101.401 23.792H104.081C104.481 23.792 104.868 23.7053 105.241 23.532C105.614 23.3453 105.921 23.0453 106.161 22.632C106.401 22.2053 106.521 21.632 106.521 20.912H107.821L107.721 25.312H97.1609V23.992C97.4676 23.9787 97.7209 23.9387 97.9209 23.872C98.1343 23.8053 98.2943 23.652 98.4009 23.412C98.5209 23.172 98.5809 22.7853 98.5809 22.252V14.592C98.5809 14.232 98.5876 13.8853 98.6009 13.552C98.6276 13.2187 98.6476 12.9653 98.6609 12.792C98.4476 12.8053 98.1809 12.8187 97.8609 12.832C97.5409 12.832 97.3076 12.8387 97.1609 12.852V11.312H107.161L107.281 15.192H105.961C105.961 14.4587 105.834 13.9053 105.581 13.532C105.328 13.1587 105.014 12.912 104.641 12.792C104.268 12.6587 103.901 12.5987 103.541 12.612L102.821 12.632C102.541 12.632 102.301 12.672 102.101 12.752C101.901 12.8187 101.748 12.9787 101.641 13.232C101.534 13.472 101.481 13.852 101.481 14.372V17.372H103.821L103.741 15.632H105.281V20.492H103.961ZM116.861 25.632C116.221 25.632 115.535 25.5653 114.801 25.432C114.068 25.312 113.341 25.0387 112.621 24.612C111.915 24.1853 111.255 23.5253 110.641 22.632L111.621 21.792C112.181 22.5653 112.848 23.132 113.621 23.492C114.408 23.8387 115.241 24.012 116.121 24.012C116.655 24.012 117.161 23.9187 117.641 23.732C118.135 23.5453 118.535 23.252 118.841 22.852C119.148 22.452 119.301 21.932 119.301 21.292C119.301 20.7453 119.188 20.2787 118.961 19.892C118.748 19.5053 118.468 19.212 118.121 19.012C117.775 18.812 117.408 18.712 117.021 18.712H114.481V17.292H116.281C117.095 17.292 117.681 17.0653 118.041 16.612C118.415 16.1453 118.601 15.5653 118.601 14.872C118.601 13.2453 117.861 12.432 116.381 12.432C115.501 12.432 114.801 12.7187 114.281 13.292C113.775 13.852 113.375 14.6853 113.081 15.792H111.781V11.132H113.321L113.241 12.032C113.761 11.7653 114.215 11.5587 114.601 11.412C114.988 11.252 115.361 11.1453 115.721 11.092C116.095 11.0253 116.515 10.992 116.981 10.992C117.941 10.9653 118.761 11.1053 119.441 11.412C120.135 11.7053 120.661 12.1187 121.021 12.652C121.381 13.1853 121.561 13.7853 121.561 14.452C121.561 15.2253 121.308 15.8987 120.801 16.472C120.295 17.032 119.588 17.452 118.681 17.732V17.792C119.908 17.9787 120.841 18.3787 121.481 18.992C122.135 19.592 122.461 20.3653 122.461 21.312C122.461 21.9787 122.295 22.5853 121.961 23.132C121.641 23.6653 121.208 24.1253 120.661 24.512C120.128 24.8853 119.528 25.1653 118.861 25.352C118.208 25.552 117.541 25.6453 116.861 25.632ZM132.09 25.632C130.823 25.632 129.743 25.4187 128.85 24.992C127.97 24.5653 127.256 23.9987 126.71 23.292C126.163 22.572 125.763 21.7787 125.51 20.912C125.256 20.0453 125.13 19.1787 125.13 18.312C125.13 17.472 125.27 16.6253 125.55 15.772C125.843 14.9053 126.276 14.112 126.85 13.392C127.436 12.672 128.17 12.092 129.05 11.652C129.93 11.212 130.963 10.992 132.15 10.992C133.363 10.992 134.41 11.212 135.29 11.652C136.17 12.092 136.89 12.6787 137.45 13.412C138.01 14.132 138.423 14.9187 138.69 15.772C138.97 16.6253 139.11 17.472 139.11 18.312C139.11 19.1387 138.963 19.9787 138.67 20.832C138.39 21.6853 137.956 22.4787 137.37 23.212C136.796 23.932 136.07 24.5187 135.19 24.972C134.31 25.412 133.276 25.632 132.09 25.632ZM132.31 24.172C133.003 24.172 133.583 24.0053 134.05 23.672C134.516 23.3253 134.89 22.8787 135.17 22.332C135.45 21.7853 135.65 21.192 135.77 20.552C135.89 19.8987 135.95 19.2653 135.95 18.652C135.95 17.4253 135.803 16.3453 135.51 15.412C135.216 14.4787 134.77 13.7453 134.17 13.212C133.583 12.6787 132.823 12.4253 131.89 12.452C131.21 12.4653 130.636 12.652 130.17 13.012C129.703 13.3587 129.33 13.812 129.05 14.372C128.77 14.9187 128.57 15.5187 128.45 16.172C128.33 16.8253 128.27 17.4587 128.27 18.072C128.27 18.6987 128.336 19.3653 128.47 20.072C128.616 20.7787 128.843 21.4453 129.15 22.072C129.456 22.6987 129.87 23.2053 130.39 23.592C130.91 23.9787 131.55 24.172 132.31 24.172ZM141.966 25.312V23.992C142.273 23.9787 142.526 23.9387 142.726 23.872C142.94 23.8053 143.1 23.652 143.206 23.412C143.326 23.172 143.386 22.7853 143.386 22.252V14.592C143.386 14.232 143.393 13.8853 143.406 13.552C143.433 13.2187 143.453 12.9653 143.466 12.792C143.253 12.8053 142.986 12.8187 142.666 12.832C142.346 12.832 142.113 12.8387 141.966 12.852V11.312H147.706V12.632C147.413 12.6453 147.16 12.6853 146.946 12.752C146.733 12.8187 146.566 12.972 146.446 13.212C146.34 13.4387 146.286 13.8253 146.286 14.372V17.492H151.786V14.592C151.786 14.232 151.793 13.8853 151.806 13.552C151.82 13.2187 151.84 12.9653 151.866 12.792C151.653 12.8053 151.386 12.8187 151.066 12.832C150.746 12.832 150.513 12.8387 150.366 12.852V11.312H156.106V12.632C155.813 12.6453 155.56 12.6853 155.346 12.752C155.133 12.8187 154.966 12.972 154.846 13.212C154.74 13.4387 154.686 13.8253 154.686 14.372V22.032C154.686 22.392 154.68 22.7387 154.666 23.072C154.653 23.4053 154.633 23.6587 154.606 23.832C154.82 23.8053 155.086 23.792 155.406 23.792C155.74 23.7787 155.973 23.772 156.106 23.772V25.312H150.366V23.992C150.673 23.9787 150.926 23.9387 151.126 23.872C151.34 23.8053 151.5 23.652 151.606 23.412C151.726 23.172 151.786 22.7853 151.786 22.252V19.012L146.286 19.072V22.032C146.286 22.392 146.28 22.7387 146.266 23.072C146.253 23.4053 146.233 23.6587 146.206 23.832C146.42 23.8053 146.686 23.792 147.006 23.792C147.34 23.7787 147.573 23.772 147.706 23.772V25.312H141.966ZM158.579 25.312V23.932C158.953 23.932 159.253 23.8253 159.479 23.612C159.706 23.3987 159.893 23.1187 160.039 22.772C160.199 22.4253 160.353 22.052 160.499 21.652L164.399 10.952H165.799L170.059 21.852C170.139 22.052 170.246 22.3587 170.379 22.772C170.513 23.172 170.593 23.5253 170.619 23.832C170.846 23.8053 171.059 23.792 171.259 23.792C171.473 23.7787 171.646 23.772 171.779 23.772V25.312H166.399V23.992C166.946 23.992 167.253 23.8253 167.319 23.492C167.386 23.1453 167.326 22.7253 167.139 22.232L166.739 21.132L162.399 21.212L162.079 22.152C162.013 22.3253 161.913 22.5853 161.779 22.932C161.659 23.2653 161.546 23.5453 161.439 23.772C161.653 23.7453 161.906 23.732 162.199 23.732C162.506 23.7187 162.726 23.712 162.859 23.712V25.312H158.579ZM162.899 19.712H166.239L165.319 17.212C165.146 16.732 164.993 16.252 164.859 15.772C164.726 15.2787 164.626 14.8453 164.559 14.472H164.539C164.486 14.6987 164.406 15.0387 164.299 15.492C164.193 15.9453 164.026 16.4853 163.799 17.112L162.899 19.712Z" fill="#818A8A"/>
<path d="M66.752 42.6854C65.952 42.6854 65.2373 42.4881 64.608 42.0934C63.9893 41.6987 63.504 41.1761 63.152 40.5254C62.8 39.8641 62.624 39.1494 62.624 38.3814C62.624 37.6027 62.8 36.8881 63.152 36.2374C63.5147 35.5761 64.0053 35.0481 64.624 34.6534C65.2533 34.2481 65.9627 34.0454 66.752 34.0454C67.552 34.0454 68.2613 34.2481 68.88 34.6534C69.5093 35.0481 70 35.5761 70.352 36.2374C70.7147 36.8881 70.896 37.6027 70.896 38.3814C70.896 39.1494 70.72 39.8641 70.368 40.5254C70.016 41.1761 69.5253 41.6987 68.896 42.0934C68.2773 42.4881 67.5627 42.6854 66.752 42.6854ZM63.728 38.3974C63.728 39.0161 63.8613 39.5814 64.128 40.0934C64.4053 40.5947 64.7733 40.9947 65.232 41.2934C65.6907 41.5814 66.1973 41.7254 66.752 41.7254C67.3067 41.7254 67.8133 41.5761 68.272 41.2774C68.7307 40.9787 69.0987 40.5734 69.376 40.0614C69.6533 39.5494 69.792 38.9841 69.792 38.3654C69.792 37.7467 69.6533 37.1814 69.376 36.6694C69.0987 36.1574 68.7307 35.7521 68.272 35.4534C67.8133 35.1547 67.3067 35.0054 66.752 35.0054C66.208 35.0054 65.7067 35.1601 65.248 35.4694C64.7893 35.7681 64.4213 36.1734 64.144 36.6854C63.8667 37.1974 63.728 37.7681 63.728 38.3974ZM74.7956 42.5254V35.1654H71.8196V34.1894H78.8596V35.1654H75.8836V42.5254H74.7956ZM83.9406 42.6854C83.1406 42.6854 82.426 42.4881 81.7966 42.0934C81.1673 41.6987 80.6713 41.1707 80.3086 40.5094C79.946 39.8481 79.7646 39.1227 79.7646 38.3334C79.7646 37.5547 79.9406 36.8401 80.2926 36.1894C80.6553 35.5387 81.1513 35.0214 81.7806 34.6374C82.41 34.2427 83.1246 34.0454 83.9246 34.0454C84.746 34.0454 85.466 34.2427 86.0846 34.6374C86.7033 35.0321 87.1833 35.5547 87.5246 36.2054C87.8766 36.8454 88.0526 37.5494 88.0526 38.3174C88.0526 38.4881 88.0473 38.6321 88.0366 38.7494H80.9006C80.954 39.3467 81.1246 39.8801 81.4126 40.3494C81.7006 40.8081 82.0686 41.1761 82.5166 41.4534C82.9646 41.7201 83.4553 41.8534 83.9886 41.8534C84.5326 41.8534 85.0446 41.7147 85.5246 41.4374C86.0046 41.1601 86.346 40.7974 86.5486 40.3494L87.4926 40.6054C87.322 41.0107 87.0553 41.3734 86.6926 41.6934C86.3406 42.0027 85.93 42.2481 85.4606 42.4294C84.9913 42.6001 84.4846 42.6854 83.9406 42.6854ZM80.8686 37.9654H87.0286C86.986 37.3681 86.8206 36.8401 86.5326 36.3814C86.2446 35.9121 85.8766 35.5494 85.4286 35.2934C84.9806 35.0267 84.4846 34.8934 83.9406 34.8934C83.3966 34.8934 82.9006 35.0267 82.4526 35.2934C82.0046 35.5494 81.6366 35.9121 81.3486 36.3814C81.0713 36.8401 80.9113 37.3681 80.8686 37.9654ZM88.9313 42.5734V41.5814C89.2086 41.5814 89.4593 41.5067 89.6833 41.3574C89.9179 41.2081 90.1206 40.9467 90.2913 40.5734C90.4726 40.2001 90.6166 39.6827 90.7233 39.0214C90.8299 38.3601 90.8993 37.5227 90.9313 36.5094L91.0273 34.1894H96.4353V42.5254H95.3473V35.1654H91.9873L91.9553 36.6054C91.9019 38.1521 91.7579 39.3574 91.5233 40.2214C91.2886 41.0854 90.9526 41.6934 90.5153 42.0454C90.0886 42.3867 89.5606 42.5627 88.9313 42.5734ZM98.8246 42.5254V34.1894H99.9126V37.1334H102.073C103.022 37.1334 103.737 37.3787 104.217 37.8694C104.707 38.3494 104.953 38.9841 104.953 39.7734C104.953 40.2854 104.846 40.7494 104.633 41.1654C104.419 41.5814 104.105 41.9121 103.689 42.1574C103.273 42.4027 102.761 42.5254 102.153 42.5254H98.8246ZM99.9126 41.6614H102.009C102.659 41.6614 103.129 41.4747 103.417 41.1014C103.705 40.7174 103.849 40.2801 103.849 39.7894C103.849 39.4694 103.79 39.1761 103.673 38.9094C103.566 38.6321 103.374 38.4134 103.097 38.2534C102.83 38.0827 102.457 37.9974 101.977 37.9974H99.9126V41.6614ZM110.715 42.5254V34.1894H117.419V42.5254H116.331V35.1654H111.803V42.5254H110.715ZM124.081 42.6854C123.388 42.6854 122.764 42.5041 122.209 42.1414C121.665 41.7787 121.233 41.3307 120.913 40.7974V45.9334H119.825V34.1894H120.801V35.8054C121.132 35.2827 121.569 34.8614 122.113 34.5414C122.668 34.2107 123.265 34.0454 123.905 34.0454C124.481 34.0454 125.009 34.1681 125.489 34.4134C125.969 34.6481 126.385 34.9681 126.737 35.3734C127.1 35.7787 127.377 36.2427 127.569 36.7654C127.761 37.2774 127.857 37.8107 127.857 38.3654C127.857 39.1441 127.697 39.8641 127.377 40.5254C127.068 41.1761 126.625 41.6987 126.049 42.0934C125.484 42.4881 124.828 42.6854 124.081 42.6854ZM123.777 41.7254C124.385 41.7254 124.908 41.5654 125.345 41.2454C125.793 40.9147 126.14 40.4934 126.385 39.9814C126.63 39.4694 126.753 38.9307 126.753 38.3654C126.753 37.7681 126.614 37.2134 126.337 36.7014C126.06 36.1894 125.686 35.7787 125.217 35.4694C124.758 35.1601 124.236 35.0054 123.649 35.0054C123.286 35.0054 122.902 35.1014 122.497 35.2934C122.102 35.4747 121.75 35.7254 121.441 36.0454C121.142 36.3547 120.966 36.6961 120.913 37.0694V39.6294C121.158 40.2161 121.542 40.7121 122.065 41.1174C122.588 41.5227 123.158 41.7254 123.777 41.7254ZM133.252 42.6854C132.452 42.6854 131.737 42.4881 131.108 42.0934C130.489 41.6987 130.004 41.1761 129.652 40.5254C129.3 39.8641 129.124 39.1494 129.124 38.3814C129.124 37.6027 129.3 36.8881 129.652 36.2374C130.015 35.5761 130.505 35.0481 131.124 34.6534C131.753 34.2481 132.463 34.0454 133.252 34.0454C134.052 34.0454 134.761 34.2481 135.38 34.6534C136.009 35.0481 136.5 35.5761 136.852 36.2374C137.215 36.8881 137.396 37.6027 137.396 38.3814C137.396 39.1494 137.22 39.8641 136.868 40.5254C136.516 41.1761 136.025 41.6987 135.396 42.0934C134.777 42.4881 134.063 42.6854 133.252 42.6854ZM130.228 38.3974C130.228 39.0161 130.361 39.5814 130.628 40.0934C130.905 40.5947 131.273 40.9947 131.732 41.2934C132.191 41.5814 132.697 41.7254 133.252 41.7254C133.807 41.7254 134.313 41.5761 134.772 41.2774C135.231 40.9787 135.599 40.5734 135.876 40.0614C136.153 39.5494 136.292 38.9841 136.292 38.3654C136.292 37.7467 136.153 37.1814 135.876 36.6694C135.599 36.1574 135.231 35.7521 134.772 35.4534C134.313 35.1547 133.807 35.0054 133.252 35.0054C132.708 35.0054 132.207 35.1601 131.748 35.4694C131.289 35.7681 130.921 36.1734 130.644 36.6854C130.367 37.1974 130.228 37.7681 130.228 38.3974ZM139.2 42.5254V34.1894H143.36C143.829 34.1894 144.224 34.2907 144.544 34.4934C144.864 34.6854 145.104 34.9414 145.264 35.2614C145.434 35.5707 145.52 35.8961 145.52 36.2374C145.52 36.6854 145.408 37.0907 145.184 37.4534C144.97 37.8054 144.666 38.0721 144.272 38.2534C144.752 38.3814 145.141 38.6321 145.44 39.0054C145.738 39.3787 145.888 39.8161 145.888 40.3174C145.888 40.9894 145.648 41.5281 145.168 41.9334C144.698 42.3281 144.096 42.5254 143.36 42.5254H139.2ZM140.24 37.9494H143.072C143.488 37.9494 143.824 37.7947 144.08 37.4854C144.346 37.1654 144.48 36.8081 144.48 36.4134C144.48 36.0294 144.352 35.6934 144.096 35.4054C143.85 35.1174 143.53 34.9734 143.136 34.9734H140.24V37.9494ZM140.24 41.7414H143.328C143.754 41.7414 144.112 41.5867 144.4 41.2774C144.688 40.9574 144.832 40.6054 144.832 40.2214C144.832 39.8054 144.693 39.4481 144.416 39.1494C144.138 38.8507 143.797 38.7014 143.392 38.7014H140.24V41.7414ZM147.106 40.1254C147.106 39.6134 147.255 39.1707 147.554 38.7974C147.853 38.4134 148.263 38.1147 148.786 37.9014C149.319 37.6881 149.933 37.5814 150.626 37.5814C151.031 37.5814 151.453 37.6187 151.89 37.6934C152.327 37.7574 152.717 37.8481 153.058 37.9654V37.2614C153.058 36.5574 152.85 35.9974 152.434 35.5814C152.018 35.1654 151.442 34.9574 150.706 34.9574C150.269 34.9574 149.831 35.0427 149.394 35.2134C148.957 35.3734 148.503 35.6134 148.034 35.9334L147.618 35.1654C148.162 34.7921 148.695 34.5147 149.218 34.3334C149.741 34.1414 150.274 34.0454 150.818 34.0454C151.842 34.0454 152.653 34.3387 153.25 34.9254C153.847 35.5121 154.146 36.3227 154.146 37.3574V41.2134C154.146 41.5014 154.279 41.6507 154.546 41.6614V42.5254C154.311 42.5574 154.146 42.5681 154.05 42.5574C153.783 42.5467 153.581 42.4614 153.442 42.3014C153.303 42.1414 153.229 41.9707 153.218 41.7894L153.202 41.1814C152.829 41.6614 152.343 42.0347 151.746 42.3014C151.149 42.5574 150.541 42.6854 149.922 42.6854C149.378 42.6854 148.893 42.5734 148.466 42.3494C148.039 42.1147 147.703 41.8054 147.458 41.4214C147.223 41.0267 147.106 40.5947 147.106 40.1254ZM152.69 40.7654C152.935 40.4774 153.058 40.2107 153.058 39.9654V38.7494C152.322 38.4614 151.554 38.3174 150.754 38.3174C149.975 38.3174 149.346 38.4721 148.866 38.7814C148.386 39.0907 148.146 39.5121 148.146 40.0454C148.146 40.5041 148.322 40.9201 148.674 41.2934C149.037 41.6667 149.538 41.8534 150.178 41.8534C150.701 41.8534 151.186 41.7521 151.634 41.5494C152.093 41.3467 152.445 41.0854 152.69 40.7654ZM156.481 42.5254V34.1894H157.569V37.7734H162.337V34.1894H163.425V42.5254H162.337V38.7494H157.569V42.5254H156.481ZM169.441 42.6854C168.63 42.6854 167.91 42.4881 167.281 42.0934C166.652 41.6881 166.156 41.1601 165.793 40.5094C165.43 39.8481 165.249 39.1227 165.249 38.3334C165.249 37.5441 165.425 36.8294 165.777 36.1894C166.129 35.5387 166.62 35.0214 167.249 34.6374C167.878 34.2427 168.604 34.0454 169.425 34.0454C170.204 34.0454 170.886 34.2267 171.473 34.5894C172.07 34.9414 172.518 35.4214 172.817 36.0294L171.761 36.3654C171.526 35.9387 171.196 35.6081 170.769 35.3734C170.353 35.1281 169.889 35.0054 169.377 35.0054C168.812 35.0054 168.3 35.1494 167.841 35.4374C167.393 35.7254 167.03 36.1254 166.753 36.6374C166.486 37.1387 166.353 37.7041 166.353 38.3334C166.353 38.9627 166.492 39.5334 166.769 40.0454C167.046 40.5574 167.414 40.9681 167.873 41.2774C168.332 41.5761 168.838 41.7254 169.393 41.7254C169.756 41.7254 170.108 41.6614 170.449 41.5334C170.79 41.4054 171.084 41.2347 171.329 41.0214C171.574 40.7974 171.74 40.5574 171.825 40.3014L172.897 40.6214C172.748 41.0161 172.502 41.3734 172.161 41.6934C171.82 42.0027 171.414 42.2481 170.945 42.4294C170.476 42.6001 169.974 42.6854 169.441 42.6854Z" fill="#818A8A"/>
<rect width="35" height="35" rx="3" transform="matrix(0.703526 -0.710669 0.703526 0.710669 0 24.8735)" fill="#CE9D70"/>
<rect x="0.703526" width="34" height="34" rx="2.5" transform="matrix(0.703526 -0.710669 0.703526 0.710669 9.45736 25.3735)" fill="#49A399" stroke="#49A399"/>
</svg>
