<svg width="26" height="26" viewBox="0 0 26 26" fill="none" xmlns="http://www.w3.org/2000/svg">
<g clip-path="url(#clip0)">
<path d="M17.3333 2.2699H1.65079C0.739123 2.2699 0 3.00902 0 3.92069V19.6032C0 20.5148 0.739123 21.254 1.65079 21.254H17.3333V2.2699ZM15.2698 18.3651H2.06347V4.33337H15.2698V18.3651Z" fill="url(#paint0_linear)"/>
<path d="M24.3492 2.2699H18.1587V21.254H24.3492C25.2608 21.254 26 20.5148 26 19.6032V3.92069C26 3.00902 25.2608 2.2699 24.3492 2.2699ZM21.9692 4.57397C22.972 4.57397 23.785 5.38698 23.785 6.38984C23.785 7.28455 23.137 8.02372 22.2852 8.17395C22.1821 8.19208 22.0773 8.20572 21.9687 8.20572C21.7908 8.20572 21.6221 8.17227 21.4598 8.12441C20.7067 7.90322 20.1528 7.21481 20.1528 6.38984C20.1533 5.38698 20.9663 4.57397 21.9692 4.57397ZM21.4603 9.44962C21.6229 9.40175 21.7913 9.36831 21.9692 9.36831C22.0777 9.36831 22.1825 9.3819 22.2857 9.40007C23.1371 9.55026 23.7854 10.2894 23.7854 11.1841C23.7854 12.0788 23.1375 12.818 22.2857 12.9682C22.1825 12.9864 22.0777 13 21.9692 13C21.7913 13 21.6225 12.9666 21.4603 12.9187C20.7071 12.6975 20.1533 12.0091 20.1533 11.1841C20.1533 10.3592 20.7071 9.6708 21.4603 9.44962ZM24.3492 19.1905H19.8095V17.5397H21.4603H22.2857H24.3491V19.1905H24.3492ZM24.3492 16.3016H22.2857H21.4603H19.8095V14.6508H21.4603H22.2857H24.3491V16.3016H24.3492Z" fill="url(#paint1_linear)"/>
<path d="M6.19095 22.0795H2.06396V23.7303H6.19095V22.0795Z" fill="url(#paint2_linear)"/>
<path d="M22.6983 22.0795H18.5713V23.7303H22.6983V22.0795Z" fill="url(#paint3_linear)"/>
<path d="M7.31078 5.15881L2.88916 8.2491V9.675L9.35116 5.15881H7.31078Z" fill="url(#paint4_linear)"/>
<path d="M14.4447 5.15881H11.1868L2.88916 10.958V17.5398H14.4447V5.15881Z" fill="url(#paint5_linear)"/>
</g>
<defs>
<linearGradient id="paint0_linear" x1="-1.7599" y1="-18.4092" x2="23.4965" y2="-15.7743" gradientUnits="userSpaceOnUse">
<stop stop-color="#C79081"/>
<stop offset="1" stop-color="#DFA579"/>
</linearGradient>
<linearGradient id="paint1_linear" x1="17.3625" y1="-18.4092" x2="28.8868" y2="-17.8653" gradientUnits="userSpaceOnUse">
<stop stop-color="#C79081"/>
<stop offset="1" stop-color="#DFA579"/>
</linearGradient>
<linearGradient id="paint2_linear" x1="1.64494" y1="20.2813" x2="7.26519" y2="21.8868" gradientUnits="userSpaceOnUse">
<stop stop-color="#C79081"/>
<stop offset="1" stop-color="#DFA579"/>
</linearGradient>
<linearGradient id="paint3_linear" x1="18.1523" y1="20.2813" x2="23.7725" y2="21.8868" gradientUnits="userSpaceOnUse">
<stop stop-color="#C79081"/>
<stop offset="1" stop-color="#DFA579"/>
</linearGradient>
<linearGradient id="paint4_linear" x1="2.23306" y1="0.239401" x2="11.5035" y2="1.75508" gradientUnits="userSpaceOnUse">
<stop stop-color="#C79081"/>
<stop offset="1" stop-color="#DFA579"/>
</linearGradient>
<linearGradient id="paint5_linear" x1="1.7159" y1="-8.32757" x2="18.5453" y2="-6.53276" gradientUnits="userSpaceOnUse">
<stop stop-color="#C79081"/>
<stop offset="1" stop-color="#DFA579"/>
</linearGradient>
<clipPath id="clip0">
<rect width="26" height="26" fill="white"/>
</clipPath>
</defs>
</svg>
