<svg width="20" height="20" viewBox="0 0 20 20" fill="none" xmlns="http://www.w3.org/2000/svg">
<path d="M17.2737 2.87855C17.2317 2.81059 17.173 2.75449 17.1032 2.71558C17.0335 2.67667 16.9549 2.65625 16.875 2.65625H15.6216C15.6447 2.7949 15.6576 2.93508 15.66 3.07563C15.6743 3.78481 15.4181 4.47285 14.9435 5H15.2815C14.975 5.5 14.6192 6.05016 14.2269 6.60406C12.3446 9.26137 11.0509 9.98648 10.2972 10.1268L9.99998 10.1822L9.70287 10.1268C8.94897 9.98648 7.65541 9.26137 5.77319 6.60402C5.3808 6.05008 5.02502 5.49996 4.7185 5H10.7526C10.3007 4.49819 10.046 3.84956 10.0359 3.17434C10.033 3.00082 10.046 2.8274 10.0747 2.65625H3.12498C3.04509 2.65625 2.96651 2.67668 2.89673 2.71559C2.82695 2.75449 2.76827 2.81059 2.72626 2.87856C2.68425 2.94652 2.66032 3.0241 2.65672 3.10392C2.65313 3.18373 2.67 3.26314 2.70573 3.33461C3.38535 4.65609 4.15461 5.92952 5.00811 7.14598C6.66783 9.48906 8.18654 10.7983 9.53123 11.0483V16.75C9.02342 17.5205 6.80639 18.4864 5.47655 18.9302C5.37083 18.9653 5.28107 19.0369 5.22337 19.1322C5.16566 19.2275 5.14378 19.3402 5.16165 19.4502C5.17951 19.5601 5.23596 19.6601 5.32086 19.7323C5.40577 19.8044 5.51358 19.8439 5.62498 19.8438H14.375C14.4863 19.8438 14.594 19.8042 14.6788 19.7321C14.7636 19.66 14.82 19.5601 14.8378 19.4502C14.8557 19.3403 14.8339 19.2277 14.7763 19.1324C14.7186 19.0372 14.629 18.9655 14.5234 18.9303C13.1936 18.4866 10.9765 17.5207 10.4687 16.75V11.0485C11.8134 10.7981 13.332 9.48906 14.9919 7.14617C15.8454 5.92972 16.6146 4.65629 17.2942 3.3348C17.33 3.26332 17.3469 3.18387 17.3433 3.10401C17.3397 3.02416 17.3158 2.94655 17.2737 2.87855Z" fill="#F1F1F4"/>
<path d="M12.8476 5.46766C13.1588 5.46794 13.467 5.40619 13.7541 5.28599C14.0412 5.1658 14.3015 4.98958 14.5197 4.76763C14.7379 4.54569 14.9097 4.28247 15.025 3.99336C15.1403 3.70426 15.1969 3.39507 15.1913 3.08387C15.1883 2.91749 15.1677 2.7519 15.1299 2.58984C15.3567 2.46732 15.5708 2.32238 15.7687 2.15719C16.3635 1.66129 16.7187 1.08859 16.7187 0.625C16.7187 0.50068 16.6693 0.381451 16.5814 0.293544C16.4935 0.205636 16.3742 0.15625 16.2499 0.15625C16.1256 0.15625 16.0064 0.205636 15.9184 0.293544C15.8305 0.381451 15.7812 0.50068 15.7812 0.625C15.7812 0.726758 15.5962 1.08043 15.1686 1.43676C15.0337 1.54953 14.8892 1.65018 14.7367 1.73754C14.5347 1.46249 14.2751 1.23486 13.976 1.07058C13.6769 0.906293 13.3456 0.809309 13.0051 0.786407C12.6646 0.763505 12.3233 0.815238 12.0049 0.937988C11.6865 1.06074 11.3988 1.25155 11.1618 1.49707C10.8421 1.82786 10.6269 2.24546 10.543 2.69778C10.4591 3.15009 10.5102 3.6171 10.69 4.04054C10.8697 4.46399 11.1702 4.82513 11.5539 5.07892C11.9376 5.3327 12.3875 5.46791 12.8476 5.46766Z" fill="#F1F1F4"/>
<path d="M11.4062 7.1875C11.6651 7.1875 11.875 6.97763 11.875 6.71875C11.875 6.45987 11.6651 6.25 11.4062 6.25C11.1474 6.25 10.9375 6.45987 10.9375 6.71875C10.9375 6.97763 11.1474 7.1875 11.4062 7.1875Z" fill="#F1F1F4"/>
<path d="M8.59375 7.8125C8.85263 7.8125 9.0625 7.60263 9.0625 7.34375C9.0625 7.08487 8.85263 6.875 8.59375 6.875C8.33487 6.875 8.125 7.08487 8.125 7.34375C8.125 7.60263 8.33487 7.8125 8.59375 7.8125Z" fill="#F1F1F4"/>
<path d="M10.1562 9.0625C10.4151 9.0625 10.625 8.85263 10.625 8.59375C10.625 8.33487 10.4151 8.125 10.1562 8.125C9.89737 8.125 9.6875 8.33487 9.6875 8.59375C9.6875 8.85263 9.89737 9.0625 10.1562 9.0625Z" fill="#F1F1F4"/>
</svg>
