<svg width="20" height="20" viewBox="0 0 20 20" fill="none" xmlns="http://www.w3.org/2000/svg">
<path d="M19.4708 7.21734C19.556 5.81308 19.4193 4.51695 18.862 3.50289C18.7576 3.30788 18.6345 3.12343 18.4946 2.95211C17.5624 1.75336 16.5126 1.20211 15.3935 1.30187C15.3903 1.30219 15.387 1.30234 15.3838 1.30265C15.374 1.30355 15.3643 1.3048 15.3543 1.30582C14.654 1.37762 13.9268 1.70371 13.1847 2.28527C13.1737 2.29387 13.1627 2.30226 13.1517 2.31101C13.1508 2.31172 13.1499 2.3125 13.1489 2.3132C12.6037 2.72473 12.1841 3.31582 11.8628 4.01723C11.3001 5.24379 11.038 6.80629 10.926 8.33609C10.8452 9.43574 10.842 10.5181 10.8611 11.4455C10.8604 11.7217 10.8599 11.9948 10.8579 12.2651C10.8508 13.2083 10.8258 14.1154 10.719 15.005C10.5224 16.6436 10.7088 17.7553 11.3054 18.5036C12.1938 19.5368 13.4265 19.6158 14.5949 19.6762C16.6968 19.6695 17.5681 18.2923 17.8553 15.8612C17.9895 14.7894 18.3145 13.4674 18.64 12.0618C19.008 10.6381 19.3884 8.87765 19.4708 7.21734ZM16.9251 15.7447L16.9243 15.7511C16.7938 16.8555 16.5478 17.6218 16.172 18.094C15.9365 18.39 15.547 18.7296 14.6163 18.7385C13.4387 18.6769 12.6186 18.5814 12.0281 17.906C11.6124 17.3723 11.4887 16.4595 11.6499 15.1166C11.7927 13.9262 11.796 12.735 11.7985 11.4748C12.5526 10.8641 13.6831 10.154 14.9015 10.3135C16.2951 10.496 17.1638 11.3191 17.6835 12.0365C17.6572 12.1493 17.6312 12.2613 17.6054 12.3724C17.3189 13.5995 17.0485 14.7584 16.9251 15.7448V15.7447Z" fill="#F1F1F4"/>
<path d="M9.69729 13.9097C9.52119 12.844 9.45693 11.484 9.36943 10.0439C9.31752 8.57435 9.18174 6.7783 8.78869 5.16322C8.47115 3.79275 7.97166 2.589 7.14912 1.77521C6.99354 1.6179 6.82309 1.47602 6.64018 1.35154C6.626 1.34138 6.61186 1.33162 6.59768 1.32162C5.38033 0.463335 4.23299 0.242515 3.20135 0.649742C3.19717 0.651382 3.19299 0.652866 3.18881 0.654546C3.18057 0.657827 3.1724 0.661421 3.16424 0.664781C2.50248 0.936187 1.88877 1.46712 1.33549 2.25572C0.92842 2.80576 0.693771 3.49291 0.584826 4.25822C0.394123 5.59334 0.586701 7.16447 0.913889 8.66228C1.14912 9.74041 1.45404 10.7801 1.73623 11.6644C1.81412 11.9295 1.89076 12.1917 1.96615 12.4512C2.22752 13.3574 2.46139 14.2343 2.61197 15.1175C2.88932 16.7444 3.38404 17.7572 4.16881 18.305C5.3142 19.0429 6.51846 18.7683 7.65588 18.494C9.66924 17.8902 10.1131 16.3222 9.69729 13.9097ZM8.71822 16.529C8.57658 16.8797 8.29975 17.3161 7.40994 17.5892C6.26342 17.8649 5.44994 18.0065 4.69178 17.5267C4.14158 17.1332 3.7635 16.2933 3.53619 14.9599C3.33467 13.778 2.9992 12.635 2.64338 11.4261C3.19272 10.6262 4.07467 9.62408 5.28811 9.43064C6.67619 9.20935 7.74295 9.75158 8.44518 10.2916C8.45213 10.4072 8.45895 10.522 8.46565 10.636C8.53986 11.8938 8.61018 13.0817 8.77233 14.0625L8.77342 14.0688C8.96229 15.1649 8.94424 15.9695 8.71822 16.529Z" fill="#F1F1F4"/>
</svg>
