<svg width="20" height="20" viewBox="0 0 20 20" fill="none" xmlns="http://www.w3.org/2000/svg">
<g clip-path="url(#clip0)">
<path d="M15.9864 11.2175C15.7113 11.2175 15.4403 11.1124 15.23 10.902C12.3419 8.01803 7.64984 8.01803 4.76178 10.902C4.34516 11.3187 3.66562 11.3187 3.24899 10.902C2.83237 10.4854 2.83237 9.80587 3.24899 9.38925C6.9703 5.66794 13.0215 5.66794 16.7428 9.38925C17.1594 9.80587 17.1594 10.4854 16.7428 10.902C16.5324 11.1124 16.2574 11.2175 15.9864 11.2175Z" fill="#F1F1F4"/>
<path d="M13.0903 14.1096C12.8153 14.1096 12.5443 14.0044 12.3339 13.7941C11.711 13.1712 10.8778 12.8274 9.99598 12.8274C9.11419 12.8274 8.28094 13.1712 7.65802 13.7941C7.2414 14.2107 6.56186 14.2107 6.14523 13.7941C5.72861 13.3775 5.72861 12.6979 6.14523 12.2813C7.17264 11.2539 8.53981 10.6876 9.99598 10.6876C11.4521 10.6876 12.8193 11.2539 13.8467 12.2854C14.2633 12.702 14.2633 13.3815 13.8467 13.7981C13.6404 14.0044 13.3654 14.1096 13.0903 14.1096Z" fill="#F1F1F4"/>
<path d="M9.99597 17.5639C10.7846 17.5639 11.4238 16.9247 11.4238 16.1361C11.4238 15.3475 10.7846 14.7083 9.99597 14.7083C9.20739 14.7083 8.56812 15.3475 8.56812 16.1361C8.56812 16.9247 9.20739 17.5639 9.99597 17.5639Z" fill="#F1F1F4"/>
<path d="M18.9271 8.27687C18.652 8.27687 18.381 8.1717 18.1707 7.96137C13.6606 3.45535 6.33128 3.45535 1.82526 7.96137C1.40864 8.37799 0.729093 8.37799 0.312468 7.96137C-0.104156 7.54474 -0.104156 6.8652 0.312468 6.44857C2.9012 3.85984 6.33937 2.43604 10 2.43604C13.6606 2.43604 17.0988 3.85984 19.6875 6.44857C20.1042 6.8652 20.1042 7.54474 19.6875 7.96137C19.4732 8.1717 19.1981 8.27687 18.9271 8.27687Z" fill="#F1F1F4"/>
</g>
<defs>
<clipPath id="clip0">
<rect width="20" height="20" fill="white"/>
</clipPath>
</defs>
</svg>
