<svg width="20" height="20" viewBox="0 0 20 20" fill="none" xmlns="http://www.w3.org/2000/svg">
<path d="M17.0938 9.60344L14.3159 2.38098L13.3987 7.42586L14.784 10.7161C14.7966 10.7455 14.8151 10.772 14.8383 10.7941C14.8615 10.8161 14.8889 10.8332 14.919 10.8443C14.949 10.8554 14.9809 10.8603 15.0129 10.8587C15.0449 10.857 15.0762 10.8489 15.1049 10.8348L16.9799 9.89727C17.032 9.87121 17.0725 9.82668 17.0936 9.77236C17.1147 9.71803 17.1147 9.65781 17.0938 9.60344Z" fill="#F1F1F4"/>
<path d="M5.68415 2.38098L2.90626 9.60344C2.88534 9.65781 2.88542 9.71802 2.90647 9.77234C2.92753 9.82665 2.96806 9.87118 3.02017 9.89723L4.89517 10.8347C4.92389 10.8489 4.95518 10.857 4.98715 10.8586C5.01911 10.8603 5.05108 10.8554 5.0811 10.8443C5.11111 10.8332 5.13856 10.8161 5.16176 10.794C5.18495 10.772 5.20342 10.7454 5.21602 10.716L6.60157 7.42586L5.68415 2.38098Z" fill="#F1F1F4"/>
<path d="M13.3594 10.9376C13.3594 10.1609 13.1337 9.395 12.9482 8.89648L11.137 9.86246L11.1175 10.0023L12.0955 10.524C12.1502 10.5527 12.1987 10.592 12.2382 10.6396C12.2777 10.6871 12.3074 10.742 12.3255 10.8011C12.3437 10.8601 12.35 10.9222 12.3441 10.9838C12.3382 11.0453 12.3202 11.105 12.2911 11.1596C12.262 11.2141 12.2225 11.2623 12.1747 11.3015C12.1269 11.3407 12.0718 11.37 12.0126 11.3878C11.9534 11.4056 11.8913 11.4116 11.8298 11.4053C11.7683 11.399 11.7087 11.3806 11.6543 11.3512L10.9801 10.9916L10.3127 15.7963L10.7043 19.711C10.7101 19.7688 10.7372 19.8224 10.7803 19.8614C10.8234 19.9004 10.8794 19.922 10.9375 19.922H13.75C13.7824 19.922 13.8145 19.9152 13.8442 19.9022C13.8739 19.8892 13.9006 19.8701 13.9225 19.8463C13.9445 19.8224 13.9612 19.7942 13.9717 19.7636C13.9822 19.7329 13.9863 19.7004 13.9836 19.6681C13.9773 19.5932 13.3594 12.1636 13.3594 10.9376Z" fill="#F1F1F4"/>
<path d="M11.3215 8.53425L11.2964 8.71488L12.592 8.02394C12.6631 7.98599 12.7429 7.96715 12.8235 7.96925L13.9805 1.60445C13.9896 1.55456 13.9822 1.50307 13.9596 1.45771C13.9369 1.41235 13.9001 1.37557 13.8548 1.35288L11.3548 0.102884C11.323 0.0869912 11.288 0.0785297 11.2525 0.0781392C11.217 0.0777486 11.1818 0.0854393 11.1497 0.10063C11.1176 0.11582 11.0894 0.138113 11.0671 0.165823C11.0449 0.193533 11.0293 0.225935 11.0214 0.260579L10.2466 3.67038L11.3102 8.27945C11.3295 8.36297 11.3334 8.44934 11.3215 8.53425Z" fill="#F1F1F4"/>
<path d="M7.17663 7.96914C7.25722 7.96705 7.33698 7.98589 7.40811 8.02383L10 9.40629L10.7852 8.98746L10.8571 8.46976C10.8609 8.44146 10.8596 8.41267 10.8532 8.38484L8.97815 0.259843C8.97018 0.225285 8.95448 0.192986 8.93222 0.165379C8.90995 0.137772 8.88172 0.115577 8.84963 0.100466C8.81755 0.0853546 8.78245 0.0777215 8.74699 0.0781414C8.71153 0.0785614 8.67663 0.0870235 8.64491 0.10289L6.14491 1.35289C6.09956 1.37558 6.06278 1.41236 6.04011 1.45772C6.01744 1.50307 6.01009 1.55456 6.01917 1.60445L7.17663 7.96914Z" fill="#F1F1F4"/>
<path d="M9.99999 10.4688L8.34558 11.3512C8.29123 11.3806 8.2316 11.399 8.17012 11.4053C8.10863 11.4116 8.04651 11.4056 7.98733 11.3878C7.92815 11.37 7.87307 11.3407 7.82527 11.3015C7.77747 11.2623 7.73789 11.2141 7.7088 11.1596C7.67972 11.105 7.66171 11.0453 7.6558 10.9838C7.64989 10.9222 7.65621 10.8601 7.67439 10.8011C7.69257 10.742 7.72225 10.6871 7.76173 10.6396C7.8012 10.592 7.84969 10.5527 7.90441 10.524L9.0039 9.93758L7.05187 8.89648C6.86632 9.395 6.64062 10.1609 6.64062 10.9376C6.64062 12.1636 6.02269 19.5932 6.01644 19.6681C6.01374 19.7004 6.01777 19.7329 6.02828 19.7636C6.03879 19.7942 6.05555 19.8224 6.0775 19.8463C6.09945 19.8701 6.12612 19.8892 6.15581 19.9022C6.1855 19.9152 6.21757 19.922 6.25 19.922H9.06249C9.11907 19.922 9.17374 19.9015 9.21641 19.8643C9.25908 19.8272 9.28686 19.7759 9.29464 19.7198L10.5396 10.7566L9.99999 10.4688Z" fill="#F1F1F4"/>
</svg>
