<svg width="20" height="20" viewBox="0 0 20 20" fill="none" xmlns="http://www.w3.org/2000/svg">
<path d="M6.78674 10.2565C6.79987 10.0426 6.813 9.82841 6.84105 9.61203C6.8929 9.09901 7.00432 8.58388 7.11816 8.08278C7.18745 7.83283 7.26252 7.58593 7.34126 7.34455C7.44197 7.10894 7.54052 6.8746 7.6388 6.64572C7.86128 6.19894 8.11001 5.78147 8.40693 5.43203C8.47742 5.34199 8.54729 5.25473 8.61569 5.16716C8.6938 5.08905 8.77197 5.01335 8.8473 4.93765C9.00631 4.79392 9.14421 4.63827 9.30296 4.52412C9.61936 4.28977 9.8993 4.06699 10.1843 3.92904C10.459 3.7758 10.6945 3.64279 10.9069 3.56773C11.3232 3.4002 11.5594 3.31599 11.5594 3.31599C11.5594 3.31599 11.358 3.4759 11.0058 3.7353C10.8239 3.85402 10.6311 4.0414 10.4016 4.23336C10.1623 4.41643 9.94564 4.67888 9.68807 4.9304C9.55927 5.05889 9.45924 5.22032 9.33742 5.36893C9.27822 5.44463 9.21749 5.52091 9.15488 5.59845C9.10423 5.68392 9.05175 5.76965 8.99865 5.85722C8.77129 6.19416 8.60135 6.58967 8.42426 6.99096C8.35161 7.20093 8.27812 7.41394 8.203 7.62906C8.15173 7.85274 8.09499 8.07884 8.03306 8.30409C7.93997 8.767 7.84872 9.23916 7.80932 9.72466C7.7819 9.90075 7.76877 10.0784 7.75227 10.2572C11.61 10.2578 14.5958 10.2602 18.7737 10.2602C18.7878 10.0771 18.7957 9.89155 18.7957 9.70512C18.7957 6.18649 16.2316 3.28852 12.932 2.90462C13.145 2.70536 13.2799 2.42274 13.2799 2.10839C13.2812 1.50417 12.7917 1.01526 12.1886 1.01526C11.585 1.01526 11.0949 1.50417 11.0949 2.10839C11.0949 2.42337 11.2292 2.70531 11.4428 2.90462C8.14353 3.28852 5.58008 6.18649 5.58008 9.70512C5.58008 9.89097 5.58675 10.074 5.60051 10.2566C6.00795 10.2565 6.40131 10.2565 6.78674 10.2565Z" fill="#F1F1F4"/>
<path d="M20 10.6636H4.37744V12.0418H20V10.6636Z" fill="#F1F1F4"/>
<path d="M13.5864 13.0202C12.7924 13.4059 10.0238 14.4045 10.0238 14.4045L6.75109 14.1994C6.75109 14.1994 8.62307 13.6788 9.34874 13.5158C10.0757 13.3535 9.75949 12.5338 9.35757 12.5338C8.9557 12.5338 5.45319 12.6784 5.45319 12.6784L3.12744 13.5158L3.74296 17.4117C3.74296 17.4117 4.22179 16.592 4.69941 16.592C5.17881 16.592 9.33136 16.7025 9.89502 16.592C10.459 16.4803 13.8941 14.1304 14.3054 13.8564C14.715 13.5836 14.3835 12.6339 13.5864 13.0202Z" fill="#F1F1F4"/>
<path d="M0 13.9345V18.9846L3.56324 18.3174L2.67183 13.4645L0 13.9345Z" fill="#F1F1F4"/>
</svg>
