<svg width="20" height="20" viewBox="0 0 20 20" fill="none" xmlns="http://www.w3.org/2000/svg">
<path d="M5 5.63232C5.36675 5.63232 5.66406 5.33501 5.66406 4.96826C5.66406 4.60151 5.36675 4.3042 5 4.3042C4.63325 4.3042 4.33594 4.60151 4.33594 4.96826C4.33594 5.33501 4.63325 5.63232 5 5.63232Z" fill="#F1F1F4"/>
<path d="M19.2305 0.661717L16.2109 1.65785V8.27847L19.2305 9.27461C19.6091 9.39945 20 9.11726 20 8.71816V1.21816C20 0.819569 19.6095 0.536717 19.2305 0.661717Z" fill="#F1F1F4"/>
<path d="M5.0509 9.86467C5.61047 9.85713 4.99219 9.93971 15.0391 8.16662V1.76983L5.84598 0.147444C2.83164 -0.384352 0 1.91381 0 4.96823C0 7.71877 2.31117 9.90561 5.0509 9.86467ZM3.16406 4.96823C3.16406 3.95588 3.98766 3.13229 5 3.13229C6.01234 3.13229 6.83594 3.95588 6.83594 4.96823C6.83594 5.98057 6.01234 6.80416 5 6.80416C3.98766 6.80416 3.16406 5.98057 3.16406 4.96823Z" fill="#F1F1F4"/>
<path d="M15.4687 12.1948C14.3778 12.1948 13.4765 13.0761 13.4765 14.187V16.1792C13.4765 17.5903 12.3462 18.7469 10.9569 18.7573C9.65225 18.7638 8.61424 17.8097 8.42885 16.6121C9.30428 16.2121 9.8065 15.2731 9.6415 14.3161L8.97096 10.4275C7.58482 10.6721 6.24143 10.9133 4.7749 11.1574L5.45057 15.042C5.61045 15.961 6.3449 16.6646 7.26943 16.7858C7.5367 18.5387 9.06354 19.9446 10.9656 19.9292C12.9963 19.914 14.6483 18.2318 14.6483 16.1792V14.187C14.6483 13.7292 15.0194 13.3667 15.4687 13.3667C15.921 13.3667 16.289 13.7346 16.289 14.187V19.3432C16.289 19.6668 16.5513 19.9292 16.8749 19.9292C17.1985 19.9292 17.4608 19.6668 17.4608 19.3432V14.187C17.4608 13.0885 16.5672 12.1948 15.4687 12.1948Z" fill="#F1F1F4"/>
</svg>
