<svg width="20" height="20" viewBox="0 0 20 20" fill="none" xmlns="http://www.w3.org/2000/svg">
<g clip-path="url(#clip0)">
<path d="M19.5194 0.803345H0.480625C0.215195 0.803345 0 1.01846 0 1.28389V13.2868C0 13.5522 0.215195 13.7673 0.480625 13.7673H19.5194C19.7848 13.7673 20 13.5522 20 13.2868V1.28389C20 1.01854 19.7848 0.803345 19.5194 0.803345Z" fill="#F1F1F4"/>
<path d="M13.2964 17.5346H12.4653H11.3573V15.3739H8.58722V17.5346H7.47917H6.64815C6.18921 17.5346 5.81714 17.9066 5.81714 18.3656C5.81714 18.8245 6.18921 19.1966 6.64815 19.1966H13.2964C13.7553 19.1966 14.1274 18.8245 14.1274 18.3656C14.1274 17.9067 13.7553 17.5346 13.2964 17.5346Z" fill="#F1F1F4"/>
</g>
<defs>
<clipPath id="clip0">
<rect width="20" height="20" fill="white"/>
</clipPath>
</defs>
</svg>
