<svg width="20" height="20" viewBox="0 0 20 20" fill="none" xmlns="http://www.w3.org/2000/svg">
<path d="M15.8333 13.7223V17.5H17.4999V3.33337H15.8333V13.7223Z" fill="#F1F1F4"/>
<path d="M18.8333 2.49996C19.0173 2.49996 19.1666 2.3134 19.1666 2.08329C19.1666 1.85319 19.0173 1.66663 18.8333 1.66663H15.8333V2.49996H18.8333Z" fill="#F1F1F4"/>
<path d="M2.5 14.1666H15V15.8333H2.5V14.1666Z" fill="#F1F1F4"/>
<path d="M15 18.0556V15.8334H2.5V19.1667H15V18.0556Z" fill="#F1F1F4"/>
<path d="M1.22166 2.49996H2.38689C2.38727 2.36467 2.39637 2.22938 2.41401 2.0953C2.41989 2.05075 2.43107 2.00742 2.43885 1.96327C2.45402 1.87497 2.46995 1.78668 2.4929 1.70082C2.49613 1.68963 2.49688 1.67783 2.49992 1.66664H1.22166C1.12058 1.66563 1.02328 1.70876 0.952544 1.78627C0.876304 1.86338 0.833063 1.9708 0.833253 2.0833C0.833253 2.3134 1.00716 2.49996 1.22166 2.49996Z" fill="#F1F1F4"/>
<path d="M15.4955 2.75672V1.7952C15.4947 1.66093 15.5132 1.52712 15.5506 1.39739V1.38784C15.5546 1.37313 15.5625 1.3603 15.567 1.34559C15.5899 1.26875 15.6189 1.19379 15.6538 1.12117C15.6727 1.08299 15.6959 1.0484 15.7178 1.01225C15.745 0.964831 15.7747 0.918821 15.8071 0.874376C15.8166 0.86123 15.8231 0.846207 15.8333 0.833374H4.20997C3.59997 0.834157 3.03656 1.13948 2.73165 1.63464C2.57819 1.87721 2.49803 2.1542 2.50004 2.43621V13.3334H15.4955V2.75672Z" fill="#F1F1F4"/>
</svg>
