<svg width="24" height="24" viewBox="0 0 24 24" fill="none" xmlns="http://www.w3.org/2000/svg">
<path d="M21.9994 16.9199V19.9199C22.0006 20.1984 21.9435 20.474 21.832 20.7292C21.7204 20.9844 21.5567 21.2134 21.3515 21.4017C21.1463 21.59 20.904 21.7333 20.6402 21.8226C20.3764 21.9118 20.0968 21.9449 19.8194 21.9199C16.7423 21.5855 13.7864 20.534 11.1894 18.8499C8.77327 17.3145 6.72478 15.266 5.18944 12.8499C3.49942 10.2411 2.44769 7.27085 2.11944 4.17985C2.09446 3.90332 2.12732 3.62461 2.21595 3.36148C2.30457 3.09834 2.44702 2.85654 2.63421 2.65147C2.82141 2.44641 3.04925 2.28256 3.30324 2.17037C3.55722 2.05819 3.83179 2.00011 4.10944 1.99985H7.10944C7.59475 1.99508 8.06524 2.16693 8.43321 2.48339C8.80118 2.79984 9.04152 3.2393 9.10944 3.71985C9.23607 4.67992 9.47089 5.62258 9.80944 6.52985C9.94399 6.88778 9.97311 7.27677 9.89335 7.65073C9.81359 8.0247 9.62831 8.36796 9.35944 8.63985L8.08944 9.90985C9.513 12.4134 11.5859 14.4863 14.0894 15.9099L15.3594 14.6399C15.6313 14.371 15.9746 14.1857 16.3486 14.1059C16.7225 14.0262 17.1115 14.0553 17.4694 14.1899C18.3767 14.5284 19.3194 14.7632 20.2794 14.8899C20.7652 14.9584 21.2088 15.2031 21.526 15.5773C21.8431 15.9516 22.0116 16.4294 21.9994 16.9199Z" stroke="#CE9D70" stroke-width="1.6" stroke-linecap="round" stroke-linejoin="round"/>
</svg>
