<svg width="19" height="20" viewBox="0 0 19 20" fill="none" xmlns="http://www.w3.org/2000/svg">
<path d="M17.4166 13.8949V16.2699C17.4175 16.4904 17.3724 16.7087 17.284 16.9107C17.1957 17.1127 17.0662 17.294 16.9037 17.4431C16.7412 17.5921 16.5494 17.7056 16.3406 17.7762C16.1317 17.8469 15.9104 17.8731 15.6908 17.8533C13.2547 17.5886 10.9147 16.7561 8.85872 15.4229C6.94591 14.2074 5.32419 12.5857 4.10872 10.6729C2.77078 8.60755 1.93816 6.25614 1.6783 3.8091C1.65852 3.59018 1.68454 3.36954 1.7547 3.16122C1.82486 2.9529 1.93763 2.76148 2.08582 2.59913C2.23402 2.43679 2.4144 2.30708 2.61547 2.21826C2.81654 2.12945 3.0339 2.08347 3.25372 2.08327H5.62872C6.01292 2.07949 6.38539 2.21554 6.6767 2.46606C6.968 2.71659 7.15828 3.0645 7.21205 3.44493C7.31229 4.20499 7.4982 4.95126 7.76622 5.66952C7.87273 5.95287 7.89578 6.26082 7.83264 6.55688C7.7695 6.85294 7.62282 7.12469 7.40997 7.33993L6.40455 8.34535C7.53153 10.3273 9.17258 11.9684 11.1546 13.0954L12.16 12.0899C12.3752 11.8771 12.647 11.7304 12.943 11.6673C13.2391 11.6041 13.547 11.6272 13.8304 11.7337C14.5486 12.0017 15.2949 12.1876 16.055 12.2879C16.4395 12.3421 16.7907 12.5358 17.0418 12.8321C17.2929 13.1284 17.4263 13.5067 17.4166 13.8949Z" stroke="#CE9D70" stroke-width="1.6" stroke-linecap="round" stroke-linejoin="round"/>
</svg>
