<svg width="19" height="20" viewBox="0 0 19 20" fill="none" xmlns="http://www.w3.org/2000/svg">
<path d="M17.4167 13.895V16.27C17.4176 16.4905 17.3724 16.7087 17.2841 16.9107C17.1958 17.1127 17.0662 17.2941 16.9038 17.4431C16.7413 17.5922 16.5495 17.7057 16.3406 17.7763C16.1318 17.8469 15.9104 17.8732 15.6909 17.8533C13.2548 17.5886 10.9147 16.7562 8.85878 15.4229C6.94598 14.2074 5.32425 12.5857 4.10878 10.6729C2.77084 8.60762 1.93822 6.2562 1.67836 3.80916C1.65858 3.59024 1.6846 3.3696 1.75476 3.16128C1.82492 2.95297 1.93769 2.76154 2.08588 2.5992C2.23408 2.43685 2.41446 2.30714 2.61553 2.21833C2.8166 2.12951 3.03396 2.08354 3.25378 2.08333H5.62878C6.01298 2.07955 6.38545 2.2156 6.67676 2.46613C6.96807 2.71665 7.15834 3.06456 7.21211 3.445C7.31235 4.20505 7.49826 4.95132 7.76628 5.66958C7.87279 5.95293 7.89584 6.26089 7.8327 6.55694C7.76956 6.853 7.62288 7.12475 7.41003 7.34L6.40461 8.34541C7.53159 10.3274 9.17264 11.9684 11.1546 13.0954L12.16 12.09C12.3753 11.8771 12.647 11.7305 12.9431 11.6673C13.2391 11.6042 13.5471 11.6272 13.8304 11.7337C14.5487 12.0018 15.295 12.1877 16.055 12.2879C16.4396 12.3422 16.7908 12.5359 17.0419 12.8322C17.2929 13.1285 17.4263 13.5067 17.4167 13.895Z" stroke="#818A8A" stroke-width="1.6" stroke-linecap="round" stroke-linejoin="round"/>
</svg>
