<svg width="57" height="58" viewBox="0 0 57 58" fill="none" xmlns="http://www.w3.org/2000/svg">
<g filter="url(#filter0_b)">
<path d="M57 29C57 45.0167 44.2406 58 28.5 58C12.7595 58 0 45.0167 0 29C0 12.9862 12.7595 0 28.5 0C44.2406 0 57 12.9862 57 29Z" fill="url(#paint0_radial)"/>
</g>
<g filter="url(#filter1_b)">
<path d="M45.4869 28.7808C45.4869 38.1909 37.989 45.8187 28.7393 45.8187C19.4896 45.8187 11.9917 38.1909 11.9917 28.7808C11.9917 19.3725 19.4896 11.7429 28.7393 11.7429C37.989 11.7429 45.4869 19.3725 45.4869 28.7808Z" fill="url(#paint1_linear)"/>
</g>
<path d="M36.1499 28.8135L23.9999 35.877L23.9999 21.75L36.1499 28.8135Z" fill="white"/>
<defs>
<filter id="filter0_b" x="-10.5368" y="-10.5368" width="78.0737" height="79.0737" filterUnits="userSpaceOnUse" color-interpolation-filters="sRGB">
<feFlood flood-opacity="0" result="BackgroundImageFix"/>
<feGaussianBlur in="BackgroundImage" stdDeviation="5.26842"/>
<feComposite in2="SourceAlpha" operator="in" result="effect1_backgroundBlur"/>
<feBlend mode="normal" in="SourceGraphic" in2="effect1_backgroundBlur" result="shape"/>
</filter>
<filter id="filter1_b" x="-7.46093" y="-7.70971" width="72.4005" height="72.9811" filterUnits="userSpaceOnUse" color-interpolation-filters="sRGB">
<feFlood flood-opacity="0" result="BackgroundImageFix"/>
<feGaussianBlur in="BackgroundImage" stdDeviation="9.72632"/>
<feComposite in2="SourceAlpha" operator="in" result="effect1_backgroundBlur"/>
<feBlend mode="normal" in="SourceGraphic" in2="effect1_backgroundBlur" result="shape"/>
</filter>
<radialGradient id="paint0_radial" cx="0" cy="0" r="1" gradientUnits="userSpaceOnUse" gradientTransform="translate(28.1392 29) rotate(89.2873) scale(29.0022 28.5022)">
<stop stop-color="#E5BA93"/>
<stop offset="1" stop-color="#E5BA93" stop-opacity="0"/>
</radialGradient>
<linearGradient id="paint1_linear" x1="8.59084" y1="-25.3754" x2="57.3133" y2="-19.903" gradientUnits="userSpaceOnUse">
<stop stop-color="#C79081"/>
<stop offset="1" stop-color="#DFA579"/>
</linearGradient>
</defs>
</svg>
