<svg width="24" height="25" viewBox="0 0 24 25" fill="none" xmlns="http://www.w3.org/2000/svg">
<g clip-path="url(#clip0)">
<path fill-rule="evenodd" clip-rule="evenodd" d="M20.4942 0.97876C18.5611 0.97876 16.9884 2.55142 16.9884 4.48454C16.9884 5.26923 17.4806 6.45189 18.4936 8.09954C18.8503 8.67939 19.2038 9.20626 19.4709 9.59204H8.88891C6.81469 9.59204 5.12766 11.2795 5.12766 13.3538C5.12766 15.428 6.81469 17.115 8.88891 17.115H13.7053C14.7905 17.115 15.6736 17.9981 15.6736 19.0838C15.6736 20.1694 14.7905 21.0525 13.7053 21.0525H4.56984C4.29141 20.0775 3.39281 19.3613 2.32969 19.3613C1.04484 19.3613 0 20.4066 0 21.6914C0 22.9758 1.04484 24.0211 2.32969 24.0211C3.34547 24.0211 4.21125 23.3672 4.52906 22.4588H13.7053C15.5662 22.4588 17.0798 20.9447 17.0798 19.0838C17.0798 17.2228 15.5662 15.7088 13.7053 15.7088H8.88891C7.59047 15.7088 6.53391 14.6522 6.53391 13.3538C6.53391 12.0549 7.59047 10.9983 8.88891 10.9983H20.4938L21.0591 10.2356C21.0886 10.1958 21.7861 9.25173 22.4944 8.09954C23.5073 6.45189 24 5.26923 24 4.48454C24 2.55142 22.4273 0.97876 20.4942 0.97876ZM22.7369 4.41854C22.7369 5.65395 21.7354 6.65544 20.5 6.65544C19.2646 6.65544 18.2631 5.65395 18.2631 4.41854C18.2631 3.18314 19.2646 2.18164 20.5 2.18164C21.7354 2.18164 22.7369 3.18314 22.7369 4.41854ZM2.26731 23.0437C3.02561 23.0437 3.64034 22.4289 3.64034 21.6706C3.64034 20.9123 3.02561 20.2976 2.26731 20.2976C1.50901 20.2976 0.894287 20.9123 0.894287 21.6706C0.894287 22.4289 1.50901 23.0437 2.26731 23.0437Z" fill="#CE9D70"/>
</g>
<defs>
<clipPath id="clip0">
<rect width="24" height="24" fill="white" transform="translate(0 0.5)"/>
</clipPath>
</defs>
</svg>
