<svg width="32" height="32" viewBox="0 0 32 32" fill="none" xmlns="http://www.w3.org/2000/svg">
<circle cx="16" cy="16" r="16" fill="url(#paint0_linear)"/>
<path d="M24.3773 13.6252C24.267 13.2871 23.9645 13.047 23.6067 13.015L18.7456 12.5775L16.8234 8.11743C16.6816 7.79056 16.3589 7.57898 16.0002 7.57898C15.6416 7.57898 15.3188 7.79056 15.1771 8.11819L13.2549 12.5775L8.39301 13.015C8.03578 13.0478 7.73407 13.2871 7.62317 13.6252C7.51228 13.9633 7.61469 14.3341 7.88492 14.5678L11.5593 17.7623L10.4758 22.4937C10.3965 22.8416 10.5328 23.2012 10.8239 23.4098C10.9804 23.5219 11.1636 23.579 11.3482 23.579C11.5074 23.579 11.6653 23.5364 11.8071 23.4524L16.0002 20.968L20.1918 23.4524C20.4986 23.6353 20.8852 23.6186 21.1757 23.4098C21.467 23.2005 21.6031 22.8408 21.5238 22.4937L20.4403 17.7623L24.1147 14.5685C24.385 14.3341 24.4882 13.9639 24.3773 13.6252Z" fill="#F8F5F1"/>
<defs>
<linearGradient id="paint0_linear" x1="-3.24904" y1="-34.8571" x2="43.2782" y2="-29.5407" gradientUnits="userSpaceOnUse">
<stop stop-color="#C79081"/>
<stop offset="1" stop-color="#DFA579"/>
</linearGradient>
</defs>
</svg>
