<svg width="45" height="25" viewBox="0 0 45 25" fill="none" xmlns="http://www.w3.org/2000/svg">
<g clip-path="url(#clip0)">
<path d="M0.398493 23.1373C0.480961 23.0516 0.58061 22.9838 0.690567 22.9303C0.800525 22.8803 0.92079 22.8554 1.04449 22.8554H1.58741C1.60802 22.8554 1.61833 22.8447 1.61833 22.8232C1.61833 22.8018 1.60459 22.7911 1.58053 22.7911H1.04793C0.913918 22.7911 0.78678 22.8161 0.666514 22.8696C0.546248 22.9232 0.443164 22.9945 0.353823 23.0873C0.264483 23.1801 0.19576 23.2871 0.144217 23.412C0.0926748 23.5369 0.0651855 23.6689 0.0651855 23.8117C0.0651855 23.9544 0.0926748 24.0864 0.144217 24.2078C0.19576 24.3327 0.267919 24.4397 0.353823 24.5289C0.443164 24.6217 0.546248 24.6931 0.666514 24.7466C0.78678 24.8001 0.913918 24.8251 1.04793 24.8251H1.60115C1.6149 24.818 1.62177 24.8073 1.62177 24.793C1.62177 24.7716 1.60802 24.7609 1.58397 24.7609H1.04793C0.92079 24.7609 0.803961 24.7359 0.694004 24.6859C0.584046 24.636 0.484398 24.5682 0.40193 24.479C0.319462 24.3933 0.254175 24.2934 0.202632 24.1757C0.154526 24.0615 0.130473 23.9366 0.130473 23.8081C0.130473 23.6761 0.154526 23.5512 0.202632 23.437C0.250738 23.3228 0.316026 23.2229 0.398493 23.1373ZM4.49784 22.991C4.43599 22.9303 4.36726 22.8803 4.28479 22.8447C4.20233 22.809 4.11642 22.7911 4.02365 22.7911H3.35703V24.8001C3.35703 24.8215 3.36734 24.8322 3.38796 24.8322C3.40857 24.8322 3.41888 24.818 3.41888 24.7894V24.1685H3.79686L4.42224 24.8144C4.42911 24.8251 4.43599 24.8287 4.44973 24.8287C4.47035 24.8287 4.48066 24.818 4.48066 24.7966C4.48066 24.7859 4.47378 24.7787 4.46347 24.768L3.8862 24.1685H4.02365C4.11642 24.1685 4.20233 24.1507 4.28479 24.115C4.36726 24.0793 4.43599 24.0294 4.49784 23.9687C4.55969 23.908 4.60436 23.8331 4.63872 23.7475C4.67308 23.6618 4.69026 23.5726 4.69026 23.4763C4.69026 23.3799 4.67308 23.2907 4.63872 23.2051C4.60779 23.1266 4.55969 23.0516 4.49784 22.991ZM4.58031 23.7225C4.54938 23.7974 4.50471 23.8652 4.45317 23.9223C4.39819 23.9794 4.33634 24.0258 4.26074 24.0579C4.18858 24.09 4.10955 24.1079 4.02708 24.1079H3.42232V22.8554H4.02708C4.10955 22.8554 4.18515 22.8732 4.26074 22.9053C4.3329 22.9374 4.39819 22.9838 4.45317 23.0409C4.50815 23.098 4.54938 23.1658 4.58031 23.2407C4.61123 23.3157 4.62841 23.3978 4.62841 23.4834C4.62498 23.569 4.61123 23.6475 4.58031 23.7225ZM6.49425 22.8554H7.55946C7.58008 22.8554 7.59038 22.8447 7.59038 22.8232C7.59038 22.8018 7.57664 22.7911 7.54915 22.7911H6.42553V24.8322H7.55946C7.58008 24.8322 7.59038 24.8215 7.59038 24.8001C7.59038 24.7787 7.57664 24.768 7.55259 24.768H6.48738V23.8295H6.68324C6.70385 23.8295 6.71416 23.8188 6.71416 23.7974C6.71416 23.776 6.70042 23.7653 6.67293 23.7653H6.48394C6.48394 23.6083 6.48394 23.4584 6.48394 23.3121C6.49425 23.1622 6.49425 23.0124 6.49425 22.8554ZM9.30503 24.8287H10.2946C10.3153 24.8287 10.3256 24.818 10.3256 24.7966C10.3256 24.7751 10.3118 24.7644 10.2878 24.7644H9.40811L10.3187 22.9267L11.2362 24.818C11.243 24.8287 11.2499 24.8322 11.2636 24.8322C11.2843 24.8322 11.2946 24.8215 11.2946 24.8037V24.7894L10.3153 22.7804L9.30503 24.8287ZM14.5933 22.7911H13.0779C13.0573 22.7911 13.0504 22.8018 13.0504 22.8232C13.0504 22.8447 13.0608 22.8554 13.0779 22.8554H13.8305V24.7966C13.8305 24.818 13.8408 24.8287 13.8614 24.8287C13.882 24.8287 13.8923 24.8144 13.8923 24.7894V22.8554H14.5933C14.6139 22.8554 14.6242 22.8447 14.6242 22.8232C14.6242 22.8125 14.6208 22.8054 14.6173 22.7983C14.607 22.7911 14.6002 22.7911 14.5933 22.7911ZM16.3801 22.7911C16.3595 22.7911 16.3492 22.8018 16.3492 22.8197V24.7966C16.3492 24.8073 16.3526 24.8144 16.356 24.8215C16.3629 24.8287 16.3698 24.8322 16.3801 24.8322C16.3904 24.8322 16.3973 24.8287 16.4041 24.8215C16.411 24.8144 16.4145 24.8073 16.4145 24.7966V22.8161C16.4076 22.7983 16.3973 22.7911 16.3801 22.7911ZM20.0705 22.7911C20.0568 22.7911 20.0465 22.7983 20.0396 22.809C19.885 23.1337 19.7303 23.4513 19.5723 23.7653C19.4177 24.0793 19.263 24.3969 19.105 24.7181L18.1875 22.8125C18.1806 22.7983 18.1738 22.7911 18.16 22.7911C18.1394 22.7911 18.1291 22.8018 18.1291 22.8232C18.1291 22.8339 18.1325 22.8411 18.136 22.8447L19.105 24.8715L20.098 22.8447C20.1015 22.8411 20.1015 22.8375 20.1015 22.8375C20.1015 22.8339 20.1015 22.8304 20.1015 22.8232C20.1015 22.8018 20.0911 22.7911 20.0705 22.7911ZM21.9192 22.8554H22.9844C23.005 22.8554 23.0153 22.8447 23.0153 22.8232C23.0153 22.8018 23.0016 22.7911 22.9741 22.7911H21.8539V24.8322H22.9878C23.0084 24.8322 23.0188 24.8215 23.0188 24.8001C23.0188 24.7787 23.005 24.768 22.981 24.768H21.9158V23.8295H22.1116C22.1322 23.8295 22.1425 23.8188 22.1425 23.7974C22.1425 23.776 22.1288 23.7653 22.1013 23.7653H21.9123C21.9123 23.6083 21.9123 23.4584 21.9123 23.3121C21.9192 23.1622 21.9192 23.0124 21.9192 22.8554ZM26.8054 24.8287H27.795C27.8156 24.8287 27.826 24.818 27.826 24.7966C27.826 24.7751 27.8122 24.7644 27.7882 24.7644H26.9085L27.8191 22.9267L28.7365 24.818C28.7434 24.8287 28.7503 24.8322 28.764 24.8322C28.7846 24.8322 28.795 24.8215 28.795 24.8037V24.7894L27.8156 22.7804L26.8054 24.8287ZM31.5989 23.4834C31.5989 23.5048 31.6126 23.5155 31.6401 23.5155H32.0731V24.7644H31.537C31.4099 24.7644 31.293 24.7395 31.1831 24.6895C31.0731 24.6395 30.9735 24.5717 30.891 24.4825C30.8085 24.3969 30.7433 24.297 30.6917 24.1792C30.6436 24.065 30.6196 23.9401 30.6196 23.8117C30.6196 23.6797 30.6436 23.5548 30.6917 23.4406C30.7398 23.3264 30.8051 23.2229 30.891 23.1373C30.9735 23.0516 31.0731 22.9838 31.1831 22.9303C31.293 22.8803 31.4133 22.8554 31.537 22.8554H31.6126C31.6332 22.8554 31.6435 22.8447 31.6435 22.8232C31.6435 22.8018 31.6298 22.7911 31.6023 22.7911H31.5336C31.3961 22.7911 31.269 22.8161 31.1487 22.8696C31.0285 22.9232 30.9254 22.9945 30.836 23.0873C30.7467 23.1801 30.678 23.2871 30.6264 23.412C30.5749 23.5369 30.5508 23.6689 30.5508 23.8117C30.5508 23.9544 30.5749 24.0864 30.6264 24.2078C30.678 24.3327 30.7467 24.4397 30.836 24.5289C30.9254 24.6217 31.0285 24.6931 31.1487 24.7466C31.269 24.8001 31.3961 24.8251 31.5336 24.8251H32.1349V23.4477H31.6229C31.6057 23.4548 31.5989 23.4656 31.5989 23.4834ZM33.9458 22.8554H35.011C35.0316 22.8554 35.0419 22.8447 35.0419 22.8232C35.0419 22.8018 35.0282 22.7911 35.0007 22.7911H33.877V24.8322H35.011C35.0316 24.8322 35.0419 24.8215 35.0419 24.8001C35.0419 24.7787 35.0282 24.768 35.0041 24.768H33.9389V23.8295H34.1348C34.1554 23.8295 34.1657 23.8188 34.1657 23.7974C34.1657 23.776 34.1519 23.7653 34.1244 23.7653H33.9355C33.9355 23.6083 33.9355 23.4584 33.9355 23.3121C33.9423 23.1622 33.9458 23.0124 33.9458 22.8554ZM38.4025 22.7876C38.3818 22.7876 38.3715 22.8018 38.3715 22.8268V24.6717L36.7703 22.7769V24.8001C36.7703 24.8215 36.7806 24.8322 36.8012 24.8322C36.8218 24.8322 36.8321 24.818 36.8321 24.793V22.9588L38.4334 24.8536V22.8161C38.4334 22.7983 38.4231 22.7876 38.4025 22.7876ZM40.5157 23.1373C40.5982 23.0516 40.6978 22.9838 40.8078 22.9303C40.9177 22.8803 41.038 22.8554 41.1617 22.8554H41.7046C41.7252 22.8554 41.7355 22.8447 41.7355 22.8232C41.7355 22.8018 41.7218 22.7911 41.6977 22.7911H41.1583C41.0243 22.7911 40.8971 22.8161 40.7769 22.8696C40.6566 22.9232 40.5535 22.9945 40.4642 23.0873C40.3748 23.1801 40.3061 23.2871 40.2546 23.412C40.203 23.5369 40.1755 23.6689 40.1755 23.8117C40.1755 23.9544 40.203 24.0864 40.2546 24.2078C40.3061 24.3327 40.3783 24.4397 40.4642 24.5289C40.5535 24.6217 40.6566 24.6931 40.7769 24.7466C40.8971 24.8001 41.0243 24.8251 41.1583 24.8251H41.7115C41.7252 24.818 41.7321 24.8073 41.7321 24.793C41.7321 24.7716 41.7184 24.7609 41.6943 24.7609H41.1548C41.0277 24.7609 40.9109 24.7359 40.8009 24.6859C40.6909 24.636 40.5913 24.5682 40.5088 24.479C40.4264 24.3933 40.3611 24.2934 40.3095 24.1757C40.2614 24.0615 40.2374 23.9366 40.2374 23.8081C40.2374 23.6761 40.2614 23.5512 40.3095 23.437C40.3645 23.3228 40.4332 23.2229 40.5157 23.1373ZM44.9106 22.7911C44.9071 22.7911 44.9037 22.7911 44.9002 22.7911C44.8968 22.7911 44.8934 22.7947 44.8899 22.8018C44.78 22.9624 44.6666 23.123 44.5532 23.28C44.4398 23.437 44.3298 23.594 44.2165 23.7582C44.1306 23.6404 44.055 23.5334 43.9897 23.4441C43.9244 23.3549 43.866 23.2764 43.8179 23.2086C43.7697 23.1408 43.7285 23.0837 43.6942 23.0373C43.6598 22.991 43.6357 22.9517 43.6117 22.9232C43.5636 22.8518 43.5327 22.8125 43.5258 22.8018C43.5189 22.7947 43.512 22.7947 43.5052 22.7947C43.4811 22.7947 43.4708 22.8054 43.4708 22.8268C43.4708 22.8375 43.4742 22.8447 43.4777 22.8482L44.1787 23.826V24.8001C44.1787 24.8215 44.189 24.8322 44.213 24.8322C44.2336 24.8322 44.2405 24.818 44.2405 24.793V23.826L44.9312 22.8518C44.938 22.8447 44.9415 22.8339 44.9415 22.8232C44.9484 22.8018 44.938 22.7911 44.9106 22.7911Z" fill="#818A8A" fill-opacity="0.5"/>
<path d="M38.4851 25L36.8839 23.1052V24.8037C36.8805 24.868 36.8358 24.8929 36.8014 24.8929C36.7499 24.8929 36.719 24.8572 36.719 24.8073V22.6377L38.3202 24.5325V22.8268C38.3202 22.7733 38.3546 22.734 38.4027 22.734C38.4508 22.734 38.4851 22.7697 38.4851 22.8197V25ZM38.4027 22.8411V22.7876V22.8411ZM19.1017 24.9928L18.0846 22.8696C18.0778 22.8554 18.0743 22.8411 18.0743 22.8233C18.0743 22.7697 18.1087 22.7376 18.1568 22.7376C18.1912 22.7376 18.2186 22.759 18.2324 22.7911L19.1052 24.6003C19.2461 24.3113 19.3869 24.0258 19.5278 23.7403C19.6825 23.4263 19.8405 23.1052 19.9917 22.784C20.0089 22.7519 20.0364 22.734 20.0707 22.734C20.1223 22.734 20.1532 22.7697 20.1532 22.8197C20.1532 22.834 20.1532 22.8447 20.1463 22.8589L20.1429 22.8661L19.1017 24.9928ZM3.38817 24.8894C3.33663 24.8894 3.3057 24.8537 3.3057 24.8037V22.7376H4.02729C4.12694 22.7376 4.21972 22.7555 4.30906 22.7947C4.39496 22.834 4.474 22.8875 4.53928 22.9553C4.60457 23.0231 4.65611 23.1016 4.69391 23.1944C4.73171 23.2836 4.74889 23.3835 4.74889 23.487C4.74889 23.5905 4.73171 23.6868 4.69391 23.7796C4.65611 23.8688 4.60457 23.9509 4.53928 24.0187C4.474 24.0865 4.3984 24.14 4.30906 24.1792C4.22316 24.2185 4.12694 24.2363 4.02729 24.2363H4.01355L4.50149 24.7431C4.52897 24.768 4.53241 24.793 4.53241 24.8109C4.53241 24.8644 4.49805 24.8965 4.44994 24.8965C4.42245 24.8965 4.3984 24.8858 4.38466 24.8644L3.77989 24.2399H3.47751V24.8073C3.47407 24.8572 3.43284 24.8894 3.38817 24.8894ZM3.47407 24.0544H4.02729C4.09945 24.0544 4.17161 24.0401 4.24034 24.008C4.30562 23.9794 4.36747 23.9366 4.41558 23.8831C4.46369 23.8295 4.50492 23.7689 4.53241 23.7011C4.5599 23.6333 4.57708 23.5583 4.57708 23.4798C4.57708 23.4013 4.56334 23.33 4.53241 23.2586C4.50492 23.1872 4.46369 23.1266 4.41558 23.0766C4.36747 23.0231 4.30906 22.9838 4.24034 22.9517C4.17505 22.9232 4.10289 22.9053 4.02729 22.9053H3.47407V24.0544ZM44.2201 24.8822C44.1686 24.8822 44.1342 24.8465 44.1342 24.7966V23.8402L43.447 22.8768C43.4332 22.8625 43.4263 22.8411 43.4263 22.8197C43.4263 22.7662 43.4607 22.734 43.5123 22.734C43.5363 22.734 43.5535 22.7412 43.5707 22.759L43.5775 22.7662C43.581 22.7733 43.5982 22.7947 43.66 22.8839C43.6806 22.916 43.7081 22.9553 43.7425 22.9981C43.7768 23.0445 43.8146 23.1016 43.8627 23.1658C43.9108 23.2336 43.9693 23.3121 44.0345 23.4013C44.0895 23.4763 44.1514 23.5619 44.2201 23.6583C44.3198 23.5155 44.4194 23.3764 44.5156 23.2408C44.629 23.0837 44.739 22.9232 44.8524 22.7662L44.8592 22.759C44.8695 22.7483 44.8798 22.7412 44.8902 22.7376C44.897 22.734 44.9073 22.734 44.9176 22.734C44.9795 22.734 45.0104 22.7769 45.0104 22.8197C45.0104 22.8447 45.0035 22.8661 44.9864 22.8803L44.3094 23.8367V24.7859C44.3026 24.8537 44.2613 24.8822 44.2201 24.8822ZM41.7254 24.8822H41.1619C41.021 24.8822 40.887 24.8537 40.7599 24.7966C40.6362 24.7395 40.5262 24.6646 40.4334 24.5682C40.3407 24.4719 40.2651 24.3577 40.2101 24.2292C40.1551 24.1007 40.1276 23.958 40.1276 23.8117C40.1276 23.6618 40.1551 23.5227 40.2101 23.3906C40.2651 23.2622 40.3407 23.148 40.43 23.0481C40.5228 22.9517 40.6327 22.8732 40.7564 22.8161C40.8801 22.759 41.0176 22.7305 41.1585 22.7305H41.7014C41.7632 22.734 41.7873 22.7804 41.7873 22.8161C41.7873 22.8696 41.7529 22.9018 41.7048 22.9018H41.1619C41.0451 22.9018 40.9317 22.9267 40.8286 22.9731C40.7221 23.0195 40.6293 23.0873 40.5537 23.1658C40.4747 23.2479 40.4128 23.3442 40.3682 23.4513C40.3235 23.5583 40.2994 23.6761 40.2994 23.801C40.2994 23.9223 40.3235 24.0401 40.3682 24.1471C40.4128 24.2542 40.4781 24.3505 40.5537 24.4326C40.6327 24.5147 40.7255 24.5789 40.8286 24.6253C40.9317 24.6717 41.0451 24.6967 41.1619 24.6967H41.7048C41.7667 24.7002 41.7907 24.7466 41.7907 24.7823C41.7907 24.8216 41.7701 24.8537 41.7358 24.8644L41.7254 24.8822ZM35.0112 24.8822H33.8257V22.734H35.0009C35.0627 22.734 35.0937 22.7769 35.0937 22.8197C35.0937 22.8732 35.0593 22.9053 35.0112 22.9053H33.9975C33.9975 23.0409 33.9975 23.1765 33.9975 23.305C33.9975 23.4334 33.9975 23.5655 33.9975 23.7046H34.135C34.1968 23.7046 34.2277 23.7475 34.2277 23.7903C34.2277 23.8438 34.1934 23.8759 34.1453 23.8759H34.0009V24.7074H35.0146C35.0662 24.7074 35.104 24.7431 35.104 24.793C35.0937 24.8465 35.0627 24.8822 35.0112 24.8822ZM32.1901 24.8822H31.5372C31.3929 24.8822 31.2589 24.8537 31.1318 24.7966C31.0081 24.7395 30.8981 24.6646 30.8053 24.5682C30.7125 24.4719 30.6369 24.3577 30.5854 24.2292C30.5304 24.1007 30.5029 23.958 30.5029 23.8117C30.5029 23.6618 30.5304 23.5227 30.5854 23.3906C30.6404 23.2622 30.7125 23.1444 30.8053 23.0481C30.8981 22.9517 31.0081 22.8732 31.1318 22.8161C31.2555 22.759 31.3929 22.7305 31.5372 22.7305H31.6059C31.6678 22.7305 31.6987 22.7733 31.6987 22.8161C31.6987 22.8696 31.6644 22.9018 31.6163 22.9018H31.5407C31.4238 22.9018 31.3104 22.9267 31.2073 22.9731C31.1008 23.0195 31.0081 23.0873 30.9325 23.1658C30.8534 23.2479 30.7916 23.3442 30.7469 23.4513C30.7022 23.5583 30.6782 23.6761 30.6782 23.801C30.6782 23.9223 30.7022 24.0401 30.7469 24.1471C30.7916 24.2542 30.8569 24.3505 30.9325 24.4326C31.0115 24.5147 31.1043 24.5789 31.2073 24.6253C31.3104 24.6717 31.4238 24.6967 31.5441 24.6967H32.0286V23.5583H31.6472C31.5853 23.5583 31.5544 23.5155 31.5544 23.4727C31.5544 23.4299 31.5819 23.3942 31.6231 23.3871H31.6334H32.197V24.8822H32.1901ZM31.63 23.4834H31.6472H31.63ZM31.6231 23.4834H31.5956H31.6231ZM28.7677 24.8822C28.723 24.8822 28.7024 24.8572 28.6955 24.843L28.6921 24.8394L27.8193 23.0409L26.9946 24.7074H27.7884C27.8399 24.7074 27.8777 24.7431 27.8777 24.793C27.8777 24.8465 27.8433 24.8787 27.7952 24.8787H26.7197L27.8193 22.6555L28.8501 24.768V24.793C28.8536 24.8501 28.8192 24.8822 28.7677 24.8822ZM22.988 24.8822H21.8026V22.734H22.9777C23.0396 22.734 23.0705 22.7769 23.0705 22.8197C23.0705 22.8732 23.0362 22.9053 22.988 22.9053H21.9744C21.9744 23.0409 21.9744 23.1765 21.9744 23.305C21.9744 23.4334 21.9744 23.5655 21.9744 23.7046H22.1118C22.1737 23.7046 22.2046 23.7475 22.2046 23.7903C22.2046 23.8438 22.1702 23.8759 22.1221 23.8759H21.9778V24.7074H22.9915C23.043 24.7074 23.0808 24.7431 23.0808 24.793C23.0705 24.8465 23.0362 24.8822 22.988 24.8822ZM16.3803 24.8822C16.3459 24.8822 16.3288 24.868 16.3185 24.8537C16.3047 24.8394 16.2978 24.818 16.2978 24.7966V22.8197C16.2978 22.7697 16.3322 22.7376 16.3803 22.7376C16.4215 22.7376 16.4559 22.7662 16.4628 22.809V22.8197V24.8002C16.4628 24.8251 16.4559 24.8465 16.4387 24.8608C16.425 24.8751 16.4044 24.8822 16.3803 24.8822ZM13.8582 24.8822C13.8066 24.8822 13.7757 24.8465 13.7757 24.7966V22.9089H13.0747C13.0369 22.9089 12.9957 22.8803 12.9957 22.8233C12.9957 22.7697 13.0266 22.7376 13.0747 22.7376H14.5901C14.6141 22.7376 14.6347 22.7483 14.6519 22.7662C14.6657 22.784 14.6725 22.8018 14.6725 22.8233C14.6725 22.8768 14.6382 22.9089 14.5901 22.9089H13.9406V24.7894C13.9406 24.8465 13.9063 24.8822 13.8582 24.8822ZM11.2707 24.8822C11.2261 24.8822 11.2054 24.8572 11.1986 24.843L11.1951 24.8394L10.3223 23.0409L9.49767 24.7074H10.2914C10.343 24.7074 10.3808 24.7431 10.3808 24.793C10.3808 24.8465 10.3464 24.8787 10.2983 24.8787H9.22277L10.3223 22.6555L11.3532 24.768V24.793C11.3532 24.8501 11.3188 24.8822 11.2707 24.8822ZM7.56311 24.8822H6.37763V22.734H7.5528C7.61465 22.734 7.64558 22.7769 7.64558 22.8197C7.64558 22.8732 7.61121 22.9053 7.56311 22.9053H6.54944C6.54944 23.0409 6.54944 23.1765 6.54944 23.305C6.54944 23.4334 6.54944 23.5655 6.54944 23.7046H6.68689C6.74874 23.7046 6.77966 23.7475 6.77966 23.7903C6.77966 23.8438 6.7453 23.8759 6.69719 23.8759H6.55288V24.7074H7.56654C7.61809 24.7074 7.65588 24.7431 7.65588 24.793C7.64558 24.8465 7.61121 24.8822 7.56311 24.8822ZM1.61167 24.8822H1.04814C0.907258 24.8822 0.773247 24.8537 0.646109 24.7966C0.522407 24.7395 0.41245 24.6646 0.319674 24.5682C0.226897 24.4719 0.151302 24.3577 0.0963229 24.2292C0.0413443 24.1007 0.013855 23.958 0.013855 23.8117C0.013855 23.6618 0.0413443 23.5227 0.0963229 23.3906C0.151302 23.2622 0.226897 23.148 0.316237 23.0481C0.409014 22.9517 0.518971 22.8732 0.642673 22.8161C0.766375 22.759 0.903821 22.7305 1.0447 22.7305H1.58762C1.64947 22.734 1.67352 22.7804 1.67352 22.8161C1.67352 22.8696 1.63916 22.9018 1.59105 22.9018H1.04814C0.931311 22.9018 0.817917 22.9267 0.714832 22.9731C0.608311 23.0195 0.515535 23.0873 0.439939 23.1658C0.360908 23.2479 0.299057 23.3442 0.254386 23.4513C0.209716 23.5583 0.185663 23.6761 0.185663 23.801C0.185663 23.9223 0.209716 24.0401 0.254386 24.1471C0.299057 24.2542 0.364344 24.3505 0.439939 24.4326C0.518971 24.5147 0.611747 24.5789 0.714832 24.6253C0.817917 24.6717 0.931311 24.6967 1.05158 24.6967H1.59449C1.65634 24.7002 1.68039 24.7466 1.68039 24.7823C1.68039 24.8216 1.65978 24.8537 1.62542 24.8644L1.61167 24.8822Z" fill="#818A8A" fill-opacity="0.5"/>
<path fill-rule="evenodd" clip-rule="evenodd" d="M21.7509 16.9141L31.1694 0H28.7091C27.0151 3.04382 24.06 8.35712 21.7062 12.5928L20.9022 11.1226L27.0838 0H24.6235C23.1494 2.6513 21.3695 5.8557 19.6823 8.89238L18.8748 7.41864C20.2837 4.8851 21.7337 2.27662 22.9982 0.00356837H20.538C19.6239 1.64859 18.6378 3.42207 17.655 5.18841L16.8681 3.74679H12.8135H6.97541C4.9412 3.74679 3.95159 3.85384 3.95159 3.85384C4.96869 2.26235 6.97541 2.28376 6.97541 2.28376H16.0538L14.8236 0.0713674H7.11286C3.6011 0.0713674 0.755956 3.02598 0.755956 6.67285C0.755956 10.3197 3.6011 13.31 7.11286 13.31H11.1675C11.5489 13.3207 11.8548 13.6419 11.8548 14.0415C11.8548 14.4412 11.5489 14.7623 11.1675 14.7731H3.25405L2.0239 16.9854H5.48068C7.886 16.9854 10.3497 16.9854 10.683 16.9854C10.7071 16.9854 10.8033 16.9854 10.8342 16.9854C11.2191 16.9819 14.0195 16.8534 14.0195 13.4528C14.0195 13.4528 15.1878 13.6169 15.1878 15.1299C15.1878 15.1299 15.1878 18.3914 10.8342 18.4128C10.8205 18.4128 10.714 18.4128 10.6968 18.4128C10.2054 18.4128 3.34339 18.4128 1.23358 18.4128L0 20.6252H11.2019C13.9921 20.6073 16.3596 18.7268 17.198 16.1148L19.6892 20.6252L20.9262 18.4128L14.0092 5.95918H15.6345L21.7509 16.9141ZM7.11286 5.95918H11.5524L12.4389 7.55424C12.0403 7.4686 11.6245 7.42578 11.2019 7.42221H7.11286C6.73144 7.41151 6.42563 7.09035 6.42563 6.69069C6.42563 6.29104 6.73144 5.96988 7.11286 5.95918ZM14.3975 11.2047C14.3975 11.2047 13.3323 11.0976 11.4768 11.0976C11.4768 11.0976 8.32239 11.0976 7.62485 11.0976C7.53894 11.0976 7.42899 11.0976 7.41524 11.0976C2.82109 11.0762 3.19563 7.81473 3.19563 7.81473C3.19563 6.30174 4.36393 6.1376 4.36393 6.1376C4.36393 9.51328 6.99259 9.63817 7.4015 9.6346C7.43586 9.6346 7.54925 9.6346 7.65234 9.6346C8.40486 9.6346 11.4734 9.6346 11.4734 9.6346C11.4734 9.6346 13.2567 9.45975 14.3975 11.2047Z" fill="#818A8A" fill-opacity="0.5"/>
<path fill-rule="evenodd" clip-rule="evenodd" d="M33.3032 0.107051L33.262 0L21.6065 20.6252C21.823 20.7108 27.8775 20.6252 27.8775 20.6252L31.1591 14.7195C32.2758 16.7285 33.4304 18.8124 34.444 20.6395H44.9037L33.3032 0.107051ZM32.3892 12.5071L33.2139 11.0263C34.152 12.7141 35.1484 14.5518 36.0728 16.2147H38.5331L33.1864 6.65144L26.6405 18.4271C26.0357 18.4271 25.4894 18.4235 25.0152 18.4235L33.2104 3.68256C33.4647 4.13931 39.7529 15.4832 41.3885 18.4306H35.6742L32.3892 12.5071Z" fill="#818A8A" fill-opacity="0.5"/>
</g>
<defs>
<clipPath id="clip0">
<rect width="45" height="25" fill="white"/>
</clipPath>
</defs>
</svg>
