<svg width="16" height="10" viewBox="0 0 16 10" fill="none" xmlns="http://www.w3.org/2000/svg">
<path d="M15.8572 8.57872C15.8142 8.50672 15.5482 7.92868 14.2681 6.74059C12.928 5.4965 13.108 5.69851 14.7221 3.54735C15.7052 2.23725 16.0982 1.43719 15.9752 1.09517C15.8582 0.769145 15.1352 0.855151 15.1352 0.855151L12.731 0.869152C12.731 0.869152 12.553 0.84515 12.42 0.924156C12.291 1.00216 12.208 1.18218 12.208 1.18218C12.208 1.18218 11.8269 2.19625 11.3189 3.05831C10.2478 4.87745 9.81878 4.97346 9.64377 4.86045C9.23674 4.59743 9.33875 3.80237 9.33875 3.23833C9.33875 1.4752 9.60577 0.740142 8.81771 0.550128C8.55569 0.487124 8.36368 0.445121 7.69463 0.43812C6.83657 0.429119 6.10951 0.44112 5.69848 0.642135C5.42446 0.776145 5.21345 1.07517 5.34246 1.09217C5.50147 1.11317 5.86149 1.18918 6.05251 1.4492C6.29953 1.78422 6.29053 2.53828 6.29053 2.53828C6.29053 2.53828 6.43254 4.61343 5.9595 4.87145C5.63448 5.04846 5.18945 4.68744 4.23438 3.03631C3.74534 2.19125 3.37531 1.25618 3.37531 1.25618C3.37531 1.25618 3.30431 1.08217 3.1773 0.989161C3.02329 0.876153 2.80727 0.84015 2.80727 0.84015L0.521108 0.854151C0.521108 0.854151 0.178084 0.864152 0.0520744 1.01316C-0.0599337 1.14617 0.0430738 1.42019 0.0430738 1.42019C0.0430738 1.42019 1.8332 5.6075 3.85935 7.71866C5.71848 9.6538 7.82864 9.5268 7.82864 9.5268H8.78471C8.78471 9.5268 9.07373 9.49479 9.22074 9.33578C9.35675 9.18977 9.35175 8.91575 9.35175 8.91575C9.35175 8.91575 9.33275 7.63265 9.92879 7.44364C10.5158 7.25763 11.2699 8.68373 12.0689 9.23277C12.673 9.6478 13.132 9.5568 13.132 9.5568L15.2692 9.5268C15.2692 9.5268 16.3873 9.45779 15.8572 8.57872Z" fill="white"/>
</svg>
