<svg width="26" height="26" viewBox="0 0 26 26" fill="none" xmlns="http://www.w3.org/2000/svg">
<path d="M12.9216 18.5751C14.0823 18.5751 15.0265 17.6309 15.0265 16.4701C15.0265 15.3094 14.0823 14.365 12.9216 14.365C11.7608 14.365 10.8164 15.3094 10.8164 16.4701C10.8164 17.6309 11.7608 18.5751 12.9216 18.5751Z" fill="url(#paint0_linear)"/>
<path d="M2.08008 23.92H23.9201V8.89197H2.08008V23.92ZM12.9218 10.6054C15.9394 10.6054 18.4314 12.8963 18.7513 15.8303H20.3215V17.11H18.7513C18.4314 20.0437 15.9392 22.3347 12.9218 22.3347C9.68805 22.3347 7.0572 19.7038 7.0572 16.4701C7.0572 13.2362 9.68805 10.6054 12.9218 10.6054Z" fill="url(#paint1_linear)"/>
<path d="M12.3602 2.08002H2.08008V7.61233H12.3602V2.08002ZM5.5204 5.50185H4.17673V4.22216H5.5204V5.50185ZM6.73627 5.50185V4.22216H10.4682V5.50185H6.73627Z" fill="url(#paint2_linear)"/>
<path d="M12.9218 21.0551C15.4498 21.0551 17.5067 18.9982 17.5067 16.4702C17.5067 13.942 15.4498 11.8853 12.9218 11.8853C10.3937 11.8853 8.33691 13.9421 8.33691 16.4702C8.33691 18.9982 10.3937 21.0551 12.9218 21.0551ZM12.9218 13.0854C14.7882 13.0854 16.3065 14.6038 16.3065 16.4702C16.3065 18.3366 14.7882 19.8549 12.9218 19.8549C11.0554 19.8549 9.53695 18.3366 9.53695 16.4702C9.53695 14.6038 11.0554 13.0854 12.9218 13.0854Z" fill="url(#paint3_linear)"/>
<path d="M23.9198 7.61233V2.08002H13.6396V7.61233H23.9198ZM20.8331 4.22216C21.1916 4.22216 21.4572 4.51542 21.4729 4.862C21.4882 5.20759 21.1676 5.50185 20.8331 5.50185C20.4743 5.50185 20.2087 5.20875 20.1932 4.862C20.1777 4.51642 20.4983 4.22216 20.8331 4.22216ZM18.7001 4.22216C19.0587 4.22216 19.3244 4.51542 19.3399 4.862C19.3554 5.20759 19.0347 5.50185 18.7001 5.50185C18.3413 5.50185 18.0757 5.20875 18.0602 4.862C18.0447 4.51642 18.3653 4.22216 18.7001 4.22216ZM16.5671 4.22216C16.9258 4.22216 17.1914 4.51542 17.2069 4.862C17.2224 5.20759 16.9019 5.50185 16.5671 5.50185C16.2084 5.50185 15.9428 5.20875 15.9273 4.862C15.9118 4.51642 16.2323 4.22216 16.5671 4.22216Z" fill="url(#paint4_linear)"/>
<defs>
<linearGradient id="paint0_linear" x1="10.3889" y1="9.77895" x2="16.5104" y2="10.4784" gradientUnits="userSpaceOnUse">
<stop stop-color="#C79081"/>
<stop offset="1" stop-color="#DFA579"/>
</linearGradient>
<linearGradient id="paint1_linear" x1="-0.137393" y1="-7.47781" x2="31.1688" y2="-2.27914" gradientUnits="userSpaceOnUse">
<stop stop-color="#C79081"/>
<stop offset="1" stop-color="#DFA579"/>
</linearGradient>
<linearGradient id="paint2_linear" x1="1.03631" y1="-3.94626" x2="15.5254" y2="-0.869846" gradientUnits="userSpaceOnUse">
<stop stop-color="#C79081"/>
<stop offset="1" stop-color="#DFA579"/>
</linearGradient>
<linearGradient id="paint3_linear" x1="7.40588" y1="1.89683" x2="20.7385" y2="3.42027" gradientUnits="userSpaceOnUse">
<stop stop-color="#C79081"/>
<stop offset="1" stop-color="#DFA579"/>
</linearGradient>
<linearGradient id="paint4_linear" x1="12.5959" y1="-3.94626" x2="27.0849" y2="-0.869846" gradientUnits="userSpaceOnUse">
<stop stop-color="#C79081"/>
<stop offset="1" stop-color="#DFA579"/>
</linearGradient>
</defs>
</svg>
